<?xml version="1.0" encoding="utf-8"?>
<!-- Generator: Adobe Illustrator 23.0.2, SVG Export Plug-In . SVG Version: 6.00 Build 0)  -->
<svg version="1.1" id="Layer_1" xmlns="http://www.w3.org/2000/svg" xmlns:xlink="http://www.w3.org/1999/xlink" x="0px" y="0px"
	 width="100px" height="100px" viewBox="0 0 100 100" style="enable-background:new 0 0 100 100;" xml:space="preserve">
<style type="text/css">
	.st0{fill:none;stroke:#0F46CA;stroke-width:2;stroke-linecap:round;stroke-linejoin:round;stroke-miterlimit:10;}
</style>
<g>
	<path class="st0" d="M11.7,52.7c0.6,9.3,4.6,17.8,10.7,24.1 M50.6,88.4c11.1-0.2,21.1-5.1,28-12.8 M88.3,46.6
		c-0.8-9.2-4.8-17.4-10.9-23.6 M49.1,11.6c-10.7,0.1-19.9,4.7-26.8,11.9 M30.5,37c3.9-5.8,10.3-9.8,17.7-10.4 M63.3,30.7
		c5.4,3.7,9.1,9.6,10,16.4 M69.7,62.7c-4,6.2-10.9,10.4-18.7,10.7 M35.9,68.7c-4.9-3.7-8.3-9.2-9.1-15.6"/>
	<path class="st0" d="M23.3,77.6c-6.6-6.4-10.9-15.1-11.6-24.8H3.3c-1,0-1.7-1.2-1.1-2l17.1-26.3c0.5-0.8,1.7-0.8,2.2,0l17.1,26.3
		c0.6,0.9-0.1,2-1.1,2H26.7c0.8,6.4,4.1,12,9,15.8"/>
	<path class="st0" d="M78.6,75.7c-6.8,7.6-16.7,12.5-27.6,12.7v8.3c0,1-1.2,1.7-2,1.1L22.6,80.6c-0.8-0.5-0.8-1.7,0-2.2l26.3-17.1
		c0.9-0.6,2,0.1,2,1.1v11c7.9-0.3,14.8-4.5,18.8-10.8"/>
	<path class="st0" d="M76.5,22.2c6.7,6.4,11.1,15.2,11.8,25h8.3c1,0,1.7,1.2,1.1,2L80.6,75.5c-0.5,0.8-1.7,0.8-2.2,0L61.3,49.2
		c-0.6-0.9,0.1-2,1.1-2h10.9c-0.8-6.4-4.1-12-9-15.8"/>
	<path class="st0" d="M51.1,2.2l26.3,17.1c0.8,0.5,0.8,1.7,0,2.2L51.1,38.7c-0.9,0.6-2-0.1-2-1.1V3.3C49.1,2.3,50.2,1.7,51.1,2.2z"
		/>
</g>
</svg>
