<?xml version="1.0" encoding="utf-8"?>
<!-- Generator: Adobe Illustrator 23.0.2, SVG Export Plug-In . SVG Version: 6.00 Build 0)  -->
<svg version="1.1" id="Layer_1" xmlns="http://www.w3.org/2000/svg" xmlns:xlink="http://www.w3.org/1999/xlink" x="0px" y="0px"
	 width="100px" height="100px" viewBox="0 0 100 100" style="enable-background:new 0 0 100 100;" xml:space="preserve">
<style type="text/css">
	.st0{fill:none;stroke:#0F46CA;stroke-width:2;stroke-linecap:round;stroke-linejoin:round;stroke-miterlimit:10;}
</style>
<g>
	<path class="st0" d="M77.3,49.5c0-0.2,0.1-0.4,0.1-0.6V38.5c0-1.5-1.2-2.8-2.8-2.8h-7.2c-0.4,0-0.7-0.2-0.8-0.6
		c-0.5-1.6-1.2-3.2-2-4.8c-0.2-0.3-0.1-0.7,0.1-1l5.1-5.1c0.5-0.5,0.8-1.2,0.8-2c0-0.7-0.3-1.4-0.8-2l-7.3-7.3
		c-0.5-0.5-1.2-0.8-2-0.8c-0.7,0-1.4,0.3-2,0.8l-5.1,5.1c-0.3,0.3-0.7,0.3-1,0.1c-1.5-0.8-3.1-1.5-4.8-2c-0.3-0.1-0.6-0.4-0.6-0.8
		V8.4c0-1.5-1.2-2.8-2.8-2.8H34.1c-1.5,0-2.8,1.2-2.8,2.8v7.2c0,0.4-0.2,0.7-0.6,0.8c-1.6,0.5-3.2,1.2-4.8,2c-0.3,0.2-0.7,0.1-1-0.1
		l-5.1-5.1c-0.5-0.5-1.2-0.8-2-0.8c-0.7,0-1.4,0.3-2,0.8l-7.3,7.3c-0.5,0.5-0.8,1.2-0.8,2c0,0.7,0.3,1.4,0.8,2l5.1,5.1
		c0.3,0.3,0.3,0.7,0.1,1c-0.8,1.5-1.5,3.1-2,4.8c-0.1,0.3-0.4,0.6-0.8,0.6H4c-1.5,0-2.8,1.2-2.8,2.8v10.4c0,1.5,1.2,2.8,2.8,2.8h7.2
		c0.4,0,0.7,0.2,0.8,0.6c0.5,1.6,1.2,3.2,2,4.8c0.2,0.3,0.1,0.7-0.1,1l-5.1,5.1c-0.5,0.5-0.8,1.2-0.8,2c0,0.7,0.3,1.4,0.8,2l7.3,7.3
		c0.5,0.5,1.2,0.8,2,0.8c0.7,0,1.4-0.3,2-0.8l5.1-5.1c0.2-0.2,0.4-0.2,0.6-0.2c0.1,0,0.3,0,0.4,0.1c1.5,0.8,3.1,1.5,4.8,2
		c0.3,0.1,0.6,0.4,0.6,0.8V79c0,1.5,1.2,2.8,2.8,2.8h10.4c1.5,0,2.8-1.2,2.8-2.8v-7.2c0-0.4,0.2-0.7,0.6-0.8c1.6-0.5,3.2-1.2,4.8-2
		c0.3-0.1,0.5-0.1,0.8,0"/>
	<path class="st0" d="M39.3,31.5c-6.7,0-12.2,5.5-12.2,12.2s5.5,12.2,12.2,12.2s12.2-5.5,12.2-12.2S46,31.5,39.3,31.5z"/>
	<circle class="st0" cx="76.5" cy="72.1" r="22.3"/>
	<path class="st0" d="M69.3,63.9v16.4c0,1.4,1.5,2.2,2.7,1.6l14.8-8.2c1.2-0.7,1.2-2.5,0-3.2L72,62.3C70.8,61.6,69.3,62.5,69.3,63.9
		L69.3,63.9z"/>
</g>
</svg>
