<?xml version="1.0" encoding="utf-8"?>
<!-- Generator: Adobe Illustrator 23.0.2, SVG Export Plug-In . SVG Version: 6.00 Build 0)  -->
<svg version="1.1" id="Layer_1" xmlns="http://www.w3.org/2000/svg" xmlns:xlink="http://www.w3.org/1999/xlink" x="0px" y="0px"
	 width="100px" height="100px" viewBox="0 0 100 100" style="enable-background:new 0 0 100 100;" xml:space="preserve">
<style type="text/css">
	.st0{fill:none;stroke:#0F46CA;stroke-width:2;stroke-linecap:round;stroke-linejoin:round;stroke-miterlimit:10;}
	.st1{fill:#0F46CA;}
</style>
<g>
	<path class="st0" d="M98.5,39.9l-2.4,6.6c-0.3,0.8-1.2,1.2-2,0.9l-8.1-3c-0.8,1.3-1.8,2.4-2.9,3.5l4.3,7.5c0,0,0.1,0.1,0.1,0.1
		c0.3,0.7,0,1.5-0.6,1.9l-6.1,3.5c-0.7,0.4-1.7,0.2-2.1-0.6L74.3,53c-1.4,0.4-2.9,0.7-4.5,0.8l-1.5,8.5c-0.1,0.8-0.9,1.4-1.8,1.2
		l-6.9-1.2c-0.8-0.1-1.4-0.9-1.2-1.8l1.5-8.5c-1.4-0.6-2.7-1.4-3.9-2.3l-6.6,5.6c-0.6,0.5-1.6,0.5-2.1-0.2l-4.5-5.4
		c-0.5-0.6-0.5-1.6,0.2-2.1l6.6-5.6c-0.7-1.3-1.2-2.8-1.5-4.3h-8.7c-0.8,0-1.5-0.7-1.5-1.5v-7c0-0.8,0.7-1.5,1.5-1.5H48
		c0.4-1.5,0.9-2.9,1.5-4.3l-6.6-5.6c-0.6-0.5-0.7-1.5-0.2-2.1l4.5-5.4c0.5-0.6,1.5-0.7,2.1-0.2l6.6,5.6c1.2-0.9,2.5-1.7,3.9-2.3
		l-1.5-8.5c-0.1-0.8,0.4-1.6,1.2-1.8L66.6,2c0.7-0.1,1.3,0.2,1.6,0.8c0.1,0.1,0.1,0.3,0.2,0.5l1.5,8.5c1.5,0.1,3,0.4,4.5,0.8L78.7,5
		c0.4-0.7,1.4-1,2.1-0.6L86.8,8c0.7,0.4,1,1.4,0.6,2.1l-4.3,7.5c1.1,1,2.1,2.2,2.9,3.5l8.1-3c0.8-0.3,1.7,0.1,2,0.9l2.4,6.6
		c0.3,0.8-0.1,1.7-0.9,2l-8.1,3c0.1,0.7,0.1,1.5,0.1,2.3c0,0.8,0,1.5-0.1,2.3l8.1,3C98.4,38.3,98.8,39.2,98.5,39.9z"/>
	<path class="st0" d="M18.9,63.8c1.8,0,22.9,0,22.9,0c1.5,0,2.9,0.6,4,1.7c0.3,0.3-2.2-2.2,10.8,10.8c1,1,1.5,2.3,1.4,3.6l0.2-0.2
		l35.3-8.9c4.7-0.6,6.8,5.5,2.9,8L62.8,95.9c-4.5,2.9-10.3,2.8-14.7,0c-2.1-1.3-2.7-1.5-13.7-6.9c-4.7-2.3-8.1-3.1-15-4"/>
	<path class="st0" d="M19.4,63.8c1.1,0,22.3,0,22.3,0c1.5,0,2.9,0.6,4,1.6c0.3,0.3-2.2-2.2,10.8,10.8c1.8,1.8,2,4.9,0.1,6.8
		c-1.9,1.9-4.9,1.9-6.8,0.1l-9-9c-0.5-0.5-1.1-0.8-1.8-0.8c0,0-17.6,0-20.2,0"/>
	<path class="st0" d="M18.9,63.2v26.1c0,0.4,0,0.7-0.1,1.1c0,0,0,0,0,0c-0.5,2.8-2.9,4.9-5.9,4.9H7.4c-3.3,0-6-2.7-6-6V63.2
		c0-2.9,2.1-5.4,4.9-5.9c0.3-0.1,0.7-0.1,1-0.1H13C16.2,57.3,18.9,60,18.9,63.2z"/>
	<path class="st1" d="M82,24.9l-16,16l-0.7,0.7c-0.5,0.5-1.2,0.8-1.9,0.8c-0.7,0-1.4-0.3-1.9-0.8l-7.1-7.1c-0.6-0.6-0.6-1.5,0-2.1
		c0.6-0.6,1.5-0.6,2.1,0l7,7l1.1-1.1l15.5-15.5c0.6-0.6,1.5-0.6,2.1,0C82.6,23.4,82.6,24.3,82,24.9z"/>
	<path class="st0" d="M13.7,85.9c0,1.9-1.6,3.5-3.5,3.5s-3.5-1.6-3.5-3.5s1.6-3.5,3.5-3.5S13.7,84,13.7,85.9z"/>
</g>
</svg>
