<?xml version="1.0" encoding="utf-8"?>
<!-- Generator: Adobe Illustrator 23.0.2, SVG Export Plug-In . SVG Version: 6.00 Build 0)  -->
<svg version="1.1" id="Layer_1" xmlns="http://www.w3.org/2000/svg" xmlns:xlink="http://www.w3.org/1999/xlink" x="0px" y="0px"
	 width="100px" height="100px" viewBox="0 0 100 100" style="enable-background:new 0 0 100 100;" xml:space="preserve">
<style type="text/css">
	.st0{fill:none;stroke:#0F46CA;stroke-width:2;stroke-linecap:round;stroke-linejoin:round;stroke-miterlimit:10;}
</style>
<g>
	<path class="st0" d="M1.5,43L3,83.3h15.8c2.1,0,3.8-1.8,3.7-3.9L21,45.4c-0.1-2.1-2-3.7-4.1-3.5L1.5,43z"/>
	<path class="st0" d="M21,45.8c0,0,7.6,0.3,18-7.1s10.6-7.8,10.6-7.8"/>
	<path class="st0" d="M75.4,63.4c-12.2-15.5-32-40.8-32-40.8c-1.7-2.2-1.3-5.3,1-6.9c2.1-1.5,5.1-1.1,6.7,0.9l40.8,51.9l6.6,16.8
		L84.7,75.2c0,0,0,0-0.1-0.1"/>
	<path class="st0" d="M60.4,28.3c0,0,7.1,0.7,19.8,12.9s14.9,14.4,16.5,18c1.6,3.6-1.7,8.6-6.2,7.3"/>
	<line class="st0" x1="44.5" y1="23.8" x2="52.4" y2="18.1"/>
	<line class="st0" x1="48.4" y1="28.9" x2="56" y2="22.8"/>
	<line class="st0" x1="91.2" y1="79.9" x2="95.2" y2="76.9"/>
	<path class="st0" d="M68.5,54.4c0,0-6.8,2.1-8.7,9.5c0,0,17.9-0.6,20.3-0.4c2.5,0.1,6.1,2,6.7,6.5c0.4,3.3-3,6.5-5.4,6.8
		c-2.5,0.3-23.3,1.3-23.3,1.3s-15.1,8.5-32,3c-3,0.6-4.2,0.7-4.2,0.7"/>
	<line class="st0" x1="84.7" y1="75.2" x2="91.9" y2="68.5"/>
	<line class="st0" x1="52.2" y1="25.8" x2="81.7" y2="63.8"/>
	<path class="st0" d="M58.1,78.1c0,0,1,4.2,6,4c2.7-0.3,5.6-4.6,5.6-4.6s1.8,4.6,6.3,4.3c2.6-0.3,5.6-2,5.8-5.1"/>
</g>
</svg>
