<?xml version="1.0" encoding="utf-8"?>
<!-- Generator: Adobe Illustrator 23.0.2, SVG Export Plug-In . SVG Version: 6.00 Build 0)  -->
<svg version="1.1" id="Layer_1" xmlns="http://www.w3.org/2000/svg" xmlns:xlink="http://www.w3.org/1999/xlink" x="0px" y="0px"
	 width="100px" height="100px" viewBox="0 0 100 100" style="enable-background:new 0 0 100 100;" xml:space="preserve">
<style type="text/css">
	.st0{fill:none;stroke:#0F46CA;stroke-width:2;stroke-linecap:round;stroke-linejoin:round;stroke-miterlimit:10;}
</style>
<g>
	<g>
		<g>
			<polygon class="st0" points="35.9,2.4 35.9,6.3 90.2,6.3 90.2,73.8 95.4,73.8 95.4,2.4 			"/>
			<polygon class="st0" points="25.4,14.3 79.8,14.3 79.8,81.8 85,81.8 85,10.3 25.4,10.3 			"/>
			<polygon class="st0" points="15,22.2 69.4,22.2 69.4,89.7 74.6,89.7 74.6,18.2 15,18.2 			"/>
			<path class="st0" d="M4.6,97.6h59.5V26.2H4.6V97.6z"/>
		</g>
	</g>
	<rect x="13.3" y="37.3" class="st0" width="17" height="17"/>
	<rect x="36.6" y="37.3" class="st0" width="17" height="17"/>
	<rect x="36.6" y="69.5" class="st0" width="17" height="17"/>
	<rect x="13.3" y="69.5" class="st0" width="17" height="17"/>
</g>
</svg>
