<?xml version="1.0" encoding="utf-8"?>
<!-- Generator: Adobe Illustrator 23.0.2, SVG Export Plug-In . SVG Version: 6.00 Build 0)  -->
<svg version="1.1" id="Layer_1" xmlns="http://www.w3.org/2000/svg" xmlns:xlink="http://www.w3.org/1999/xlink" x="0px" y="0px"
	 width="100px" height="100px" viewBox="0 0 100 100" style="enable-background:new 0 0 100 100;" xml:space="preserve">
<style type="text/css">
	.st0{fill:none;stroke:#0F46CA;stroke-width:2;stroke-linecap:round;stroke-linejoin:round;stroke-miterlimit:10;}
</style>
<g>
	<path class="st0" d="M32.1,39.3c-0.8,0-1.6,0-2.5,0.1h-0.1c-15.2,1.4-27.8,15.9-27.8,32c0,18.7,17.4,20.9,30.4,20.9
		c12.9,0,27.9-2,30-17.3C64.3,57,50,39.3,32.1,39.3z"/>
	<path class="st0" d="M48.2,15.4l-4.6,14.1h-23L16,15.4c-0.3-0.7-0.1-1.5,0.3-2.1c0.5-0.6,1.2-1,1.9-1h7.4c0.9-2.7,3.5-4.6,6.6-4.6
		c3,0,5.6,2,6.6,4.6h7.4c0.7,0,1.4,0.4,1.9,1C48.4,13.9,48.5,14.7,48.2,15.4z"/>
	<path class="st0" d="M39,72.1c0,3-1.9,5.5-4.6,6.5v2.1c0,1.3-1,2.3-2.3,2.3c-1.3,0-2.3-1-2.3-2.3v-2c-2.7-1-4.7-3.5-4.7-6.6
		c0-1.3,1.1-2.3,2.3-2.3c1.3,0,2.3,1,2.3,2.3c0,1.3,1.1,2.3,2.3,2.3h0c1.3,0,2.3-1.1,2.3-2.3c0-1.3-1-2.3-2.3-2.3h0
		c-3.8,0-7-3.2-7-7c0-3.1,2-5.6,4.7-6.6v-3.4c0-1.3,1-2.3,2.3-2.3c1.3,0,2.3,1,2.3,2.3v3.4c2.7,1,4.6,3.5,4.6,6.6
		c0,1.3-1,2.3-2.3,2.3c-1.3,0-2.3-1.1-2.3-2.3c0-1.3-1-2.3-2.3-2.3h0c-1.3,0-2.3,1-2.3,2.3c0,1.3,1.1,2.3,2.3,2.3h0
		C36,65.2,39,68.3,39,72.1z"/>
	<path class="st0" d="M48.4,34.6c0,2.6-2.1,4.6-4.6,4.6H20.5c-2.6,0-4.6-2.1-4.6-4.6c0-2.6,2.1-4.6,4.6-4.6h23.2
		C46.3,30,48.4,32.1,48.4,34.6z"/>
	<path class="st0" d="M94.4,62.1H68.6c-2.1,0-3.9-1.7-3.9-3.9v0c0-2.1,1.7-3.9,3.9-3.9h25.7c2.1,0,3.9,1.7,3.9,3.9v0
		C98.2,60.3,96.5,62.1,94.4,62.1z"/>
	<path class="st0" d="M94.4,71.1H68.6c-2.1,0-3.9-1.7-3.9-3.9v0c0-2.1,1.7-3.9,3.9-3.9h25.7c2.1,0,3.9,1.7,3.9,3.9v0
		C98.2,69.4,96.5,71.1,94.4,71.1z"/>
	<path class="st0" d="M94.4,80.1H68.6c-2.1,0-3.9-1.7-3.9-3.9v0c0-2.1,1.7-3.9,3.9-3.9h25.7c2.1,0,3.9,1.7,3.9,3.9v0
		C98.2,78.4,96.5,80.1,94.4,80.1z"/>
	<path class="st0" d="M94.4,89.1H68.6c-2.1,0-3.9-1.7-3.9-3.9v0c0-2.1,1.7-3.9,3.9-3.9h25.7c2.1,0,3.9,1.7,3.9,3.9v0
		C98.2,87.4,96.5,89.1,94.4,89.1z"/>
</g>
</svg>
