<?xml version="1.0" encoding="utf-8"?>
<!-- Generator: Adobe Illustrator 23.0.2, SVG Export Plug-In . SVG Version: 6.00 Build 0)  -->
<svg version="1.1" id="Layer_1" xmlns="http://www.w3.org/2000/svg" xmlns:xlink="http://www.w3.org/1999/xlink" x="0px" y="0px"
	 width="100px" height="100px" viewBox="0 0 100 100" style="enable-background:new 0 0 100 100;" xml:space="preserve">
<style type="text/css">
	.st0{fill:none;stroke:#0F46CA;stroke-width:2;stroke-linecap:round;stroke-linejoin:round;stroke-miterlimit:10;}
</style>
<g>
	<rect x="2.5" y="5" class="st0" width="95" height="90"/>
	<path class="st0" d="M82,83.6c0.9,0,1.5-0.7,1.5-1.5V66.6c0-0.9-0.7-1.5-1.5-1.5H57.3v-4.6H82l0,0c0.9,0,1.5-0.7,1.5-1.5V43.4
		c0-0.9-0.7-1.5-1.5-1.5H57.3v-9.3H65c0.6,0,1.1-0.3,1.4-0.9c0.3-0.5,0.2-1.2-0.2-1.6L50.8,11.5c-0.6-0.7-1.8-0.7-2.4,0L32.9,30.1
		c-0.4,0.5-0.5,1.1-0.2,1.6c0.3,0.5,0.8,0.9,1.4,0.9h7.7v9.3H17.1c-0.9,0-1.5,0.7-1.5,1.5v15.5c0,0.9,0.7,1.5,1.5,1.5h24.7V65H17.1
		c-0.9,0-1.5,0.7-1.5,1.5V82c0,0.9,0.7,1.5,1.5,1.5"/>
	<line class="st0" x1="17.2" y1="83.6" x2="82" y2="83.6"/>
	<line class="st0" x1="97.5" y1="5" x2="2.5" y2="95"/>
</g>
</svg>
