<?xml version="1.0" encoding="utf-8"?>
<!-- Generator: Adobe Illustrator 23.0.2, SVG Export Plug-In . SVG Version: 6.00 Build 0)  -->
<svg version="1.1" id="Layer_1" xmlns="http://www.w3.org/2000/svg" xmlns:xlink="http://www.w3.org/1999/xlink" x="0px" y="0px"
	 width="636px" height="400px" viewBox="0 0 636 400" style="enable-background:new 0 0 636 400;" xml:space="preserve">
<style type="text/css">
	.st0{opacity:0.33;}
	.st1{fill:url(#SVGID_1_);}
	.st2{opacity:0.46;}
	.st3{opacity:0.49;fill:url(#SVGID_2_);}
	.st4{opacity:0.49;}
	.st5{fill:url(#SVGID_3_);}
	.st6{opacity:0.49;fill:url(#SVGID_4_);}
	.st7{opacity:0.49;fill:url(#SVGID_5_);}
	.st8{opacity:0.49;fill:url(#SVGID_6_);}
	.st9{opacity:0.49;fill:url(#SVGID_7_);}
	.st10{opacity:0.49;fill:url(#SVGID_8_);}
	.st11{opacity:0.49;fill:url(#SVGID_9_);}
	.st12{opacity:0.49;fill:url(#SVGID_10_);}
	.st13{opacity:0.49;fill:url(#SVGID_11_);}
	.st14{fill:#3F20BA;}
	.st15{opacity:0.16;fill:#2B0A71;}
	.st16{fill:#70B1E5;}
	.st17{fill:url(#SVGID_12_);}
	.st18{fill:url(#SVGID_13_);}
	.st19{fill:#4F64FF;}
	.st20{fill:url(#SVGID_14_);}
	.st21{fill:url(#SVGID_15_);}
	.st22{fill:url(#SVGID_16_);}
	.st23{fill:url(#SVGID_17_);}
	.st24{fill:url(#SVGID_18_);}
	.st25{fill:url(#SVGID_19_);}
	.st26{fill:url(#SVGID_20_);}
	.st27{fill:#1F28CF;}
	.st28{fill:#FBCD9D;}
	.st29{fill:url(#SVGID_21_);}
	.st30{fill:#74B5E7;}
	.st31{fill:url(#SVGID_22_);}
	.st32{fill:url(#SVGID_23_);}
	.st33{fill:url(#SVGID_24_);}
	.st34{fill:url(#SVGID_25_);}
	.st35{fill:url(#SVGID_26_);}
	.st36{fill:#5168C2;}
	.st37{fill:#133184;}
	.st38{fill:url(#SVGID_27_);}
	.st39{opacity:0.36;fill:#133184;}
	.st40{opacity:0.35;}
	.st41{fill:#3B3C8F;}
	.st42{opacity:0.5;fill:url(#SVGID_28_);}
	.st43{fill:#54376C;}
	.st44{fill:#3B67AE;}
	.st45{opacity:0.82;fill:#5B86C4;}
	.st46{fill:#3A389A;}
	.st47{opacity:0.7;fill:#3A389A;}
	.st48{fill:url(#SVGID_29_);}
	.st49{fill:url(#SVGID_30_);}
	.st50{filter:url(#Adobe_OpacityMaskFilter);}
	.st51{filter:url(#Adobe_OpacityMaskFilter_1_);}
	.st52{mask:url(#SVGID_31_);fill:url(#SVGID_32_);}
	.st53{fill:url(#SVGID_33_);}
	.st54{fill:url(#SVGID_34_);}
	.st55{fill:url(#SVGID_35_);}
	.st56{opacity:0.2;fill:#5B86C4;}
</style>
<g>
	<g class="st0">
		<image style="overflow:visible;" width="604" height="400" xlink:href="98E03185.png" >
		</image>
	</g>
	<g>
		<g>
			<g>
				<linearGradient id="SVGID_1_" gradientUnits="userSpaceOnUse" x1="261.9693" y1="72.7458" x2="118.2485" y2="321.6776">
					<stop  offset="0" style="stop-color:#FFFFFF"/>
					<stop  offset="0.5214" style="stop-color:#FDFEFE"/>
					<stop  offset="0.7235" style="stop-color:#F6F8FC"/>
					<stop  offset="0.8697" style="stop-color:#EAEFF9"/>
					<stop  offset="0.9889" style="stop-color:#D9E3F4"/>
					<stop  offset="1" style="stop-color:#D7E1F3"/>
				</linearGradient>
				<path class="st1" d="M325.276,285.531H57.995c-8.096-1.35-13.412-7.354-13.412-14.76V123.472c0-7.406,5.317-13.41,11.875-13.41
					h267.281c6.558,0,11.875,6.004,11.875,13.41V270.77C335.613,278.176,330.297,284.18,325.276,285.531z"/>
				<g class="st2">
					<g>
						<g>
							<linearGradient id="SVGID_2_" gradientUnits="userSpaceOnUse" x1="97.2926" y1="196.031" x2="99.2165" y2="196.031">
								<stop  offset="0" style="stop-color:#54376C"/>
								<stop  offset="0.0658" style="stop-color:#693775"/>
								<stop  offset="0.2012" style="stop-color:#903686"/>
								<stop  offset="0.3421" style="stop-color:#AF3694"/>
								<stop  offset="0.4878" style="stop-color:#C8359E"/>
								<stop  offset="0.6404" style="stop-color:#D935A6"/>
								<stop  offset="0.8044" style="stop-color:#E435AB"/>
								<stop  offset="1" style="stop-color:#E735AC"/>
							</linearGradient>
							<path class="st3" d="M98.255,273.793c-0.531,0-0.962-0.407-0.962-0.908V119.178c0-0.502,0.431-0.908,0.962-0.908
								c0.531,0,0.962,0.407,0.962,0.908v153.707C99.217,273.386,98.786,273.793,98.255,273.793z"/>
						</g>
						<g class="st4">
							<linearGradient id="SVGID_3_" gradientUnits="userSpaceOnUse" x1="157.194" y1="196.031" x2="159.118" y2="196.031">
								<stop  offset="0" style="stop-color:#54376C"/>
								<stop  offset="0.0658" style="stop-color:#693775"/>
								<stop  offset="0.2012" style="stop-color:#903686"/>
								<stop  offset="0.3421" style="stop-color:#AF3694"/>
								<stop  offset="0.4878" style="stop-color:#C8359E"/>
								<stop  offset="0.6404" style="stop-color:#D935A6"/>
								<stop  offset="0.8044" style="stop-color:#E435AB"/>
								<stop  offset="1" style="stop-color:#E735AC"/>
							</linearGradient>
							<path class="st5" d="M158.156,273.793c-0.531,0-0.962-0.407-0.962-0.908V119.178c0-0.502,0.431-0.908,0.962-0.908
								c0.531,0,0.962,0.407,0.962,0.908v153.707C159.118,273.386,158.687,273.793,158.156,273.793z"/>
						</g>
						<g>
							<linearGradient id="SVGID_4_" gradientUnits="userSpaceOnUse" x1="217.0955" y1="196.031" x2="219.0194" y2="196.031">
								<stop  offset="0" style="stop-color:#54376C"/>
								<stop  offset="0.0658" style="stop-color:#693775"/>
								<stop  offset="0.2012" style="stop-color:#903686"/>
								<stop  offset="0.3421" style="stop-color:#AF3694"/>
								<stop  offset="0.4878" style="stop-color:#C8359E"/>
								<stop  offset="0.6404" style="stop-color:#D935A6"/>
								<stop  offset="0.8044" style="stop-color:#E435AB"/>
								<stop  offset="1" style="stop-color:#E735AC"/>
							</linearGradient>
							<path class="st6" d="M218.057,273.793c-0.531,0-0.962-0.407-0.962-0.908V119.178c0-0.502,0.431-0.908,0.962-0.908
								c0.531,0,0.962,0.407,0.962,0.908v153.707C219.019,273.386,218.589,273.793,218.057,273.793z"/>
						</g>
						<g>
							<linearGradient id="SVGID_5_" gradientUnits="userSpaceOnUse" x1="276.9968" y1="196.031" x2="278.9207" y2="196.031">
								<stop  offset="0" style="stop-color:#54376C"/>
								<stop  offset="0.0658" style="stop-color:#693775"/>
								<stop  offset="0.2012" style="stop-color:#903686"/>
								<stop  offset="0.3421" style="stop-color:#AF3694"/>
								<stop  offset="0.4878" style="stop-color:#C8359E"/>
								<stop  offset="0.6404" style="stop-color:#D935A6"/>
								<stop  offset="0.8044" style="stop-color:#E435AB"/>
								<stop  offset="1" style="stop-color:#E735AC"/>
							</linearGradient>
							<path class="st7" d="M277.959,273.793c-0.531,0-0.962-0.407-0.962-0.908V119.178c0-0.502,0.431-0.908,0.962-0.908
								c0.531,0,0.962,0.407,0.962,0.908v153.707C278.921,273.386,278.49,273.793,277.959,273.793z"/>
						</g>
					</g>
					<g>
						<linearGradient id="SVGID_6_" gradientUnits="userSpaceOnUse" x1="60.0899" y1="137.2025" x2="319.1551" y2="137.2025">
							<stop  offset="0" style="stop-color:#54376C"/>
							<stop  offset="0.0658" style="stop-color:#693775"/>
							<stop  offset="0.2012" style="stop-color:#903686"/>
							<stop  offset="0.3421" style="stop-color:#AF3694"/>
							<stop  offset="0.4878" style="stop-color:#C8359E"/>
							<stop  offset="0.6404" style="stop-color:#D935A6"/>
							<stop  offset="0.8044" style="stop-color:#E435AB"/>
							<stop  offset="1" style="stop-color:#E735AC"/>
						</linearGradient>
						<path class="st8" d="M318.193,138.111H61.052c-0.531,0-0.962-0.407-0.962-0.908c0-0.502,0.431-0.908,0.962-0.908h257.141
							c0.531,0,0.962,0.407,0.962,0.908C319.155,137.704,318.724,138.111,318.193,138.111z"/>
					</g>
					<g>
						<linearGradient id="SVGID_7_" gradientUnits="userSpaceOnUse" x1="60.09" y1="166.0491" x2="319.155" y2="166.0491">
							<stop  offset="0" style="stop-color:#54376C"/>
							<stop  offset="0.0658" style="stop-color:#693775"/>
							<stop  offset="0.2012" style="stop-color:#903686"/>
							<stop  offset="0.3421" style="stop-color:#AF3694"/>
							<stop  offset="0.4878" style="stop-color:#C8359E"/>
							<stop  offset="0.6404" style="stop-color:#D935A6"/>
							<stop  offset="0.8044" style="stop-color:#E435AB"/>
							<stop  offset="1" style="stop-color:#E735AC"/>
						</linearGradient>
						<path class="st9" d="M61.052,168.554c-0.526,0-0.955-0.399-0.962-0.896c-0.007-0.502,0.418-0.914,0.949-0.92l257.141-3.193
							c0.004,0,0.009,0,0.013,0c0.525,0,0.955,0.399,0.961,0.896c0.007,0.502-0.418,0.914-0.949,0.92l-257.141,3.193
							C61.06,168.554,61.056,168.554,61.052,168.554z"/>
					</g>
					<g>
						<linearGradient id="SVGID_8_" gradientUnits="userSpaceOnUse" x1="60.09" y1="196.5988" x2="319.155" y2="196.5988">
							<stop  offset="0" style="stop-color:#54376C"/>
							<stop  offset="0.0658" style="stop-color:#693775"/>
							<stop  offset="0.2012" style="stop-color:#903686"/>
							<stop  offset="0.3421" style="stop-color:#AF3694"/>
							<stop  offset="0.4878" style="stop-color:#C8359E"/>
							<stop  offset="0.6404" style="stop-color:#D935A6"/>
							<stop  offset="0.8044" style="stop-color:#E435AB"/>
							<stop  offset="1" style="stop-color:#E735AC"/>
						</linearGradient>
						<path class="st10" d="M61.052,198.998c-0.526,0-0.955-0.399-0.962-0.897c-0.007-0.502,0.419-0.913,0.95-0.92l257.141-2.98
							c0.004,0,0.008,0,0.012,0c0.526,0,0.955,0.399,0.962,0.897c0.007,0.502-0.419,0.913-0.95,0.92l-257.141,2.98
							C61.06,198.998,61.056,198.998,61.052,198.998z"/>
					</g>
					<g>
						<linearGradient id="SVGID_9_" gradientUnits="userSpaceOnUse" x1="60.0899" y1="227.5742" x2="319.1552" y2="227.5742">
							<stop  offset="0" style="stop-color:#54376C"/>
							<stop  offset="0.0658" style="stop-color:#693775"/>
							<stop  offset="0.2012" style="stop-color:#903686"/>
							<stop  offset="0.3421" style="stop-color:#AF3694"/>
							<stop  offset="0.4878" style="stop-color:#C8359E"/>
							<stop  offset="0.6404" style="stop-color:#D935A6"/>
							<stop  offset="0.8044" style="stop-color:#E435AB"/>
							<stop  offset="1" style="stop-color:#E735AC"/>
						</linearGradient>
						<path class="st11" d="M61.052,229.441c-0.528,0-0.958-0.402-0.962-0.901c-0.004-0.502,0.423-0.912,0.954-0.916l257.141-1.916
							c0.534-0.01,0.965,0.399,0.97,0.901c0.004,0.502-0.423,0.912-0.954,0.916l-257.141,1.916
							C61.057,229.441,61.054,229.441,61.052,229.441z"/>
					</g>
					<g>
						<linearGradient id="SVGID_10_" gradientUnits="userSpaceOnUse" x1="60.0899" y1="258.9755" x2="319.1551" y2="258.9755">
							<stop  offset="0" style="stop-color:#54376C"/>
							<stop  offset="0.0658" style="stop-color:#693775"/>
							<stop  offset="0.2012" style="stop-color:#903686"/>
							<stop  offset="0.3421" style="stop-color:#AF3694"/>
							<stop  offset="0.4878" style="stop-color:#C8359E"/>
							<stop  offset="0.6404" style="stop-color:#D935A6"/>
							<stop  offset="0.8044" style="stop-color:#E435AB"/>
							<stop  offset="1" style="stop-color:#E735AC"/>
						</linearGradient>
						<path class="st12" d="M318.193,259.884H61.052c-0.531,0-0.962-0.407-0.962-0.908c0-0.502,0.431-0.908,0.962-0.908h257.141
							c0.531,0,0.962,0.407,0.962,0.908C319.155,259.477,318.724,259.884,318.193,259.884z"/>
					</g>
				</g>
			</g>
			<g>
				<linearGradient id="SVGID_11_" gradientUnits="userSpaceOnUse" x1="129.1043" y1="325.9412" x2="224.067" y2="161.461">
					<stop  offset="0" style="stop-color:#54376C"/>
					<stop  offset="0.0658" style="stop-color:#693775"/>
					<stop  offset="0.2012" style="stop-color:#903686"/>
					<stop  offset="0.3421" style="stop-color:#AF3694"/>
					<stop  offset="0.4878" style="stop-color:#C8359E"/>
					<stop  offset="0.6404" style="stop-color:#D935A6"/>
					<stop  offset="0.8044" style="stop-color:#E435AB"/>
					<stop  offset="1" style="stop-color:#E735AC"/>
				</linearGradient>
				<path class="st13" d="M58.38,285.109c30.645-6.514,26.019-148.19,46.652-148.19c20.436,0,29.292,143.706,49.805,143.706
					c21.958,0,4.731-119.798,22.69-119.798c18.665,0,10.58,120.666,24.886,120.666c35.79,0,19.816-115.62,41.645-108.348
					c11.216,3.737,14.238,42.85,22.823,70.651c8.123,26.306,22.122,41.478,22.122,41.478L58.38,285.109z"/>
				<g>
					<path class="st14" d="M60.171,287.03c-0.252,0-0.508-0.038-0.76-0.118c-1.252-0.396-1.926-1.676-1.506-2.858l29.243-82.358
						c0.313-0.88,1.164-1.49,2.145-1.537c0.977-0.047,1.894,0.478,2.299,1.324l27.891,58.238l13.566-19.659
						c0.414-0.6,1.105-0.979,1.862-1.021c0.759-0.04,1.491,0.258,1.976,0.808l17.371,19.666l28.381-34.298
						c0.461-0.557,1.169-0.881,1.919-0.867c0.748,0.011,1.448,0.352,1.891,0.921l19.62,25.242l17.155-46.324
						c0.303-0.819,1.078-1.402,1.991-1.498c0.913-0.097,1.805,0.311,2.292,1.047l15.198,22.969l28.839-64.668
						c0.512-1.149,1.913-1.689,3.131-1.204c1.217,0.484,1.788,1.808,1.275,2.957l-30.628,68.678
						c-0.346,0.777-1.122,1.307-2.012,1.374c-0.887,0.069-1.745-0.339-2.218-1.054l-15-22.67l-17.009,45.929
						c-0.293,0.791-1.025,1.364-1.903,1.487c-0.878,0.124-1.755-0.221-2.28-0.897l-20.438-26.294l-28.261,34.153
						c-0.445,0.537-1.123,0.856-1.845,0.867c-0.737,0.009-1.411-0.287-1.874-0.811l-17.195-19.467l-14.182,20.552
						c-0.477,0.691-1.316,1.081-2.185,1.018c-0.871-0.063-1.636-0.569-1.996-1.32l-27.18-56.754L62.437,285.49
						C62.102,286.434,61.17,287.03,60.171,287.03z"/>
				</g>
			</g>
			<g>
				<g>
					<path class="st15" d="M153.192,288.128c5.01-0.144,9.817,0.703,14.234,2.36c3.115,1.169,9.942-1.169,10.956-3.916
						c6.397-17.32,22.851-29.893,42.486-30.456c15.938-0.457,30.236,7.108,39.002,19.025c1.734,2.357,10.693,4.993,13.976,4.138
						c3.951-1.028,8.08-1.631,12.336-1.753c30.335-0.869,55.629,22.945,56.495,53.191c0.87,30.369-13.672,55.201-53.357,56.338
						c-12.191,0.349-23.569-3.288-32.873-9.728c-1.552-1.074-10.117,5.325-13.99,8.779c-7.266,6.48-16.778,10.533-27.284,10.834
						c-19.563,0.56-36.432-12.061-42.037-29.793c-0.86-2.721-9.271-5.369-13.43-4.764c-1.433,0.208-2.893,0.336-4.375,0.379
						c-20.671,0.592-37.906-15.635-38.497-36.245C116.243,305.908,132.521,288.72,153.192,288.128z"/>
					<path class="st16" d="M150.075,290.492c5.01-0.144,9.817,0.703,14.234,2.36c3.115,1.169,9.942-1.169,10.956-3.916
						c6.397-17.32,22.851-29.893,42.486-30.456c15.938-0.457,30.236,7.108,39.002,19.025c1.734,2.357,10.693,4.993,13.976,4.138
						c3.951-1.028,8.08-1.631,12.336-1.753c30.335-0.869,55.629,22.945,56.495,53.191c0.867,30.245-23.022,55.469-53.357,56.338
						c-12.191,0.349-23.569-3.288-32.873-9.728c-1.552-1.074-10.117,5.325-13.99,8.779c-7.266,6.48-16.778,10.533-27.284,10.834
						c-19.563,0.56-36.432-12.061-42.037-29.793c-0.86-2.721-9.271-5.369-13.43-4.764c-1.433,0.208-2.893,0.336-4.375,0.379
						c-20.671,0.592-37.906-15.635-38.497-36.245S129.404,291.084,150.075,290.492z"/>
				</g>
			</g>
			
				<linearGradient id="SVGID_12_" gradientUnits="userSpaceOnUse" x1="1035.4086" y1="8449.1006" x2="1093.6595" y2="8443.2324" gradientTransform="matrix(1.6124 0.6067 -0.521 1.5763 3188.6062 -13863.8828)">
				<stop  offset="3.926894e-07" style="stop-color:#741A53"/>
				<stop  offset="1" style="stop-color:#8F9CFF"/>
			</linearGradient>
			<path class="st17" d="M487.58,61.686c25.362-3.421,15.532,24.461,11.574,33.803l20.277-21.511
				c-4.34-3.595-38.295-32.576-9.785-36.422c26.725-3.605,14.374,27.548,10.994,35.141l14.081-14.938l0.2,0.188
				c0.438-8.471,3.549-42.613,24.992-23.854c21.581,18.879-14.711,24.47-23.3,25.502l-13.725,14.561
				c7.77-3.99,37.491-17.589,35.49,9.023c-2.146,28.55-32.793-3.188-36.875-7.553L501.088,97.28
				c8.649-4.342,36.786-16.561,34.838,9.354c-2.118,28.178-32.002-2.375-36.706-7.372l-21.336,22.635
				c8.649-4.342,36.786-16.561,34.838,9.354c-2.118,28.178-32.002-2.375-36.706-7.372l-32.634,34.62l-1.918-1.808l32.453-34.429
				c-6.509-5.514-36.254-32.112-9.025-35.785c24.282-3.276,16.304,22.145,12.108,32.515l19.985-21.202
				C491.376,93.089,459.776,65.437,487.58,61.686z"/>
			
				<linearGradient id="SVGID_13_" gradientUnits="userSpaceOnUse" x1="964.2016" y1="8583.7158" x2="1014.412" y2="8578.6582" gradientTransform="matrix(0.5528 -1.6316 1.5927 0.4684 -13955.6182 -2314.9873)">
				<stop  offset="3.926894e-07" style="stop-color:#54376C"/>
				<stop  offset="1" style="stop-color:#E735AC"/>
			</linearGradient>
			<path class="st18" d="M229.745,105.929c-3.673-21.751,20.628-14.08,28.789-10.937l-19.111-16.852
				c-2.973,3.842-26.968,33.921-31.097,9.471c-3.87-22.919,23.321-13.17,29.958-10.476l-13.271-11.703l0.157-0.178
				c-7.31-0.135-36.811-1.839-21.264-20.848c15.647-19.131,21.5,11.973,22.635,19.343l12.936,11.408
				c-3.659-6.579-16.224-31.794,6.758-30.832c24.656,1.032-1.809,28.341-5.452,31.983l19.239,16.965
				c-3.988-7.327-15.319-31.216,7.062-30.279c24.335,1.019-1.13,27.637-5.301,31.832l20.11,17.733
				c-3.988-7.327-15.319-31.216,7.062-30.279c24.335,1.019-1.13,27.637-5.301,31.832l30.757,27.123l-1.503,1.704l-30.587-26.973
				c-4.564,5.765-26.626,32.15-30.569,8.798c-3.516-20.824,18.611-14.679,27.664-11.36l-18.836-16.61
				C256.688,101.76,233.771,129.773,229.745,105.929z"/>
			<g>
				<g>
					<path class="st19" d="M451.272,145.446C471.781,109.71,550.083,88.77,636,134.681c0,0-41.126,88.264-98.773,103.622
						s-104.726-25.112-127.024-22.37C410.203,215.933,445.597,155.334,451.272,145.446z"/>
				</g>
				<g>
					<g>
						
							<linearGradient id="SVGID_14_" gradientUnits="userSpaceOnUse" x1="977.6425" y1="590.5699" x2="1100.7755" y2="590.5699" gradientTransform="matrix(0.8285 0.56 -0.56 0.8285 -25.2257 -890.6242)">
							<stop  offset="0" style="stop-color:#EEFFFF"/>
							<stop  offset="0.574" style="stop-color:#CEE1FF"/>
							<stop  offset="1" style="stop-color:#BBCFFF"/>
						</linearGradient>
						<path class="st20" d="M408.275,217.292c-0.466,0-0.913-0.265-1.124-0.715c-0.29-0.62-0.022-1.358,0.598-1.647
							c0.346-0.162,35.06-16.359,76.085-33.11c55.141-22.516,94.785-35.256,117.832-37.864c0.68-0.076,1.294,0.412,1.371,1.092
							c0.077,0.68-0.412,1.294-1.092,1.371c-54.467,6.165-191.765,70.112-193.145,70.757
							C408.63,217.255,408.451,217.292,408.275,217.292z"/>
					</g>
					<g>
						
							<linearGradient id="SVGID_15_" gradientUnits="userSpaceOnUse" x1="1042.7488" y1="561.8282" x2="1109.3444" y2="561.8282" gradientTransform="matrix(0.8285 0.56 -0.56 0.8285 -25.2257 -890.6242)">
							<stop  offset="0" style="stop-color:#EEFFFF"/>
							<stop  offset="0.574" style="stop-color:#CEE1FF"/>
							<stop  offset="1" style="stop-color:#BBCFFF"/>
						</linearGradient>
						<path class="st21" d="M585.21,186.278c-0.264,0-0.529-0.084-0.754-0.256c-0.065-0.049-6.552-4.975-17.917-9.254
							c-10.474-3.943-27.359-8.127-48.317-5.673c-0.682,0.08-1.295-0.407-1.375-1.087c-0.08-0.68,0.407-1.296,1.087-1.375
							c21.501-2.517,38.828,1.794,49.577,5.853c11.678,4.41,18.184,9.362,18.456,9.571c0.542,0.417,0.644,1.195,0.227,1.737
							C585.95,186.112,585.582,186.278,585.21,186.278z"/>
					</g>
					<g>
						
							<linearGradient id="SVGID_16_" gradientUnits="userSpaceOnUse" x1="999.1774" y1="630.9898" x2="1072.9213" y2="630.9898" gradientTransform="matrix(0.8285 0.56 -0.56 0.8285 -25.2257 -890.6242)">
							<stop  offset="0" style="stop-color:#EEFFFF"/>
							<stop  offset="0.574" style="stop-color:#CEE1FF"/>
							<stop  offset="1" style="stop-color:#BBCFFF"/>
						</linearGradient>
						<path class="st22" d="M511.682,230.022c-0.411,0-0.813-0.204-1.049-0.578c-0.077-0.121-4.97-7.71-15.348-15.029
							c-9.592-6.764-25.978-14.681-49.581-13.989c-0.684,0.026-1.255-0.518-1.275-1.202c-0.02-0.684,0.518-1.255,1.202-1.275
							c24.344-0.714,41.271,7.497,51.184,14.513c10.772,7.624,15.709,15.336,15.914,15.66c0.365,0.579,0.193,1.344-0.386,1.71
							C512.137,229.96,511.908,230.022,511.682,230.022z"/>
					</g>
					<g>
						
							<linearGradient id="SVGID_17_" gradientUnits="userSpaceOnUse" x1="1021.3283" y1="596.8234" x2="1095.0723" y2="596.8234" gradientTransform="matrix(0.8285 0.56 -0.56 0.8285 -25.2257 -890.6242)">
							<stop  offset="0" style="stop-color:#EEFFFF"/>
							<stop  offset="0.574" style="stop-color:#CEE1FF"/>
							<stop  offset="1" style="stop-color:#BBCFFF"/>
						</linearGradient>
						<path class="st23" d="M549.167,214.119c-0.411,0-0.813-0.204-1.049-0.577l0,0c-0.048-0.076-4.939-7.688-15.349-15.03
							c-9.592-6.765-25.982-14.684-49.581-13.989c-0.685,0.026-1.255-0.518-1.275-1.202c-0.02-0.684,0.518-1.255,1.202-1.275
							c24.345-0.715,41.271,7.497,51.184,14.513c10.772,7.624,15.709,15.336,15.914,15.66c0.365,0.579,0.193,1.344-0.386,1.71
							C549.623,214.057,549.394,214.119,549.167,214.119z"/>
					</g>
					<g>
						
							<linearGradient id="SVGID_18_" gradientUnits="userSpaceOnUse" x1="1046.0283" y1="542.3178" x2="1055.0122" y2="542.3178" gradientTransform="matrix(0.8285 0.56 -0.56 0.8285 -25.2257 -890.6242)">
							<stop  offset="0" style="stop-color:#EEFFFF"/>
							<stop  offset="0.574" style="stop-color:#CEE1FF"/>
							<stop  offset="1" style="stop-color:#BBCFFF"/>
						</linearGradient>
						<path class="st24" d="M524.475,168.646c-0.397,0-0.786-0.19-1.026-0.542c-0.385-0.566-0.238-1.337,0.328-1.722
							c29.455-20.039,28.535-42.822,28.522-43.05c-0.038-0.683,0.485-1.268,1.169-1.307c0.674-0.038,1.268,0.485,1.307,1.168
							c0.014,0.251,0.303,6.249-3.231,14.862c-3.229,7.869-10.426,19.527-26.371,30.375
							C524.957,168.577,524.715,168.646,524.475,168.646z"/>
					</g>
					<g>
						
							<linearGradient id="SVGID_19_" gradientUnits="userSpaceOnUse" x1="1018.8638" y1="571.9764" x2="1030.155" y2="571.9764" gradientTransform="matrix(0.8285 0.56 -0.56 0.8285 -25.2257 -890.6242)">
							<stop  offset="0" style="stop-color:#EEFFFF"/>
							<stop  offset="0.574" style="stop-color:#CEE1FF"/>
							<stop  offset="1" style="stop-color:#BBCFFF"/>
						</linearGradient>
						<path class="st25" d="M483.414,184.465c-0.446,0-0.877-0.242-1.099-0.665c-0.318-0.606-0.084-1.355,0.523-1.673
							c27.759-14.54,33.904-54.615,33.963-55.018c0.099-0.677,0.728-1.148,1.405-1.047c0.677,0.099,1.146,0.728,1.047,1.405
							c-0.062,0.424-1.574,10.528-6.65,22.643c-4.708,11.236-13.494,26.292-28.615,34.213
							C483.804,184.42,483.608,184.465,483.414,184.465z"/>
					</g>
					<g>
						
							<linearGradient id="SVGID_20_" gradientUnits="userSpaceOnUse" x1="998.2003" y1="603.8088" x2="1009.4917" y2="603.8088" gradientTransform="matrix(0.8285 0.56 -0.56 0.8285 -25.2257 -890.6242)">
							<stop  offset="0" style="stop-color:#EEFFFF"/>
							<stop  offset="0.574" style="stop-color:#CEE1FF"/>
							<stop  offset="1" style="stop-color:#BBCFFF"/>
						</linearGradient>
						<path class="st26" d="M448.468,199.267c-0.446,0-0.877-0.242-1.099-0.665c-0.318-0.606-0.084-1.355,0.523-1.673
							c14.449-7.568,22.905-22.079,27.455-32.918c4.967-11.833,6.493-21.999,6.508-22.1c0.099-0.677,0.728-1.148,1.406-1.047
							c0.677,0.099,1.146,0.728,1.047,1.405c-0.062,0.424-1.574,10.528-6.65,22.643c-4.708,11.236-13.494,26.292-28.615,34.213
							C448.859,199.221,448.662,199.267,448.468,199.267z"/>
					</g>
				</g>
			</g>
			<g>
				<g>
					<path class="st27" d="M404.294,131.222c-15.711-21.51-7.82-73.155,41.321-111.645c0,0,41.262,47.515,35.418,85.522
						c-5.844,38.007-41.77,55.056-45.91,68.913C435.123,174.012,408.641,137.174,404.294,131.222z"/>
				</g>
				<g>
					<g>
						<path class="st28" d="M434.696,175.977c-0.432,0-0.787-0.345-0.797-0.779c-0.023-0.986-2.194-98.99,8.308-132.944
							c0.13-0.421,0.577-0.655,0.998-0.526c0.421,0.13,0.656,0.577,0.526,0.998c-10.426,33.707-8.261,131.451-8.237,132.435
							c0.01,0.44-0.338,0.806-0.779,0.816C434.709,175.977,434.702,175.977,434.696,175.977z"/>
					</g>
					<g>
						<path class="st28" d="M435.875,99.115c-0.077,0-0.155-0.011-0.233-0.035c-0.421-0.129-0.659-0.574-0.53-0.996
							c7.786-25.521,26.428-35.903,26.616-36.004c0.387-0.211,0.871-0.067,1.081,0.32c0.211,0.387,0.068,0.871-0.319,1.082
							c-0.182,0.099-18.265,10.2-25.852,35.068C436.533,98.894,436.217,99.115,435.875,99.115z"/>
					</g>
					<g>
						<path class="st28" d="M434.429,149.502c-0.099,0-0.2-0.019-0.298-0.058c-0.409-0.165-0.606-0.629-0.441-1.038
							c5.859-14.529,15.053-22.333,21.734-26.32c7.261-4.334,13.068-5.207,13.311-5.242c0.435-0.062,0.84,0.24,0.903,0.675
							c0.063,0.436-0.239,0.84-0.675,0.904c-0.057,0.008-5.791,0.88-12.788,5.073c-6.448,3.864-15.326,11.425-21.006,25.507
							C435.044,149.313,434.745,149.502,434.429,149.502z"/>
					</g>
					<g>
						<path class="st28" d="M434.753,123.227c-0.099,0-0.2-0.019-0.298-0.058c-0.409-0.165-0.606-0.629-0.441-1.038
							c5.859-14.529,15.053-22.333,21.734-26.32c7.261-4.334,13.068-5.207,13.312-5.242c0.436-0.062,0.84,0.24,0.903,0.675
							c0.063,0.436-0.239,0.84-0.675,0.904c-0.057,0.008-5.791,0.88-12.789,5.073c-6.448,3.864-15.326,11.425-21.006,25.507
							C435.367,123.038,435.068,123.227,434.753,123.227z"/>
					</g>
					<g>
						<path class="st28" d="M436.08,94.7c-0.377,0-0.712-0.269-0.783-0.653c-4.167-22.575-17.811-28.114-17.948-28.167
							c-0.41-0.159-0.615-0.62-0.456-1.031c0.158-0.411,0.618-0.615,1.029-0.458c0.594,0.228,14.603,5.853,18.944,29.366
							c0.08,0.433-0.206,0.849-0.64,0.929C436.177,94.696,436.128,94.7,436.08,94.7z"/>
					</g>
					<g>
						<path class="st28" d="M434.785,123.059c-0.416,0-0.766-0.322-0.795-0.743c-1.385-20.192-23.354-34.389-23.576-34.53
							c-0.372-0.236-0.481-0.729-0.245-1.101c0.236-0.372,0.729-0.482,1.101-0.245c0.233,0.148,5.78,3.705,11.589,9.891
							c5.387,5.737,11.968,14.883,12.722,25.876c0.03,0.439-0.302,0.82-0.741,0.85C434.822,123.058,434.803,123.059,434.785,123.059
							z"/>
					</g>
					<g>
						<path class="st28" d="M434.47,147.547c-0.416,0-0.766-0.322-0.795-0.743c-1.384-20.176-23.355-34.389-23.576-34.53
							c-0.372-0.237-0.481-0.73-0.245-1.101c0.237-0.371,0.73-0.481,1.101-0.245c0.233,0.148,5.78,3.705,11.589,9.891
							c5.387,5.737,11.968,14.882,12.722,25.876c0.03,0.439-0.302,0.82-0.741,0.85C434.507,147.547,434.488,147.547,434.47,147.547z
							"/>
					</g>
				</g>
			</g>
			<g>
				<g>
					
						<linearGradient id="SVGID_21_" gradientUnits="userSpaceOnUse" x1="-1578.8217" y1="733.5831" x2="-1374.2316" y2="733.5831" gradientTransform="matrix(-0.9536 0.3011 0.3011 0.9536 -1272.9067 -71.6934)">
						<stop  offset="0" style="stop-color:#74B5E7"/>
						<stop  offset="0.0883" style="stop-color:#70ACE3"/>
						<stop  offset="0.4808" style="stop-color:#5F87D1"/>
						<stop  offset="0.7986" style="stop-color:#5570C6"/>
						<stop  offset="1" style="stop-color:#5168C2"/>
					</linearGradient>
					<path class="st29" d="M258.609,214.017c22.402,60.083,84.163,95.023,137.945,78.042
						c53.783-16.982,79.221-79.455,56.819-139.538C430.97,92.438,369.21,57.498,315.428,74.479
						C261.645,91.461,236.206,153.934,258.609,214.017z"/>
					<g>
						<g>
							<g>
								<g>
									<path class="st30" d="M260.273,221.877l15.106-4.77c1.989-0.628,3.004-2.784,2.255-4.79l-8.253-22.135
										c-0.748-2.007-2.988-3.135-4.976-2.507l-15.106,4.77c-1.989,0.628-3.004,2.784-2.255,4.79l8.253,22.135
										C256.045,221.376,258.285,222.505,260.273,221.877z"/>
									<path class="st30" d="M259.139,223.01L259.139,223.01c-2.099,0-4.005-1.328-4.742-3.306l-8.253-22.135
										c-0.462-1.238-0.405-2.557,0.16-3.714c0.548-1.123,1.509-1.949,2.706-2.327l15.106-4.77
										c0.459-0.145,0.938-0.218,1.423-0.218c2.099,0,4.004,1.328,4.742,3.306l8.253,22.135c0.462,1.238,0.405,2.557-0.16,3.714
										c-0.548,1.122-1.509,1.949-2.706,2.327l-15.106,4.77C260.104,222.937,259.625,223.01,259.139,223.01z M265.539,188.461
										c-0.289,0-0.573,0.043-0.845,0.129l-15.106,4.77c-0.69,0.218-1.244,0.693-1.559,1.338c-0.332,0.68-0.362,1.462-0.086,2.202
										l8.253,22.135c0.451,1.211,1.661,2.056,2.943,2.056h0c0.289,0,0.573-0.044,0.845-0.129l15.106-4.77
										c0.69-0.218,1.244-0.693,1.558-1.338c0.332-0.679,0.362-1.461,0.086-2.201l-8.253-22.135
										C268.03,189.306,266.82,188.461,265.539,188.461z"/>
								</g>
								<g>
									
										<linearGradient id="SVGID_22_" gradientUnits="userSpaceOnUse" x1="-746.6971" y1="-1813.1923" x2="-720.0984" y2="-1813.1923" gradientTransform="matrix(-0.401 -0.922 -0.9536 0.3011 -1694.924 -59.8266)">
										<stop  offset="0" style="stop-color:#74B5E7"/>
										<stop  offset="0.0883" style="stop-color:#70ACE3"/>
										<stop  offset="0.4808" style="stop-color:#5F87D1"/>
										<stop  offset="0.7986" style="stop-color:#5570C6"/>
										<stop  offset="1" style="stop-color:#5168C2"/>
									</linearGradient>
									<path class="st31" d="M311.764,65.745l6.583,17.656c0.748,2.007,2.988,3.135,4.976,2.507l19.115-6.035
										c1.989-0.628,3.004-2.784,2.255-4.79l-6.583-17.656c-0.748-2.007-2.988-3.135-4.976-2.507l-19.115,6.035
										C312.03,61.583,311.016,63.738,311.764,65.745z"/>
									
										<linearGradient id="SVGID_23_" gradientUnits="userSpaceOnUse" x1="-1446.9401" y1="618.0732" x2="-1416.3593" y2="618.0732" gradientTransform="matrix(-0.9536 0.3011 0.401 0.922 -1284.8398 -68.3799)">
										<stop  offset="0" style="stop-color:#74B5E7"/>
										<stop  offset="0.0883" style="stop-color:#70ACE3"/>
										<stop  offset="0.4808" style="stop-color:#5F87D1"/>
										<stop  offset="0.7986" style="stop-color:#5570C6"/>
										<stop  offset="1" style="stop-color:#5168C2"/>
									</linearGradient>
									<path class="st32" d="M322.189,87.042L322.189,87.042c-2.099,0-4.005-1.328-4.742-3.306l-6.583-17.656
										c-0.462-1.238-0.405-2.557,0.16-3.714c0.548-1.122,1.509-1.949,2.706-2.327l19.115-6.035
										c0.459-0.145,0.937-0.218,1.423-0.218c2.099,0,4.005,1.328,4.742,3.306l6.583,17.656c0.462,1.238,0.405,2.558-0.16,3.715
										c-0.548,1.122-1.509,1.949-2.706,2.327l-19.115,6.035C323.154,86.969,322.675,87.042,322.189,87.042z M334.268,55.705
										c-0.289,0-0.573,0.044-0.845,0.129l-19.115,6.035c-0.69,0.218-1.244,0.693-1.558,1.338
										c-0.332,0.68-0.362,1.461-0.086,2.202l6.583,17.656c0.452,1.211,1.661,2.056,2.943,2.056h0
										c0.289,0,0.573-0.044,0.845-0.129l19.115-6.035c0.69-0.218,1.244-0.693,1.558-1.338c0.332-0.68,0.362-1.462,0.086-2.202
										l-6.583-17.656C336.759,56.551,335.549,55.705,334.268,55.705z"/>
								</g>
								
									<ellipse transform="matrix(0.8669 -0.4984 0.4984 0.8669 -40.2698 207.6331)" class="st14" cx="368.752" cy="179.24" rx="101.554" ry="116.603"/>
								<g>
									
										<linearGradient id="SVGID_24_" gradientUnits="userSpaceOnUse" x1="-1584.9844" y1="733.5831" x2="-1394.8329" y2="733.5831" gradientTransform="matrix(-0.9536 0.3011 0.3011 0.9536 -1272.9067 -71.6934)">
										<stop  offset="0" style="stop-color:#74B5E7"/>
										<stop  offset="0.0883" style="stop-color:#70ACE3"/>
										<stop  offset="0.4808" style="stop-color:#5F87D1"/>
										<stop  offset="0.7986" style="stop-color:#5570C6"/>
										<stop  offset="1" style="stop-color:#5168C2"/>
									</linearGradient>
									<path class="st33" d="M278.243,207.818c20.821,55.843,78.223,88.317,128.21,72.534
										c49.987-15.783,73.63-73.848,52.809-129.69c-20.821-55.843-78.223-88.317-128.21-72.534S257.421,151.975,278.243,207.818z"
										/>
									
										<linearGradient id="SVGID_25_" gradientUnits="userSpaceOnUse" x1="-1457.2439" y1="842.4202" x2="-1457.2439" y2="624.9562" gradientTransform="matrix(-0.9536 0.3011 0.3511 0.9378 -1278.4738 -70.0367)">
										<stop  offset="0" style="stop-color:#74B5E7"/>
										<stop  offset="0.0883" style="stop-color:#70ACE3"/>
										<stop  offset="0.4808" style="stop-color:#5F87D1"/>
										<stop  offset="0.7986" style="stop-color:#5570C6"/>
										<stop  offset="1" style="stop-color:#5168C2"/>
									</linearGradient>
									<path class="st34" d="M380.367,285.3C380.367,285.3,380.367,285.3,380.367,285.3c-20.981,0-42.676-7.49-61.087-21.091
										c-18.993-14.03-33.495-33.414-41.937-56.056c-10.927-29.305-10.024-60.804,2.478-86.419
										c10.58-21.679,28.672-37.49,50.942-44.522c8.474-2.676,17.348-4.032,26.375-4.032c20.981,0,42.676,7.49,61.087,21.09
										c18.993,14.03,33.494,33.414,41.937,56.056c10.927,29.305,10.024,60.804-2.477,86.419
										c-10.58,21.679-28.672,37.49-50.942,44.522C398.268,283.943,389.393,285.3,380.367,285.3z M357.137,75.1
										c-8.83,0-17.51,1.327-25.797,3.944c-21.763,6.872-39.448,22.332-49.794,43.533c-12.271,25.144-13.148,56.091-2.404,84.906
										c16.662,44.687,58.287,75.897,101.225,75.897c8.83,0,17.51-1.327,25.797-3.944c21.763-6.872,39.447-22.332,49.794-43.533
										c12.271-25.145,13.148-56.092,2.404-84.906C441.7,106.31,400.075,75.1,357.137,75.1z"/>
								</g>
								<g>
									
										<linearGradient id="SVGID_26_" gradientUnits="userSpaceOnUse" x1="-1427.9727" y1="822.8702" x2="-1486.5154" y2="644.5062" gradientTransform="matrix(-0.9536 0.3011 0.3511 0.9378 -1278.4738 -70.0367)">
										<stop  offset="0" style="stop-color:#FFFFFF"/>
										<stop  offset="0.3858" style="stop-color:#FCFDFE"/>
										<stop  offset="0.6453" style="stop-color:#F3F6FB"/>
										<stop  offset="0.8668" style="stop-color:#E4EBF7"/>
										<stop  offset="1" style="stop-color:#D7E1F3"/>
									</linearGradient>
									<path class="st35" d="M289.102,204.389c18.323,49.142,68.837,77.721,112.827,63.831s64.796-64.987,46.473-114.129
										S379.564,76.37,335.575,90.26C291.586,104.149,270.779,155.247,289.102,204.389z"/>
									<path class="st14" d="M378.974,273.371L378.974,273.371c-18.634,0-37.893-6.647-54.231-18.716
										c-16.839-12.439-29.695-29.622-37.179-49.693c-9.692-25.993-8.886-53.941,2.211-76.678
										c9.407-19.276,25.497-33.336,45.306-39.59c7.535-2.379,15.425-3.586,23.45-3.586c18.633,0,37.892,6.647,54.231,18.716
										c16.839,12.439,29.695,29.622,37.178,49.693c9.692,25.993,8.886,53.941-2.211,76.678
										c-9.407,19.276-25.497,33.336-45.306,39.591C394.888,272.165,386.998,273.371,378.974,273.371z M358.531,88.392
										c-7.689,0-15.247,1.155-22.462,3.433c-18.942,5.981-34.335,19.441-43.344,37.9c-10.704,21.932-11.464,48.937-2.085,74.091
										c14.549,39.02,50.873,66.272,88.333,66.273c7.689,0,15.246-1.155,22.462-3.433c18.942-5.981,34.335-19.441,43.344-37.9
										c10.704-21.932,11.464-48.937,2.085-74.091C432.314,115.644,395.991,88.392,358.531,88.392z"/>
								</g>
								
									<ellipse transform="matrix(0.8669 -0.4984 0.4984 0.8669 -40.2698 207.6328)" class="st36" cx="368.752" cy="179.24" rx="7.235" ry="8.308"/>
								<g>
									<g>
										<g>
											<path class="st30" d="M347.35,121.839c1.704-0.538,2.778-1.797,2.4-2.812l-6.925-18.573
												c-0.379-1.015-2.066-1.402-3.77-0.864c-1.704,0.538-2.778,1.797-2.4,2.812l6.925,18.573
												C343.958,121.99,345.646,122.377,347.35,121.839z"/>
										</g>
										<g>
											<path class="st30" d="M398.451,258.891c1.931-0.61,3.189-1.927,2.811-2.942l-6.925-18.573
												c-0.379-1.015-2.25-1.344-4.182-0.734s-3.189,1.927-2.811,2.942l6.925,18.573
												C394.648,259.172,396.519,259.5,398.451,258.891z"/>
										</g>
										<g>
											<path class="st30" d="M376.821,121.405c0.569-0.18,0.999-0.684,1.084-1.37l2.315-18.71
												c0.127-1.023-0.563-2.062-1.539-2.321c-0.977-0.259-1.87,0.36-1.997,1.383l-2.315,18.71
												c-0.127,1.023,0.563,2.062,1.539,2.321C376.23,121.503,376.542,121.493,376.821,121.405z"/>
										</g>
										<g>
											<path class="st30" d="M359.736,259.463c0.569-0.18,0.999-0.684,1.084-1.37l2.315-18.71
												c0.127-1.023-0.562-2.062-1.539-2.321c-0.977-0.259-1.871,0.36-1.997,1.383l-2.315,18.71
												c-0.127,1.023,0.563,2.062,1.539,2.321C359.144,259.561,359.457,259.551,359.736,259.463z"/>
										</g>
										<g>
											<path class="st30" d="M404.318,136.958c0.279-0.088,0.532-0.257,0.729-0.506l10.935-13.833
												c0.598-0.756,0.448-1.965-0.334-2.701c-0.782-0.736-1.901-0.72-2.499,0.037l-10.935,13.833
												c-0.598,0.756-0.448,1.965,0.334,2.701C403.074,136.983,403.749,137.138,404.318,136.958z"/>
										</g>
										<g>
											<path class="st30" d="M323.625,239.03c0.279-0.088,0.532-0.257,0.729-0.506l10.935-13.833
												c0.598-0.756,0.448-1.965-0.334-2.701c-0.782-0.735-1.9-0.72-2.499,0.037l-10.935,13.833
												c-0.598,0.756-0.448,1.965,0.334,2.701C322.38,239.055,323.056,239.21,323.625,239.03z"/>
										</g>
										<g>
											<path class="st30" d="M423.407,166.862l16.626-5.25c0.909-0.287,0.917-2.474,0.018-4.885
												c-0.899-2.411-2.364-4.133-3.273-3.846l-16.626,5.25c-0.909,0.287-0.917,2.474-0.018,4.885
												C421.033,165.428,422.498,167.149,423.407,166.862z"/>
										</g>
										<g>
											<path class="st30" d="M300.555,205.138l16.625-5.249c0.909-0.287,0.993-2.268,0.189-4.425
												c-0.804-2.157-2.193-3.673-3.102-3.386l-16.625,5.249c-0.909,0.287-0.993,2.268-0.189,4.425
												C298.258,203.91,299.647,205.425,300.555,205.138z"/>
										</g>
										<g>
											<path class="st30" d="M444.264,200.939c0.569-0.18,0.999-0.684,1.084-1.37c0.127-1.023-0.563-2.062-1.539-2.321
												l-17.861-4.74c-0.977-0.259-1.87,0.36-1.997,1.383c-0.127,1.023,0.563,2.062,1.539,2.321l17.861,4.74
												C443.672,201.037,443.984,201.027,444.264,200.939z"/>
										</g>
										<g>
											<path class="st30" d="M312.469,165.959c0.569-0.18,0.999-0.684,1.084-1.37c0.127-1.023-0.563-2.062-1.539-2.321
												l-17.861-4.74c-0.978-0.259-1.87,0.36-1.997,1.383c-0.127,1.023,0.563,2.062,1.539,2.321l17.861,4.74
												C311.877,166.057,312.19,166.047,312.469,165.959z"/>
										</g>
										<g>
											<path class="st30" d="M429.392,237.469c0.279-0.088,0.532-0.257,0.729-0.506c0.598-0.756,0.448-1.965-0.334-2.701
												l-14.31-13.46c-0.782-0.736-1.9-0.719-2.499,0.037c-0.598,0.756-0.448,1.965,0.334,2.701l14.31,13.46
												C428.147,237.494,428.823,237.649,429.392,237.469z"/>
										</g>
										<g>
											<path class="st30" d="M323.797,138.147c0.279-0.088,0.532-0.257,0.729-0.506c0.598-0.756,0.448-1.965-0.334-2.701
												l-14.31-13.46c-0.782-0.735-1.9-0.72-2.499,0.037c-0.598,0.756-0.448,1.965,0.334,2.701l14.31,13.46
												C322.552,138.171,323.228,138.326,323.797,138.147z"/>
										</g>
									</g>
									<g>
										<path class="st37" d="M407.43,217.564c0.275-0.087,0.524-0.251,0.72-0.494c0.605-0.749,0.464-1.959-0.313-2.701
											l-37.754-36.062l-18.619-53.066c-0.358-1.021-1.392-1.635-2.309-1.37c-0.902,0.259-1.37,1.307-1.011,2.328l18.975,54.084
											l38.529,36.802C406.175,217.586,406.857,217.745,407.43,217.564z"/>
									</g>
								</g>
							</g>
						</g>
					</g>
					
						<linearGradient id="SVGID_27_" gradientUnits="userSpaceOnUse" x1="-1010.0537" y1="845.3435" x2="-999.2375" y2="845.3435" gradientTransform="matrix(-1.1044 0.4144 0.3504 0.9339 -1152.1406 -165.5864)">
						<stop  offset="0" style="stop-color:#74B5E7"/>
						<stop  offset="0.0883" style="stop-color:#70ACE3"/>
						<stop  offset="0.4808" style="stop-color:#5F87D1"/>
						<stop  offset="0.7986" style="stop-color:#5570C6"/>
						<stop  offset="1" style="stop-color:#5168C2"/>
					</linearGradient>
					<path class="st38" d="M259.571,205.314c3.226,8.597,3.167,16.57-0.132,17.808c-3.299,1.238-8.588-4.728-11.814-13.325
						c-3.226-8.597-3.167-16.57,0.131-17.808C251.056,190.75,256.345,196.716,259.571,205.314z"/>
				</g>
				<path class="st39" d="M448.839,218.143c-7.41,22.935-24.156,41.252-47.686,48.681c-43.013,13.581-92.406-14.363-110.322-62.414
					c-7.922-21.247-8.362-42.866-2.671-61.55L448.839,218.143z"/>
			</g>
		</g>
		<g>
			<g class="st40">
				<path class="st41" d="M164.517,197.456h30.517l5.393,21.5h11.587c0.12,0,0.24,0.013,0.355,0.038
					c1.457,0.316,1.159,1.963-0.355,1.963h-40.71c-0.12,0-0.239-0.013-0.355-0.038c-0.837-0.182-1.093-0.802-0.873-1.298
					L164.517,197.456z"/>
				<linearGradient id="SVGID_28_" gradientUnits="userSpaceOnUse" x1="199.0575" y1="261.2529" x2="302.3335" y2="261.2529">
					<stop  offset="0" style="stop-color:#628FCA"/>
					<stop  offset="0.3874" style="stop-color:#84A1D2"/>
					<stop  offset="0.6129" style="stop-color:#92A8D6"/>
					<stop  offset="0.7739" style="stop-color:#9AADD8"/>
					<stop  offset="1" style="stop-color:#A0B0DA"/>
				</linearGradient>
				<path class="st42" d="M199.35,263.47c-0.881,2.906,0.439,9.124,1.216,11.679c1.594,5.244,4.109,12.248,6.772,19.664
					c4.678,13.028,9.979,27.794,12.236,38.317l0.024,0.111h0.144c0.26,1.221,0.479,2.387,0.651,3.484
					c0.516,3.307,0.784,12.351,0.363,18.016l0,0c-0.042,0.559-0.09,1.085-0.145,1.57c0,0.001,0,0.002,0,0.003
					c-0.013,0.117-0.028,0.228-0.042,0.34c-0.008,0.064-0.016,0.128-0.025,0.19c-0.012,0.091-0.025,0.179-0.038,0.266
					c-0.012,0.079-0.024,0.157-0.036,0.233c-0.012,0.072-0.023,0.143-0.035,0.212c-0.016,0.09-0.032,0.176-0.048,0.261
					c-0.01,0.052-0.02,0.106-0.03,0.156c-0.025,0.123-0.052,0.239-0.079,0.349c-0.002,0.009-0.004,0.019-0.006,0.028
					c-0.63,2.506-4.024,4.064-1.823,5.437c0.248,0.155,0.54,0.218,0.861,0.207c0.161-0.006,0.329-0.03,0.503-0.072
					c0.174-0.041,0.354-0.1,0.538-0.173c0.138-0.055,0.279-0.12,0.421-0.191c0.256-0.127,0.517-0.277,0.78-0.447
					c0.347-0.225,0.696-0.483,1.039-0.763c0.03-0.025,0.06-0.049,0.09-0.073c0.375-0.312,0.742-0.649,1.087-0.997
					c0,0,0.001-0.001,0.001-0.001c0.528-0.533,1.006-1.089,1.391-1.615c0.064-0.088,0.125-0.174,0.184-0.26
					c0.293-0.429,0.515-0.83,0.642-1.171c0.383-1.034,0.352-2.623,0.249-4.289c-0.002-0.027-0.003-0.054-0.005-0.082
					c-0.059-0.946-0.14-1.914-0.179-2.819c-0.01-0.23-0.017-0.455-0.021-0.675c-0.015-0.88,0.03-1.671,0.198-2.283
					c0.029-0.107,0.071-0.217,0.122-0.328c0.26-0.567,0.781-1.188,1.364-1.826c0.545-0.597,1.143-1.208,1.635-1.804
					c0.533-0.646,0.941-1.272,1.012-1.841c0-0.003,0-0.007,0-0.01c0.008-0.07,0.009-0.145,0.005-0.225
					c-0.009-0.74-0.449-1.637-1.023-2.554c-0.461-0.808-0.994-1.614-1.416-2.223c0,0-0.015,0.031-0.036,0.075
					c-0.271-0.399-0.514-0.776-0.702-1.119c0.456-0.812,0.786-1.805,0.822-2.999l0.012-0.409c0.121-4.133,0.285-9.795,1.909-12.791
					c0.475-0.877,1.073-1.747,1.652-2.588c1.533-2.229,2.981-4.335,2.251-6.511c-0.541-1.612-1.512-2.254-2.451-2.875
					c-0.404-0.268-0.823-0.544-1.197-0.896l-0.195-0.184l-0.095,0.183c-0.309-0.319-0.594-0.701-0.833-1.199
					c-0.17-0.355-0.391-1.492-0.651-3.202h0.204l-0.035-0.23c-0.584-3.898-1.367-10.664-2.196-17.828
					c-0.431-3.724-0.879-7.593-1.325-11.296c1.149,0.347,2.364,0.724,3.645,1.121c8.951,2.778,21.21,6.583,32.536,6.583
					c1.068,0,2.124-0.034,3.138-0.101c10.111-0.668,15.084-9.283,15.168-26.298c0.001-0.006,0.005-0.008,0.005-0.014
					c0-0.177-0.002-0.356-0.003-0.533c-0.001-0.736-0.007-1.482-0.026-2.249l-0.003-0.137h-0.01
					c-0.053-1.92-0.151-3.842-0.279-5.731c1.86-0.17,23.786-2.466,23.088-16.118c-0.729-14.256-10.859-18.042-10.859-18.042
					s3.401-7.575-2.107-18.203c-5.51-10.632-16.45-14.015-16.45-14.015s6.321-14.739-10.697-20.055
					c-17.012-5.314-14.365,10.36-14.363,10.37v0c0,2.969,1.309,6.922,3.162,9.187c-0.129,4.718-0.923,11.39-4.357,11.855
					c-5.348,0.725-11.912,4.349-12.641,10.873c-0.223,1.998-1.839,4.858-3.915,8.142l-0.134-0.057
					c-0.807-0.346-2.909-0.218-5.016,0.95l-10.855,7.65c-0.433,0.427,0.114,0.735,0.637,0.422l6.297-2.75
					c0.603-0.361,1.035-0.099,1.871,0.04c0,0,1.641,0.396,2.856,0.51c-3.704,5.911-7.048,12.193-6.083,16.989
					c0.146,0.725,0.337,1.422,0.558,2.097c-0.148-0.058-0.304-0.121-0.476-0.189c-2.035-0.817-5.824-2.336-9.475-2.336
					c-2.823,0-5.058,0.913-6.642,2.713c-2.24,2.545-0.66,11.251,1.883,20.382C202.776,258.436,199.995,261.341,199.35,263.47z
					 M255.073,181.303c0.216,2.827,0.211,5.081,0.234,6.943c-0.003-0.244-0.007-0.515-0.012-0.808
					c-0.005-0.295-0.011-0.613-0.019-0.949C255.242,184.98,255.182,183.112,255.073,181.303z"/>
			</g>
			<g>
				<g>
					<g>
						<polygon class="st43" points="173.923,219.759 204.44,219.759 198.846,197.456 168.329,197.456 						"/>
						<path class="st44" d="M175.117,220.957h40.71c1.514,0,1.812-1.647,0.355-1.963h0c-0.116-0.025-0.235-0.038-0.355-0.038h-40.71
							c-1.514,0-1.812,1.647-0.355,1.963h0C174.877,220.944,174.997,220.957,175.117,220.957z"/>
					</g>
					<g>
						<g>
							<g>
								<path class="st43" d="M254.837,177.61c1.115,1.013,2.457,1.695,3.921,1.916c0.257,3.064,0.336,6.756,0.36,8.726
									c-0.276,2.833-1.894,9.02-9.389,22.1c-10.94,19.089,2.188,17.639,6.564,24.646c3.453,5.529,3.877,15.42,0.081,19.94
									l-21.717-6.167c0,0-9.238-5.316-11.183-14.981c-1.945-9.665,13.614-25.371,14.343-31.895
									c0.729-6.524,7.293-10.148,12.641-10.873C254.291,190.502,254.836,182.247,254.837,177.61z"/>
								<path class="st45" d="M246.554,203.17c4.452-4.233,11.159-16.537,12.098-23.664c0.036,0.006,0.07,0.015,0.106,0.02
									c0.257,3.064,0.336,6.756,0.36,8.726c-0.276,2.833-1.894,9.02-9.389,22.1c-10.94,19.089,2.188,17.639,6.564,24.646
									c3.453,5.529,3.877,15.42,0.081,19.94l-3.05-3.546c-3.616-7.186-12.792-11.308-12.975-15.139
									C240.067,230.365,240.067,209.338,246.554,203.17z"/>
							</g>
							<path class="st28" d="M204.512,275.109c-0.848-2.791-2.062-8.807-1.216-11.598c0.955-3.152,6.572-7.93,9.724-8.94
								c9.392-3.011,31.603,3.866,39.383,2.658c7.779-1.208,8.266-15.223,3.89-22.23c-4.376-7.007-17.503-5.557-6.564-24.646
								c7.496-13.079,9.113-19.267,9.389-22.1c-0.024-1.97-0.013-4.371-0.27-7.435c-1.075,0.198-1.774,0.184-2.627-0.356
								c-2.561-1.622-4.567-6.807-4.567-10.482c0-5.317,3.647-9.628,8.145-9.628c4.499,0,8.145,4.31,8.145,9.628
								c0,1.288-0.216,2.516-0.604,3.638c0.45,2.278,1.359,6.954,1.991,10.661c1.298,3.603,10.476,29.601,12.487,49.753
								c1.656,16.593,5.256,45.583-13.638,46.832c-22.935,1.516-50.541-14.695-50.541-7.93s12.641,22.23,12.641,40.594
								s-1.638,17.088,0.486,22.23c0.702,1.7,3.633,4.701,3.403,6.524c-0.222,1.763-3.661,4.086-4.133,5.799
								c-0.674,2.448,0.639,7.767-0.243,10.148c-0.811,2.188-5.549,6.797-7.536,5.557c-2.201-1.373,1.193-2.931,1.823-5.437
								c1.032-4.102,0.773-17.447,0.122-21.626C221.712,320.753,209.216,290.58,204.512,275.109z"/>
							<g>
								<g>
									<path class="st46" d="M203.296,263.511c0.955-3.152,6.572-7.93,9.724-8.94c9.392-3.011,31.603,3.866,39.383,2.658
										c2.786-0.433,4.636-2.508,5.663-5.316h25.126c0.344,14.067-1.997,28.091-15.012,28.951
										c-22.935,1.516-50.541-14.695-50.541-7.93s12.641,22.23,12.641,40.594c0,14.463-1.016,16.744-0.41,19.572h-6.348
										c-3.554-16.577-14.642-43.623-19.011-57.991C203.663,272.319,202.45,266.302,203.296,263.511z"/>
									<path class="st46" d="M230.085,333.273h-6.702l-0.029-0.136c-2.256-10.52-7.557-25.286-12.235-38.313
										c-2.663-7.416-5.178-14.42-6.772-19.664c-0.778-2.559-2.099-8.785-1.215-11.699c0.956-3.156,6.591-8.014,9.836-9.055
										c1.633-0.524,3.698-0.778,6.311-0.778c5.188,0,11.464,1.003,17.533,1.974c5.141,0.822,9.997,1.598,13.394,1.598
										c0.845,0,1.555-0.046,2.17-0.142c3.176-0.494,4.758-3.103,5.527-5.205l0.042-0.114h25.415l0.004,0.169
										c0.462,18.895-4.501,28.423-15.174,29.128c-1.013,0.067-2.069,0.101-3.139,0.101c-0.001,0-0.002,0-0.003,0
										c-11.331,0-23.591-3.806-32.543-6.585c-5.588-1.735-10.002-3.105-12.527-3.105c-1.942,0-2.166,0.848-2.166,1.486
										c0,2.517,1.779,6.261,4.031,11.003c3.634,7.649,8.61,18.124,8.61,29.591c0,7.563-0.275,11.75-0.456,14.521
										c-0.161,2.456-0.242,3.688,0.043,5.015L230.085,333.273z M223.662,332.928h5.998c-0.244-1.295-0.162-2.54-0.008-4.901
										c0.181-2.766,0.455-6.947,0.455-14.498c0-11.389-4.957-21.824-8.577-29.443c-2.271-4.781-4.065-8.556-4.065-11.151
										c0-1.233,0.822-1.832,2.512-1.832c2.577,0,7.013,1.377,12.63,3.12c8.931,2.772,21.163,6.569,32.441,6.569
										c0.001,0,0.002,0,0.003,0c1.062,0,2.111-0.034,3.117-0.1c10.419-0.689,15.278-10.046,14.855-28.606h-24.837
										c-1.155,3.071-3.143,4.908-5.757,5.314c-0.633,0.098-1.36,0.146-2.223,0.146c-3.425,0-8.294-0.778-13.449-1.603
										c-6.056-0.968-12.318-1.969-17.479-1.969c-2.578,0-4.608,0.249-6.206,0.762c-3.174,1.018-8.68,5.754-9.611,8.826
										c-0.861,2.838,0.447,8.972,1.215,11.498c1.592,5.236,4.106,12.236,6.767,19.647
										C216.105,307.688,221.385,322.394,223.662,332.928z"/>
								</g>
								<path class="st46" d="M223.385,333.13c-2.256-10.522-7.558-25.288-12.236-38.317c-2.663-7.416-5.178-14.42-6.772-19.664
									c-0.777-2.556-2.096-8.773-1.216-11.679c0.954-3.148,6.578-7.995,9.816-9.033c1.63-0.522,3.691-0.777,6.301-0.777
									c5.186,0,11.461,1.003,17.53,1.973c5.142,0.822,9.998,1.598,13.398,1.598h0.001c0.834,0,1.566-0.048,2.174-0.142
									c3.191-0.496,4.781-3.115,5.552-5.225l0.034-0.092h25.362l0.003,0.137c0.462,18.874-4.492,28.391-15.143,29.095
									c-1.014,0.067-2.069,0.101-3.138,0.101c-11.326,0-23.585-3.805-32.536-6.583c-5.591-1.735-10.008-3.106-12.537-3.106
									c-1.5,0-2.198,0.483-2.198,1.519c0,2.524,1.781,6.272,4.035,11.017c3.632,7.646,8.606,18.118,8.606,29.577
									c0,7.562-0.274,11.748-0.456,14.518c-0.161,2.459-0.242,3.693,0.043,5.024l0.036,0.169h-6.637L223.385,333.13z"/>
							</g>
							<path class="st47" d="M205.756,259.784c2.172-2.34,5.231-4.562,7.265-5.214c4.7-1.507,12.61-0.537,20.316,0.656
								c-0.167,3.363-0.518,10.459-0.937,19.112c-8.745-2.714-14.76-4.562-14.76-1.404c0,6.766,12.641,22.23,12.641,40.594
								c0,14-0.952,16.585-0.463,19.302c-0.002,0.092-0.005,0.182-0.007,0.27h-5.954c0.324-5.962,0.979-14.009,0.832-19.572
								C224.482,305.701,209.438,273.121,205.756,259.784z"/>
							<path class="st47" d="M213.02,254.571c9.392-3.011,31.603,3.866,39.383,2.658c2.485-0.386,4.223-2.08,5.299-4.433
								c0.47,6.949-2.218,15.626-19.628,13.154c-28.077-3.987-30.994-3.987-34.276,0.725c-0.257,0.369-0.492,0.706-0.71,1.02
								c-0.136-1.622-0.11-3.131,0.209-4.183C204.252,260.359,209.869,255.581,213.02,254.571z"/>
							<g>
								
									<linearGradient id="SVGID_29_" gradientUnits="userSpaceOnUse" x1="2091.4622" y1="186.5932" x2="2091.4622" y2="254.7156" gradientTransform="matrix(-1 0 0 1 2355.813 0)">
									<stop  offset="0" style="stop-color:#FFFFFF"/>
									<stop  offset="0.1041" style="stop-color:#F6F8FC"/>
									<stop  offset="0.3704" style="stop-color:#E5EBF7"/>
									<stop  offset="0.6575" style="stop-color:#DAE3F4"/>
									<stop  offset="1" style="stop-color:#D7E1F3"/>
								</linearGradient>
								<path class="st48" d="M257.972,251.817c1.41-4.972,0.951-12.607-1.679-16.819c-4.376-7.007-17.503-5.557-6.564-24.646
									c6.978-12.175,8.861-18.378,9.311-21.463c1.106-0.115,2.21-0.249,3.305-0.45c2.632-0.482,5.181-1.336,7.802-1.847
									c2.646,7.64,9.91,29.784,11.671,47.439c0.59,5.917,1.403,13.41,1.403,20.66
									C283.222,255.014,258.583,252.014,257.972,251.817z"/>
								
									<linearGradient id="SVGID_30_" gradientUnits="userSpaceOnUse" x1="2072.4504" y1="220.6441" x2="2110.4888" y2="220.6441" gradientTransform="matrix(-1 0 0 1 2355.813 0)">
									<stop  offset="0" style="stop-color:#FFFFFF"/>
									<stop  offset="0.1041" style="stop-color:#F6F8FC"/>
									<stop  offset="0.3704" style="stop-color:#E5EBF7"/>
									<stop  offset="0.6575" style="stop-color:#DAE3F4"/>
									<stop  offset="1" style="stop-color:#D7E1F3"/>
								</linearGradient>
								<path class="st49" d="M257.929,251.95l-0.129-0.042l0.037-0.13c1.317-4.644,1.056-12.352-1.663-16.707
									c-1.213-1.942-3.133-3.244-4.99-4.503c-4.89-3.315-9.509-6.446-1.577-20.287c6.842-11.939,8.831-18.235,9.294-21.414
									l0.016-0.108l0.109-0.011c0.912-0.095,2.112-0.232,3.294-0.448c1.367-0.25,2.736-0.607,4.059-0.953
									c1.22-0.319,2.482-0.648,3.741-0.893l0.121-0.023l0.04,0.115c2.932,8.466,9.939,30.039,11.678,47.471l0.136,1.356
									c0.565,5.615,1.268,12.604,1.268,19.318c0,0.164-0.188,0.164-0.326,0.164l0,0
									C280.878,254.856,258.526,252.143,257.929,251.95z M281.814,235.402l-0.136-1.356c-1.728-17.324-8.672-38.756-11.624-47.291
									c-1.211,0.241-2.427,0.558-3.603,0.866c-1.329,0.347-2.703,0.706-4.08,0.958c-1.146,0.21-2.304,0.345-3.207,0.44
									c-0.496,3.237-2.524,9.56-9.312,21.404c-7.803,13.616-3.289,16.676,1.491,19.916c1.881,1.275,3.826,2.594,5.071,4.587
									c2.732,4.375,3.023,12.071,1.735,16.786c1.944,0.343,22.831,2.864,24.889,2.864c0.016,0,0.031,0,0.043,0
									C283.073,247.911,282.375,240.979,281.814,235.402z"/>
							</g>
							<defs>
								
									<filter id="Adobe_OpacityMaskFilter" filterUnits="userSpaceOnUse" x="258.908" y="177.913" width="11.487" height="10.968">
									<feFlood  style="flood-color:white;flood-opacity:1" result="back"/>
									<feBlend  in="SourceGraphic" in2="back" mode="normal"/>
								</filter>
							</defs>
							<mask maskUnits="userSpaceOnUse" x="258.908" y="177.913" width="11.487" height="10.968" id="SVGID_31_">
								<g class="st50">
									<defs>
										
											<filter id="Adobe_OpacityMaskFilter_1_" filterUnits="userSpaceOnUse" x="258.908" y="177.913" width="11.487" height="10.968">
											<feFlood  style="flood-color:white;flood-opacity:1" result="back"/>
											<feBlend  in="SourceGraphic" in2="back" mode="normal"/>
										</filter>
									</defs>
									<mask maskUnits="userSpaceOnUse" x="258.908" y="177.913" width="11.487" height="10.968" id="SVGID_31_">
										<g class="st51">
										</g>
									</mask>
									
										<linearGradient id="SVGID_32_" gradientUnits="userSpaceOnUse" x1="2171.9517" y1="177.9126" x2="2171.9517" y2="188.8804" gradientTransform="matrix(-1 0 0 1 2436.6028 0)">
										<stop  offset="0" style="stop-color:#FFFFFF"/>
										<stop  offset="0.2302" style="stop-color:#F0F0F0"/>
										<stop  offset="0.7095" style="stop-color:#D6D6D6"/>
										<stop  offset="0.9946" style="stop-color:#CCCCCC"/>
									</linearGradient>
									<path class="st52" d="M258.908,180.798c0,0,4.437-0.077,7.395-2.885l4.092,8.63c0,0-6.002,1.506-7.476,1.811
										c-1.348,0.279-3.811,0.526-3.811,0.526S259.127,181.396,258.908,180.798L258.908,180.798z"/>
								</g>
							</mask>
							
								<linearGradient id="SVGID_33_" gradientUnits="userSpaceOnUse" x1="2171.9517" y1="177.9126" x2="2171.9517" y2="188.8804" gradientTransform="matrix(-1 0 0 1 2436.6028 0)">
								<stop  offset="0" style="stop-color:#FD9C79"/>
								<stop  offset="0.6074" style="stop-color:#FDB482"/>
								<stop  offset="0.9946" style="stop-color:#FDBE86"/>
							</linearGradient>
							<path class="st53" d="M258.908,180.798c0,0,4.437-0.077,7.395-2.885l4.092,8.63c0,0-6.002,1.506-7.476,1.811
								c-1.348,0.279-3.811,0.526-3.811,0.526S259.127,181.396,258.908,180.798L258.908,180.798z"/>
							<path class="st28" d="M256.86,254.168c0,0-30.331-17.323-32.09-17.8c-1.783-0.483-12.074-5.96-17.179-0.161
								c-5.105,5.799,10.427,45.327,10.427,45.327s9.183,26.84,9.183,31.189s1.027,17.738-0.067,22.087
								c-1.094,4.349,0.594,4.21,0.594,4.21s3.768-1.691,3.89-5.799s0.243-10.148,1.945-13.29c1.702-3.141,4.862-6.041,3.89-8.94
								s-3.363-2.497-4.578-5.034c-1.215-2.537-5.024-44.943-7.131-51.87C225.743,254.087,250.471,264.299,256.86,254.168z"/>
							<path class="st28" d="M276.266,198.825c9.044,4.513,15.072,34.07,8.265,39.386c-6.536,5.104-48.232-20.939-51.677-22.953
								c-0.126-0.074-0.286-0.038-0.37,0.081c0,0-1.274,1.241-1.836,1.434c-0.809,0.277-3.948-0.481-3.948-0.481
								c-0.836-0.138-1.269-0.4-1.871-0.04l-6.297,2.75c-0.523,0.313-1.07,0.005-0.637-0.422l10.855-7.65
								c2.107-1.168,4.209-1.295,5.016-0.95l10.191,4.353l27.891,11.898c0.439,0.179,1.661-0.302,1.033-1.571
								c-2.045-4.131-7.859-16.395-6.584-20.76C268.487,196.409,273.47,197.43,276.266,198.825z"/>
							<g>
								
									<linearGradient id="SVGID_34_" gradientUnits="userSpaceOnUse" x1="2079.1924" y1="197.8423" x2="2079.1924" y2="222.9682" gradientTransform="matrix(-1 0 0 1 2355.813 0)">
									<stop  offset="0" style="stop-color:#FFFFFF"/>
									<stop  offset="0.1041" style="stop-color:#F6F8FC"/>
									<stop  offset="0.3704" style="stop-color:#E5EBF7"/>
									<stop  offset="0.6575" style="stop-color:#DAE3F4"/>
									<stop  offset="1" style="stop-color:#D7E1F3"/>
								</linearGradient>
								<path class="st54" d="M271.811,222.443c-2.486-5.25-6.605-14.801-5.512-18.544c2.188-7.491,7.171-6.47,9.967-5.074
									c5.358,2.674,9.657,14.137,10.856,24.143L271.811,222.443z"/>
								
									<linearGradient id="SVGID_35_" gradientUnits="userSpaceOnUse" x1="2068.5305" y1="210.408" x2="2089.8325" y2="210.408" gradientTransform="matrix(-1 0 0 1 2355.813 0)">
									<stop  offset="0" style="stop-color:#FFFFFF"/>
									<stop  offset="0.1041" style="stop-color:#F6F8FC"/>
									<stop  offset="0.3704" style="stop-color:#E5EBF7"/>
									<stop  offset="0.6575" style="stop-color:#DAE3F4"/>
									<stop  offset="1" style="stop-color:#D7E1F3"/>
								</linearGradient>
								<path class="st55" d="M271.72,222.581l-0.037-0.077c-2.532-5.35-6.617-14.885-5.519-18.643
									c1.487-5.09,4.272-6.158,6.346-6.158c1.504,0,2.908,0.543,3.82,0.998c5.545,2.767,9.771,14.561,10.933,24.252l0.02,0.162
									L271.72,222.581z M266.435,203.939c-1.067,3.651,2.949,13.04,5.467,18.368l15.061,0.516
									c-1.18-9.587-5.333-21.164-10.759-23.872c-0.885-0.442-2.244-0.968-3.693-0.968
									C269.633,197.982,267.589,199.986,266.435,203.939z"/>
							</g>
							<path class="st56" d="M254.25,162.935c1.455-1.601,3.404-2.582,5.549-2.582c4.499,0,8.145,4.31,8.145,9.628
								c0,1.288-0.216,2.516-0.604,3.638c0.45,2.278,1.359,6.954,1.991,10.661c1.298,3.603,10.476,29.601,12.487,49.753
								c1.246,12.491,3.593,32.005-3.382,41.424c0.064-0.337,0.135-0.69,0.222-1.072c1.702-7.491,0.486-21.747,0.243-28.996
								s-9.481-44.702-8.995-49.293c0.486-4.591-10.21-18.122-12.641-22.23C256.029,171.777,254.981,167.063,254.25,162.935z"/>
							<g>
								<path class="st43" d="M251.654,169.98c0,0-2.654-15.686,14.363-10.37s10.697,20.055,10.697,20.055s10.94,3.383,16.45,14.015
									c5.508,10.628,2.107,18.203,2.107,18.203s10.129,3.786,10.859,18.042c0.729,14.256-23.216,16.129-23.216,16.129
									s-8.844-31.607-8.509-40.171c0.486-12.404-6.685-21.143-9.603-25.734c0,0-6.564-8.377-7.05-14.901
									C257.751,165.248,255.037,169.718,251.654,169.98z"/>
								<path class="st45" d="M257.917,166.524c0.759,1.386,4.062,7.104,8.667,10.483c5.267,3.866,21.717,23.116,23.014,40.513
									c0.777,10.421-2.4,20.609-3.088,28.04c-2.159,0.379-3.598,0.492-3.598,0.492s-8.844-31.607-8.509-40.171
									c0.486-12.404-6.685-21.143-9.603-25.734C264.801,180.148,259.054,172.813,257.917,166.524z"/>
							</g>
						</g>
						<g>
							<g>
								<path class="st46" d="M207.591,236.207c5.105-5.799,15.397-0.322,17.179,0.161c1.759,0.477,32.09,17.8,32.09,17.8
									c-6.389,10.131-31.117-0.081-31.117-0.081c1.801,5.92,4.844,37.754,6.45,48.467h-7.416
									c-2.721-9.22-6.758-21.021-6.758-21.021S202.486,242.005,207.591,236.207z"/>
								<path class="st46" d="M232.393,302.727h-7.746l-0.037-0.124c-2.688-9.111-6.715-20.896-6.756-21.014
									c-0.633-1.611-15.509-39.685-10.393-45.497c1.579-1.793,3.806-2.703,6.619-2.703c3.645,0,7.43,1.518,9.463,2.334
									c0.57,0.229,1.02,0.409,1.272,0.477c1.76,0.477,30.891,17.109,32.13,17.817l0.157,0.089l-0.096,0.153
									c-1.909,3.027-5.603,4.562-10.98,4.562c-8.276,0-18.112-3.695-20.02-4.444c1.144,4.235,2.745,18.07,4.161,30.318
									c0.829,7.166,1.612,13.934,2.196,17.833L232.393,302.727z M224.905,302.382h7.087c-0.582-3.933-1.353-10.598-2.168-17.646
									c-1.456-12.585-3.106-26.849-4.246-30.598l-0.106-0.349l0.337,0.139c0.11,0.045,11.123,4.55,20.217,4.549
									c5.159,0,8.72-1.43,10.59-4.249c-2.373-1.354-30.238-17.245-31.891-17.693c-0.271-0.073-0.707-0.248-1.31-0.49
									c-2.012-0.807-5.756-2.309-9.335-2.309c-2.71,0-4.85,0.87-6.36,2.585c-4.977,5.654,10.304,44.755,10.459,45.15
									C218.222,281.595,222.215,293.281,224.905,302.382z"/>
							</g>
						</g>
					</g>
				</g>
				<g>
					<path class="st41" d="M227.134,334.81c0.415-1.651,0.525-4.607,0.501-7.875c0.647-4.063,1.379-8.359,1.813-9.939
						c0.609-2.218,2.937-6.865,4.41-9.694c1.248,1.176,2.843,1.449,3.595,3.689c0.972,2.9-2.188,5.799-3.89,8.94
						c-1.702,3.141-1.823,9.182-1.945,13.29c-0.111,3.77-3.286,5.5-3.809,5.76l-0.561-0.15
						C226.851,338.486,226.453,337.519,227.134,334.81z"/>
					<path class="st41" d="M227.15,339.013l-0.035-0.031c-0.674-0.586-0.733-2.006-0.176-4.22c0.361-1.436,0.523-3.995,0.497-7.858
						c0.842-5.283,1.453-8.634,1.817-9.96c0.622-2.267,3.039-7.071,4.425-9.733l0.123-0.237l0.195,0.184
						c0.374,0.352,0.792,0.629,1.197,0.896c0.939,0.621,1.91,1.263,2.451,2.875c0.73,2.176-0.718,4.282-2.251,6.511
						c-0.579,0.841-1.177,1.712-1.652,2.588c-1.624,2.996-1.788,8.658-1.909,12.791l-0.012,0.409
						c-0.114,3.852-3.286,5.619-3.921,5.933l-0.069,0.034L227.15,339.013z M229.643,317.049c-0.36,1.312-0.969,4.649-1.806,9.884
						c0.029,3.864-0.137,6.457-0.507,7.925c-0.655,2.605-0.287,3.491,0.018,3.791l0.438,0.117c0.727-0.376,3.526-2.049,3.63-5.551
						l0.012-0.409c0.122-4.174,0.288-9.89,1.957-12.97c0.486-0.896,1.09-1.774,1.675-2.625c1.475-2.145,2.868-4.17,2.202-6.157
						c-0.497-1.481-1.369-2.057-2.292-2.668c-0.35-0.232-0.71-0.47-1.052-0.761C232.523,310.312,230.237,314.881,229.643,317.049z"
						/>
				</g>
				<path class="st41" d="M224.566,354.741l0.237-0.51c0,0,2.871-9.843,4.779-12.78c0.554-0.852,2.154-4.182,2.154-4.182
					c0.984,1.42,2.573,3.906,2.434,5.013c-0.222,1.763-3.661,4.086-4.133,5.799c-0.674,2.448,0.639,7.767-0.243,10.148
					c-0.81,2.188-5.549,6.797-7.536,5.557c-2.201-1.373,1.193-2.931,1.823-5.437C224.297,357.495,224.455,356.234,224.566,354.741z"
					/>
			</g>
		</g>
	</g>
</g>
</svg>
