<?xml version="1.0" encoding="utf-8"?>
<!-- Generator: Adobe Illustrator 23.0.2, SVG Export Plug-In . SVG Version: 6.00 Build 0)  -->
<svg version="1.1" id="Layer_1" xmlns="http://www.w3.org/2000/svg" xmlns:xlink="http://www.w3.org/1999/xlink" x="0px" y="0px"
	 width="463.125px" height="437px" viewBox="0 0 463.125 437" style="enable-background:new 0 0 463.125 437;" xml:space="preserve"
	>
<style type="text/css">
	.st0{opacity:0.33;}
	.st1{fill:#B4C7F4;}
	.st2{fill:#95AEDD;}
	.st3{fill:#FFFFFF;}
	.st4{fill:url(#SVGID_1_);}
	.st5{fill:#37639A;}
	.st6{fill:#85A2D2;}
	.st7{fill:#A5BBE9;}
	.st8{fill:#6689BC;}
	.st9{fill:#001738;}
	.st10{fill:url(#SVGID_2_);}
	.st11{fill:url(#SVGID_3_);}
	.st12{fill:url(#SVGID_4_);}
	.st13{fill:url(#SVGID_5_);}
	.st14{fill:#B2DED7;}
	.st15{fill:#4DD2D7;}
	.st16{fill:#030303;}
	.st17{fill:#031727;}
	.st18{fill:#E0935F;}
	.st19{fill:#F2B78B;}
	.st20{fill:#0C3265;}
	.st21{fill:#2E5990;}
	.st22{fill:#00001C;}
	.st23{fill:#14142E;}
	.st24{fill:#C81589;}
	.st25{fill:#741A53;}
	.st26{fill:#4DA78B;}
	.st27{fill:#003A61;}
	.st28{fill:#00527C;}
	.st29{fill:#014F29;}
	.st30{fill:#007796;}
	.st31{fill:#002853;}
	.st32{fill:#6176C7;}
	.st33{fill:#5168C2;}
	.st34{fill:#005D4D;}
</style>
<g>
	<g class="st0">
		<image style="overflow:visible;" width="434" height="437" xlink:href="E616F4DC.png"  transform="matrix(1 0 0 1 18.233 0)">
		</image>
	</g>
	<g>
		<g>
			<g>
				<g>
					<path class="st1" d="M432.042,226.836c5.25-9.951-6.664-16.824-14.362-15.919c-7.359,0.865-15.253,11.014-11.979,19.513
						c5.114,13.274,4.907,13.052-2.709,28.334c-7.944,15.939,2.829,25.298,16.538,25.298c14.579,0,29.199-12.895,16.211-25.944
						C428.887,251.231,423.011,243.953,432.042,226.836z"/>
				</g>
				<g>
					<g>
						<rect x="418.768" y="222.23" class="st2" width="1.523" height="94.662"/>
					</g>
				</g>
				<g>
					<g>
						
							<rect x="417.451" y="269.037" transform="matrix(0.7071 -0.7071 0.7071 0.7071 -66.4323 379.2081)" class="st2" width="14.194" height="1.523"/>
					</g>
				</g>
				<g>
					<g>
						
							<rect x="415.94" y="255.04" transform="matrix(0.7071 -0.7071 0.7071 0.7071 -61.1205 370.5234)" class="st2" width="1.523" height="8.001"/>
					</g>
				</g>
				<g>
					<g>
						
							<rect x="416.592" y="226.479" transform="matrix(0.7071 -0.7071 0.7071 0.7071 -40.0723 362.3765)" class="st2" width="1.523" height="6.154"/>
					</g>
				</g>
				<g>
					<path class="st1" d="M366.542,307.112c-5.156,0.961-5.107-3.18-10.165-4.117c-5.058-0.937-7.526,6.964-11.508,7.622
						s-4.505-7.622-15.603-7.622c-11.098,0-12.947,13.896-12.947,13.896s63.105,0,69.742,0
						C381.381,307.178,371.698,306.151,366.542,307.112z"/>
				</g>
				<g>
					<path class="st1" d="M196.867,303.142c-8.553,0.383-19.542,7.888-27.004-0.013c-7.462-7.901-16.781-2.54-19.079,4.226
						c-2.298,6.766-12.893-3.957-22.084-3.957s-13.404,13.495-13.404,13.495h97.144C212.441,310.673,205.42,302.759,196.867,303.142
						z"/>
				</g>
				<g>
					<g>
						<path class="st1" d="M67.774,213.344c7.013-21.038-10.282-32.314-22.685-20.237c-12.403,12.077-0.66,38.595-9.955,54.566
							c-11.098,19.068-0.816,33.563,18.115,33.563c17.65,0,32.438-8.036,21.543-27.895
							C67.723,240.456,60.761,234.383,67.774,213.344z"/>
					</g>
					<g>
						<g>
							<rect x="53.776" y="202.118" class="st2" width="1.523" height="114.774"/>
						</g>
					</g>
					<g>
						<g>
							
								<rect x="47.599" y="254.118" transform="matrix(0.7071 -0.7071 0.7071 0.7071 -171.5159 111.1071)" class="st2" width="1.523" height="16.946"/>
						</g>
					</g>
					<g>
						<g>
							
								<rect x="52.972" y="252.98" transform="matrix(0.7071 -0.7071 0.7071 0.7071 -162.4967 115.1805)" class="st2" width="9.629" height="1.523"/>
						</g>
					</g>
					<g>
						<g>
							
								<rect x="49.798" y="215.281" transform="matrix(0.7071 -0.7071 0.7071 0.7071 -141.1475 100.3496)" class="st2" width="1.523" height="10.55"/>
						</g>
					</g>
					<g>
						<g>
							
								<rect x="53.566" y="209.804" transform="matrix(0.7071 -0.7071 0.7071 0.7071 -132.2355 101.8996)" class="st2" width="6.629" height="1.523"/>
						</g>
					</g>
				</g>
				<g>
					<g>
						<path class="st1" d="M361.833,243.735c2.774-8.486,4.724-24.405-10.393-24.405c-15.117,0-22.637,14.801-14.15,34.292
							c2.902,6.664-6.528,10.499-6.528,25.221c0,10.01,7.268,16.05,16.777,16.05c16.337,0,23.044-10.118,23.044-19.776
							C370.583,261.601,357.826,255.992,361.833,243.735z"/>
					</g>
					<g>
						<g>
							<rect x="348.932" y="231.462" class="st2" width="1.523" height="85.43"/>
						</g>
					</g>
					<g>
						<g>
							
								<rect x="347.563" y="275.79" transform="matrix(0.7071 -0.7071 0.7071 0.7071 -91.6223 331.9069)" class="st2" width="14.551" height="1.523"/>
						</g>
					</g>
					<g>
						<g>
							
								<rect x="346.008" y="263.734" transform="matrix(0.7071 -0.7071 0.7071 0.7071 -87.8458 323.6605)" class="st2" width="1.523" height="8.271"/>
						</g>
					</g>
					<g>
						<g>
							
								<rect x="345.274" y="235.903" transform="matrix(0.7071 -0.7071 0.7071 0.7071 -69.1159 315.292)" class="st2" width="1.523" height="10.348"/>
						</g>
					</g>
				</g>
				<g>
					<rect y="315.549" class="st2" width="463.125" height="1.343"/>
				</g>
				<g>
					<path class="st3" d="M389.674,110.457c-10.967-0.573-13.797,2.784-27.703,1.312c-13.906-1.472-25.248,1.811-35.011,3.586
						c-9.763,1.776,1.658,4.58,18.908,3.537c17.25-1.043,35.757-1.16,50.528,0.564C424.859,122.777,413.227,111.687,389.674,110.457
						z"/>
				</g>
				<g>
					<linearGradient id="SVGID_1_" gradientUnits="userSpaceOnUse" x1="38.5384" y1="200.9445" x2="424.5862" y2="200.9445">
						<stop  offset="0" style="stop-color:#5861D6"/>
						<stop  offset="0.9997" style="stop-color:#00E9FF"/>
					</linearGradient>
					<polygon class="st4" points="369.871,70.481 188.773,324.56 117.919,274.057 38.538,385.428 70.961,385.428 124.095,310.882 
						194.949,361.384 391.371,85.806 418.786,105.346 424.586,16.461 342.456,50.941 					"/>
				</g>
				<g>
					<path class="st3" d="M280.864,28.507c-32.753-2.984-49.315-12.046-65.592-12.046c-29.703,0-42.754,20.811-15.527,20.811
						c36.696,0,42.962,0.443,65.449,1.859C287.681,40.547,289.124,29.26,280.864,28.507z"/>
				</g>
				<g>
					<path class="st3" d="M171.942,98.841c-17.843-2.394-45.312-10.879-71.591-8.922c-81.819,6.093-72.026,24.154-40.474,19.802
						c31.552-4.352,44.391-7.181,89.217-5.005C193.919,106.893,189.785,101.235,171.942,98.841z"/>
				</g>
			</g>
			<g>
				<g>
					<g>
						<rect x="31.766" y="385.428" class="st5" width="383.709" height="1.343"/>
					</g>
				</g>
				<g>
					<g>
						<g>
							<path class="st6" d="M167.862,337.781c-0.062,0.18-0.123,0.36-0.185,0.541c21.033,7.276,39.288,21.1,52.009,39.56
								c0.134-0.092,0.267-0.184,0.401-0.276C207.327,359.037,188.996,345.121,167.862,337.781z"/>
							<path class="st6" d="M158.895,335.407c-0.379,1.779,5.026,4.402,9.434,2.84C165.822,334.108,159.296,333.559,158.895,335.407
								z"/>
							<path class="st6" d="M164.805,345.33c1.115,1.44,6.807-0.85,8.06-5.364C167.692,339.091,163.613,343.836,164.805,345.33z"/>
							<path class="st6" d="M170.895,349.179c1.18,1.765,8.08-0.397,9.992-5.558C174.805,342.036,169.611,347.33,170.895,349.179z"
								/>
							<path class="st6" d="M202.892,372.556c0.527,2.351,8.702,3.781,12.871-0.401C209.99,367.192,202.278,370.038,202.892,372.556
								z"/>
							<path class="st6" d="M177.511,354.182c1.203,2.154,9.548,0.376,12.381-5.418
								C182.803,346.112,176.169,351.894,177.511,354.182z"/>
							<path class="st6" d="M193.986,366.078c0.827,2.514,10.06,2.858,14.306-2.395C201.3,358.945,193.027,363.369,193.986,366.078z
								"/>
							<path class="st6" d="M184.639,359.972c1.119,2.503,10.693,1.537,14.545-4.536
								C191.423,351.475,183.354,357.278,184.639,359.972z"/>
							<path class="st6" d="M169.816,330.455c-2.063,0.455-1.169,6.629,3.049,9.511
								C175.263,335.866,171.959,330.044,169.816,330.455z"/>
							<path class="st6" d="M178.024,332.079c-2.511,0.342-1.879,7.717,2.862,11.542
								C184.123,339.061,180.648,331.805,178.024,332.079z"/>
							<path class="st6" d="M217.471,358.758c-2.835-0.97-5.112,6.914-1.708,13.397
								C221.097,369.288,220.408,359.882,217.471,358.758z"/>
							<path class="st6" d="M187.563,334.772c-3.054,0.12-2.892,8.903,2.328,13.992
								C194.245,343.827,190.768,334.766,187.563,334.772z"/>
							<path class="st6" d="M208.711,348.373c-3.301-0.675-4.889,8.561-0.419,15.31C213.983,359.732,212.162,349.22,208.711,348.373
								z"/>
							<path class="st6" d="M197.943,339.374c-3.506-0.247-4.106,9.657,1.24,16.062C204.673,350.52,201.632,339.788,197.943,339.374
								z"/>
						</g>
						<g>
							<g>
								<g>
									<path class="st7" d="M233.352,379.585c0.183,0.102,0.366,0.203,0.55,0.304c10.01-18.055,25.266-32.519,43.614-41.564
										c-0.107-0.22-0.214-0.439-0.321-0.659C258.734,346.806,243.398,361.393,233.352,379.585z"/>
								</g>
								<g>
									<path class="st7" d="M276.976,337.894c-0.05,0.122-0.1,0.243-0.15,0.365c0.126,0.033,0.252,0.067,0.378,0.1
										c3.779,0.988,9.738-4.068,10.099-4.259c0.286-0.23,0.574-0.459,0.864-0.687c-0.369,0.007-0.738,0.016-1.107,0.027
										C286.745,333.337,278.527,334.02,276.976,337.894z"/>
								</g>
							</g>
							<g>
								<path class="st7" d="M237.733,372.961c-0.077,0.117-0.154,0.233-0.23,0.35c0.089,0.059,0.178,0.118,0.267,0.177
									c6.647,3.963,17.02-0.077,17.5,0.064c0.256-0.079,0.512-0.156,0.768-0.232c-0.217-0.129-0.435-0.258-0.652-0.386
									C254.988,372.578,242.639,365.613,237.733,372.961z"/>
								<path class="st7" d="M245.51,362.677c-0.091,0.105-0.181,0.21-0.271,0.316c0.083,0.072,0.167,0.145,0.25,0.218
									c5.493,4.421,15.086,2.024,15.499,2.163c0.267-0.05,0.535-0.098,0.802-0.144c-0.206-0.158-0.413-0.315-0.62-0.473
									C260.838,364.4,250.555,356.868,245.51,362.677z"/>
								<path class="st7" d="M254.074,353.878c-0.102,0.093-0.204,0.186-0.306,0.28c0.076,0.085,0.152,0.17,0.228,0.254
									c4.342,4.541,12.914,3.446,13.265,3.577c0.276-0.021,0.553-0.041,0.829-0.059c-0.193-0.184-0.386-0.368-0.58-0.551
									C267.239,357.037,258.971,349.451,254.074,353.878z"/>
								<path class="st7" d="M263.18,346.509c-0.112,0.081-0.224,0.162-0.337,0.243c0.068,0.096,0.136,0.191,0.203,0.287
									c3.256,4.358,10.625,4.229,10.918,4.346c0.283,0.006,0.566,0.015,0.848,0.024c-0.178-0.207-0.356-0.414-0.534-0.621
									C274.067,350.474,267.689,343.29,263.18,346.509z"/>
								<path class="st7" d="M271.649,341.049c-0.12,0.069-0.24,0.139-0.36,0.209c0.06,0.104,0.119,0.209,0.179,0.313
									c2.315,3.872,8.352,4.312,8.59,4.41c0.288,0.03,0.575,0.061,0.862,0.095c-0.163-0.226-0.327-0.452-0.49-0.677
									C280.268,345.127,275.552,338.812,271.649,341.049z"/>
								<path class="st7" d="M233.367,353.923c-0.083,0.328-0.166,0.657-0.246,0.985c-0.378,0.617-2.802,14.048,4.111,18.224
									c0.089,0.059,0.179,0.118,0.267,0.177c0.077-0.117,0.153-0.234,0.23-0.35c4.638-6.757-3.546-17.787-3.906-18.415
									C233.671,354.336,233.519,354.13,233.367,353.923z"/>
								<path class="st7" d="M243.329,345.331c-0.114,0.316-0.227,0.631-0.339,0.946c-0.357,0.502-3.687,11.893,1.994,16.494
									c0.084,0.073,0.167,0.145,0.25,0.218c0.09-0.105,0.18-0.211,0.271-0.316c4.784-5.379-1.514-16.083-1.777-16.66
									C243.595,345.786,243.462,345.559,243.329,345.331z"/>
								<path class="st7" d="M253.62,338.519c-0.143,0.301-0.284,0.602-0.424,0.903c-0.323,0.398-4.13,9.79,0.339,14.477
									c0.076,0.085,0.153,0.17,0.229,0.255c0.102-0.094,0.204-0.187,0.306-0.28c4.666-4.129,0.071-14.105-0.113-14.618
									C253.845,339.01,253.732,338.765,253.62,338.519z"/>
								<path class="st7" d="M263.984,333.353c-0.168,0.285-0.334,0.57-0.499,0.855c-0.281,0.307-4.185,7.785-0.849,12.251
									c0.068,0.096,0.136,0.192,0.204,0.287c0.112-0.081,0.224-0.162,0.337-0.243c4.324-3.026,1.2-11.929,1.081-12.37
									C264.166,333.874,264.075,333.614,263.984,333.353z"/>
								<path class="st7" d="M273.136,330.241c-0.187,0.269-0.373,0.539-0.558,0.809c-0.228,0.23-3.833,5.943-1.471,9.889
									c0.06,0.104,0.12,0.209,0.179,0.313c0.12-0.07,0.24-0.139,0.36-0.209c3.768-2.122,1.779-9.63,1.706-9.989
									C273.28,330.783,273.207,330.512,273.136,330.241z"/>
							</g>
						</g>
						<path class="st8" d="M270.034,358.353c-20.695-0.655-32.309,11.265-32.309,11.265s7.859-16.504,23.97-21.612
							c-15.456,2.358-27.113,14.539-27.113,14.539s3.016-9.684,23.973-22.258c-19.909,7.335-26.512,16.766-26.512,16.766
							s-0.932-12.452,5.814-24.961c-9.169,8.195-10.912,24.262-10.912,24.262s-1.4-23.28-20.917-33.89
							c15.194,12.312,15.818,34.588,15.818,34.588s-8.09-16.774-25.642-19.918c17.53,9.736,20.695,25.105,20.695,25.105
							s-14.342-14.954-31.043-14.561c20.761,5.108,28.426,23.695,28.426,23.695s-13.975-19.176-36.416-9.134
							c23.402-5.152,34.932,15.334,34.932,15.334s-11.966-13.325-27.248-4.418c18.076-4.628,26.768,12.274,26.768,12.274h14.626
							h14.626c0,0,8.427-12.309,26.066-10.737c-12.4-4.89-27.422,1.083-27.422,1.083S250.254,361.187,270.034,358.353z"/>
						<g>
							<g>
								<rect x="219.899" y="204.247" class="st9" width="20.029" height="181.181"/>
							</g>
						</g>
						<g>
							<g>
								<linearGradient id="SVGID_2_" gradientUnits="userSpaceOnUse" x1="108.0048" y1="204.2474" x2="355.1197" y2="204.2474">
									<stop  offset="0" style="stop-color:#BC67DE"/>
									<stop  offset="0.9996" style="stop-color:#5A35E5"/>
								</linearGradient>
								<circle class="st10" cx="231.562" cy="204.247" r="123.557"/>
							</g>
							<g>
								<linearGradient id="SVGID_3_" gradientUnits="userSpaceOnUse" x1="142.5479" y1="204.2474" x2="320.5768" y2="204.2474">
									<stop  offset="3.926894e-07" style="stop-color:#54376C"/>
									<stop  offset="1" style="stop-color:#E735AC"/>
								</linearGradient>
								<circle class="st11" cx="231.562" cy="204.247" r="89.014"/>
							</g>
							<g>
								<linearGradient id="SVGID_4_" gradientUnits="userSpaceOnUse" x1="177.0907" y1="204.2474" x2="286.034" y2="204.2474">
									<stop  offset="0" style="stop-color:#2B44FF"/>
									<stop  offset="0.2721" style="stop-color:#273AEE"/>
									<stop  offset="0.7172" style="stop-color:#212DD7"/>
									<stop  offset="1" style="stop-color:#1F28CF"/>
								</linearGradient>
								<circle class="st12" cx="231.562" cy="204.247" r="54.472"/>
							</g>
							<g>
								<g>
									<g>
										<linearGradient id="SVGID_5_" gradientUnits="userSpaceOnUse" x1="211.6337" y1="204.2474" x2="251.491" y2="204.2474">
											<stop  offset="0" style="stop-color:#832363"/>
											<stop  offset="0.0133" style="stop-color:#842364"/>
											<stop  offset="0.4382" style="stop-color:#A91B78"/>
											<stop  offset="0.7821" style="stop-color:#C01784"/>
											<stop  offset="1" style="stop-color:#C81589"/>
										</linearGradient>
										<circle class="st13" cx="231.562" cy="204.247" r="19.929"/>
									</g>
								</g>
							</g>
							<circle class="st14" cx="231.563" cy="204.247" r="1.777"/>
							<path class="st3" d="M231.563,201.021c-1.782,0-3.226,1.445-3.226,3.226c0,1.782,1.444,3.226,3.226,3.226
								c1.782,0,3.226-1.444,3.226-3.226C234.789,202.466,233.344,201.021,231.563,201.021z"/>
							<g>
								<path class="st3" d="M231.562,181.526c-12.528,0-22.721,10.193-22.721,22.721c0,12.528,10.193,22.721,22.721,22.721
									c12.528,0,22.721-10.193,22.721-22.721C254.284,191.719,244.091,181.526,231.562,181.526z M231.562,221.383
									c-9.449,0-17.136-7.688-17.136-17.136c0-9.449,7.688-17.136,17.136-17.136c9.449,0,17.136,7.687,17.136,17.136
									C248.698,213.696,241.011,221.383,231.562,221.383z"/>
							</g>
							<g>
								<path class="st3" d="M231.562,146.983c-31.575,0-57.264,25.688-57.264,57.264s25.688,57.264,57.264,57.264
									c31.575,0,57.264-25.689,57.264-57.264S263.138,146.983,231.562,146.983z M231.562,255.926
									c-28.496,0-51.679-23.183-51.679-51.679s23.183-51.679,51.679-51.679c28.496,0,51.679,23.183,51.679,51.679
									S260.058,255.926,231.562,255.926z"/>
							</g>
							<g>
								<path class="st3" d="M231.562,112.44c-50.623,0-91.807,41.184-91.807,91.807s41.184,91.807,91.807,91.807
									s91.807-41.185,91.807-91.807S282.185,112.44,231.562,112.44z M231.562,290.47c-47.543,0-86.222-38.679-86.222-86.222
									s38.679-86.222,86.222-86.222s86.222,38.679,86.222,86.222S279.105,290.47,231.562,290.47z"/>
							</g>
							<g>
								<g>
									<g>
										<g>
											<path class="st15" d="M352.333,169.721l-15.39-6.73l-26.304,10.298l16.511,7.22l25.164-9.852
												c0.212-0.083,0.32-0.275,0.322-0.468C352.638,170,352.538,169.811,352.333,169.721z"/>
										</g>
										<g>
											<path class="st15" d="M343.024,146.926l-25.164,9.852l-7.22,16.511l26.304-10.298l6.73-15.39
												c0.091-0.207,0.033-0.417-0.099-0.554C343.441,146.909,343.234,146.844,343.024,146.926z"/>
										</g>
									</g>
								</g>
								<g>
									<g>
										<g>
											<path class="st16" d="M350.059,155.948l-119.144,46.645c-0.914,0.358-1.365,1.389-1.007,2.303
												c0.358,0.914,1.389,1.365,2.303,1.007l119.144-46.644c0.914-0.358,1.365-1.389,1.007-2.303
												C352.004,156.041,350.973,155.59,350.059,155.948z"/>
										</g>
									</g>
								</g>
							</g>
						</g>
						<g>
							<g>
								<g>
									<path class="st17" d="M226.572,0.371c-2.225,0.974-8.478,10.021-2.882,14.826c4.992,4.286,11.972-6.783,11.972-6.783
										s2.166-0.541,2.217-2.556C237.924,4.103,229.882-1.079,226.572,0.371z"/>
									<path class="st18" d="M224.969,13.038c-0.544,3.971-3.001,5.975-3.001,5.975s0,2.312,2.924,3.699
										c2.924,1.387,4.474-0.762,4.474-0.762l0.952-5.032C230.318,16.919,228.016,13.31,224.969,13.038z"/>
									<path class="st19" d="M230.143,7.08c-2.054,3.261-3.072,3.78-3.072,3.78s-0.877-2.334-2.525-1.5
										c-1.497,0.757-1.481,2.916,0.122,4.209c1.342,5.715,6.301,7.065,7.385,6.134c3.775-3.243,3.609-11.289,3.609-11.289
										L230.143,7.08z"/>
									<path class="st17" d="M230.318,16.628c-3.007-1.673-0.175-9.549-0.175-9.549h-1.403l-1.669,3.78
										c0,0-2.444,4.953-1.102,6.911c1.342,1.958,4.47,3.087,5.749,3.332c0.676,0.129,1.506-0.001,1.799-0.804
										c0.506-1.386,0.85-4.117,0.85-4.117C232.965,15.361,232.577,17.885,230.318,16.628z"/>
									<path class="st18" d="M249.581,61.359c-1.115-0.63-4.991-1.122-4.991-1.122l-7.712-4.851l-1.962,3.474l8.017,4.26
										c0,0,1.08,1.084,2.32,1.937c2.254,1.551,3.429,0.625,4.611-0.859c0.871,0.492,1.105,4.119,1.642,4.422
										C252.937,69.428,252.231,62.856,249.581,61.359z"/>
									<g>
										<path class="st20" d="M227.889,45.407c-1.35-5.367,0.884-17.717-5.087-17.755c-6.411-0.04-4.773,16.457-1.991,21.118
											c3.832,6.421,14.106,10.838,20.122,14.06l2.904-4.103C239.783,56.072,228.937,49.571,227.889,45.407z"/>
									</g>
									<path class="st21" d="M235.677,33.375c-1.122-5.143-6.311-11.424-6.311-11.424s-3.237,0.544-7.398-2.938
										c-4.787,4.189-8.262,8.795-6.583,23.773c0.979,8.731,3.645,19.747,3.645,24.317c4.107,0,16.102,0,17.952,0
										c0,0-0.335-6.784-1.197-14.253C234.48,41.535,236.982,39.359,235.677,33.375z"/>
									<g>
										<path class="st20" d="M222.375,48.058c-1.376-2.306-2.421-7.602-2.38-12.057c0.002-0.281-0.223-0.51-0.503-0.513
											c-0.002,0-0.003,0-0.005,0c-0.278,0-0.505,0.224-0.508,0.503c-0.044,4.692,1.041,10.103,2.523,12.587
											c2.904,4.865,9.458,8.624,14.993,11.499c-0.032-0.39-0.067-0.79-0.103-1.2C231.099,56.101,225.045,52.532,222.375,48.058z
											"/>
										<path class="st20" d="M229.51,44.831c-0.401-1.595-0.476-3.857-0.556-6.252c-0.037-1.098-0.074-2.234-0.146-3.333
											c-0.018-0.28-0.256-0.483-0.539-0.474c-0.28,0.018-0.492,0.26-0.474,0.539c0.07,1.083,0.108,2.211,0.144,3.301
											c0.081,2.451,0.158,4.766,0.586,6.466c0.572,2.274,3.72,5.081,7.25,7.671c-0.054-0.475-0.1-0.93-0.141-1.373
											C232.589,49.08,229.974,46.675,229.51,44.831z"/>
									</g>
									<g>
										<g>
											<polygon class="st19" points="254.594,113.978 255.395,116.256 257.649,118.816 259.292,116.125 258.738,113.978 
																							"/>
											<path class="st16" d="M262.855,118.327c-1.894-0.833-3.563-2.202-3.563-2.202s-1.528,1.453-3.896,0.13
												c0,0-1.144,2.173-0.261,4.982c2.549,0,3.578,0,3.578,0v-0.753c0,0,2.926,0.753,5.851,0.753
												c2.926,0,3.456-0.815,3.128-1.275C267.365,119.503,265.389,119.442,262.855,118.327z"/>
										</g>
										<g>
											<g>
												<path class="st22" d="M236.982,67.103H219.03c0,9.828,7.62,13.827,16.603,13.827c3.388,0,8.76,0.44,8.76,0.44
													l9.27,32.608h5.88c0-12.118-4.162-34.232-6.61-37.251C249.081,71.975,236.982,67.103,236.982,67.103z"/>
											</g>
										</g>
									</g>
									<g>
										<polygon class="st19" points="236.634,118.138 238.888,120.698 240.53,118.007 241.359,115.86 237.215,115.86 										
											"/>
										<path class="st16" d="M244.094,120.209c-1.894-0.833-3.563-2.202-3.563-2.202s-1.528,1.453-3.896,0.13
											c0,0-1.144,2.173-0.261,4.982c2.549,0,3.577,0,3.577,0v-0.753c0,0,2.926,0.753,5.852,0.753
											c2.926,0,3.456-0.815,3.128-1.275C248.603,121.385,246.628,121.324,244.094,120.209z"/>
									</g>
									<g>
										<g>
											<g>
												<path class="st23" d="M258.048,70.417c-3.966-1.712-21.066-3.314-21.066-3.314H219.03
													c-0.703,11.726,5.344,14.267,14.868,14.267c2.68,0,15.558,0,15.558,0s-11.874,23.204-13.164,34.49h5.962
													C244.458,109.26,267.748,74.603,258.048,70.417z"/>
											</g>
										</g>
									</g>
								</g>
							</g>
							<g>
								<path class="st19" d="M250.71,60.907c-1.115-0.63-4.991-1.122-4.991-1.122l-7.712-4.851l-1.962,3.474l8.017,4.26
									c0,0,1.081,1.084,2.32,1.938c2.254,1.551,3.429,0.625,4.612-0.859c0.871,0.492,1.105,4.119,1.642,4.422
									C254.066,68.976,253.36,62.403,250.71,60.907z"/>
								<g>
									<path class="st24" d="M257.895,69.001l-21.276-2.504c-0.064,0.416,0.221,0.805,0.637,0.869l21.221,3.266l14.348-15.973
										c0.282-0.313,0.255-0.795-0.057-1.076L257.895,69.001z"/>
								</g>
							</g>
							<g>
								<path class="st21" d="M229.018,44.955c-1.351-5.367,0.884-17.717-5.087-17.755c-6.411-0.04-4.773,16.457-1.991,21.118
									c3.832,6.421,14.106,10.838,20.122,14.06l2.904-4.103C240.912,55.62,230.065,49.118,229.018,44.955z"/>
							</g>
						</g>
					</g>
					<g>
						<g>
							<path class="st17" d="M290.508,247.926c0.013-2.194-1.906-4.773-5.276-4.409c-3.37,0.365-3.077,3.495-4.99,2.415
								c-2.545-1.436-4.901,1.231-1.943,3.32c0.318,0.225,0.654,0.413,0.995,0.579c0,0,2.538,11.156,2.128,11.4
								c0.095,0.345,6.608,0.762,9.319-1.398c2.049-1.633,3.798-3.345,3.389-5.985C293.685,250.972,290.493,250.395,290.508,247.926
								z"/>
							<path class="st18" d="M284.342,256.437c-3.035,0.378-5.211,4.065-5.211,4.065l1.127,4.996c0,0,1.625,2.093,4.498,0.605
								c2.874-1.489,2.793-3.799,2.793-3.799S285.024,260.387,284.342,256.437z"/>
							<g>
								<path class="st19" d="M285.612,255.599c0,0-0.483-1.035-0.1-4.87c-2.527,0.469-5.018-0.281-6.218-0.897
									c-1.429,2.133-3.74,6.246-3.047,9.681c0.283,1.401,5.024,3.384,9.595-0.299c2.059-0.035,3.398-1.728,2.683-3.246
									C287.739,254.297,285.612,255.599,285.612,255.599z"/>
							</g>
							<path class="st25" d="M294.96,285.832c1.155-15.027-2.479-19.509-7.41-23.528c-4.037,3.625-7.291,3.195-7.291,3.195
								s-4.965,6.458-5.907,11.638c-1.096,6.026,0.953,8.082,2.107,19.414c0.773,7.593,1.32,13.588,1.32,13.588h17.941
								C294.738,304.368,294.286,294.592,294.96,285.832z"/>
							<g>
								<path class="st26" d="M282.64,267.361c-0.797-0.555-1.665-1.09-2.57-1.61c-0.137,0.185-0.341,0.466-0.596,0.829
									c0.914,0.523,1.787,1.058,2.581,1.611c0.165,0.115,0.373,0.12,0.537,0.029c0.061-0.034,0.117-0.082,0.161-0.143l0,0
									c0.102-0.14,0.124-0.316,0.072-0.469C282.792,267.511,282.73,267.424,282.64,267.361z"/>
								<path class="st26" d="M280.749,275.996c-1.632-0.314-3.521-1.077-5.42-2.061c-0.131,0.322-0.254,0.646-0.368,0.968
									c1.919,0.989,3.863,1.764,5.618,2.095c0.137,0.026,0.27-0.009,0.375-0.084c0.111-0.079,0.191-0.203,0.212-0.348
									c0.02-0.145-0.023-0.283-0.109-0.388C280.983,276.087,280.876,276.021,280.749,275.996z"/>
							</g>
							<g>
								<path class="st19" d="M258.173,238.629c0.059-2.542-2.715-7.824-3.673-7.559c-1.064,0.295,0.943,3.781,0.713,3.982
									c-1.722,0.787-3.428,1.847-2.469,4.405c0.527,1.406,1.851,2.547,1.851,2.547l2.197,8.809l3.845-1.064l-2.845-8.655
									C257.793,241.093,258.144,239.907,258.173,238.629z"/>
								<g>
									<g>
										<g>
											<path class="st25" d="M269.962,260.79c-4.014-2.777-9.636-12.874-10.989-18.95l-4.63,2.086
												c1.604,8.606,5.538,17.646,11.208,23.605c4.116,4.326,17.944,13.415,20.5,6.792
												C288.256,268.608,275.135,264.369,269.962,260.79z"/>
										</g>
									</g>
								</g>
							</g>
							<g>
								<polygon class="st19" points="286.624,380.315 288.266,383.006 290.52,380.446 290.733,378.168 286.588,378.168 								"/>
								<path class="st16" d="M286.624,380.315c0,0-1.669,1.368-3.563,2.202c-2.535,1.115-4.51,1.177-4.838,1.637
									c-0.327,0.46,0.203,1.275,3.129,1.275c2.926,0,5.851-0.753,5.851-0.753v0.753c0,0,1.028,0,3.578,0
									c0.883-2.81-0.261-4.982-0.261-4.982C288.152,381.769,286.624,380.315,286.624,380.315z"/>
							</g>
							<g>
								<path class="st27" d="M295.719,310.137h-15.512c0.449,11.374-0.147,23.703,0.533,34.976
									c0.679,11.273,3.152,21.996,4.808,33.056h6.446c0,0-0.808-18.997-0.623-28.188
									C292.236,336.534,298.475,323.742,295.719,310.137z"/>
							</g>
							<g>
								<polygon class="st19" points="272.471,378.168 273.014,380.315 274.657,383.006 276.911,380.446 276.616,378.168 								
									"/>
								<path class="st16" d="M273.014,380.315c0,0-1.669,1.368-3.563,2.202c-2.535,1.115-4.51,1.177-4.837,1.637
									c-0.327,0.46,0.203,1.275,3.128,1.275c2.926,0,5.852-0.753,5.852-0.753v0.753c0,0,1.028,0,3.577,0
									c0.884-2.81-0.261-4.982-0.261-4.982C274.542,381.769,273.014,380.315,273.014,380.315z"/>
							</g>
							<g>
								<g>
									<path class="st28" d="M277.778,310.137c0,0-5.618,19.902-7.824,31.924c-2.206,12.022-0.474,23.671,1.398,36.108h6.448
										c-0.053-10.199-0.187-19.412,1.542-29.523c4.32-13.124,15.835-23.8,13.995-38.509H277.778z"/>
								</g>
							</g>
						</g>
					</g>
					<g>
						<g>
							<path class="st18" d="M183.933,252.539c-0.544,3.971-3.001,5.975-3.001,5.975s0,2.312,2.924,3.699
								c2.924,1.387,4.474-0.762,4.474-0.762l0.952-5.032C189.283,256.42,186.98,252.811,183.933,252.539z"/>
						</g>
						<g>
							<path class="st17" d="M188.536,240.485c-1.044-0.579-2.461-0.008-2.84,0.552c-0.289-0.552-1.212-1.332-2.75-0.777
								c-1.155,0.417-1.592,1.744-1.241,2.484c-0.85-0.584-2.192-0.647-3.007,0.329c-0.959,1.148-0.539,2.22,0.127,3.202
								c-0.626,0.091-1.703,0.607-1.676,2.053c0.032,1.722,1.354,2.781,2.182,3.024c-0.79,0.417-1.236,1.615-0.465,2.657
								c1.303,1.762,4.535,0.679,4.535,0.679l-2.293-3.833c0,0-0.009,0.002-0.011,0.003c0.522-0.972,2.037-3.869,1.593-3.945
								c-0.327-0.056-1.346-0.102-2.086-0.129l2.522-2.43c0,0-0.047-0.072-0.128-0.18c0.757-0.025,2.689-0.11,3.39-0.327l2.12,0.625
								c0.082,0.677,0.3,2.416,0.418,2.564c0.147,0.183,0.433-2.014,0.433-2.014C191.108,243.12,189.726,241.145,188.536,240.485z"
								/>
							<path class="st17" d="M179.899,245.404c-0.039,0.077,0.107,3.832,0.107,3.832l1.274,3.851c0,0,5.391,1.487,6.075,1.282
								c0.684-0.205,0.971-5.64,0.971-5.64l0.165-5.737l-4.586-0.288C183.905,242.704,179.938,245.327,179.899,245.404z"/>
							<path class="st19" d="M188.176,244.997c-1.517,0.605-3.393,1.601-4.774,1.262c1.186,3.726,1.722,6.775,1.722,6.775
								l-0.945-0.063c0,0-1.008-1.892-1.063-1.921c-0.482-0.258-2.099-0.988-2.779,0.419c-0.73,1.51,0.592,3.216,2.651,3.272
								c4.535,3.729,9.295,1.793,9.592,0.394c0.776-3.657-1.86-8.119-3.22-10.114C189.148,244.914,188.556,244.846,188.176,244.997z
								"/>
							<path class="st17" d="M183.355,244.624c0,0-3.429,2.333-3.428,2.368c0.001,0.035,4.046,3.788,4.046,3.788l1.15,2.254
								c-0.589-2.6-1.068-3.886-0.201-5.203c0.723-1.098,2.554-2.398,4.437-2.81C189.159,243.635,183.355,244.624,183.355,244.624z"
								/>
						</g>
						<g>
							<path class="st19" d="M213.812,229.839c-0.23-0.202,1.777-3.688,0.713-3.982c-0.958-0.265-3.732,5.017-3.674,7.559
								c0.03,1.278,0.381,2.464,0.381,2.464l-2.845,8.655l3.845,1.064l2.197-8.809c0,0,1.324-1.141,1.851-2.547
								C217.24,231.687,215.534,230.627,213.812,229.839z"/>
							<g>
								<path class="st29" d="M199.063,255.577c-5.173,3.579-18.294,7.818-16.089,13.533c2.556,6.623,16.383-2.466,20.499-6.792
									c5.671-5.96,9.605-15,11.208-23.605l-4.63-2.086C208.699,242.704,203.077,252.801,199.063,255.577z"/>
							</g>
						</g>
						<path class="st15" d="M194.641,272.876c-1.122-5.143-6.311-11.424-6.311-11.424s-3.237,0.544-7.398-2.938
							c-4.787,4.189-8.262,8.795-6.582,23.773c0.979,8.731,3.645,19.747,3.645,24.317c4.107,0,16.103,0,17.952,0
							c0,0-0.335-6.784-1.197-14.253C193.444,281.036,195.947,278.86,194.641,272.876z"/>
						<g>
							<path class="st29" d="M185.464,284.985c0.246-2.744,0.35-5.83,0.215-8.765c-0.007-0.151-0.08-0.284-0.19-0.371
								c-0.088-0.07-0.199-0.111-0.319-0.111c-0.142,0-0.269,0.057-0.36,0.15c-0.094,0.096-0.15,0.23-0.144,0.377
								c0.128,2.794,0.04,5.803-0.213,8.63c-0.547,6.108,4.761,17.589,6.454,21.068c0.13,0.268,0.001,0.59-0.278,0.695l-2.87,1.082
								c-0.222,0.084-0.471,0.005-0.601-0.194c-1.77-2.694-8.296-13.101-9.814-22.295c-0.465-2.816-0.809-6.016-0.873-9.02
								c-0.004-0.169-0.089-0.317-0.218-0.406c-0.081-0.056-0.18-0.088-0.286-0.088h-0.003c-0.136,0-0.26,0.053-0.352,0.139
								c-0.1,0.094-0.162,0.228-0.158,0.376c0.061,3.011,0.402,6.224,0.888,9.164c1.789,10.833,10.339,23.247,10.425,23.372
								l0.226,0.325l5.575-2.101l-0.258-0.506C192.235,306.36,184.854,291.798,185.464,284.985z"/>
						</g>
						<path class="st19" d="M198.624,378.849c0,0,0.497,1.822,0.497,1.863c0,0.041,3.368-1.351,3.368-1.351l0.139-2.138
							l-4.185-0.462L198.624,378.849z"/>
						<g>
							<g>
								<path class="st22" d="M195.947,306.604c0,0-10.448,0.007-15.674,0c1.079,14.467,8.596,26.646,13.62,39.943
									c1.686,9.8,2.607,20.187,3.447,30.091l6.328,0.699c1.002-12.027,1.43-25.46-0.463-37.213
									C201.31,328.371,198.794,317.935,195.947,306.604z"/>
							</g>
						</g>
						<path class="st16" d="M205.642,382.117c-1.731-1.133-3.153-2.757-3.153-2.757s-1.746,1.183-3.865-0.511
							c0,0-1.485,1.955-1.075,4.872c2.515,0.419,3.529,0.587,3.529,0.587l0.124-0.743c0,0,2.762,1.223,5.648,1.704
							c2.886,0.48,3.543-0.237,3.295-0.743C209.897,384.018,207.959,383.633,205.642,382.117z"/>
						<g>
							<path class="st23" d="M181.151,347.029c-0.45,5.93,0.792,31.139,0.792,31.139h6.387c0,0,2.992-28.818,3.529-35.782
								c0.536-6.964,1.652-31.782,1.652-35.782c0,0-7.001,0-15.518,0C175.124,318.573,180.346,332.173,181.151,347.029z"/>
						</g>
						<path class="st25" d="M197.256,298.988c-0.128-0.207-0.331-0.341-0.552-0.387c-0.208-0.044-0.432-0.011-0.627,0.11
							l-15.398,9.542c-0.209,0.129-0.343,0.334-0.388,0.557c-0.042,0.207-0.009,0.429,0.111,0.623l6.663,10.751
							c0.158,0.255,0.429,0.399,0.708,0.405c0.161,0.004,0.324-0.037,0.471-0.128l15.398-9.542c0.201-0.125,0.333-0.319,0.383-0.532
							c0.05-0.213,0.019-0.446-0.106-0.647L197.256,298.988z"/>
						<g>
							<path class="st19" d="M194.527,309.518c-0.817-0.983-2.725-1.434-2.725-1.434l-3.998-8.186l-3.497,1.919l4.569,7.845
								c0,0,0,2.92,1.179,5.069c1.403,2.558,3.486,4.42,5.651,3.232c2.084-1.143-1.206-4.495-1.56-6.386
								c0.819,0.906,3.181,1.772,3.36,0.802C197.615,311.771,195.614,310.827,194.527,309.518z"/>
						</g>
						<g>
							<g>
								<g>
									<path class="st15" d="M184.958,284.94c0.813-9.071-0.063-20.397-4.62-20.194c-5.431,0.242-4.797,12.715-3.497,20.588
										c1.791,10.845,10.342,23.165,10.342,23.165l4.674-1.761C191.857,306.737,184.328,291.978,184.958,284.94z"/>
								</g>
							</g>
						</g>
						<g>
							<polygon class="st19" points="183.195,380.446 185.449,383.006 187.092,380.315 187.126,378.168 182.982,378.168 							"/>
							<path class="st16" d="M190.655,382.517c-1.894-0.833-3.563-2.202-3.563-2.202s-1.528,1.453-3.896,0.13
								c0,0-1.144,2.173-0.261,4.982c2.549,0,3.577,0,3.577,0v-0.753c0,0,2.926,0.753,5.851,0.753c2.926,0,3.456-0.815,3.129-1.275
								C195.165,383.693,193.189,383.632,190.655,382.517z"/>
						</g>
					</g>
					<g>
						<path class="st17" d="M127.457,245.399c0-3.526-4.512-5.215-8.128-3.827c-7.224,2.771-3.019,17.871-5.631,19.666
							c-2.611,1.795-2.53,7.997,0,9.139s14.851-0.734,14.851-1.387s-1.632-4.325-2.203-8.16
							C125.776,256.994,127.457,245.399,127.457,245.399z"/>
						<g>
							<g>
								<path class="st18" d="M119.106,252.539c-0.544,3.971-3.001,5.975-3.001,5.975s0,2.312,2.924,3.699
									c2.924,1.387,4.474-0.762,4.474-0.762l0.952-5.032C124.455,256.42,122.152,252.811,119.106,252.539z"/>
								<path class="st19" d="M121.412,244.704c-0.044,3.91-0.493,6.973-0.493,6.973l-0.877-0.357c0,0-0.363-2.113-0.406-2.158
									c-0.377-0.397-1.683-1.597-2.77-0.475c-1.168,1.205-0.448,3.24,1.489,3.939c3.135,4.964,8.262,4.621,8.983,3.386
									c1.885-3.228,0.784-8.293,0.118-10.613C125.714,243.656,122.918,245.649,121.412,244.704z"/>
							</g>
							<path class="st19" d="M150.441,303.691c1.077,0.576,3.592,0.595,3.433-0.379c-0.1-0.609-2.302-0.823-3.767-1.688
								c-1.101-0.65-3.049-0.431-3.049-0.431l-6.526-6.357l-2.645,2.986l6.948,5.843c0,0,0.985,2.749,2.82,4.374
								c2.184,1.934,4.773,2.984,6.41,1.136C155.641,307.397,151.413,305.351,150.441,303.691z"/>
							<g>
								<g>
									<path class="st30" d="M132.313,282.423c-2.693-8.7-7.805-18.845-11.943-16.927c-4.933,2.287,0.391,13.585,4.584,20.373
										c5.776,9.352,18.365,17.502,18.365,17.502l3.655-3.404C146.973,299.967,134.402,289.173,132.313,282.423z"/>
								</g>
							</g>
							<path class="st24" d="M132.48,272.876c-1.122-5.143-8.978-11.424-8.978-11.424s-3.237,0.544-7.399-2.938
								c-4.787,4.189-6.862,8.885-4.085,23.698c1.397,7.453,5.037,17.415,1.148,24.392c0,0,15.608,0,17.952,0
								c0-0.643-1.907-20.619-1.234-22.799C131.303,279.208,133.366,276.935,132.48,272.876z"/>
							<g>
								<path class="st30" d="M120.637,284.985c0.246-2.744,0.35-5.83,0.215-8.765c-0.007-0.151-0.08-0.284-0.19-0.371
									c-0.088-0.07-0.199-0.111-0.319-0.111c-0.142,0-0.269,0.057-0.36,0.15c-0.095,0.096-0.15,0.23-0.144,0.377
									c0.128,2.794,0.04,5.804-0.214,8.63c-0.547,6.108,4.761,17.589,6.454,21.068c0.115,0.237,0.02,0.507-0.195,0.641
									c0.577,0,1.128,0,1.648,0l-0.05-0.098C127.408,306.36,120.026,291.798,120.637,284.985z"/>
								<path class="st30" d="M114.701,295.598c1.981,4.583,4.348,8.64,5.822,11.006c0.396,0,0.796,0,1.198,0
									c-1.842-2.903-5.664-9.349-7.866-16.044C114.206,292.23,114.511,293.923,114.701,295.598z"/>
							</g>
							<g>
								<g>
									<g>
										<path class="st19" d="M138.136,380.309c-0.637-0.989-0.346-2.6-0.346-2.6l-4.122-0.428l-0.022,2.304l1.979,2.798
											l3.731,1.496l2.076-1.121C141.433,382.758,138.773,381.298,138.136,380.309z"/>
									</g>
									<path class="st16" d="M141.433,382.758c-1.934,0.199-3.529-0.219-4.761-0.812c-1.984-0.955-3.026-2.361-3.026-2.361
										s-0.688,0.87-0.883,2.779c-0.064,0.625-0.083,1.407,0.113,2.187c0.582,0.06,1.204,0.125,1.204,0.125
										s0.082-0.797,0.161-1.57c1.644,0.594,3.687,1.97,6.056,2.215C145.755,385.888,145.741,384.084,141.433,382.758z"/>
								</g>
							</g>
							<g>
								<g>
									<path class="st9" d="M131.119,306.604c0,0-10.448,0.007-15.675,0c1.079,14.574,8.597,26.843,13.62,40.239
										c1.686,9.872,2.607,20.336,3.447,30.314l6.328,0.704c1.002-12.116,1.43-25.649-0.463-37.489
										C136.482,328.533,133.967,318.019,131.119,306.604z"/>
								</g>
							</g>
							<g>
								<path class="st31" d="M116.324,347.029c-0.45,5.93,0.792,31.139,0.792,31.139h6.387c0,0,2.992-28.818,3.529-35.782
									c0.536-6.964,1.651-31.782,1.651-35.782c0,0-7.001,0-15.518,0C105.345,319.824,115.519,332.173,116.324,347.029z"/>
							</g>
							<g>
								<path class="st19" d="M129.699,309.518c-0.817-0.983-2.725-1.434-2.725-1.434l-3.998-8.186l-3.498,1.919l4.569,7.845
									c0,0-0.001,2.92,1.179,5.069c1.403,2.558,3.487,4.42,5.65,3.232c2.084-1.143-1.205-4.495-1.56-6.386
									c0.819,0.906,3.181,1.772,3.36,0.802C132.788,311.771,130.787,310.827,129.699,309.518z"/>
							</g>
							<g>
								<path class="st24" d="M120.131,284.94c0.813-9.071-0.063-20.397-4.62-20.194c-5.432,0.242-4.797,12.715-3.497,20.588
									c1.791,10.845,10.342,23.165,10.342,23.165l4.674-1.761C127.03,306.737,119.5,291.978,120.131,284.94z"/>
							</g>
							<g>
								<g>
									<g>
										<path class="st19" d="M122.908,380.7c-0.735-0.911-0.609-2.532-0.609-2.532h-4.144l0.213,2.277l2.254,2.56l3.864,1.094
											l1.951-1.32C126.437,382.78,123.643,381.612,122.908,380.7z"/>
									</g>
									<path class="st16" d="M126.437,382.78c-1.904,0.395-3.533,0.145-4.819-0.314c-2.071-0.739-3.25-2.021-3.25-2.021
										s-0.595,0.93-0.595,2.834c0,0.624,0.06,1.398,0.335,2.148c0.585,0,1.21,0,1.21,0s0-0.796,0-1.567
										c1.696,0.418,3.868,1.567,6.249,1.567C131.054,385.428,130.857,383.649,126.437,382.78z"/>
								</g>
							</g>
						</g>
						<path class="st17" d="M124.812,243.464c-0.196,0-2.829-0.272-5.93,1.24c-3.101,1.512-3.976,5.169-4.143,8.718
							c-0.167,3.549-3.968,7.723-2.617,10.187c2.108,4.151,7.902-2.41,8.827-7.713c0.539-3.09,0.507-7.928,2.087-9.964
							c1.131-1.458,3.952-0.66,4.419-0.534C127.457,245.399,126.863,243.464,124.812,243.464z"/>
					</g>
				</g>
			</g>
		</g>
		<g>
			<path class="st17" d="M386.598,239.771c-2.469,0.03-5.488,1.001-5.27,2.89c0.184,1.591,2.834,2.738,2.834,2.738
				s3.035,5.306,8.828,10.447c2.326-2.067,3.74-4.855,3.862-7.181c0.122-2.326-0.397-4.396-2.094-6.093
				C393.371,241.185,389.781,239.732,386.598,239.771z"/>
			<g>
				<path class="st18" d="M392.513,252.54c-3.046,0.272-5.349,3.881-5.349,3.881l0.952,5.032c0,0,1.55,2.149,4.474,0.762
					c2.924-1.387,2.924-3.699,2.924-3.699S393.057,256.511,392.513,252.54z"/>
			</g>
			<g>
				<path class="st19" d="M391.983,249.162c-0.043,0.045-0.406,2.158-0.406,2.158l-0.877,0.357c0,0-0.449-3.063-0.493-6.973
					c-1.204,0.755-3.299,0.399-4.929,0.301c-0.408-0.024-0.949,0.226-1.116,0.393c-0.665,2.32-1.767,7.385,0.118,10.613
					c0.721,1.234,5.848,1.578,8.983-3.386c1.937-0.699,2.657-2.734,1.489-3.939C393.665,247.565,392.36,248.765,391.983,249.162z"/>
				<path class="st17" d="M384.162,245.399c1.917-0.199,5.112,0.179,5.112,0.179s1.168,3.446,1.426,6.099l0.384-2.501
					c0,0,2.662-4.834,2.652-4.867c-0.01-0.033-3.998-1.171-3.998-1.171S383.917,244.021,384.162,245.399z"/>
			</g>
			<path class="st19" d="M364.561,301.194c0,0-1.948-0.219-3.049,0.43c-1.465,0.865-3.668,1.079-3.767,1.688
				c-0.159,0.974,2.356,0.955,3.433,0.379c-0.972,1.66-5.2,3.706-3.624,5.485c1.637,1.848,4.226,0.798,6.41-1.136
				c1.836-1.626,2.82-4.374,2.82-4.374l6.948-5.843l-2.645-2.986L364.561,301.194z"/>
			<g>
				<g>
					<g>
						<path class="st32" d="M391.249,265.497c-4.138-1.919-9.25,8.226-11.943,16.927c-2.089,6.75-14.66,17.544-14.66,17.544
							l3.655,3.404c0,0,12.589-8.149,18.365-17.502C390.858,279.082,396.181,267.784,391.249,265.497z"/>
					</g>
				</g>
			</g>
			<path class="st33" d="M395.514,258.515c-4.162,3.482-7.398,2.938-7.398,2.938s-5.188,6.281-6.311,11.424
				c-1.306,5.984,1.197,8.16-0.109,19.475c-0.862,7.469-1.197,14.253-1.197,14.253c1.85,0,13.845,0,17.952,0
				c0-4.57,2.666-15.586,3.645-24.317C403.776,267.31,400.301,262.703,395.514,258.515z"/>
			<g>
				<path class="st34" d="M392.328,269.214c-0.258-0.108-0.556,0.015-0.664,0.274l-0.127,0.307
					c-1.033,2.492-2.101,5.069-3.762,5.069c-2.073,0-3.89-1.542-5.479-3.671c-0.14,0.394-0.265,0.787-0.368,1.174
					c1.662,2.056,3.589,3.512,5.846,3.512c2.339,0,3.539-2.896,4.7-5.696l0.127-0.306
					C392.709,269.618,392.586,269.321,392.328,269.214z"/>
				<path class="st34" d="M399.346,273.197c-0.269-0.084-0.553,0.067-0.636,0.334c-1.329,4.279-4.584,8.596-8.86,8.596
					c-3.093,0-5.859-1-8.259-2.946c0.048,0.455,0.102,0.921,0.156,1.41c2.386,1.688,5.097,2.552,8.103,2.552
					c4.792,0,8.39-4.676,9.829-9.31C399.764,273.565,399.614,273.28,399.346,273.197z"/>
			</g>
			<g>
				<g>
					<g>
						<path class="st9" d="M380.499,306.605c-2.848,11.33-5.363,21.767-7.256,33.52c-1.894,11.753-1.465,26.017-0.463,38.044h6.328
							c0.839-9.904,1.76-21.821,3.447-31.621c5.023-13.298,12.541-25.476,13.62-39.943
							C390.947,306.611,380.499,306.605,380.499,306.605z"/>
					</g>
				</g>
			</g>
			<g>
				<path class="st31" d="M398.452,306.605c-8.516,0-15.518,0-15.518,0c0,4,1.115,28.818,1.652,35.782
					c0.536,6.964,3.529,35.782,3.529,35.782h6.387c0,0,1.242-25.209,0.792-31.139C396.1,332.173,401.322,318.573,398.452,306.605z"
					/>
			</g>
			<polygon class="st19" points="372.692,262.219 375.473,270.861 379.238,269.542 375.821,261.096 			"/>
			<g>
				<g>
					<g>
						<path class="st33" d="M397.262,264.701c-4.989-1.766-5.183,10.671-9.487,10.671c-4.516,0-7.732-6.448-10.219-11.522
							l-4.224,1.922c3.121,10.909,8.74,16.862,16.519,16.862C398.28,282.634,403.177,266.794,397.262,264.701z"/>
					</g>
				</g>
			</g>
			<g>
				<g>
					<polygon class="st21" points="373.35,256.425 376.919,256.161 376.919,252.377 373.35,252.113 					"/>
					<polygon class="st21" points="369.767,263.017 372.344,263.017 373.109,257.409 369.767,257.409 					"/>
					<path class="st21" d="M358.714,254.269v7.721c0,0,7.955-4.886,10.387-4.886v-2.836v-2.836c-2.432,0-10.387-4.886-10.387-4.886
						V254.269z"/>
					<path class="st20" d="M373.35,250.923h-3.845c-0.141,0-0.268,0.057-0.36,0.149c-0.092,0.092-0.15,0.22-0.15,0.36v5.672
						c0,0.118,0.04,0.226,0.107,0.312c0.093,0.12,0.239,0.198,0.403,0.198h3.845c0.164,0,0.311-0.078,0.404-0.199
						c0.066-0.086,0.106-0.194,0.106-0.311v-5.672c0-0.164-0.078-0.31-0.198-0.403C373.575,250.963,373.467,250.923,373.35,250.923z
						"/>
					<path class="st20" d="M358.264,246.165c-0.248,0-0.449,0.201-0.449,0.45v15.308c0,0.248,0.201,0.45,0.449,0.45
						c0.248,0,0.45-0.201,0.45-0.45v-15.308C358.714,246.366,358.513,246.165,358.264,246.165z"/>
				</g>
				<path class="st20" d="M372.443,262.621h-2.62c-0.772,0-1.873,0.991-1.129,0.991h3.749c0.274,0,0.496-0.222,0.496-0.496
					C372.939,262.843,372.717,262.621,372.443,262.621z"/>
			</g>
			<path class="st19" d="M373.86,258.212c-1.413-0.948-2.194-1.08-2.882-0.236c-0.451-0.19-2.223-1.08-3.147,1.11
				c-0.795,1.885,0.45,3.291,1.902,3.903c2.259,0.953,3.408,0.622,3.408,0.622s3.197-1.239,2.681-2.516
				C375.426,260.119,374.921,258.924,373.86,258.212z"/>
			<g>
				<polygon class="st19" points="389.355,380.316 390.997,383.006 393.251,380.446 393.464,378.169 389.32,378.169 				"/>
				<path class="st16" d="M389.355,380.316c0,0-1.669,1.368-3.563,2.202c-2.534,1.115-4.51,1.177-4.837,1.637
					c-0.327,0.46,0.203,1.275,3.129,1.275c2.926,0,5.851-0.753,5.851-0.753v0.753c0,0,1.028,0,3.578,0
					c0.884-2.81-0.261-4.982-0.261-4.982C390.883,381.769,389.355,380.316,389.355,380.316z"/>
			</g>
			<g>
				<polygon class="st19" points="373.923,380.316 375.565,383.006 377.819,380.446 378.032,378.169 373.888,378.169 				"/>
				<path class="st16" d="M373.923,380.316c0,0-1.669,1.368-3.563,2.202c-2.535,1.115-4.51,1.177-4.838,1.637
					c-0.327,0.46,0.203,1.275,3.128,1.275c2.926,0,5.852-0.753,5.852-0.753v0.753c0,0,1.028,0,3.578,0
					c0.884-2.81-0.261-4.982-0.261-4.982C375.451,381.769,373.923,380.316,373.923,380.316z"/>
			</g>
		</g>
	</g>
</g>
</svg>
