<?xml version="1.0" encoding="utf-8"?>
<!-- Generator: Adobe Illustrator 23.0.2, SVG Export Plug-In . SVG Version: 6.00 Build 0)  -->
<svg version="1.1" id="Layer_1" xmlns="http://www.w3.org/2000/svg" xmlns:xlink="http://www.w3.org/1999/xlink" x="0px" y="0px"
	 width="513px" height="453px" viewBox="0 0 513 453" style="enable-background:new 0 0 513 453;" xml:space="preserve">
<style type="text/css">
	.st0{opacity:0.33;}
	.st1{opacity:0.95;fill:url(#SVGID_1_);}
	.st2{fill:#A1BDE3;}
	.st3{opacity:0.95;fill:url(#SVGID_2_);}
	.st4{fill:#1F28CF;}
	.st5{opacity:0.5;fill:url(#SVGID_3_);}
	.st6{opacity:0.95;fill:url(#SVGID_4_);}
	.st7{fill:url(#SVGID_5_);}
	.st8{fill:url(#SVGID_6_);}
	.st9{fill:url(#SVGID_7_);}
	.st10{fill:url(#SVGID_8_);}
	.st11{fill:url(#SVGID_9_);}
	.st12{fill:#FFFFFF;}
	.st13{fill:url(#SVGID_10_);}
	.st14{fill:url(#SVGID_11_);}
	.st15{opacity:0.95;fill:url(#SVGID_12_);}
	.st16{fill:#54376C;}
	.st17{fill:#DBA686;}
	.st18{fill:#C48956;}
	.st19{fill:#E735AC;}
	.st20{fill:#B68B72;}
	.st21{fill:#DBA585;}
	.st22{fill:#1F2531;}
	.st23{fill:#3F20BA;}
	.st24{fill:#7F503D;}
	.st25{fill:#59332D;}
	.st26{fill:#363957;}
	.st27{fill:#EECAA2;}
	.st28{fill:#C75454;}
	.st29{fill:#997761;}
	.st30{fill:#EAECFD;}
	.st31{fill:#393D3F;}
	.st32{fill:#807F7D;}
	.st33{fill:#2D2183;}
	.st34{fill:#D7C9C2;}
	.st35{fill:#4C5155;}
	.st36{fill:#2C323D;}
	.st37{fill:#1C166D;}
	.st38{fill:#ADA29E;}
	.st39{fill:#EEE0D7;}
	.st40{fill:#A79D97;}
	.st41{fill:#6C7279;}
	.st42{fill:#1E1F2D;}
	.st43{fill:#27293D;}
	.st44{fill:#2E3048;}
	.st45{fill:#C8BCB4;}
	.st46{fill:#3E4148;}
	.st47{fill:#292A3F;}
	.st48{fill:#B74242;}
	.st49{fill:#E6D8D1;}
	.st50{fill:#815C2F;}
	.st51{opacity:0.95;}
	.st52{fill:url(#SVGID_13_);}
	.st53{fill:url(#SVGID_14_);}
	.st54{fill:url(#SVGID_15_);}
	.st55{fill:url(#SVGID_16_);}
	.st56{fill:url(#SVGID_17_);}
	.st57{fill:url(#SVGID_18_);}
	.st58{fill:url(#SVGID_19_);}
	.st59{fill:url(#SVGID_20_);}
	.st60{fill:url(#SVGID_21_);}
	.st61{fill:url(#SVGID_22_);}
	.st62{fill:url(#SVGID_23_);}
</style>
<g>
	<g class="st0">
		<image style="overflow:visible;" width="513" height="453" xlink:href="253FD116.png" >
		</image>
	</g>
	<g>
		<linearGradient id="SVGID_1_" gradientUnits="userSpaceOnUse" x1="239.843" y1="278.2932" x2="230.9963" y2="117.9433">
			<stop  offset="0" style="stop-color:#D1D5DE"/>
			<stop  offset="1" style="stop-color:#E9E9FD"/>
		</linearGradient>
		<path class="st1" d="M275.796,74.988h-88.089c-6.96,0-12.601,5.642-12.601,12.601v88.089c0,6.959,5.641,12.601,12.601,12.601
			h88.089c6.959,0,12.601-5.642,12.601-12.601V87.589C288.397,80.63,282.755,74.988,275.796,74.988z"/>
		<rect x="205.525" y="162.487" class="st2" width="52.453" height="2.591"/>
		<rect x="212.955" y="170.651" class="st2" width="37.594" height="2.591"/>
		<linearGradient id="SVGID_2_" gradientUnits="userSpaceOnUse" x1="384.5604" y1="322.9967" x2="384.5604" y2="157.9144">
			<stop  offset="0" style="stop-color:#D1D5DE"/>
			<stop  offset="1" style="stop-color:#E9E9FD"/>
		</linearGradient>
		<path class="st3" d="M447.242,114.28H321.88c-8.2,0-14.846,6.646-14.846,14.845v152.306c0,8.199,6.646,14.845,14.846,14.845
			h125.361c8.198,0,14.845-6.646,14.845-14.845V129.125C462.087,120.927,455.44,114.28,447.242,114.28z"/>
		<g>
			<rect x="377.337" y="221.646" class="st4" width="12.297" height="2.278"/>
		</g>
		<g>
			<rect x="330.648" y="242.516" class="st2" width="71.559" height="4.41"/>
			<rect x="330.648" y="263.687" class="st2" width="57.866" height="4.409"/>
			<rect x="330.648" y="253.102" class="st2" width="33.924" height="4.409"/>
		</g>
		<g>
			<path class="st4" d="M420.928,132.43v2.227h13.113v12.306h2.227V132.43H420.928z M331.88,146.963h2.228v-12.306h13.113v-2.227
				h-15.34V146.963z M434.041,210.466v12.311h-13.113v2.227h15.34v-14.538H434.041z M334.108,210.466h-2.228v14.538h15.34v-2.227
				h-13.113V210.466z"/>
		</g>
		<g>
			<g>
				<path class="st4" d="M429.326,268.421c-7.231,0-13.115-5.884-13.115-13.115c0-7.23,5.883-13.114,13.115-13.114
					c7.23,0,13.114,5.883,13.114,13.114C442.439,262.538,436.556,268.421,429.326,268.421z M429.326,244.731
					c-5.832,0-10.576,4.744-10.576,10.576s4.744,10.576,10.576,10.576c5.832,0,10.576-4.744,10.576-10.576
					S435.157,244.731,429.326,244.731z"/>
			</g>
			<g>
				<polygon class="st4" points="428.489,260.468 422.531,254.51 424.326,252.716 428.489,256.879 434.325,251.042 436.119,252.838 
									"/>
			</g>
		</g>
		<linearGradient id="SVGID_3_" gradientUnits="userSpaceOnUse" x1="11.6243" y1="370.6951" x2="437.2121" y2="370.6951">
			<stop  offset="0.0052" style="stop-color:#222756"/>
			<stop  offset="1" style="stop-color:#5F60ED"/>
		</linearGradient>
		<ellipse class="st5" cx="224.418" cy="370.695" rx="212.794" ry="9.959"/>
		<linearGradient id="SVGID_4_" gradientUnits="userSpaceOnUse" x1="231.7521" y1="221.0546" x2="231.7521" y2="100.3453">
			<stop  offset="0" style="stop-color:#D1D5DE"/>
			<stop  offset="1" style="stop-color:#E9E9FD"/>
		</linearGradient>
		<rect x="193.571" y="79.224" class="st6" width="76.362" height="65.518"/>
		<g>
			<g>
				
					<linearGradient id="SVGID_5_" gradientUnits="userSpaceOnUse" x1="-5079.6421" y1="290.1795" x2="-5052.2817" y2="290.1795" gradientTransform="matrix(-1 0 0 1 -4971.543 0)">
					<stop  offset="0.0052" style="stop-color:#222756"/>
					<stop  offset="1" style="stop-color:#5F60ED"/>
				</linearGradient>
				<path class="st7" d="M81.344,341.661c6.357-4.47,13.797-35.629,14.242-54.188c0.227-9.507,3.037-13.467,5.516-16.962
					c2.37-3.34,4.417-6.224,3.225-12.848c-2.279-12.658,3.712-18.123,3.773-18.175l-0.693-0.79
					c-0.267,0.233-6.506,5.868-4.114,19.152c1.114,6.19-0.722,8.777-3.046,12.054c-2.44,3.438-5.477,7.716-5.712,17.546
					c-0.476,19.917-8.084,49.335-13.795,53.353L81.344,341.661z"/>
			</g>
			<g>
				
					<linearGradient id="SVGID_6_" gradientUnits="userSpaceOnUse" x1="-5058.3838" y1="312.7648" x2="-5008.6426" y2="312.7648" gradientTransform="matrix(-1 0 0 1 -4971.543 0)">
					<stop  offset="0.0052" style="stop-color:#222756"/>
					<stop  offset="1" style="stop-color:#5F60ED"/>
				</linearGradient>
				<path class="st8" d="M68.017,332.574c-0.6-1.36-1.221-2.767-1.924-4.252c-3.632-7.667-6.849-8.929-12.179-11.02
					c-1.303-0.512-2.779-1.09-4.4-1.819c-7.635-3.432-6.157-8.488-4.853-12.95c0.182-0.624,0.364-1.246,0.522-1.862
					c0.672-2.623-0.618-3.941-2.57-5.933c-1.453-1.481-3.258-3.324-4.65-6.234c-1.524-3.187-0.748-4.895,0.173-5.766
					c1.937-1.836,6.402-1.497,10.62,0.804c1.31,0.716,2.388,1.845,3.53,3.04c2.688,2.814,6.034,6.319,14.495,6.358
					c4.824,0.023,7.467,0.688,8.836,2.227c1.553,1.744,1.26,4.358,0.855,7.974c-0.139,1.251-0.299,2.668-0.396,4.2
					c-0.575,9.138,4.819,15.732,4.873,15.796c3.223,3.838,7.193,11.799,5.479,16.702c-0.718,2.054-2.325,3.348-4.775,3.842
					c-0.976,0.198-1.868,0.292-2.688,0.292C73.046,343.971,70.88,339.063,68.017,332.574z M48.25,284.464
					c-3.765-2.056-7.803-2.471-9.392-0.964c-1.208,1.144-0.639,3.105,0.052,4.549c1.317,2.754,2.984,4.453,4.453,5.954
					c2.044,2.084,3.658,3.732,2.839,6.929c-0.161,0.627-0.346,1.261-0.532,1.896c-1.299,4.443-2.526,8.64,4.274,11.696
					c1.597,0.717,3.061,1.293,4.353,1.8c5.381,2.111,8.935,3.505,12.745,11.549c0.709,1.497,1.332,2.91,1.936,4.276
					c3.289,7.455,5.274,11.955,12.465,10.501c2.062-0.416,3.405-1.479,3.991-3.158c1.511-4.319-2.104-11.881-5.293-15.68
					c-0.234-0.28-5.719-6.966-5.116-16.536c0.098-1.557,0.259-2.989,0.4-4.252c0.375-3.346,0.646-5.763-0.595-7.158
					c-1.135-1.275-3.62-1.853-8.055-1.875c-8.908-0.042-12.425-3.724-15.251-6.683C50.394,286.124,49.417,285.101,48.25,284.464
					L48.25,284.464z"/>
			</g>
			<g>
				
					<linearGradient id="SVGID_7_" gradientUnits="userSpaceOnUse" x1="-5054.1318" y1="319.9981" x2="-5016.7979" y2="319.9981" gradientTransform="matrix(-1 0 0 1 -4971.543 0)">
					<stop  offset="0.0052" style="stop-color:#222756"/>
					<stop  offset="1" style="stop-color:#5F60ED"/>
				</linearGradient>
				<path class="st9" d="M81.539,350.042l1.05-0.056c-0.052-0.986-1.376-24.24-10.713-31.045
					c-10.242-7.466-13.472-15.49-15.01-20.876c-1.813-6.345-11.037-8.042-11.429-8.111l-0.182,1.035
					c0.09,0.016,8.969,1.653,10.6,7.366c1.581,5.535,4.897,13.779,15.402,21.436C80.192,326.305,81.526,349.805,81.539,350.042z"/>
			</g>
			<g>
				
					<linearGradient id="SVGID_8_" gradientUnits="userSpaceOnUse" x1="-5099.2612" y1="282.0725" x2="-5043.1973" y2="282.0725" gradientTransform="matrix(-1 0 0 1 -4971.543 0)">
					<stop  offset="0.0052" style="stop-color:#222756"/>
					<stop  offset="1" style="stop-color:#5F60ED"/>
				</linearGradient>
				<path class="st10" d="M79.762,355.272c-2.197-1.095-2.118-5.494-1.997-12.152c0.152-8.414,0.36-19.937-4.043-30.535
					c-4.679-11.259-0.506-14.549,3.529-17.731c4.52-3.564,8.79-6.931,0.596-22.127c-3.764-6.978-4.958-11.699-3.76-14.855
					c1.184-3.119,4.505-4.335,8.023-5.623c6.071-2.222,12.951-4.739,12.062-17.587c-0.273-3.939,0.19-6.361,1.458-7.623
					c1.376-1.371,3.405-1.222,5.752-1.051c3.548,0.26,7.566,0.554,11.067-4.014c0.363-1.141,3.711-11.329,7.714-13.072
					c0.84-0.366,1.664-0.362,2.449,0.013l0,0c2.765,1.322,4.368,2.89,4.904,4.793c0.932,3.311-1.493,7.045-4.302,11.368
					c-4.412,6.795-9.413,14.495-4.227,23.66c6.859,12.117,3.236,16.358-1.777,22.227c-2.873,3.362-6.128,7.173-8.305,13.39
					c-1.751,4.998,1.236,9.765,4.124,14.375c3.622,5.783,7.367,11.761-0.519,16.951c-13.038,8.577-25.915,36.579-26.044,36.861
					l-0.053,0.117l-0.101,0.078c-2.403,1.883-4.151,2.782-5.467,2.782C80.446,355.515,80.088,355.433,79.762,355.272z
					 M111.932,314.798c7.028-4.623,3.866-9.67,0.206-15.513c-2.88-4.596-6.143-9.805-4.224-15.281
					c2.241-6.401,5.565-10.293,8.497-13.725c4.913-5.751,8.159-9.549,1.663-21.025c-5.502-9.72-0.09-18.054,4.26-24.75
					c2.668-4.109,4.973-7.659,4.171-10.511c-0.45-1.595-1.869-2.946-4.344-4.129l0,0c-0.504-0.242-1.02-0.241-1.575,0.001
					c-3.715,1.618-7.126,12.403-7.159,12.511l-0.029,0.087l-0.055,0.073c-3.858,5.098-8.392,4.767-12.036,4.499
					c-2.177-0.16-3.897-0.284-4.933,0.748c-1.02,1.015-1.397,3.242-1.151,6.805c0.944,13.636-6.648,16.414-12.749,18.648
					c-3.428,1.254-6.388,2.337-7.401,5.007c-1.081,2.85,0.094,7.294,3.702,13.984c8.613,15.973,3.792,19.775-0.869,23.452
					c-3.9,3.075-7.583,5.979-3.21,16.502c4.489,10.802,4.277,22.452,4.124,30.957c-0.105,5.807-0.188,10.394,1.415,11.191
					c0.937,0.468,2.731-0.322,5.332-2.345C86.606,349.718,98.938,323.347,111.932,314.798z"/>
			</g>
			<linearGradient id="SVGID_9_" gradientUnits="userSpaceOnUse" x1="94.3369" y1="343.2705" x2="61.6947" y2="245.3437">
				<stop  offset="0.0052" style="stop-color:#222756"/>
				<stop  offset="1" style="stop-color:#5F60ED"/>
			</linearGradient>
			<path class="st11" d="M59.181,233.222c6.636-2.275,5.257,10.515,8.061,19.978c2.803,9.464,31.193,4.128,19.277,27.826
				c-11.916,23.698,15.071,7.925,7.01,28.603c-8.061,20.68-0.701,42.796-9.463,37.171c-8.762-5.625-4.923-31.666-14.035-34.76
				c-9.113-3.094-10.6-6.704-1.578-15.115c9.023-8.411-23.642-16.762-15.58-33.749C60.934,246.19,51.514,235.851,59.181,233.222z"/>
			<g>
				<path class="st12" d="M81.011,345.441c0.835-3.541,7.962-34.694,1.311-38.46c-5.86-3.318-5.717-16.228-4.801-28.418
					c0.809-10.791-13.051-15.835-13.64-16.044l-0.352,0.991c0.137,0.049,13.693,4.986,12.943,14.974
					c-0.938,12.52-1.039,25.804,5.333,29.412c5.049,2.86,0.401,27.898-1.817,37.304L81.011,345.441z"/>
			</g>
			<linearGradient id="SVGID_10_" gradientUnits="userSpaceOnUse" x1="69.0819" y1="407.2239" x2="85.4029" y2="336.8675">
				<stop  offset="0" style="stop-color:#C5C2BF"/>
				<stop  offset="1" style="stop-color:#FBF5DD"/>
			</linearGradient>
			<polygon class="st13" points="106.048,334.348 96.574,370.292 75.402,370.292 65.926,334.348 			"/>
			
				<linearGradient id="SVGID_11_" gradientUnits="userSpaceOnUse" x1="46.3926" y1="352.32" x2="86.5146" y2="352.32" gradientTransform="matrix(1 0 0 1 19.5338 0)">
				<stop  offset="0" style="stop-color:#C5C2BF"/>
				<stop  offset="1" style="stop-color:#FBF5DD"/>
			</linearGradient>
			<path class="st14" d="M106.048,334.348c0,0-20.857,3.916-20.857,35.944h-9.789l-9.475-35.944H106.048z"/>
		</g>
		<linearGradient id="SVGID_12_" gradientUnits="userSpaceOnUse" x1="341.1433" y1="119.0044" x2="341.1433" y2="51.0071">
			<stop  offset="0" style="stop-color:#D1D5DE"/>
			<stop  offset="1" style="stop-color:#E9E9FD"/>
		</linearGradient>
		<path class="st15" d="M372.402,33.034h-62.516c-5.722,0-10.36,4.638-10.36,10.36v54.244c0,5.722,4.639,10.36,10.36,10.36h62.516
			c5.722,0,10.36-4.638,10.36-10.36V43.394C382.761,37.673,378.123,33.034,372.402,33.034z"/>
		<g>
			<rect x="337.527" y="93.82" class="st4" width="6.601" height="1.223"/>
		</g>
		<g>
			<path class="st4" d="M360.927,46.601v1.195h7.039v6.607h1.195v-7.802H360.927z M313.124,54.403h1.196v-6.607h7.039v-1.195h-8.235
				V54.403z M367.966,88.492v6.609h-7.039v1.196h8.234v-7.805H367.966z M314.321,88.492h-1.196v7.805h8.235v-1.196h-7.039V88.492z"
				/>
		</g>
		<g>
			<rect x="227.343" y="149.828" class="st4" width="8.817" height="1.634"/>
		</g>
		<g>
			<path class="st4" d="M258.177,86.757v1.597h9.402v8.824h1.597V86.757H258.177z M194.327,97.178h1.597v-8.824h9.402v-1.597
				h-10.999V97.178z M267.579,142.711v8.828h-9.402v1.597h10.999v-10.424H267.579z M195.924,142.711h-1.597v10.424h10.999v-1.597
				h-9.402V142.711z"/>
		</g>
		<g>
			<g>
				<path class="st16" d="M431.385,201.306h-14.71c-0.967-7.042-2.157-15.082-2.157-15.082s-0.595,6.635-1.318,15.082h-58.861
					c-0.536-7.596-1.183-13.28-1.416-13.397c-0.339-0.169-2.437,6.57-4.181,13.397h-15.933
					c4.098-17.653,11.741-45.976,16.161-47.673c6.29-2.419,31.943-10.325,31.943-10.325h14.64c0,0,26.014,7.422,28.434,15.491
					C425.91,165.23,430.155,186.434,431.385,201.306z"/>
			</g>
			<g>
				<path class="st17" d="M388.905,95.817c0,0,13.67,2.153,11.589,23.541c-2.082,21.387-14.146,19.634-14.953,19.613
					c-0.807-0.022-12.112,0.39-12.993-25.723C372.549,113.248,372.164,93.939,388.905,95.817z"/>
			</g>
			<g>
				<path class="st17" d="M395.286,132.671c0,0-0.374,8.797,0.477,10.701c0.851,1.905-11.281,8.022-18.68,1.205
					c0,0,1.787-9.56,1.289-12.948C377.877,128.24,395.286,132.671,395.286,132.671z"/>
			</g>
			<g>
				<path class="st17" d="M400.705,113.316c0,0,1.497-1.598,2.047,0.02c0.549,1.619-2.322,8.851-2.135,9.176
					c0,0-0.273,0.628-0.632,0.282C399.625,122.448,400.705,113.316,400.705,113.316z"/>
			</g>
			<g>
				<path class="st17" d="M372.704,113.046c0,0-1.466-1.628-2.047-0.02c-0.58,1.608,2.152,8.894,1.957,9.215
					c0,0,0.261,0.633,0.627,0.294C373.607,122.197,372.704,113.046,372.704,113.046z"/>
			</g>
			<g>
				<path class="st18" d="M400.699,116.597l-1.957,2.616c0,0,0.056-5.735-0.259-6.635c-0.314-0.899-0.794-3.647-1.057-4.295
					s-11.739-3.864-21.875,0.939c0,0,0.445,4.124-0.527,4.491c-0.971,0.367-0.494,6.718-0.494,6.718l-1.609-1.815
					c0,0-2.463-16.455-1.855-18.17c0.608-1.715,2.547-12.026,23.343-5.905c0,0,6.484-1.373,7.786,3.103
					C403.495,102.12,400.699,116.597,400.699,116.597z"/>
			</g>
			<g>
				<path class="st17" d="M395.763,143.372c0,0,3.084,0.658-9.822,13.027c0,0-9.155-10.126-8.858-11.822
					C377.381,142.881,395.763,143.372,395.763,143.372z"/>
			</g>
			<g>
				<polygon class="st19" points="385.941,156.399 389.463,162.422 399.91,144.682 395.387,141.526 				"/>
			</g>
			<g>
				<polygon class="st19" points="385.941,156.399 377.394,142.798 372.548,145.913 381.236,162.422 				"/>
			</g>
			<g>
				<path class="st19" d="M383.292,194.077c0.105,2.006,0.151,4.466,0.157,7.229h-0.484c-0.006-2.751-0.052-5.206-0.157-7.206
					c-0.793-15.089,2.862-33.447,2.885-37.75l0.473,0.093C386.143,160.746,382.499,179.053,383.292,194.077z"/>
			</g>
			<path class="st20" d="M379.647,136.453c0,0,3.247,3.434,7.835,2.518c4.587-0.915,6.624-3.016,6.624-3.016
				s-1.811,4.542-7.114,4.957C381.687,141.328,379.647,136.453,379.647,136.453z"/>
		</g>
		<g>
			<g>
				<g>
					<path class="st21" d="M221.259,87.362c-0.009,0-0.02-0.001-0.03-0.004c-0.309-0.075-0.798-1.553-0.892-1.849
						c-0.023-0.081-0.07-0.23-0.138-0.436c-0.382-1.183-1.279-3.955-0.929-5.017c0.11-0.335,0.283-0.529,0.51-0.577
						c0.492-0.101,1.052,0.522,1.076,0.548l0.011,0.013l0.003,0.018c0.126,1.166,0.749,6.996,0.48,7.264
						C221.325,87.349,221.294,87.362,221.259,87.362z M219.894,79.581c-0.03,0-0.061,0.003-0.09,0.009
						c-0.186,0.039-0.33,0.208-0.426,0.501c-0.338,1.027,0.583,3.875,0.93,4.948c0.067,0.207,0.115,0.357,0.138,0.438
						c0.227,0.708,0.629,1.728,0.81,1.772c0.004,0.001,0.008,0.002,0.016-0.006c0.171-0.231-0.222-4.502-0.512-7.153
						C220.685,80.009,220.266,79.581,219.894,79.581z"/>
				</g>
			</g>
			<g>
				<g>
					<path class="st22" d="M231.422,64.119c0,0,7.524-0.789,10.235,6.478c2.711,7.266,5.264,9.645,5.583,13.463
						c1.293,15.44,8.504,11.948,6.476,20.847c-2.028,8.9-3.432,10.247-3.432,10.247l-17.238-3.38l-17.462,0.056
						c0,0,6.831-3.412,5.311-10.679c-1.521-7.267-5.311-19.177-3.171-27.288C219.865,65.752,226.925,64.738,231.422,64.119z"/>
				</g>
			</g>
			<g>
				<g>
					<path class="st21" d="M240.611,87.362c-0.034,0-0.065-0.013-0.091-0.04c-0.267-0.267,0.354-6.098,0.481-7.264l0.002-0.018
						l0.012-0.013c0.023-0.027,0.584-0.651,1.075-0.548c0.229,0.047,0.401,0.242,0.511,0.577c0.35,1.062-0.546,3.834-0.93,5.017
						c-0.066,0.206-0.115,0.354-0.136,0.433c-0.096,0.298-0.584,1.776-0.892,1.851C240.632,87.361,240.622,87.362,240.611,87.362z
						 M241.111,80.09c-0.289,2.651-0.682,6.922-0.51,7.154c0.007,0.007,0.01,0.006,0.015,0.005c0.181-0.044,0.583-1.064,0.811-1.774
						c0.021-0.079,0.07-0.229,0.137-0.436c0.347-1.073,1.268-3.921,0.93-4.948c-0.097-0.294-0.24-0.463-0.426-0.501
						C241.677,79.509,241.192,80.002,241.111,80.09z"/>
				</g>
			</g>
			<g>
				<g>
					<path class="st23" d="M266.801,133.541H256.06c-2.227-4.06-4.036-7.234-4.036-7.234s-1.448,2.642-2.572,7.234h-36.16
						c-0.552-2.865-0.586-5.611-0.47-7.567c0,0-1.933,3.492-4.176,7.567h-12.147c3.223-6.037,9.263-17.028,10.637-18.461
						c1.724-1.806,11.715-8.712,18.85-10.965c7.137-2.253,11.192-0.078,11.192-0.078s7.328,1.321,14.104,4.007
						C253.944,109.099,261.302,122.687,266.801,133.541z"/>
				</g>
			</g>
			<g>
				<g>
					<path class="st24" d="M232.414,68.369c0,0,9.965,1.438,8.507,16.149c-1.459,14.711-10.255,13.543-10.842,13.531
						c-0.587-0.012-8.823,0.306-9.535-17.645C220.543,80.404,220.21,67.129,232.414,68.369z"/>
				</g>
			</g>
			<g>
				<g>
					<path class="st24" d="M236.842,95.439c0,0-0.617,7.652,0.857,9.945c1.474,2.292-1.26,5.404-6.893,4.34
						c-5.634-1.065-5.306-4.258-5.306-4.258s1.577-4.722,1.115-8.502C226.153,93.184,236.842,95.439,236.842,95.439z"/>
				</g>
			</g>
			<g>
				<g>
					<path class="st22" d="M231.274,73.7c0,0,4.656,4.895,6.818,7.374c2.164,2.478,2.412,7.266,2.412,7.266s3.644-4.45,2.12-9.632
						c-1.524-5.182-5.129-15.266-14.254-12.167c-9.125,3.098-9.464,16.73-8.393,23.489C219.977,90.03,224.073,75.109,231.274,73.7z"
						/>
				</g>
			</g>
			<g>
				<g>
					<path class="st24" d="M240.341,104.709c0,0-6.912,17.504-11.112,20.546c0,0-5.517-17.853-5.132-20.466
						C224.097,104.788,232.42,101.527,240.341,104.709z"/>
				</g>
			</g>
			<g>
				<path class="st22" d="M225.736,100.476c0,0-12.32,10.961-9.123,17.8c2.729,5.836,12.405,2.257,10.808-3.859
					C225.825,108.302,225.736,100.476,225.736,100.476z"/>
			</g>
			<g>
				<path class="st25" d="M227.347,97.383c0,0,4.246,2.006,8.378-0.958c0,0-1.147,2.37-4.19,2.707
					C228.494,99.47,227.347,97.383,227.347,97.383z"/>
			</g>
		</g>
		<g>
			<g>
				<path class="st26" d="M336.695,56.891c0,0-4.085,15.377-4.938,18.843c-0.254,1.043-1.073,2.847-2.114,4.905
					c-0.007,0.015-0.014,0.029-0.025,0.048c-0.224,0.452-0.33,0.864-0.383,1.25c-0.165,1.282,0.328,2.293-0.525,3.813l-0.154,0.639
					h-8.089c0.945-2.803,2.143-6.371,3.102-9.244c0.803-2.426,1.439-4.354,1.609-4.913c0.499-1.668,2.333-7.07,3.891-10.656
					c0.544-1.25,2.638-2.484,4.494-3.377C335.225,57.409,336.695,56.891,336.695,56.891z"/>
			</g>
			<g>
				<path class="st27" d="M331.284,34.926c0,0-2.578-16.678,11.235-16.37c13.814,0.308,13.629,8.554,13.382,16.74
					c-0.246,8.185-5.539,7.569,0.432,18.954c5.969,11.385-5.171,11.385-5.171,11.385l-8.643-11.877L331.284,34.926z"/>
			</g>
			<g>
				<path class="st21" d="M341.008,20.156c0,0-9.354,1.477-9.723,14.77c-0.369,13.293,2.523,16.124,10.709,13.354
					c8.184-2.769,10.769-16.678,10.954-18.832C353.133,27.294,353.625,18.556,341.008,20.156z"/>
			</g>
			<g>
				<path class="st28" d="M357.437,66.393c0.033,4.574-5.225,15.517-6.037,18.897c-0.097,0.394-0.199,0.757-0.302,1.099h-25.53
					c-0.132-1.576-0.256-2.924-0.319-3.685c-0.202-2.498-2.733-7.881-2.649-10.387c0.088-2.554,1.341-4.758,3.093-7.484
					c0.544-0.845,1.117-1.705,1.687-2.543c1.859-2.727,3.715-5.203,4.626-6.055c0.68-0.632,1.311-1.117,1.862-1.485
					c0.004-0.003,0.004-0.003,0.004-0.003c1.146-0.764,1.919-1.01,1.919-1.01l8.039-1.286c0,0,5.012,1.815,7.896,2.488
					C351.727,54.936,357.352,55.759,357.437,66.393z"/>
			</g>
			<g>
				<path class="st28" d="M333.875,54.745l-4.661,7.345l-4.301,6.779c0.009-0.037,0.296-1.063,0.781-4.035
					c0.093-0.564,0.192-1.199,0.299-1.909c0.03-0.21,0.076-0.419,0.134-0.625c0,0,0,0,0-0.001c1.841-4.244,7.533-7.444,7.741-7.55
					C333.873,54.745,333.875,54.745,333.875,54.745z"/>
			</g>
			<g>
				<path class="st21" d="M347.255,42.293c-0.811,1.531-1.667,11.036-1.667,11.036s-11.441,4.324-10.271,1.878
					c0.531-1.11,0.688-2.551,0.698-3.793c0.01-0.979-0.069-1.835-0.126-2.309c-0.03-0.25-0.053-0.394-0.053-0.394
					S348.066,40.761,347.255,42.293z"/>
			</g>
			<g>
				<path class="st27" d="M337.193,29.694c0,0,4.8,7.816,9.169,10.893c4.37,3.077,2.154,5.539,2.154,5.539
					s11.401-24.001,0.561-25.663c-10.839-1.662-17.485-1.785-17.794,14.462C331.284,34.926,336.209,29.571,337.193,29.694z"/>
			</g>
			<g>
				<path class="st29" d="M342.413,48.127c-1.756,2.591-6.396,3.288-6.396,3.288h-0.001c0.01-0.979-0.069-1.835-0.126-2.309
					C338.869,49.68,342.413,48.127,342.413,48.127z"/>
			</g>
			<path class="st30" d="M326.148,62.248L326.148,62.248c-0.001,0-0.249,0.515-0.453,2.585l1.685-2.543c0,0,3.01-4.315,4.041-5.437
				c1.031-1.122,2.447-2.105,2.447-2.105S327.948,57.593,326.148,62.248z"/>
			<path class="st28" d="M348.915,68.683c0,0,7.343-2.88,9.516-3.048c0,0-1.477-11.792-8.69-10.542
				C342.528,56.343,348.915,68.683,348.915,68.683z"/>
			<path class="st21" d="M335.79,53.734c0,0-5.391,8.29-3.566,9.014c1.826,0.724,11.704-0.966,15.904-8.84
				C348.128,53.908,341.848,50.687,335.79,53.734z"/>
			<path class="st26" d="M358.432,65.636c-0.374,6.5-2.22,12.665-3.74,18.324c-0.221,0.819-0.433,1.632-0.632,2.429h-14.951
				c-0.037-2.241-0.03-4.218,0.04-5.868c0.754-18.041,6.47-27.528,6.47-27.528s1.827,0.614,7.081,2.102
				c3.601,1.018,4.961,5.6,5.458,8.378c0,0,0.003,0.011,0.007,0.033C358.384,64.758,358.432,65.636,358.432,65.636z"/>
			<path class="st26" d="M335.787,53.738c-0.059,0.103-1.044,1.756-2.223,4.46c-1.771,4.061-3.983,10.49-4.171,17.575
				c-0.059,2.274-0.512,5.96-1.198,10.615h-2.983c-0.301-3.895-1.014-7.007-1.642-9.244c-0.409-1.451-0.783-2.535-0.986-3.222
				c-0.951-3.237,2.091-7.547,3.109-9.09C326.716,63.291,329.155,56.208,335.787,53.738z"/>
			<path class="st26" d="M363.195,86.388h-8.029c0-0.521-0.18-1.374-0.474-2.429c-1.459-5.185-5.776-15.278-5.776-15.278
				s-6.46-10.556-0.339-13.246c6.122-2.69,8.756,4.828,9.58,8.036c0,0,0.003,0.011,0.007,0.033
				C358.366,64.272,362.012,78.169,363.195,86.388z"/>
		</g>
		<g>
			<g>
				<path class="st21" d="M232.257,236.901c0,0,2.806-0.039,3.804-1.12c0.999-1.081,2.764-2.051,3.329-2.326
					c0.757-0.368,2.849-2.404,3.113-1.411c0.262,0.994-3.333,3.515-4.017,4.196c-0.686,0.681,2.987,0.978,3.526,1.638
					c0.538,0.66-1.336,7.608-3.782,7.07c-2.447-0.538-4.45-3.005-4.913-3c-0.463,0.005-1.806-0.309-1.806-0.309L232.257,236.901z"/>
			</g>
			<g>
				<path class="st21" d="M241.491,237.596c0,0,7.303,2.23,7.604,2.862c0.3,0.632,0.096,1.095-0.599,0.919
					c-0.696-0.174-7.149-1.911-7.149-1.911s7.981,4.362,8.34,4.8c0.21,0.255-0.14,1.168-0.526,1.115
					c-0.386-0.054-8.603-3.822-8.603-3.822s7.443,4.091,7.629,4.577c0.162,0.425-0.337,1.207-0.915,0.951
					c-0.578-0.256-7.751-3.572-7.751-3.572s5.187,3.395,5.106,3.955c-0.049,0.342-0.322,1.14-1.628,0.211
					c-1.305-0.929-4.653-2.712-4.653-2.712L241.491,237.596z"/>
			</g>
			<g>
				<path class="st31" d="M216.895,360.099c0,0,2.343,3.505,5.629,4.263c3.285,0.757,6.522,1.962,6.548,4.035
					c0.024,2.074-9.502,3.311-13.263,1.22c-5.613-3.12-6.183-2.179-6.806-3.738c-0.621-1.56,0.748-5.732,0.707-6.227
					C209.661,359.039,216.895,360.099,216.895,360.099z"/>
			</g>
			<g>
				<path class="st32" d="M216.531,358.371c0,0,0.428,1.692,0.364,1.728c-0.064,0.037-7.406,0.912-7.184-0.447
					c0.181-1.102,0.437-2.3,0.437-2.3L216.531,358.371z"/>
			</g>
			<g>
				<path class="st31" d="M170.791,359.867c0,0,1.671,3.352,4.527,4.495c3.052,1.221,5.5,2.623,5.444,4.645
					c-0.056,2.02-7.461,4.069-12.848,0.19c-3.405-2.45-4.483-2.463-5.029-4.005c-0.546-1.543,0.948-5.553,0.928-6.037
					C163.787,358.556,170.791,359.867,170.791,359.867z"/>
			</g>
			<g>
				<path class="st32" d="M170.875,358.127c0,0-0.02,1.708-0.083,1.741c-0.063,0.033-7.159,0.617-6.979-0.712
					c0.143-1.057,0.689-2.333,0.689-2.333L170.875,358.127z"/>
			</g>
			<g>
				<path class="st33" d="M196.892,255.703c0,0,9.321,35.704,12.869,43.96c3.287,7.648,4.373,18.343,4.825,23.715
					c0.57,6.757,3.959,33.069,4.358,35.045c0.399,1.975-10.964,1.093-10.964,1.093s-7.835-45.494-11.087-52.133
					c-2.171-4.43-14.765-36.203-16.206-34.373c-1.441,1.83-3.229,33.664-4.295,38.949c-1.067,5.284-4.343,47.04-4.343,47.04
					s-7.326,1.081-9.283-0.576c0,0-0.891-35.654-0.212-45.561c0.26-3.776-4.424-45.271,1.582-61.977
					C167.308,242.055,196.892,255.703,196.892,255.703z"/>
			</g>
			<g>
				<path class="st34" d="M144.98,230.097c0,0.409,0.771,2.042,2.002,4.391c1.801-3.599,3.215-6.557,3.676-7.643
					c1.517-3.584,9.334-11.796,9.334-11.796s0,0.006,0.003,0.017c0,0.004,0.001,0.007,0.003,0.011
					c0.001,0.002,0.002,0.005,0.002,0.009c0.003,0.01,0.006,0.023,0.009,0.033c0.005,0.019,0.011,0.042,0.019,0.069
					c0.004,0.014,0.008,0.029,0.011,0.044c0.003,0.011,0.007,0.023,0.009,0.032c0.425,1.586,3.039,11.497,3.135,16.379
					c0.106,5.314,1.493,15.146,1.493,15.146l0.005,0.001l1.633,0.229l3.611,0.509l0.432,0.061l1.051,0.147l9.577,1.347l3.396,0.478
					l0.46,0.065l1.941,0.273l5.361,0.754l1.367,0.192l0.013,0.002l1.023,0.144l1.416,0.199c0,0,0,0,0.001-0.001
					c0.039-0.053,1.377-1.885,1.171-5.954c-0.131-2.627-0.448-7.563-0.316-12.142c0-0.023,0.002-0.047,0.002-0.07
					c0-0.059,0.004-0.116,0.005-0.174c0.002-0.02,0.002-0.039,0.003-0.058v-0.01c0.083-2.516,0.305-4.901,0.775-6.713
					c0.315-1.226,0.527-2.44,0.665-3.578c0.007-0.056,0.014-0.112,0.02-0.166c0.024-0.212,0.047-0.42,0.067-0.626
					c0.305-3.177,0.064-5.595,0.05-5.736l0.006,0.011c0.097,0.212,0.795,2.773,1.712,5.935c1.548,5.346,3.716,12.411,4.639,12.749
					c1.344,0.495,23.102,6.939,27.8,7.599c0.544,0.076,0.859,0.076,0.889-0.02c0.021-0.069,0.043-0.139,0.065-0.212
					c0.571-1.883,1.356-5.082,1.481-5.598c0.013-0.047,0.018-0.073,0.018-0.073l-0.842-0.252L210.5,229.01l-10.822-31.208
					c-0.227-0.181-2.884-1.468-4.826-2.39c-1.979-0.942-4.366-2.327-6.527-3.511c-1.102-0.603-2.145-1.153-3.046-1.567l-0.138-0.063
					l-0.001-0.002c-1.491-0.681-2.481-1.133-2.481-1.133s-0.001,0-0.005,0c-0.034-0.003-0.27-0.026-0.647-0.062
					c-2.079-0.197-8.538-0.803-10.703-0.93c-0.178-0.011-0.328-0.018-0.444-0.02c-0.099-0.004-0.172-0.005-0.218-0.001
					c-0.274,0.016-1.605,0.481-3.355,1.146h-0.001c-0.066,0.025-0.132,0.05-0.199,0.077c-0.083,0.03-0.165,0.062-0.248,0.094
					c-0.152,0.058-0.306,0.118-0.463,0.178c-0.312,0.123-0.635,0.248-0.961,0.377c-0.112,0.045-0.226,0.089-0.342,0.135
					c-3.501,1.39-7.513,3.108-8.467,3.793c-0.629,0.451-2.592,4.149-4.866,8.722c-2.929,9.384-6.642,23.749-6.758,27.293
					C144.981,229.993,144.98,230.047,144.98,230.097z"/>
			</g>
			<g>
				<path class="st35" d="M195.964,251.19c0,0,0.72,0.863,0.929,4.513c0,0-29.626-3.457-32.758-4.819c0,0-0.123-4.023,0.542-4.092
					C165.406,246.715,195.964,251.19,195.964,251.19z"/>
			</g>
			<g>
				<path class="st21" d="M170.699,187.118c0.093,4.65,9.095,7.193,9.095,7.193s3.767-4.721,2.866-5.173
					c-0.353-0.177-0.496-0.882-0.54-1.672c-0.041-0.752,0.007-1.582,0.051-2.109c0.026-0.329,0.052-0.541,0.052-0.541
					s-1.286-1.357-2.922-2.974c-2.859-2.827-6.791-6.449-6.797-5.009c0,0.076,0.01,0.168,0.034,0.273
					C173.227,180.35,170.699,187.118,170.699,187.118z"/>
			</g>
			<g>
				<path class="st31" d="M171.445,247.504c0,0-0.646,4.079-0.702,5.141l-1.371-0.273c0,0,0.378-4.315,0.6-5.038L171.445,247.504z"
					/>
			</g>
			<g>
				<path class="st31" d="M193.492,250.715c0,0,0.52,3.707,0.532,5.106l-1.449-0.188c0,0-0.297-4.628-0.464-5.112L193.492,250.715z"
					/>
			</g>
			<g>
				<path class="st29" d="M174.166,180.306L174.166,180.306c0.018,0.027,0.4,0.599,1.052,1.419c1.383,1.738,3.98,4.594,6.902,5.741
					c-0.041-0.752,0.007-1.582,0.051-2.109c0.299-0.008,0.598-0.043,0.894-0.108c-0.8-1.399-1.958-2.866-1.958-2.866l-1.807-0.541
					L174.166,180.306z"/>
			</g>
			<g>
				<path class="st21" d="M172.438,176.897c0.779,1.694,1.519,2.922,1.728,3.409l0.001,0c0.136,0.317,0.509,0.834,1.051,1.418
					c1.484,1.598,4.242,3.706,6.953,3.633c0.299-0.008,0.598-0.043,0.894-0.108c1.095-0.24,2.387-0.748,3.099-2.14
					c5.616-10.996,1.55-19.988,1.55-19.988s-15.357-4.342-17.759,0.28C168.267,166.644,170.609,172.916,172.438,176.897z"/>
			</g>
			<g>
				<path class="st36" d="M187.713,163.12c0,0,1.426-0.079,1.779-2.783c0.348-2.672-0.356-3.412-0.356-3.412
					s-6.34-2.654-8.617-2.999c-2.278-0.345-7.875-0.677-9.187,0.824c0,0-3.189-0.741-4.057,4.552
					c-1.378,8.396,4.695,16.55,4.695,16.55s-0.052-5.485,1.158-6.212c1.209-0.727,2.254,1.001,2.254,1.001l2.475,0.443
					c0,0-3.759-8.116,0.751-8.417C183.117,162.369,185.131,163.591,187.713,163.12z"/>
			</g>
			<g>
				<path class="st21" d="M175.315,168.456c-0.236-2.417-4.606-3.34-4.313-0.807c0.293,2.533,2.446,4.967,3.439,4.881
					C175.436,172.445,175.494,170.297,175.315,168.456z"/>
			</g>
			<g>
				<path class="st37" d="M146.981,234.488c1.904,3.633,4.907,8.976,7.873,14.158c-0.39,0.729-0.771,1.452-1.137,2.165
					c-0.891,1.746-1.684,3.434-2.245,5.01c-0.677,1.894-1.617,6.744,0.182,7.645l9.479,5.23c0,0,0.065-0.185,0.191-0.528
					c0.315-0.851,0.995-2.672,1.937-5.029c0.03-0.076,0.126-0.302,0.266-0.633c0.188-0.444,0.46-1.08,0.771-1.804
					c0.139-0.326,0.286-0.667,0.437-1.019c0.171-0.402,0.35-0.817,0.527-1.229c0.257-0.6,0.515-1.198,0.752-1.751
					c0.647-1.505,1.152-2.677,1.152-2.677c0.032-0.069,0.064-0.139,0.097-0.208c0.307-0.667,0.625-1.337,0.946-2.004
					c0.499-1.033,1.011-2.063,1.535-3.069c0.053-0.103,0.105-0.205,0.159-0.305c0.094-0.178,0.188-0.355,0.281-0.529
					c0.059-0.108,0.117-0.216,0.175-0.322c0.013-0.024,0.027-0.048,0.04-0.072c0.023-0.042,0.047-0.084,0.07-0.127
					c2.739-4.996,5.825-9.176,6.81-15.305c0.096-0.592,0.185-1.18,0.272-1.764c0.142-0.973,0.273-1.933,0.393-2.874
					c0.045-0.357,0.089-0.708,0.131-1.059c0.493-4.088,0.788-7.731,1.025-10.268c0.742-7.907-4.101-16.466-7.819-21.754
					c-1.987-2.828-3.653-4.72-3.974-5.079c-0.008-0.007-0.013-0.013-0.019-0.019c-0.066,0.025-0.132,0.05-0.199,0.077
					c-0.083,0.03-0.165,0.062-0.248,0.094c-0.152,0.058-0.306,0.118-0.463,0.178c-0.312,0.123-0.635,0.248-0.961,0.377
					c-0.112,0.045-0.226,0.089-0.342,0.135c-3.6,1.412-11.181,3.497-12.135,4.181c-0.55,0.394-1.782,4.002-3.204,8.559
					c-2.93,9.385-4.667,23.534-4.753,27.068c-0.001,0.056-0.002,0.11-0.002,0.16C144.98,230.506,145.751,232.14,146.981,234.488z
					 M161.383,232.723c0,1.764-0.574,3.783-1.455,5.935c-0.023,0.053-0.045,0.108-0.067,0.162c-0.607-1.297-1.18-2.538-1.694-3.688
					c0-0.002-0.002-0.003-0.002-0.005c-1.41-3.156-2.378-5.62-2.432-6.593c-0.349-6.26,4.262-13.466,4.262-13.466
					c0,0.004,0.001,0.007,0.003,0.011c0.001,0.002,0.002,0.005,0.002,0.009c0.003,0.01,0.006,0.023,0.009,0.033
					c0.007,0.023,0.013,0.046,0.019,0.069c0.004,0.014,0.008,0.029,0.011,0.044c0.003,0.011,0.007,0.023,0.009,0.032
					C160.993,218.989,161.383,232.723,161.383,232.723z"/>
			</g>
			<path class="st38" d="M179.383,256.309l-27.014,12.023c-1.528,0.681-3.318-0.006-3.998-1.535l-7.395-16.615
				c-0.68-1.529,0.007-3.318,1.535-3.998l27.014-12.024c1.528-0.679,3.318,0.007,4,1.536l7.395,16.615
				C181.599,253.84,180.911,255.629,179.383,256.309z"/>
			<g>
				<path class="st37" d="M185.209,190.389c0,0,1.266,4.218,2.906,14.746c0,0.001,0,0.002,0,0.003
					c0.057,0.354,0.112,0.714,0.167,1.081c0.006,0.041,0.013,0.086,0.02,0.128c0.037,0.243,0.073,0.49,0.11,0.74
					c0.005,0.028,0.01,0.058,0.014,0.088c0.026,0.167,0.051,0.337,0.074,0.508c0.062,0.415,0.123,0.838,0.185,1.271
					c0.73,5.125,1.757,13.846,2.742,22.65v0.003c0.779,6.939,2.554,14.06,3.119,19.375c0,0.004,0.001,0.007,0.001,0.011
					c0.112,1.042,0.377,2.429,0.738,3.994c0.041,0.177,0.082,0.356,0.124,0.538c1.589,6.709,4.671,16.202,4.671,16.202l0.897-0.829
					l2.659-2.455c0.612-0.563,0.844-1.43,0.597-2.224c-1.474-4.757-6.486-21.591-7.404-33.428c-0.001-0.004-0.001-0.007-0.001-0.01
					c0.451-4.16,1.602-9.74,1.43-10.542c0.011,0.027,0.021,0.057,0.031,0.086c0.528,1.468,1.113,3.063,1.702,4.616v0.001
					c1.582,4.171,3.2,8.036,3.875,8.282c1.499,0.552,28.435,8.499,28.63,7.39c0.019-0.112,0.043-0.231,0.068-0.356
					c0.024-0.124,0.052-0.254,0.08-0.39c0.332-1.519,0.936-3.694,1.358-5.164c0.062-0.218,0.121-0.42,0.173-0.601
					c0.178-0.609,0.293-0.995,0.293-0.995l-22.778-7.475l-11.493-30.056c-0.226-0.179-3.158-1.758-5.1-2.682
					c-2.021-0.963-4.58-2.15-6.849-3.198c-1.084-0.501-2.105-0.97-2.967-1.366L185.209,190.389z"/>
			</g>
			<g>
				<path class="st33" d="M169.787,200.809l4.379,2.47l-1.871,1.907l4.982,26.901c1.015-6.306,1.478-12.294,1.822-15.966
					c1.146-12.222-11.053-26.009-11.812-26.853c-0.586,0.222-1.22,0.468-1.873,0.726L169.787,200.809z"/>
			</g>
			<g>
				<path class="st33" d="M185.141,190.27c0,0,1.637,5.344,3.544,18.684c0.731,5.125,1.758,13.846,2.743,22.65l1.019-25.194
					l-2.087-2.26l1.855-2.318l-3.969-10.134c-1.084-0.501-2.104-0.97-2.968-1.366L185.141,190.27z"/>
			</g>
			<g>
				<path class="st39" d="M167.043,189.362l3.656-2.244c0,0,0.102,1.992,9.095,7.193l-2.553,7.193L167.043,189.362z"/>
			</g>
			<g>
				<path class="st39" d="M182.186,188.121c0,0-0.142,2.149-2.393,6.189l4.985,6.498l0.362-10.539L182.186,188.121z"/>
			</g>
			<g>
				<path class="st23" d="M179.78,194.311c0,0-0.966,3.864-0.618,4.946c0,0,2.124,0.773,3.652-0.193
					C182.813,199.063,181.731,196.359,179.78,194.311z"/>
			</g>
			<g>
				<g>
					<path class="st40" d="M184.773,250.035c0.54-2.726,0.027-10.895,0.004-11.241l-0.463,0.03
						c0.005,0.083,0.533,8.455,0.004,11.121L184.773,250.035z"/>
				</g>
			</g>
			<g>
				<path class="st41" d="M180.991,248.778c0,0,4.359,0.521,5.801,0.88l-0.189,4.887l-5.708-0.609L180.991,248.778z"/>
			</g>
			<g>
				<path class="st23" d="M181.946,198.716c0,0,4.861,12.279,4.069,26.021c-0.822,14.249-2.171,19.415-2.171,19.415l-2.998,3.759
					l-1.322-4.621c0,0,4.023-18.166,1.426-35.842c-0.471-3.204-1.17-9.274-1.17-9.274L181.946,198.716z"/>
			</g>
			<g>
				<path class="st21" d="M167.336,256.7c0,0,1.044,2.086,2.087,2.434c1.043,0.348,2.565,2.043,2.565,2.043l-7.346,3.868
					c0,0-1.956-3.825-2.044-6.259C162.511,256.351,167.336,256.7,167.336,256.7z"/>
			</g>
			<g>
				<path class="st34" d="M168.033,256.895l0.486,0.978c0,0-4.665,3.412-5.923,3.629l-0.431-1.303L168.033,256.895z"/>
			</g>
			<g>
				<path class="st37" d="M168.52,256.938c0,0-3.496,2.891-6.442,4.224l-13.198-23.145l8.423-4.606
					C157.303,233.412,168.288,255.2,168.52,256.938z"/>
			</g>
			<g>
				<path class="st33" d="M198.119,216.012c0.162,3.298,0.139,6.225,0.139,6.225s0,0.001,0,0.003
					c0.001,0.015,0.004,0.105,0.011,0.252c0.007-0.056,0.014-0.112,0.02-0.166c0.528,1.468,1.113,3.063,1.702,4.616
					c0.137-1.799,0.173-3.478,0.133-5.031c-0.237-9.245-3.144-14.093-3.144-14.093C197.646,209.43,197.966,212.887,198.119,216.012z
					"/>
			</g>
		</g>
		<g>
			<g>
				<path class="st21" d="M312.81,185.533c0,0-0.137-1.699,0.062-2.492c0.346-1.369-0.163-3.587,1.558-4.663
					c1.723-1.076,6.674,3.43,7.063,4.688c0.39,1.259-1.462,3.404-5.333,5.206C312.289,190.075,312.81,185.533,312.81,185.533z"/>
			</g>
			<g>
				<path class="st21" d="M313.905,178.825c0,0,1.671-2.516,3.878-5.086c1.936-2.255,4.653-4.783,5.226-4.303
					c0.871,0.729-1.595,2.547-3.363,4.912c-1.627,2.177-0.937,2.023-0.937,2.023s-0.198,0.033,2.041-1.992
					c2.409-2.177,5.088-4.415,5.565-4.031c0.591,0.477,0.624,0.586-0.119,1.52c0.544-0.444,0.745-0.358,0.954-0.147
					c1.085,1.089-1.949,4.843-3.155,6.334c0.933-1.139,1.741-1.875,1.974-0.779c0.266,1.253-4.266,6.366-5.712,8.354
					C318.684,187.798,313.905,178.825,313.905,178.825z"/>
			</g>
			<g>
				<g>
					<g>
						<g>
							<path class="st42" d="M255.99,359.463c0,0,4.712,2.785,6.844,3.821c2.134,1.035,10.423,1.332,11.242,2.11
								c0.82,0.779,0.52,3.257-0.854,3.509c-1.374,0.253-11.449,1.164-14.811,0.378c-3.362-0.786-9.649,0.537-11.041,0.064
								c-1.394-0.473-0.494-7.979,0.043-9.665C247.952,357.998,255.99,359.463,255.99,359.463z"/>
						</g>
					</g>
				</g>
			</g>
			<g>
				<g>
					<g>
						<g>
							<path class="st43" d="M256.382,356.394l-0.392,3.069c0,0-6.3,1.177-8.209,0.206l0.473-3.188L256.382,356.394z"/>
						</g>
					</g>
				</g>
			</g>
			<g>
				<path class="st44" d="M281.653,251.565c-0.068,2.125-0.455,6.737-0.905,11.579c-0.1,1.076-0.206,2.164-0.31,3.239
					c-0.629,6.516-1.263,12.543-1.263,12.543c-0.796,5.187-2.437,14.193-4.271,21.002v0.002c-0.531,1.965-1.074,3.747-1.621,5.202
					c-0.532,1.415-1.065,2.521-1.583,3.183c-3.903,4.987-12.853,49.194-12.853,49.194l-12.219-0.093c0,0,2.687-29.935,5.388-37.522
					c3.013-8.474,8.247-19.895,6.947-28.069c-0.813-5.129-1.863-21.455-1.863-21.455s-1.02-18.345,3.777-31.781
					C262.076,235.231,281.653,251.565,281.653,251.565z"/>
			</g>
			<g>
				<g>
					<g>
						<g>
							<path class="st42" d="M290.324,360.611c0,0,4.678,2.842,6.799,3.903c2.121,1.061,10.406,1.458,11.215,2.246
								c0.81,0.787,0.479,3.261-0.897,3.498c-1.376,0.236-11.462,1.026-14.813,0.199c-3.353-0.825-9.655,0.421-11.042-0.068
								c-1.386-0.489-0.398-7.984,0.16-9.662C282.304,359.048,290.324,360.611,290.324,360.611z"/>
						</g>
					</g>
				</g>
			</g>
			<g>
				<g>
					<g>
						<g>
							<path class="st43" d="M290.753,357.547l-0.429,3.064c0,0-6.313,1.103-8.21,0.109l0.51-3.182L290.753,357.547z"/>
						</g>
					</g>
				</g>
			</g>
			<g>
				<path class="st44" d="M276.148,313.71c-0.318-9.777-1.181-16.273-3.698-21.921c-2.113-4.743-3.92-19.64-3.92-19.64
					s-5.727-17.456-4.566-31.678c0.291-3.551,22.423,5.378,22.423,5.378c0.484,2.07,1.965,8.587,2.49,13.421
					c2.996,27.614,1.874,45.603,1.874,45.603c-1.711,6.098,2.613,54.072,2.613,54.072h-12.458c0,0-3.265-17.067-3.609-27.681
					C277.299,331.263,276.025,315.4,276.148,313.71z"/>
			</g>
			<g>
				<g>
					<path class="st45" d="M275.871,187.193c0,0,5.804,9.516,7.501,14.825c1.698,5.31,0.331,20.748,0.63,23.85
						c0.929,9.626,2.284,20.225,2.284,20.225l-19.458,12.429c0,0-3.492-8.158-6.537-18.315c-3.046-10.158-3.29-19.302-3.262-25.413
						c0.089-19.167,10.451-29.989,10.451-29.989L275.871,187.193z"/>
				</g>
			</g>
			<g>
				<g>
					<path class="st21" d="M283.021,161.671c0,0,3.989,4.27,2.862,5.393c-0.931,0.928,2.737,5.183,3.259,5.898
						c0.522,0.716-1.628,1.9-1.984,2.542c-0.354,0.641-0.144,7.339-1.992,8.027c-1.845,0.688-11.171-0.04-14.133-1.848
						c-2.962-1.808-7.74-12.234-7.397-17.251C263.981,159.415,276.005,154.225,283.021,161.671z"/>
				</g>
			</g>
			<g>
				<g>
					<path class="st21" d="M279.249,182.084c0,0-0.068,0.569-0.16,1.451c-0.034,0.37-0.079,0.791-0.119,1.252
						c-0.023,0.273-0.046,0.563-0.074,0.859c-0.006,0.08-0.017,0.159-0.023,0.239c-0.012,0.137-0.023,0.273-0.034,0.416
						c-0.046,0.643-0.092,1.309-0.125,1.969c-0.085,1.702-0.097,3.329,0.086,4.234c0.489,2.481-10.198-7.99-10.198-7.99
						s0.904-8.121,0.466-17.248C268.624,158.138,279.249,182.084,279.249,182.084z"/>
				</g>
			</g>
			<g>
				<g>
					<path class="st46" d="M283.84,162.608c0,0,1.887-4.452-3.934-7.544c-6.852-3.639-14.118,5.497-15.081,6.036
						c-0.964,0.538-5.345,5.468-1.058,12.004c5.409,8.246,5.124,7.97,5.124,7.97s0.542-6.084,0.507-7.258
						c-0.065-2.145,5.563-2.4,5.563-2.4s-2.311-3.077,0.258-4.456C277.79,165.581,280.795,162.307,283.84,162.608z"/>
				</g>
			</g>
			<g>
				<g>
					<path class="st21" d="M272.007,170.639c-0.41-0.576-1.913-3.117-3.847-0.885c-1.933,2.232,3.252,6.405,3.68,6.364
						C272.27,176.076,275.454,175.482,272.007,170.639z"/>
				</g>
			</g>
			<g>
				<path class="st47" d="M287.347,250.195c0,0-0.967-4.553-1.155-5.234l-28.455,4.735l0.292,3.678
					C258.029,253.375,278.53,252.147,287.347,250.195z"/>
			</g>
			<g>
				<path class="st23" d="M255.204,230.14c0,0,4.372,18.879-2.475,40.903c-0.835,2.688,18.95-0.418,18.95-0.418L255.204,230.14z"/>
			</g>
			<g>
				<g>
					<path class="st23" d="M280.339,269.241c0,0-14.055,3.085-18.001,1.691c0,0-5.744-20.894-7.748-42.103
						c-0.156-1.64-0.287-3.278-0.393-4.909c0-0.004,0-0.004,0-0.004c-1.118-17.252,3.273-34.757,13.279-39.109
						c0.282,0.19,14.375,12.616,14.108,23.989c-0.019,0.769-0.03,1.542-0.036,2.314c-0.008,1.398,0.002,2.8,0.033,4.198l0.001,0.002
						c0.09,4.326,0.358,8.642,0.739,12.833c0.039,0.436,0.081,0.873,0.123,1.306c0.069,0.705,0.142,1.404,0.215,2.098
						c0.101,0.927,0.204,1.844,0.314,2.755C285.248,253.282,280.339,269.241,280.339,269.241z"/>
				</g>
			</g>
			<g>
				<path class="st48" d="M279.761,195.504c0,0,2.648,10.482,3.657,23.669c0.845,11.034,1.972,18.838,1.972,18.838l1.69,5.462
					l0.695-5.268c0,0-0.619-14.24-1.445-20.033c-0.834-5.84-1.198-13.255-5.867-22.873L279.761,195.504z"/>
			</g>
			<g>
				<path class="st48" d="M279.466,195.512c0,0,0.319,0.306,0.77,0.373c0.452,0.067,1.099-0.654-1.21-3.702L279.466,195.512z"/>
			</g>
			<g>
				<g>
					<path class="st49" d="M268.726,183.23c0,0,6.544,6.163,10.438,7.523l0.742,5.904l-12.428-11.851L268.726,183.23z"/>
				</g>
			</g>
			<g>
				<path class="st23" d="M273.119,207.09c-2.58-0.916-13.3-6.121-10.448-12.196c2.851-6.075,10.201-2.843,15.734-0.372
					c5.789,2.586,19.455,10.532,20.536,9.791c1.081-0.739,5.808-7.504,6.663-9.012c0.854-1.508,6.014-11.143,6.5-11.869
					c0.475-0.709,7.969,5.584,7.969,5.584s-13.457,23.901-17.079,27.706C299.373,220.527,273.119,207.09,273.119,207.09z"/>
			</g>
			<g>
				<path class="st42" d="M274.904,299.928v0.002c-0.531,1.965-1.074,3.747-1.621,5.202c-0.002-0.002-0.002-0.002-0.002-0.002
					l-4.261-25.42C270.099,282.121,274.904,299.928,274.904,299.928z"/>
			</g>
			<g>
				<path class="st50" d="M281.581,215.307l-12.332-10.071c3.266,1.751,11.294,5.416,12.299,5.873
					C281.54,212.508,281.551,213.91,281.581,215.307z"/>
			</g>
			<g>
				<path class="st29" d="M279.089,183.535c-0.034,0.37-0.079,0.791-0.119,1.252c-0.023,0.273-0.046,0.563-0.074,0.859
					c-4.086-0.273-7.245-3.528-7.438-3.728C273.12,183.239,279.089,183.535,279.089,183.535z"/>
			</g>
		</g>
		<g class="st51">
			<linearGradient id="SVGID_13_" gradientUnits="userSpaceOnUse" x1="437.2404" y1="87.8086" x2="445.6953" y2="87.8086">
				<stop  offset="0" style="stop-color:#D1D5DE"/>
				<stop  offset="1" style="stop-color:#E9E9FD"/>
			</linearGradient>
			<polygon class="st52" points="439.222,89.864 445.695,89.864 443.714,85.754 437.24,85.754 			"/>
			<linearGradient id="SVGID_14_" gradientUnits="userSpaceOnUse" x1="434.2111" y1="87.8086" x2="437.7347" y2="87.8086">
				<stop  offset="0" style="stop-color:#D1D5DE"/>
				<stop  offset="1" style="stop-color:#E9E9FD"/>
			</linearGradient>
			<polygon class="st53" points="436.193,89.864 437.735,89.864 435.753,85.754 434.211,85.754 			"/>
			<linearGradient id="SVGID_15_" gradientUnits="userSpaceOnUse" x1="412.9538" y1="83.9412" x2="440.0399" y2="83.9412">
				<stop  offset="0" style="stop-color:#D1D5DE"/>
				<stop  offset="1" style="stop-color:#E9E9FD"/>
			</linearGradient>
			<polygon class="st54" points="413.825,84.969 440.04,84.969 439.17,82.914 412.954,82.914 			"/>
		</g>
		<g>
			<g>
				<linearGradient id="SVGID_16_" gradientUnits="userSpaceOnUse" x1="262.534" y1="17.7654" x2="273.6427" y2="17.7654">
					<stop  offset="0" style="stop-color:#D1D5DE"/>
					<stop  offset="1" style="stop-color:#E9E9FD"/>
				</linearGradient>
				<path class="st55" d="M273.038,19.439h-9.898c-0.334,0-0.605-0.271-0.605-0.605v-2.138c0-0.334,0.272-0.605,0.605-0.605h9.898
					c0.335,0,0.605,0.271,0.605,0.605v2.138C273.643,19.168,273.372,19.439,273.038,19.439z"/>
			</g>
			<g>
				<linearGradient id="SVGID_17_" gradientUnits="userSpaceOnUse" x1="262.534" y1="25.7932" x2="273.6427" y2="25.7932">
					<stop  offset="0" style="stop-color:#D1D5DE"/>
					<stop  offset="1" style="stop-color:#E9E9FD"/>
				</linearGradient>
				<path class="st56" d="M273.038,27.467h-9.898c-0.334,0-0.605-0.271-0.605-0.605v-2.138c0-0.334,0.272-0.605,0.605-0.605h9.898
					c0.335,0,0.605,0.271,0.605,0.605v2.138C273.643,27.196,273.372,27.467,273.038,27.467z"/>
			</g>
			<g>
				<linearGradient id="SVGID_18_" gradientUnits="userSpaceOnUse" x1="262.534" y1="33.8209" x2="273.6427" y2="33.8209">
					<stop  offset="0" style="stop-color:#D1D5DE"/>
					<stop  offset="1" style="stop-color:#E9E9FD"/>
				</linearGradient>
				<path class="st57" d="M273.038,35.495h-9.898c-0.334,0-0.605-0.271-0.605-0.605v-2.138c0-0.334,0.272-0.605,0.605-0.605h9.898
					c0.335,0,0.605,0.271,0.605,0.605v2.138C273.643,35.224,273.372,35.495,273.038,35.495z"/>
			</g>
			<g>
				<linearGradient id="SVGID_19_" gradientUnits="userSpaceOnUse" x1="278.2292" y1="17.7654" x2="281.3908" y2="17.7654">
					<stop  offset="0" style="stop-color:#D1D5DE"/>
					<stop  offset="1" style="stop-color:#E9E9FD"/>
				</linearGradient>
				<path class="st58" d="M280.786,19.439h-1.951c-0.334,0-0.605-0.271-0.605-0.605v-2.138c0-0.334,0.272-0.605,0.605-0.605h1.951
					c0.333,0,0.605,0.271,0.605,0.605v2.138C281.391,19.168,281.119,19.439,280.786,19.439z"/>
			</g>
			<g>
				<linearGradient id="SVGID_20_" gradientUnits="userSpaceOnUse" x1="278.2292" y1="25.7932" x2="281.3908" y2="25.7932">
					<stop  offset="0" style="stop-color:#D1D5DE"/>
					<stop  offset="1" style="stop-color:#E9E9FD"/>
				</linearGradient>
				<path class="st59" d="M280.786,27.467h-1.951c-0.334,0-0.605-0.271-0.605-0.605v-2.138c0-0.334,0.272-0.605,0.605-0.605h1.951
					c0.333,0,0.605,0.271,0.605,0.605v2.138C281.391,27.196,281.119,27.467,280.786,27.467z"/>
			</g>
			<g>
				<linearGradient id="SVGID_21_" gradientUnits="userSpaceOnUse" x1="278.2292" y1="33.8209" x2="281.3908" y2="33.8209">
					<stop  offset="0" style="stop-color:#D1D5DE"/>
					<stop  offset="1" style="stop-color:#E9E9FD"/>
				</linearGradient>
				<path class="st60" d="M280.786,35.495h-1.951c-0.334,0-0.605-0.271-0.605-0.605v-2.138c0-0.334,0.272-0.605,0.605-0.605h1.951
					c0.333,0,0.605,0.271,0.605,0.605v2.138C281.391,35.224,281.119,35.495,280.786,35.495z"/>
			</g>
		</g>
		<g>
			<linearGradient id="SVGID_22_" gradientUnits="userSpaceOnUse" x1="227.339" y1="205.5925" x2="242.5165" y2="205.5925">
				<stop  offset="0" style="stop-color:#D1D5DE"/>
				<stop  offset="1" style="stop-color:#E9E9FD"/>
			</linearGradient>
			<polygon class="st61" points="230.896,209.281 242.517,209.281 238.961,201.904 227.339,201.904 			"/>
			<linearGradient id="SVGID_23_" gradientUnits="userSpaceOnUse" x1="221.901" y1="205.5925" x2="228.2271" y2="205.5925">
				<stop  offset="0" style="stop-color:#D1D5DE"/>
				<stop  offset="1" style="stop-color:#E9E9FD"/>
			</linearGradient>
			<polygon class="st62" points="225.458,209.281 228.227,209.281 224.67,201.904 221.901,201.904 			"/>
		</g>
	</g>
</g>
</svg>
