<svg id="Layer_1" data-name="Layer 1" xmlns="http://www.w3.org/2000/svg" viewBox="0 0 986.83 548.73"><defs><style>.cls-1,.cls-2,.cls-3,.cls-7,.cls-9{fill:none;stroke:#0f46ca;}.cls-1,.cls-2,.cls-3,.cls-7{stroke-miterlimit:10;}.cls-1,.cls-2,.cls-3,.cls-9{stroke-width:2px;}.cls-2{stroke-dasharray:11.9 11.9;}.cls-3{stroke-dasharray:12.14 12.14;}.cls-4{fill:#0a1454;}.cls-5{fill:#0f46ca;}.cls-6{fill:#acc1bd;}.cls-8{fill:#fff;}.cls-9{stroke-linecap:round;stroke-linejoin:round;}</style></defs><circle class="cls-1" cx="369.44" cy="332.86" r="99.56"/><circle class="cls-2" cx="369.44" cy="332.86" r="90.91" transform="translate(-34.4 623.02) rotate(-77.72)"/><circle class="cls-1" cx="881.44" cy="332.86" r="99.56"/><circle class="cls-2" cx="881.44" cy="332.86" r="90.91" transform="translate(368.67 1123.3) rotate(-77.72)"/><ellipse class="cls-1" cx="116.53" cy="293.09" rx="109.55" ry="110.42"/><ellipse class="cls-3" cx="116.53" cy="293.09" rx="100.03" ry="100.83"/><ellipse class="cls-1" cx="616.53" cy="293.09" rx="109.55" ry="110.42"/><ellipse class="cls-3" cx="616.53" cy="293.09" rx="100.03" ry="100.83"/><path class="cls-1" d="M171.1,358.82a8.46,8.46,0,0,1-8.4,8.52H81.94a8.46,8.46,0,0,1-8.39-8.52V245.55A8.46,8.46,0,0,1,81.94,237H162.7a8.47,8.47,0,0,1,8.4,8.53Z"/><path class="cls-1" d="M72.65,353.34H65.94a8.46,8.46,0,0,1-8.39-8.52V231.55A8.46,8.46,0,0,1,65.94,223H146.7a8.47,8.47,0,0,1,8.4,8.53v5"/><path class="cls-4" d="M346.88,389.36a1,1,0,1,0,1,1A1,1,0,0,0,346.88,389.36Zm-35-20.54a1,1,0,1,0,1,1A1,1,0,0,0,311.88,368.82ZM345,346.09a1,1,0,1,0,1-1A1,1,0,0,0,345,346.09Zm-3.65-3.54a1,1,0,1,0,2.08,0,1,1,0,1,0-2.08,0Zm-1.71-3.23a1,1,0,1,0-1-1A1,1,0,0,0,339.6,339.32Zm-1.71-6.86a1,1,0,1,0,1,1A1,1,0,0,0,337.89,332.46Zm-17.38-52.14a1,1,0,1,0-1-1A1,1,0,0,0,320.51,280.32Zm-5.87,5.27a1,1,0,1,0-1-1A1,1,0,0,0,314.64,285.59Zm27.26,42.87a17.66,17.66,0,0,0,17.64,17.64V344a15.56,15.56,0,1,1,0-31.11v-2.08A17.65,17.65,0,0,0,341.9,328.46ZM350,349.67a23.06,23.06,0,0,0,9.59,2.06v-2.08a21.12,21.12,0,0,1-8.74-1.87Zm-13.68-21.21h2.08a21.21,21.21,0,0,1,21.19-21.19v-2.08A23.3,23.3,0,0,0,336.27,328.46Zm18.49-57.41-2.64,9.59c-1.35.21-2.7.48-4,.8L342,273.6a1,1,0,0,0-1.21-.32l-3.49,1.44-3.49,1.45a1,1,0,0,0-.63,1.09l1.22,9.86c-1.16.71-2.3,1.47-3.4,2.28l-8.65-4.91a1,1,0,0,0-1.25.17l-2.67,2.67L315.74,290a1,1,0,0,0-.17,1.25l4.91,8.65c-.81,1.1-1.57,2.24-2.28,3.4l-9.87-1.22a1,1,0,0,0-1.08.63l-1.45,3.49-1.45,3.49a1.05,1.05,0,0,0,.32,1.22l7.85,6.11c-.31,1.29-.58,2.66-.8,4l-9.59,2.65a1,1,0,0,0-.76,1v7.55a1,1,0,0,0,.76,1l9.58,2.64a40.92,40.92,0,0,0,.8,4L304.67,346a1.06,1.06,0,0,0-.32,1.22l1.45,3.49,1.45,3.5a1,1,0,0,0,1.08.63l9.87-1.23c.71,1.16,1.47,2.3,2.28,3.41l-4.91,8.65a1,1,0,0,0,.17,1.24l2.67,2.68,2.67,2.67a1,1,0,0,0,1.25.17l8.65-4.92c1.1.81,2.24,1.57,3.4,2.28l-1.22,9.87a1,1,0,0,0,.63,1.09l3.49,1.45,3.49,1.44a1,1,0,0,0,1.22-.32l6.11-7.84c1.32.32,2.67.59,4,.8l2.64,9.58a1,1,0,0,0,1,.76h3.78v-2.07h-3L354,375.1a1.07,1.07,0,0,0-.86-.76,45.68,45.68,0,0,1-5.06-1h0l-.09,0h0a1.05,1.05,0,0,0-1,.26,1,1,0,0,0-.26.46.87.87,0,0,1,.18-.36l-6,7.74-2.76-1.14-2.76-1.15,1.22-9.74v-.12a1,1,0,0,0-.51-.9,47.78,47.78,0,0,1-4.32-2.89,1.1,1.1,0,0,0-1.17-.1L322,370.24l-2.11-2.11L317.76,366l4.85-8.54a1,1,0,0,0,.11-.75,1.14,1.14,0,0,0-.19-.4,47.75,47.75,0,0,1-2.91-4.35s0,0,0,0a1,1,0,0,0-.9-.54,1,1,0,0,0-.51.14.82.82,0,0,1,.38-.13l-9.74,1.21-1.14-2.76s-.72-1.74-1.15-2.76l7.75-6a1,1,0,0,0,.37-1.08l0-.13a39.86,39.86,0,0,1-1-5,1.09,1.09,0,0,0-.76-.9l-9.46-2.61v-6l9.46-2.61a1,1,0,0,0,.75-.85,47.38,47.38,0,0,1,1-5.15,1,1,0,0,0-.37-1.08l-7.75-6,1.15-2.76,1.14-2.76,9.74,1.21a1.28,1.28,0,0,1-.39-.13,1,1,0,0,0,.52.13,1,1,0,0,0,.9-.54s0,0,0,0a46.39,46.39,0,0,1,2.91-4.35,1.43,1.43,0,0,0,.15-.27,1.08,1.08,0,0,0-.07-.88l-4.85-8.54,2.12-2.11,2.11-2.11,8.53,4.84a1.06,1.06,0,0,0,1.11,0,49.58,49.58,0,0,1,4.39-2.95h0a1,1,0,0,0,.53-.9,1.1,1.1,0,0,0-.13-.51,1.14,1.14,0,0,1,.13.38l-1.22-9.74,2.76-1.14,2.76-1.14,6,7.74a1,1,0,0,0,1.09.35h0a47.32,47.32,0,0,1,5.15-1,1.07,1.07,0,0,0,.86-.76l2.6-9.46h3v-2.08h-3.78A1,1,0,0,0,354.76,271.05Zm-6.08,103s0,0,0,0a.24.24,0,0,0,0-.08A.05.05,0,0,1,348.68,374.06Zm-1.3,1.26a1.19,1.19,0,0,1-.38-.21l0,0A1,1,0,0,0,347.38,375.32ZM319.64,353a.07.07,0,0,1,0,0s0,0,0,0A.41.41,0,0,0,319.64,353Zm-1.94-.43a1,1,0,0,0,.12.46,1,1,0,0,1-.13-.43Zm0-48.16v0a1,1,0,0,1,.13-.42A.92.92,0,0,0,317.7,304.38Zm1.89-.52,0,0s0,.05,0,.07A.37.37,0,0,0,319.59,303.86ZM335,288.55s0,0,0,0l.09.05Zm.45-1.94h0a1.09,1.09,0,0,0-.46.12A1,1,0,0,1,335.43,286.61Zm11.67-4.86,0,0a.58.58,0,0,1,.14,0A1.11,1.11,0,0,0,347.1,281.75Zm1.52,1.3,0,.05a.31.31,0,0,0,.05-.1S348.63,283,348.62,283.05Z"/><path class="cls-5" d="M431.43,309.62c-.94-8.46-7-15.23-16.71-18.71,1.64-6.41.68-12.41-2.76-16.59-2.54-3.09-7.55-6.51-16.88-5.92a15.17,15.17,0,0,0-14.91-13.88,14.06,14.06,0,0,0-14.05,14V385.32c0,9.06,7.7,13.86,14.86,14.49,8.19.73,17.3-3.48,19.71-14.38a15.94,15.94,0,0,0,16-6.91c3.48-5.35,3.3-12.2-.31-18.26,5.25-.77,10.27-4.9,12.35-10.42,2.56-6.77.27-14.12-6.25-20.33A22,22,0,0,0,431.43,309.62Zm-4.62,39.49c-2,5.26-7.22,9.24-12.17,9.24a1,1,0,0,0-.85,1.63c4.08,5.77,4.52,12.28,1.18,17.4-3.14,4.84-8.84,7.09-14.88,5.88a1.05,1.05,0,0,0-.79.16,1,1,0,0,0-.43.68c-1.84,10.34-10.22,14.31-17.71,13.65-6.24-.56-13-4.68-13-12.43V349.21h13.86a1,1,0,0,0,0-2.08H368.2V315.28h16.17a1,1,0,0,0,0-2.08H368.2V268.57a12,12,0,0,1,12-12,13.07,13.07,0,0,1,12.89,12.89,1,1,0,0,0,1.13,1c7.25-.68,12.84,1.09,16.16,5.13,3.17,3.84,3.95,9.55,2.14,15.64a1,1,0,0,0,.67,1.28c12.91,4.26,15.69,12.66,16.2,17.28a19.75,19.75,0,0,1-9,18.68,1,1,0,0,0-.15,1.67C429.17,338.11,428.19,345.44,426.81,349.11Zm-6.29,2.12a8.69,8.69,0,0,1-5.88,3,1,1,0,0,0,0,2.08,10.64,10.64,0,0,0,7.39-3.68,1,1,0,1,0-1.51-1.43ZM410.05,377a10.64,10.64,0,0,1-9.21,2.21,1,1,0,0,0-.41,2,12.67,12.67,0,0,0,11-2.7,1,1,0,1,0-1.37-1.55ZM392,390c-3.56,3.88-8.5,3.89-10.46,3.72-3.29-.29-7.36-1.89-8.88-5.51a1,1,0,0,0-1.92.81c1.89,4.47,6.72,6.43,10.62,6.77a14.58,14.58,0,0,0,12.17-4.38,1,1,0,0,0-.06-1.46A1,1,0,0,0,392,390Zm16.89-99.76a1,1,0,1,0,2,.59c1.49-5,1.1-9.68-1.1-13.08a1,1,0,0,0-1.74,1.13C409.85,281.72,410.16,285.75,408.84,290.2Zm7.63,38a1.05,1.05,0,0,0,1.45.27h0l1.38-.95a19.16,19.16,0,0,0,6.49-8.1,1,1,0,0,0-.54-1.37,1,1,0,0,0-1.36.54h0a17,17,0,0,1-5.76,7.22l-1.38.94A1.05,1.05,0,0,0,416.47,328.19ZM402.9,372.53a1,1,0,0,0-.78-1.25,13.61,13.61,0,0,1-8-6.76v0A10.53,10.53,0,0,1,393,360.6c-.34-4.24,2-10.46,15.29-15.93a1,1,0,1,0-.8-1.92,51.8,51.8,0,0,0-5.35,2.56c-.31-.41-.61-.82-.95-1.26-2.43-3.16-5.2-6.75-5.43-12.45a1.28,1.28,0,0,0,.06-.34,1.07,1.07,0,0,0-.06-.31c0-4.2,1.31-9.51,5-16.55,4.2,2.08,9.61,1.65,15.29-1.37a1,1,0,0,0-1-1.83c-6.79,3.61-12.83,3.2-16.57-1.14-2.8-3.26-4-8.7-2.31-14.51,0,0,0-.05,0-.08v0a22.64,22.64,0,0,1,3.55-7,1,1,0,1,0-1.67-1.24,25,25,0,0,0-3.62,6.84c-5.46-1.23-7.88-2.66-12.48-7.26a1,1,0,1,0-1.47,1.47c4.8,4.8,7.64,6.47,13.38,7.79-1.46,6.13,0,11.86,3,15.39a12.9,12.9,0,0,0,2.06,1.87c-3.74,7-5.21,12.53-5.33,16.93H379.45a1,1,0,1,0,0,2.08h14.27c.42,6,3.36,9.83,5.82,13,.28.36.52.7.78,1-8.12,5.05-9.72,10.44-9.4,14.41a12.1,12.1,0,0,0,1,3.88c-4.89,3.42-8.92,7.29-9.83,16.92a1,1,0,0,0,.93,1.13,1,1,0,0,0,1.14-.93c.81-8.64,4.24-12.09,8.73-15.26a15.15,15.15,0,0,0,8.74,6.79A1,1,0,0,0,402.9,372.53Zm-5.53-11.12a1,1,0,0,0-1.3-.68,1,1,0,0,0-.68,1.31,11.74,11.74,0,0,0,7.45,7.29,1,1,0,0,0,.47-2A9.74,9.74,0,0,1,397.37,361.41Zm15.35-51.25a1,1,0,1,0-.84-1.9c-3.91,1.72-7.31,1.69-9.57-.1a1,1,0,1,0-1.28,1.63C403.92,312.08,408.07,312.21,412.72,310.16Z"/><path class="cls-6" d="M348,265.73a63.43,63.43,0,0,0-21.93,8.4,1,1,0,0,0,1.09,1.77,61.3,61.3,0,0,1,21.22-8.13,1,1,0,1,0-.38-2Zm-50.39,63a63.16,63.16,0,0,1,.39-7,1,1,0,1,0-2.06-.24,65.2,65.2,0,0,0-.41,7.27,64.14,64.14,0,0,0,1.23,12.53,1,1,0,1,0,2-.4A63.21,63.21,0,0,1,297.61,328.7Zm3.14,19.53a1,1,0,0,0-2,.65,63.92,63.92,0,0,0,8.35,16.58,1,1,0,1,0,1.7-1.2A61.6,61.6,0,0,1,300.75,348.23Z"/><path class="cls-7" d="M934.89,393.89H831.63V271.13H934.89Zm-102.53-.73h101.8V271.86H832.36Z"/><path class="cls-7" d="M904.5,289.58a11.44,11.44,0,0,1-.1,2.17H838a12.53,12.53,0,0,1-.1-2.17v-9a12.53,12.53,0,0,1,.1-2.17H904.4a11.44,11.44,0,0,1,.1,2.17Z"/><rect class="cls-7" x="909.26" y="275.31" width="20.43" height="18.23"/><path class="cls-5" d="M927.74,292.06a2,2,0,0,0-1-1.21c-1.15-.48-3.77-1.23-3.77-1.23-.3-.9-.74-.89-.74-.89h-5.45s-.44,0-.73.89c0,0-2.63.75-3.78,1.23a2,2,0,0,0-1,1.21,13.35,13.35,0,0,0-.15,1.48h16.82S927.81,292.33,927.74,292.06Z"/><path class="cls-8" d="M921.9,286.58l-1.47-.18.25-.22-1.2.12-1.21-.12.25.22-1.47.18a7.25,7.25,0,0,1,0,3s.45.89,2.46.89,2.46-.89,2.46-.89A7.66,7.66,0,0,1,921.9,286.58Z"/><path class="cls-8" d="M919.48,278.38c-2.06,0-3.73,2.13-3.73,4.75a10.24,10.24,0,0,0,.29,2.18,5.4,5.4,0,0,0,.56,1.44,7.31,7.31,0,0,0,1.26,1.31,2.58,2.58,0,0,0,1.6.38,2.71,2.71,0,0,0,1.64-.38,8.06,8.06,0,0,0,1.26-1.31,5.45,5.45,0,0,0,.58-1.51,10.32,10.32,0,0,0,.26-2.11C923.2,280.51,921.53,278.39,919.48,278.38Z"/><path class="cls-5" d="M919.22,280c-.39-.05-2.21-.51-2.41.3a4.74,4.74,0,0,1-.28,1.16,5.83,5.83,0,0,0-.45,1.44,11.8,11.8,0,0,0,0,1.48s-.12,0-.12,0a19.06,19.06,0,0,0-.35-1.93,11.38,11.38,0,0,1,0-3.23,4.82,4.82,0,0,1,.4-1,2.59,2.59,0,0,1,1.68-.69,10,10,0,0,1,1.54-.2c1.58-.12,3,.58,3.45,0a7.5,7.5,0,0,1,.6,1.63c.25.87.12,1.57,0,3.67a10,10,0,0,1-.34,1.8s-.12,0-.12,0,0-.64.12-1.75a5.17,5.17,0,0,0-.48-1.44c-.12-.35-.05-.6-.19-1C921.93,279.24,919.67,279.91,919.22,280Z"/><path class="cls-8" d="M915.64,282.26s-.07-.18-.12-.15-.16.15-.19.49a4.92,4.92,0,0,0,0,1.13,4.44,4.44,0,0,0,.34,1.08s.09.19.18.19.16-.07.16-.17-.17-1.11-.21-1.57A3.93,3.93,0,0,0,915.64,282.26Z"/><path class="cls-8" d="M923.23,282.26s.07-.18.12-.15.17.14.2.48a4.77,4.77,0,0,1,0,1.13,4.57,4.57,0,0,1-.33,1.09s-.09.19-.18.19-.16-.07-.16-.16.15-1.12.19-1.58A4.22,4.22,0,0,1,923.23,282.26Z"/><rect class="cls-7" x="838.09" y="307.85" width="4.25" height="4.25"/><path class="cls-5" d="M847.92,311.35a.17.17,0,0,1-.13,0l-.07-.07-1.07-1.6v1.58a.14.14,0,0,1-.13.13h-.61a.12.12,0,0,1-.09,0,.13.13,0,0,1,0-.09v-3a.13.13,0,0,1,0-.09.12.12,0,0,1,.09,0h.49a.2.2,0,0,1,.13,0l.06.07,1.07,1.6V308.2a.13.13,0,0,1,0-.09.11.11,0,0,1,.09,0h.61a.14.14,0,0,1,.13.13v3a.14.14,0,0,1-.13.13Z"/><path class="cls-5" d="M849,310.66a.66.66,0,0,1,.24-.52,1.61,1.61,0,0,1,.77-.29l.55-.09a.29.29,0,0,0-.06-.19.29.29,0,0,0-.22-.07.35.35,0,0,0-.16,0l-.09.05a.18.18,0,0,1-.08.05h-.68a.11.11,0,0,1-.08,0,.09.09,0,0,1,0-.07.46.46,0,0,1,.1-.23.67.67,0,0,1,.23-.21,1.27,1.27,0,0,1,.35-.17,1.56,1.56,0,0,1,.44-.06,1.47,1.47,0,0,1,.5.07.91.91,0,0,1,.35.19.69.69,0,0,1,.2.3.9.9,0,0,1,.07.37v1.42a.14.14,0,0,1-.13.13h-.59a.12.12,0,0,1-.12-.13v-.13a.74.74,0,0,1-.28.22.93.93,0,0,1-.44.09,1,1,0,0,1-.36-.06.93.93,0,0,1-.26-.15A.63.63,0,0,1,849,311,.72.72,0,0,1,849,310.66Zm1.07.1a.58.58,0,0,0,.19,0l.16-.1a.71.71,0,0,0,.1-.14.53.53,0,0,0,0-.18l-.44.07a.4.4,0,0,0-.2.08.17.17,0,0,0-.08.14.15.15,0,0,0,.06.13A.4.4,0,0,0,850,310.76Z"/><path class="cls-5" d="M855.73,311.22a.12.12,0,0,1-.12.13H855a.12.12,0,0,1-.09,0,.13.13,0,0,1,0-.09V310a.57.57,0,0,0-.08-.33.33.33,0,0,0-.26-.1.3.3,0,0,0-.25.1.5.5,0,0,0-.09.33v1.2a.12.12,0,0,1-.12.13h-.57a.12.12,0,0,1-.09,0,.13.13,0,0,1,0-.09V310a.57.57,0,0,0-.08-.33.33.33,0,0,0-.26-.1.3.3,0,0,0-.25.1.45.45,0,0,0-.09.32v1.21a.12.12,0,0,1-.12.13H852a.14.14,0,0,1-.13-.13V309a.14.14,0,0,1,.13-.13h.56a.14.14,0,0,1,.13.13v.11a.72.72,0,0,1,.25-.21.75.75,0,0,1,.35-.07,1,1,0,0,1,.43.08.33.33,0,0,0,.65,0,1,1,0,0,1,.41-.09,1.16,1.16,0,0,1,.38.06.81.81,0,0,1,.29.19.88.88,0,0,1,.2.34,1.63,1.63,0,0,1,.06.47Z"/><path class="cls-5" d="M857,310.4a.48.48,0,0,0,0,.18.38.38,0,0,0,.11.11.31.31,0,0,0,.13.06h.15l.22,0,.14-.08.07-.06h.69c.07,0,.1,0,.1.1a.32.32,0,0,1-.07.17.75.75,0,0,1-.21.24,1.42,1.42,0,0,1-.39.21,1.51,1.51,0,0,1-.55.09,1.45,1.45,0,0,1-.54-.09,1,1,0,0,1-.65-.65,1.74,1.74,0,0,1-.08-.53,1.59,1.59,0,0,1,.08-.5,1.09,1.09,0,0,1,.25-.4,1.13,1.13,0,0,1,.4-.27,1.45,1.45,0,0,1,.54-.09,1.28,1.28,0,0,1,.58.11,1.19,1.19,0,0,1,.39.3,1,1,0,0,1,.22.41,1.41,1.41,0,0,1,.07.45v.13a.1.1,0,0,1,0,.09.09.09,0,0,1-.08,0Zm.43-.9a.38.38,0,0,0-.3.12.5.5,0,0,0-.13.26h.85a.42.42,0,0,0-.12-.26A.38.38,0,0,0,857.41,309.5Z"/><rect class="cls-7" x="869.84" y="300.97" width="61" height="14.16"/><rect class="cls-7" x="838.09" y="324.57" width="4.25" height="4.25"/><path class="cls-5" d="M847.08,324.79a.2.2,0,0,1,.15.06.21.21,0,0,1,.06.1l1,2.95a.23.23,0,0,1,0,.07.1.1,0,0,1-.1.1h-.59c-.06,0-.11,0-.13,0a.1.1,0,0,1,0-.07l-.13-.39h-1.25L846,328a.15.15,0,0,1-.05.07.17.17,0,0,1-.13,0h-.6a.11.11,0,0,1-.07,0,.09.09,0,0,1,0-.07.41.41,0,0,1,0-.07l1-2.95a.23.23,0,0,1,.07-.1.17.17,0,0,1,.14-.06Zm-.76,2h.76l-.38-1.12Z"/><path class="cls-5" d="M849.58,325.59a.88.88,0,0,1,.41.1l.13.09.08.09v-1a.18.18,0,0,1,0-.09l.09,0h.59l.09,0a.18.18,0,0,1,0,.09V328a.18.18,0,0,1,0,.09l-.09,0h-.57l-.09,0a.16.16,0,0,1,0-.09v-.11l-.09.1L850,328a.54.54,0,0,1-.17.07l-.26,0a1.25,1.25,0,0,1-.4-.06.79.79,0,0,1-.33-.2,1.14,1.14,0,0,1-.23-.33,1.21,1.21,0,0,1-.09-.48,1.81,1.81,0,0,1,0-.38,1.17,1.17,0,0,1,.09-.48,1,1,0,0,1,.23-.33.79.79,0,0,1,.33-.2A1,1,0,0,1,849.58,325.59Zm-.22,1.14a1.13,1.13,0,0,0,0,.26.54.54,0,0,0,.11.28.38.38,0,0,0,.32.13.43.43,0,0,0,.17,0,.41.41,0,0,0,.13-.08l.08-.12a.7.7,0,0,0,0-.14.81.81,0,0,0,0-.16.86.86,0,0,0,0-.17.61.61,0,0,0,0-.13.36.36,0,0,0-.08-.12.3.3,0,0,0-.13-.09.43.43,0,0,0-.17,0,.38.38,0,0,0-.32.12A.57.57,0,0,0,849.36,326.73Z"/><path class="cls-5" d="M852.55,325.59a.88.88,0,0,1,.24,0l.17.07.13.09.08.09v-1a.18.18,0,0,1,0-.09l.09,0h.59a.12.12,0,0,1,.13.12V328a.12.12,0,0,1-.13.12h-.57a.11.11,0,0,1-.08,0,.12.12,0,0,1,0-.09v-.11l-.09.1L853,328a.75.75,0,0,1-.18.07l-.26,0a1.29,1.29,0,0,1-.4-.06.79.79,0,0,1-.33-.2,1.14,1.14,0,0,1-.23-.33,1.41,1.41,0,0,1-.09-.48,1.81,1.81,0,0,1,0-.38,1.37,1.37,0,0,1,.09-.48,1,1,0,0,1,.23-.33.79.79,0,0,1,.33-.2A1.05,1.05,0,0,1,852.55,325.59Zm-.21,1.14a1.13,1.13,0,0,0,0,.26.53.53,0,0,0,.1.28.4.4,0,0,0,.32.13.48.48,0,0,0,.18,0,.36.36,0,0,0,.12-.08.83.83,0,0,0,.08-.12.35.35,0,0,0,0-.14.81.81,0,0,0,0-.16.86.86,0,0,0,0-.17.31.31,0,0,0,0-.13.36.36,0,0,0-.08-.12.27.27,0,0,0-.12-.09.48.48,0,0,0-.18,0,.39.39,0,0,0-.32.12A.56.56,0,0,0,852.34,326.73Z"/><path class="cls-5" d="M856.26,325.64a.1.1,0,0,1,.09,0,.09.09,0,0,1,0,.08v.48a.12.12,0,0,1-.13.12h-.42a.38.38,0,0,0-.43.44V328a.18.18,0,0,1,0,.09l-.09,0h-.59a.14.14,0,0,1-.09,0,.18.18,0,0,1,0-.09v-2.19a.12.12,0,0,1,0-.08.11.11,0,0,1,.09,0h.54a.1.1,0,0,1,.09,0,.09.09,0,0,1,0,.08v.11a.82.82,0,0,1,.62-.23Z"/><path class="cls-5" d="M857.42,327.12a.32.32,0,0,0,0,.18.27.27,0,0,0,.1.11.35.35,0,0,0,.14.06l.14,0a.71.71,0,0,0,.23,0,.29.29,0,0,0,.13-.08l.08-.05H859c.07,0,.1,0,.1.1a.35.35,0,0,1-.07.17.94.94,0,0,1-.22.23,1.35,1.35,0,0,1-.38.21,1.73,1.73,0,0,1-1.1,0,1,1,0,0,1-.4-.25,1.11,1.11,0,0,1-.24-.39,1.78,1.78,0,0,1-.08-.53,1.7,1.7,0,0,1,.08-.51,1.15,1.15,0,0,1,.24-.4,1.11,1.11,0,0,1,.4-.26,1.51,1.51,0,0,1,1.13,0,1.05,1.05,0,0,1,.39.29,1.17,1.17,0,0,1,.22.41,1.47,1.47,0,0,1,.07.46V327a.12.12,0,0,1-.13.12Zm.42-.9a.38.38,0,0,0-.3.12.48.48,0,0,0-.12.26h.85a.58.58,0,0,0-.13-.26A.38.38,0,0,0,857.84,326.22Z"/><path class="cls-5" d="M860.91,327.34a.11.11,0,0,0,0-.08l-.12,0-.22,0-.35-.06a1,1,0,0,1-.55-.26.69.69,0,0,1-.19-.51.61.61,0,0,1,.08-.3.83.83,0,0,1,.22-.24,1.13,1.13,0,0,1,.35-.16,1.53,1.53,0,0,1,.45-.06,1.63,1.63,0,0,1,.45.06,1.42,1.42,0,0,1,.35.15.83.83,0,0,1,.24.21.5.5,0,0,1,.1.24.12.12,0,0,1,0,.09.16.16,0,0,1-.09,0H861a.11.11,0,0,1-.08,0l-.07-.05-.11-.05a.5.5,0,0,0-.19,0,.48.48,0,0,0-.18,0,.11.11,0,0,0-.08.1s0,.07,0,.08a.13.13,0,0,0,.09.05l.2,0,.33.06a1,1,0,0,1,.62.28.76.76,0,0,1,.2.5.61.61,0,0,1-.08.3.78.78,0,0,1-.24.24,1.26,1.26,0,0,1-.37.17,2,2,0,0,1-.5.06,1.85,1.85,0,0,1-.5-.06,1.5,1.5,0,0,1-.36-.16.92.92,0,0,1-.22-.22.55.55,0,0,1-.09-.23.12.12,0,0,1,0-.09.18.18,0,0,1,.09,0h.58a.1.1,0,0,1,.08,0l.06.06a.23.23,0,0,0,.11,0,.51.51,0,0,0,.21,0,.61.61,0,0,0,.24,0C860.88,327.43,860.91,327.39,860.91,327.34Z"/><path class="cls-5" d="M863.55,327.34a.09.09,0,0,0,0-.08l-.12,0a1,1,0,0,0-.22,0l-.34-.06a1,1,0,0,1-.55-.26.69.69,0,0,1-.19-.51.52.52,0,0,1,.08-.3.71.71,0,0,1,.22-.24,1.07,1.07,0,0,1,.34-.16,1.72,1.72,0,0,1,.9,0,1.5,1.5,0,0,1,.36.15.67.67,0,0,1,.23.21.5.5,0,0,1,.1.24.16.16,0,0,1,0,.09.17.17,0,0,1-.1,0h-.55s-.07,0-.09,0l-.07-.05a.28.28,0,0,0-.11-.05.47.47,0,0,0-.19,0,.48.48,0,0,0-.18,0,.1.1,0,0,0-.07.1.13.13,0,0,0,0,.08.19.19,0,0,0,.1.05l.19,0,.34.06a1,1,0,0,1,.62.28.75.75,0,0,1,.19.5.61.61,0,0,1-.08.3.75.75,0,0,1-.23.24,1.33,1.33,0,0,1-.38.17,1.85,1.85,0,0,1-.5.06,1.77,1.77,0,0,1-.49-.06,1.21,1.21,0,0,1-.36-.16.77.77,0,0,1-.22-.22.37.37,0,0,1-.09-.23.16.16,0,0,1,0-.09.18.18,0,0,1,.1,0h.58a.08.08,0,0,1,.07,0l.06.06a.28.28,0,0,0,.11,0,.58.58,0,0,0,.21,0,.57.57,0,0,0,.24,0C863.51,327.43,863.55,327.39,863.55,327.34Z"/><rect class="cls-7" x="869.84" y="320.14" width="61" height="13.12"/><rect class="cls-7" x="838.09" y="341.3" width="4.25" height="4.25"/><path class="cls-5" d="M847.74,344.05a.14.14,0,0,1,.13.13v.49a.14.14,0,0,1-.13.13h-2.51a.12.12,0,0,1-.09,0,.13.13,0,0,1,0-.09v-.47a.15.15,0,0,1,0-.1.15.15,0,0,1,0-.06l1.5-1.77h-1.39a.14.14,0,0,1-.13-.13v-.49a.14.14,0,0,1,.13-.13h2.42a.09.09,0,0,1,.08,0,.1.1,0,0,1,0,.09v.47a.2.2,0,0,1-.06.15l-1.5,1.78Z"/><path class="cls-5" d="M849.17,342a.14.14,0,0,1-.13.13h-.59a.14.14,0,0,1-.13-.13v-.47a.13.13,0,0,1,0-.09.12.12,0,0,1,.09,0H849a.12.12,0,0,1,.09,0,.13.13,0,0,1,0,.09Zm0,2.69a.13.13,0,0,1,0,.09.12.12,0,0,1-.09,0h-.59a.12.12,0,0,1-.09,0,.13.13,0,0,1,0-.09v-2.18a.14.14,0,0,1,.13-.13H849a.14.14,0,0,1,.13.13Z"/><path class="cls-5" d="M851.18,344.85a.88.88,0,0,1-.24,0,.75.75,0,0,1-.18-.07l-.12-.09a.75.75,0,0,0-.09-.09v1a.12.12,0,0,1-.12.13h-.59a.14.14,0,0,1-.13-.13v-3.07a.12.12,0,0,1,0-.09.13.13,0,0,1,.09,0h.56a.13.13,0,0,1,.09,0,.12.12,0,0,1,0,.09v.11l.09-.1a.34.34,0,0,1,.12-.09.75.75,0,0,1,.18-.07,1,1,0,0,1,.26,0,1.29,1.29,0,0,1,.4.06.94.94,0,0,1,.33.2,1.14,1.14,0,0,1,.23.33,1.41,1.41,0,0,1,.09.48c0,.05,0,.11,0,.19s0,.14,0,.19a1.41,1.41,0,0,1-.09.48,1.14,1.14,0,0,1-.23.33.94.94,0,0,1-.33.2A1.05,1.05,0,0,1,851.18,344.85Zm.21-1.14a1.13,1.13,0,0,0,0-.26.52.52,0,0,0-.11-.29A.36.36,0,0,0,851,343a.34.34,0,0,0-.18,0,.36.36,0,0,0-.12.08l-.08.12a.74.74,0,0,0,0,.14s0,.1,0,.16,0,.12,0,.17a.65.65,0,0,0,0,.13.36.36,0,0,0,.08.12.27.27,0,0,0,.12.09.48.48,0,0,0,.18,0,.36.36,0,0,0,.31-.12A.49.49,0,0,0,851.39,343.71Z"/><path class="cls-5" d="M853.43,343.42a.76.76,0,0,0,0,.16.91.91,0,0,0,0,.17.42.42,0,0,0,.12.27.44.44,0,0,0,.3.1.52.52,0,0,0,.24,0,.33.33,0,0,0,.13-.13l.06-.06a.1.1,0,0,1,.08,0H855a.14.14,0,0,1,.13.13.73.73,0,0,1-.06.22.81.81,0,0,1-.2.28,1.09,1.09,0,0,1-.38.25,1.51,1.51,0,0,1-.61.11,1.57,1.57,0,0,1-.49-.08,1.22,1.22,0,0,1-.39-.21,1.13,1.13,0,0,1-.28-.34,1.29,1.29,0,0,1-.11-.45v-.38a1.24,1.24,0,0,1,.11-.44.93.93,0,0,1,.28-.34,1.07,1.07,0,0,1,.39-.22,1.57,1.57,0,0,1,.49-.07,1.53,1.53,0,0,1,.61.1,1.09,1.09,0,0,1,.38.25.84.84,0,0,1,.2.29.66.66,0,0,1,.06.22.12.12,0,0,1,0,.09.13.13,0,0,1-.09,0h-.61a.1.1,0,0,1-.08,0l-.06-.07a.37.37,0,0,0-.13-.12.51.51,0,0,0-.24,0,.44.44,0,0,0-.3.11A.4.4,0,0,0,853.43,343.42Z"/><path class="cls-5" d="M858,343.4v.36a1.28,1.28,0,0,1-.1.43,1.23,1.23,0,0,1-.26.34,1.05,1.05,0,0,1-.4.23,1.36,1.36,0,0,1-.51.09,1.38,1.38,0,0,1-.52-.09,1.05,1.05,0,0,1-.4-.23,1.23,1.23,0,0,1-.26-.34,1.28,1.28,0,0,1-.1-.43v-.36a1,1,0,0,1,.1-.42,1.06,1.06,0,0,1,.26-.34,1.22,1.22,0,0,1,.4-.24,1.62,1.62,0,0,1,.52-.08,1.6,1.6,0,0,1,.51.08,1.22,1.22,0,0,1,.4.24,1.06,1.06,0,0,1,.26.34A1.18,1.18,0,0,1,858,343.4Zm-1.71.34a.43.43,0,0,0,.13.28.45.45,0,0,0,.31.1.39.39,0,0,0,.43-.38c0-.05,0-.1,0-.16s0-.11,0-.16a.43.43,0,0,0-.13-.28.49.49,0,0,0-.3-.1.5.5,0,0,0-.31.1.43.43,0,0,0-.13.28c0,.05,0,.1,0,.16S856.24,343.69,856.24,343.74Z"/><path class="cls-5" d="M859.35,342.32l.24,0,.17.07a.45.45,0,0,1,.13.1l.08.09v-1a.15.15,0,0,1,0-.09.18.18,0,0,1,.09,0h.59a.13.13,0,0,1,.09,0,.11.11,0,0,1,0,.09v3.07a.14.14,0,0,1-.13.13h-.57a.09.09,0,0,1-.08,0,.1.1,0,0,1,0-.09v-.1l-.09.1-.13.09-.17.06a1,1,0,0,1-.26,0,1.05,1.05,0,0,1-.4-.07.78.78,0,0,1-.33-.19,1.07,1.07,0,0,1-.23-.34,1.32,1.32,0,0,1-.09-.48,1,1,0,0,1,0-.19,1,1,0,0,1,0-.19,1.31,1.31,0,0,1,.09-.47,1.07,1.07,0,0,1,.23-.34.91.91,0,0,1,.33-.2A1.29,1.29,0,0,1,859.35,342.32Zm-.21,1.13a1.13,1.13,0,0,0,0,.26.56.56,0,0,0,.1.29.39.39,0,0,0,.32.12.48.48,0,0,0,.18,0,.27.27,0,0,0,.12-.09.36.36,0,0,0,.08-.12.31.31,0,0,0,0-.13.91.91,0,0,0,0-.17.76.76,0,0,0,0-.16.35.35,0,0,0,0-.14l-.08-.12a.36.36,0,0,0-.12-.08.34.34,0,0,0-.18,0,.39.39,0,0,0-.32.12A.59.59,0,0,0,859.14,343.45Z"/><path class="cls-5" d="M862.09,343.85a.48.48,0,0,0,0,.18.52.52,0,0,0,.1.11.35.35,0,0,0,.14.06h.14a.75.75,0,0,0,.23,0l.14-.08.07-.06h.69a.09.09,0,0,1,.1.1.38.38,0,0,1-.07.18.92.92,0,0,1-.22.23,1.22,1.22,0,0,1-.38.21,1.73,1.73,0,0,1-1.1,0,1.18,1.18,0,0,1-.4-.25,1.22,1.22,0,0,1-.24-.4,1.69,1.69,0,0,1-.08-.53,1.59,1.59,0,0,1,.08-.5,1.1,1.1,0,0,1,.64-.67,1.53,1.53,0,0,1,.54-.09,1.32,1.32,0,0,1,.59.11,1.19,1.19,0,0,1,.39.3,1.09,1.09,0,0,1,.22.41,1.41,1.41,0,0,1,.07.45v.13a.14.14,0,0,1-.13.13Zm.42-.9a.34.34,0,0,0-.29.12.5.5,0,0,0-.13.26h.85a.5.5,0,0,0-.13-.26A.35.35,0,0,0,862.51,343Z"/><rect class="cls-7" x="869.84" y="336.86" width="61" height="13.12"/><rect class="cls-7" x="838.23" y="358.02" width="4.25" height="4.25"/><path class="cls-5" d="M846.48,359.49a.81.81,0,0,0,0,.17v.45a.81.81,0,0,0,0,.17.65.65,0,0,0,0,.2.4.4,0,0,0,.1.18.57.57,0,0,0,.18.12.7.7,0,0,0,.27,0,.68.68,0,0,0,.26,0,.46.46,0,0,0,.17-.09.29.29,0,0,0,.1-.12.61.61,0,0,0,0-.12.89.89,0,0,1,.05-.1.16.16,0,0,1,.11,0h.62a.11.11,0,0,1,.07,0,.09.09,0,0,1,0,.07.89.89,0,0,1-.12.45,1.06,1.06,0,0,1-.31.36,1.36,1.36,0,0,1-.46.25,1.79,1.79,0,0,1-.57.09,1.66,1.66,0,0,1-.61-.1,1.68,1.68,0,0,1-.45-.27,1.33,1.33,0,0,1-.29-.41,1.59,1.59,0,0,1-.11-.49c0-.13,0-.26,0-.41s0-.29,0-.42a1.35,1.35,0,0,1,.11-.49,1.33,1.33,0,0,1,.29-.41,1.42,1.42,0,0,1,.45-.27,1.66,1.66,0,0,1,.61-.1,1.79,1.79,0,0,1,.57.09,1.36,1.36,0,0,1,.46.25,1.06,1.06,0,0,1,.31.36.89.89,0,0,1,.12.45.09.09,0,0,1,0,.07.11.11,0,0,1-.07,0h-.62a.16.16,0,0,1-.11,0,.89.89,0,0,1-.05-.1.61.61,0,0,0,0-.12.29.29,0,0,0-.1-.12.69.69,0,0,0-.17-.1,1,1,0,0,0-.26,0,.7.7,0,0,0-.27,0,.57.57,0,0,0-.18.12.42.42,0,0,0-.1.17A.78.78,0,0,0,846.48,359.49Z"/><path class="cls-5" d="M851.4,360.13a1.62,1.62,0,0,1,0,.36,1,1,0,0,1-.1.42,1.1,1.1,0,0,1-.26.35,1.49,1.49,0,0,1-.39.23,1.72,1.72,0,0,1-.52.08,1.67,1.67,0,0,1-.52-.08,1.4,1.4,0,0,1-.4-.23,1.07,1.07,0,0,1-.25-.35,1,1,0,0,1-.11-.42v-.36a1.18,1.18,0,0,1,.1-.42,1.1,1.1,0,0,1,.26-.35,1.2,1.2,0,0,1,.4-.23,1.42,1.42,0,0,1,.52-.09,1.46,1.46,0,0,1,.52.09,1.26,1.26,0,0,1,.39.23,1.1,1.1,0,0,1,.26.35A1,1,0,0,1,851.4,360.13Zm-1.7.34a.37.37,0,0,0,.13.27.41.41,0,0,0,.3.11.44.44,0,0,0,.3-.11.37.37,0,0,0,.13-.27.81.81,0,0,0,0-.16.76.76,0,0,0,0-.16.39.39,0,0,0-.13-.28.44.44,0,0,0-.3-.1.4.4,0,0,0-.3.1.39.39,0,0,0-.13.28.76.76,0,0,0,0,.16A.81.81,0,0,0,849.7,360.47Z"/><path class="cls-5" d="M855.69,361.4a.14.14,0,0,1-.13.13H855a.18.18,0,0,1-.09,0,.16.16,0,0,1,0-.09v-1.2a.47.47,0,0,0-.09-.33.31.31,0,0,0-.26-.1.3.3,0,0,0-.25.1.53.53,0,0,0-.08.33v1.2a.14.14,0,0,1-.13.13h-.57a.18.18,0,0,1-.09,0,.16.16,0,0,1,0-.09v-1.2a.47.47,0,0,0-.09-.33.31.31,0,0,0-.26-.1.33.33,0,0,0-.25.09.54.54,0,0,0-.08.32v1.22a.14.14,0,0,1-.13.13H852a.14.14,0,0,1-.13-.13v-2.19a.12.12,0,0,1,0-.08.12.12,0,0,1,.09,0h.57a.12.12,0,0,1,.09,0,.11.11,0,0,1,0,.08v.11a.76.76,0,0,1,.6-.28,1,1,0,0,1,.43.09.72.72,0,0,1,.32.28.88.88,0,0,1,.75-.37,1.1,1.1,0,0,1,.37.06.88.88,0,0,1,.3.2,1.06,1.06,0,0,1,.19.33,1.73,1.73,0,0,1,.07.48Z"/><path class="cls-5" d="M857.68,361.57a.88.88,0,0,1-.24,0,.48.48,0,0,1-.18-.07.6.6,0,0,1-.13-.09l-.08-.09v1a.12.12,0,0,1,0,.09.13.13,0,0,1-.09,0h-.59a.18.18,0,0,1-.09,0,.16.16,0,0,1,0-.09v-3.08a.11.11,0,0,1,0-.08.12.12,0,0,1,.09,0h.57a.12.12,0,0,1,.09,0,.12.12,0,0,1,0,.08v.11l.09-.1.12-.09a.76.76,0,0,1,.18-.06,1,1,0,0,1,.26,0,1.34,1.34,0,0,1,.4.06,1,1,0,0,1,.32.2.93.93,0,0,1,.23.34,1.3,1.3,0,0,1,.1.47v.38a1.31,1.31,0,0,1-.1.48.93.93,0,0,1-.23.34,1,1,0,0,1-.32.2A1.34,1.34,0,0,1,857.68,361.57Zm.21-1.13a1.13,1.13,0,0,0,0-.26.57.57,0,0,0-.11-.29.37.37,0,0,0-.31-.12.48.48,0,0,0-.18,0,.38.38,0,0,0-.13.09.35.35,0,0,0-.07.12.65.65,0,0,0,0,.13.86.86,0,0,0,0,.17.81.81,0,0,0,0,.16.74.74,0,0,0,0,.14.75.75,0,0,0,.07.12.57.57,0,0,0,.13.08.48.48,0,0,0,.18,0,.35.35,0,0,0,.31-.13A.54.54,0,0,0,857.89,360.44Z"/><path class="cls-5" d="M859,360.83a.68.68,0,0,1,.23-.51A1.7,1.7,0,0,1,860,360l.54-.1a.26.26,0,0,0-.06-.18.26.26,0,0,0-.21-.08.35.35,0,0,0-.16,0l-.09.06s0,0-.08,0h-.68l-.08,0a.11.11,0,0,1,0-.08.43.43,0,0,1,.1-.22.81.81,0,0,1,.23-.22,1.42,1.42,0,0,1,.35-.16,1.27,1.27,0,0,1,.44-.07,1.51,1.51,0,0,1,.5.07.92.92,0,0,1,.35.2.72.72,0,0,1,.2.29,1,1,0,0,1,.07.38v1.42a.12.12,0,0,1,0,.09.13.13,0,0,1-.09,0h-.59a.14.14,0,0,1-.13-.13v-.13a.73.73,0,0,1-.27.22,1.12,1.12,0,0,1-.44.08,1.25,1.25,0,0,1-.36-.05.68.68,0,0,1-.26-.16.53.53,0,0,1-.16-.23A.73.73,0,0,1,859,360.83Zm1.07.11a.41.41,0,0,0,.19,0,.38.38,0,0,0,.15-.09.49.49,0,0,0,.11-.14.57.57,0,0,0,0-.18l-.43.06a.76.76,0,0,0-.2.08.19.19,0,0,0-.08.15.12.12,0,0,0,.06.12A.27.27,0,0,0,860.09,360.94Z"/><path class="cls-5" d="M864.44,361.4a.14.14,0,0,1-.13.13h-.59a.14.14,0,0,1-.13-.13v-1.19a.47.47,0,0,0-.1-.32.36.36,0,0,0-.31-.12.35.35,0,0,0-.3.12.47.47,0,0,0-.1.32v1.19a.12.12,0,0,1,0,.09.12.12,0,0,1-.08,0h-.6a.12.12,0,0,1-.08,0,.12.12,0,0,1,0-.09v-2.19a.14.14,0,0,1,.12-.12h.57a.1.1,0,0,1,.09,0,.09.09,0,0,1,0,.08v.11l.09-.1.14-.09a.76.76,0,0,1,.18-.06,1,1,0,0,1,.25,0,1.31,1.31,0,0,1,.41.06.87.87,0,0,1,.32.2.93.93,0,0,1,.21.33,1.42,1.42,0,0,1,.08.48Z"/><path class="cls-5" d="M866.14,362.3a.35.35,0,0,1,0,.08.13.13,0,0,1-.09,0h-.61a.12.12,0,0,1-.08,0,.11.11,0,0,1,0-.08v0l.36-.84-.95-2.2v0a.12.12,0,0,1,0-.08.11.11,0,0,1,.08,0h.61a.1.1,0,0,1,.09,0l0,.07.52,1.22.51-1.22,0-.07a.1.1,0,0,1,.09,0h.62a.1.1,0,0,1,.11.11v0Z"/><rect class="cls-7" x="869.84" y="353.59" width="61" height="13.12"/><rect class="cls-7" x="838.37" y="374.75" width="4.25" height="4.25"/><path class="cls-5" d="M845.9,378.25a.14.14,0,0,1-.13-.13v-3a.14.14,0,0,1,.13-.13h.61a.12.12,0,0,1,.09,0,.13.13,0,0,1,0,.09v3a.13.13,0,0,1,0,.09.12.12,0,0,1-.09,0Z"/><path class="cls-5" d="M848.66,375a1.59,1.59,0,0,1,.59.1,1.24,1.24,0,0,1,.46.27,1.27,1.27,0,0,1,.31.41,1.52,1.52,0,0,1,.12.53c0,.06,0,.12,0,.18v.31c0,.05,0,.11,0,.17a1.47,1.47,0,0,1-.12.53,1.25,1.25,0,0,1-.3.42,1.33,1.33,0,0,1-.45.26,1.55,1.55,0,0,1-.59.1h-1.26a.14.14,0,0,1-.13-.13v-3a.14.14,0,0,1,.13-.13Zm.61,1.29c0-.36-.23-.54-.63-.54h-.48v1.78h.5c.39,0,.6-.18.61-.54a1.15,1.15,0,0,0,0-.18v-.34A1.15,1.15,0,0,0,849.27,376.26Z"/><rect class="cls-7" x="869.84" y="370.31" width="61" height="13.12"/><path class="cls-4" d="M874.85,308.63a1.21,1.21,0,0,1-.08.48,1,1,0,0,1-.22.38,1.09,1.09,0,0,1-.38.25,1.67,1.67,0,0,1-.52.08,1.6,1.6,0,0,1-.51-.08,1.1,1.1,0,0,1-.38-.23,1.08,1.08,0,0,1-.24-.32,1,1,0,0,1-.08-.38.1.1,0,0,1,.1-.1h.24c.05,0,.09,0,.1.1a2.09,2.09,0,0,0,.08.23.52.52,0,0,0,.15.18.54.54,0,0,0,.22.13,1,1,0,0,0,.32,0,.68.68,0,0,0,.58-.22.9.9,0,0,0,.18-.6v-1.66h-1.62a.14.14,0,0,1-.13-.13v-.17a.14.14,0,0,1,.13-.13h1.94a.12.12,0,0,1,.08,0,.12.12,0,0,1,0,.09Z"/><path class="cls-4" d="M875.38,309.16a.73.73,0,0,1,.08-.33.91.91,0,0,1,.2-.24,1.79,1.79,0,0,1,.31-.16,2.22,2.22,0,0,1,.37-.09l.66-.11v-.06a.43.43,0,0,0-.15-.36.65.65,0,0,0-.4-.12.54.54,0,0,0-.31.08.77.77,0,0,0-.18.18l-.06.05h-.23l-.09,0a.09.09,0,0,1,0-.09.37.37,0,0,1,.08-.21.72.72,0,0,1,.19-.2,1.28,1.28,0,0,1,.29-.13,1,1,0,0,1,.34-.06,1.25,1.25,0,0,1,.4.06.87.87,0,0,1,.31.18,1,1,0,0,1,.2.29,1,1,0,0,1,.07.4v1.43a.12.12,0,0,1,0,.09.13.13,0,0,1-.09,0h-.17a.14.14,0,0,1-.13-.13v-.19a.37.37,0,0,1-.13.15.67.67,0,0,1-.2.12l-.24.07-.23,0a.93.93,0,0,1-.34-.05.72.72,0,0,1-.26-.14.56.56,0,0,1-.16-.21A.55.55,0,0,1,875.38,309.16Zm.86.26a1,1,0,0,0,.31-.05.7.7,0,0,0,.25-.15A.8.8,0,0,0,877,309a.66.66,0,0,0,0-.28v-.12l-.55.09a1.3,1.3,0,0,0-.47.15.31.31,0,0,0-.17.26.43.43,0,0,0,0,.11l.08.1a.4.4,0,0,0,.13.07A.56.56,0,0,0,876.24,309.42Z"/><path class="cls-4" d="M878.54,307.61a.52.52,0,0,1,.1-.11.69.69,0,0,1,.13-.11l.17-.07a.75.75,0,0,1,.23,0,.93.93,0,0,1,.47.11.72.72,0,0,1,.3.3,1,1,0,0,1,.13-.16.53.53,0,0,1,.16-.13.72.72,0,0,1,.2-.09,1.12,1.12,0,0,1,.27,0,.8.8,0,0,1,.69.29,1.24,1.24,0,0,1,.22.77v1.3a.14.14,0,0,1-.13.13h-.17a.13.13,0,0,1-.09,0,.12.12,0,0,1,0-.09V308.4a.84.84,0,0,0-.14-.53.5.5,0,0,0-.41-.18.51.51,0,0,0-.4.17.68.68,0,0,0-.16.5v1.29a.16.16,0,0,1,0,.09.18.18,0,0,1-.09,0h-.18a.18.18,0,0,1-.09,0,.16.16,0,0,1,0-.09V308.4a.84.84,0,0,0-.14-.53.52.52,0,0,0-.42-.18.53.53,0,0,0-.4.17.73.73,0,0,0-.15.5v1.29a.12.12,0,0,1,0,.09.13.13,0,0,1-.09,0h-.17a.14.14,0,0,1-.13-.13v-2.19a.12.12,0,0,1,0-.08.12.12,0,0,1,.09,0h.17a.1.1,0,0,1,.09,0,.09.09,0,0,1,0,.08Z"/><path class="cls-4" d="M882.17,308.32a1.32,1.32,0,0,1,.11-.4,1.06,1.06,0,0,1,.22-.33,1,1,0,0,1,.32-.22,1.18,1.18,0,0,1,.43-.08,1.29,1.29,0,0,1,.45.08,1.16,1.16,0,0,1,.34.24,1.07,1.07,0,0,1,.21.38,1.48,1.48,0,0,1,.08.49v.12a.14.14,0,0,1-.13.13h-1.61v0a.7.7,0,0,0,.19.49.7.7,0,0,0,.47.17.75.75,0,0,0,.38-.07.74.74,0,0,0,.21-.17l.07-.05h.22a.13.13,0,0,1,.1,0,.12.12,0,0,1,0,.09.67.67,0,0,1-.08.18.85.85,0,0,1-.19.19,1.11,1.11,0,0,1-.31.14,1.4,1.4,0,0,1-.43.06,1,1,0,0,1-.43-.08,1,1,0,0,1-.32-.22,1.11,1.11,0,0,1-.22-.34,1.43,1.43,0,0,1-.11-.43A3.08,3.08,0,0,1,882.17,308.32Zm.42,0h1.32v0a.58.58,0,0,0-.18-.45.65.65,0,0,0-.48-.18.75.75,0,0,0-.26.05.63.63,0,0,0-.2.13.52.52,0,0,0-.14.19.58.58,0,0,0-.06.26Z"/><path class="cls-4" d="M886.28,309.1a.2.2,0,0,0,0-.15.39.39,0,0,0-.14-.1l-.25-.08-.36-.08a.91.91,0,0,1-.53-.26.69.69,0,0,1-.15-.44.75.75,0,0,1,.05-.26.76.76,0,0,1,.17-.23,1,1,0,0,1,.29-.15,1.16,1.16,0,0,1,.4-.06,1.62,1.62,0,0,1,.4,0,1.57,1.57,0,0,1,.29.13.72.72,0,0,1,.17.18.31.31,0,0,1,.07.17.14.14,0,0,1-.13.13h-.22a.13.13,0,0,1-.07-.06.42.42,0,0,0-.18-.13.75.75,0,0,0-.33-.06.7.7,0,0,0-.35.08.26.26,0,0,0-.14.22.33.33,0,0,0,0,.15l.12.09a.9.9,0,0,0,.23.07l.34.08a1.52,1.52,0,0,1,.36.12.92.92,0,0,1,.24.17.47.47,0,0,1,.12.2.59.59,0,0,1,0,.23.54.54,0,0,1-.07.27.6.6,0,0,1-.19.23,1,1,0,0,1-.31.16,1.31,1.31,0,0,1-.41.06,1.7,1.7,0,0,1-.41-.05,1.4,1.4,0,0,1-.3-.14.9.9,0,0,1-.2-.18.34.34,0,0,1-.07-.18.14.14,0,0,1,0-.09.18.18,0,0,1,.1,0h.23s0,0,.07.05a.42.42,0,0,0,.21.16.83.83,0,0,0,.34.06l.2,0a.75.75,0,0,0,.18-.07l.13-.1A.2.2,0,0,0,886.28,309.1Z"/><path class="cls-4" d="M889.47,306.45a1.28,1.28,0,0,1,.5.09,1.44,1.44,0,0,1,.37.21,1,1,0,0,1,.24.28.63.63,0,0,1,.08.27.11.11,0,0,1,0,.07.09.09,0,0,1-.07,0h-.19l-.09,0a.18.18,0,0,1-.06-.08.62.62,0,0,0-.08-.12A.47.47,0,0,0,890,307a.78.78,0,0,0-.22-.12,1,1,0,0,0-.31-.05,1,1,0,0,0-.25,0,.67.67,0,0,0-.21.09.36.36,0,0,0-.15.15.4.4,0,0,0-.06.22.39.39,0,0,0,.05.2.57.57,0,0,0,.18.16l.3.12.45.13a2.37,2.37,0,0,1,.45.15,1.41,1.41,0,0,1,.3.19.66.66,0,0,1,.17.24.83.83,0,0,1,0,.32.79.79,0,0,1-.09.38.93.93,0,0,1-.25.31,1.14,1.14,0,0,1-.4.19,1.68,1.68,0,0,1-.52.07,1.38,1.38,0,0,1-.5-.08,1.43,1.43,0,0,1-.39-.2,1.13,1.13,0,0,1-.26-.28.66.66,0,0,1-.1-.31.1.1,0,0,1,.1-.1h.19a.15.15,0,0,1,.09,0,.18.18,0,0,1,.06.08.8.8,0,0,0,.09.14.53.53,0,0,0,.15.15,1.33,1.33,0,0,0,.24.11.85.85,0,0,0,.33,0,1.12,1.12,0,0,0,.32,0,1.17,1.17,0,0,0,.26-.1.69.69,0,0,0,.17-.17.36.36,0,0,0,.07-.22.3.3,0,0,0-.08-.21.72.72,0,0,0-.21-.16,2,2,0,0,0-.35-.13l-.46-.12a1.86,1.86,0,0,1-.4-.15,1.06,1.06,0,0,1-.26-.2.64.64,0,0,1-.15-.25.93.93,0,0,1,0-.29.81.81,0,0,1,.08-.34.72.72,0,0,1,.2-.29,1,1,0,0,1,.35-.2A1.23,1.23,0,0,1,889.47,306.45Z"/><path class="cls-4" d="M891.62,308.72a.94.94,0,0,0,.08.32,1,1,0,0,0,.16.22.82.82,0,0,0,.2.12.62.62,0,0,0,.23,0,.8.8,0,0,0,.39-.09.58.58,0,0,0,.25-.28.29.29,0,0,1,.06-.1l.09,0h.14l.09,0a.12.12,0,0,1,0,.09.66.66,0,0,1-.08.25.76.76,0,0,1-.2.25,1.3,1.3,0,0,1-.33.19,1.06,1.06,0,0,1-.45.08,1.25,1.25,0,0,1-.45-.08.93.93,0,0,1-.34-.23,1.11,1.11,0,0,1-.22-.34,1.22,1.22,0,0,1-.08-.43,1,1,0,0,1,0-.18,1.09,1.09,0,0,1,0-.19,1.43,1.43,0,0,1,.09-.42,1,1,0,0,1,.21-.34.89.89,0,0,1,.34-.23,1.06,1.06,0,0,1,.45-.09,1.25,1.25,0,0,1,.45.08,1.08,1.08,0,0,1,.33.2.64.64,0,0,1,.2.24.72.72,0,0,1,.08.25.12.12,0,0,1,0,.09.18.18,0,0,1-.09,0h-.14a.14.14,0,0,1-.09,0,.29.29,0,0,1-.06-.1.63.63,0,0,0-.25-.28.8.8,0,0,0-.39-.09.93.93,0,0,0-.23,0,.57.57,0,0,0-.21.13.66.66,0,0,0-.15.21,1,1,0,0,0-.08.32A1.82,1.82,0,0,0,891.62,308.72Z"/><path class="cls-4" d="M894.91,307.29a1.25,1.25,0,0,1,.45.08.93.93,0,0,1,.33.21,1,1,0,0,1,.23.33,1.43,1.43,0,0,1,.1.43v.44a1.72,1.72,0,0,1-.1.42,1,1,0,0,1-.23.33,1.12,1.12,0,0,1-.33.22,1.48,1.48,0,0,1-.9,0,1.17,1.17,0,0,1-.34-.22,1,1,0,0,1-.22-.33,1.13,1.13,0,0,1-.1-.42.31.31,0,0,1,0-.1v-.24a.28.28,0,0,1,0-.1,1.18,1.18,0,0,1,.1-.43,1,1,0,0,1,.22-.33,1,1,0,0,1,.34-.21A1.25,1.25,0,0,1,894.91,307.29Zm.68,1.46a1,1,0,0,0,0-.19,1.21,1.21,0,0,0,0-.2,1.1,1.1,0,0,0-.06-.26.57.57,0,0,0-.13-.21.6.6,0,0,0-.21-.14.61.61,0,0,0-.28-.06.65.65,0,0,0-.29.06.48.48,0,0,0-.2.14.77.77,0,0,0-.14.21,1.1,1.1,0,0,0-.06.26c0,.06,0,.12,0,.2s0,.14,0,.19a1.07,1.07,0,0,0,.06.27.77.77,0,0,0,.14.21.6.6,0,0,0,.2.14.84.84,0,0,0,.29.05.66.66,0,0,0,.49-.19.57.57,0,0,0,.13-.21A1.07,1.07,0,0,0,895.59,308.75Z"/><path class="cls-4" d="M897.22,309a.86.86,0,0,0,0,.16.35.35,0,0,0,.06.14.36.36,0,0,0,.12.08.56.56,0,0,0,.2,0h.25a.18.18,0,0,1,.09,0,.15.15,0,0,1,0,.09v.15a.14.14,0,0,1-.13.13h-.3a.73.73,0,0,1-.59-.22.9.9,0,0,1-.18-.6v-1.22h-.35a.14.14,0,0,1-.12-.12v-.16a.14.14,0,0,1,.12-.12h.35v-.77a.09.09,0,0,1,0-.08.1.1,0,0,1,.09,0h.17a.1.1,0,0,1,.09,0,.09.09,0,0,1,0,.08v.77h.59a.1.1,0,0,1,.09,0,.09.09,0,0,1,0,.08v.16a.09.09,0,0,1,0,.08.1.1,0,0,1-.09,0h-.59Z"/><path class="cls-4" d="M899.09,309a.88.88,0,0,0,0,.16.35.35,0,0,0,.06.14.36.36,0,0,0,.12.08.53.53,0,0,0,.2,0h.24a.13.13,0,0,1,.09,0,.11.11,0,0,1,0,.09v.15a.12.12,0,0,1,0,.09.13.13,0,0,1-.09,0h-.29a.71.71,0,0,1-.59-.22.9.9,0,0,1-.18-.6v-1.22h-.35a.12.12,0,0,1-.09,0,.12.12,0,0,1,0-.08v-.16a.12.12,0,0,1,0-.08.12.12,0,0,1,.09,0h.35v-.77a.11.11,0,0,1,0-.08.12.12,0,0,1,.09,0H899a.12.12,0,0,1,.09,0,.11.11,0,0,1,0,.08v.77h.6a.12.12,0,0,1,.09,0,.11.11,0,0,1,0,.08v.16a.11.11,0,0,1,0,.08.12.12,0,0,1-.09,0h-.6Z"/><path class="cls-4" d="M874.83,326.35a1,1,0,0,0,.21-.26.66.66,0,0,0,.07-.34.58.58,0,0,0-.15-.41.54.54,0,0,0-.46-.17.57.57,0,0,0-.27.05.56.56,0,0,0-.2.12.76.76,0,0,0-.12.19,1.87,1.87,0,0,0-.07.22.22.22,0,0,1-.05.08.11.11,0,0,1-.07,0h-.22a.09.09,0,0,1-.07,0,.11.11,0,0,1,0-.08.93.93,0,0,1,.08-.35,1.11,1.11,0,0,1,.21-.32,1.09,1.09,0,0,1,.35-.24,1.11,1.11,0,0,1,.46-.09,1.08,1.08,0,0,1,.46.08.93.93,0,0,1,.33.21,1.16,1.16,0,0,1,.2.32,1.23,1.23,0,0,1,.06.39,1.14,1.14,0,0,1,0,.27.9.9,0,0,1-.08.23,1,1,0,0,1-.13.22,2.08,2.08,0,0,1-.21.21l-1.05,1h1.44a.18.18,0,0,1,.09,0,.16.16,0,0,1,0,.09V328a.16.16,0,0,1,0,.09l-.09,0h-2a.12.12,0,0,1-.13-.12v-.17a.29.29,0,0,1,0-.09l.08-.09Z"/><path class="cls-4" d="M876.49,327.28a.47.47,0,0,0,.06.15.43.43,0,0,0,.13.14.63.63,0,0,0,.22.09,1.19,1.19,0,0,0,.36,0,.86.86,0,0,0,.28,0,.7.7,0,0,0,.23-.11.65.65,0,0,0,.15-.18.54.54,0,0,0,.06-.27.62.62,0,0,0-.05-.25.44.44,0,0,0-.16-.17.73.73,0,0,0-.22-.09,1.36,1.36,0,0,0-.29,0h-.39a.12.12,0,0,1-.12-.13v-.16a.11.11,0,0,1,0-.08s0-.05.05-.06l.84-.91h-1.35a.18.18,0,0,1-.09,0,.16.16,0,0,1,0-.09v-.17a.16.16,0,0,1,0-.09.18.18,0,0,1,.09,0h1.85a.14.14,0,0,1,.13.13v.17a.13.13,0,0,1,0,.08.21.21,0,0,1-.06.08l-.83.89a1.43,1.43,0,0,1,.43.08.89.89,0,0,1,.33.19.73.73,0,0,1,.22.3,1,1,0,0,1,.08.39.85.85,0,0,1-.1.43.8.8,0,0,1-.25.32,1.1,1.1,0,0,1-.37.2,1.33,1.33,0,0,1-.45.07,1.73,1.73,0,0,1-.54-.07,1.23,1.23,0,0,1-.38-.19.93.93,0,0,1-.22-.27.82.82,0,0,1-.07-.3.13.13,0,0,1,0-.08.09.09,0,0,1,.07,0h.22a.11.11,0,0,1,.08,0Z"/><path class="cls-4" d="M879,327.69a.17.17,0,0,1,.06-.12.17.17,0,0,1,.14-.06h.27a.09.09,0,0,1,.07,0,.11.11,0,0,1,0,.07v0l-.25.63a.24.24,0,0,1-.06.09.16.16,0,0,1-.14.06H879a.1.1,0,0,1-.11-.11h0Z"/><path class="cls-4" d="M883.53,326.93a1.24,1.24,0,0,1-.08.48.93.93,0,0,1-.23.38.85.85,0,0,1-.37.24,1.42,1.42,0,0,1-.52.09,1.6,1.6,0,0,1-.51-.08,1.1,1.1,0,0,1-.38-.23,1.08,1.08,0,0,1-.24-.32,1,1,0,0,1-.08-.38.1.1,0,0,1,.1-.1h.24s.09,0,.1.1a.83.83,0,0,0,.08.22.55.55,0,0,0,.14.19.86.86,0,0,0,.23.13,1,1,0,0,0,.32.05.68.68,0,0,0,.58-.22.91.91,0,0,0,.18-.61v-1.65h-1.62a.13.13,0,0,1-.09,0,.12.12,0,0,1,0-.09v-.17a.12.12,0,0,1,0-.09.13.13,0,0,1,.09,0h1.93a.13.13,0,0,1,.09,0,.12.12,0,0,1,0,.09Z"/><path class="cls-4" d="M884.06,327.46a.73.73,0,0,1,.08-.33.76.76,0,0,1,.2-.24,1.79,1.79,0,0,1,.31-.16,2.22,2.22,0,0,1,.37-.09l.66-.11v-.06a.43.43,0,0,0-.15-.36.65.65,0,0,0-.4-.12.54.54,0,0,0-.31.08.77.77,0,0,0-.18.18l-.06.05h-.23a.16.16,0,0,1-.09,0,.12.12,0,0,1,0-.09.48.48,0,0,1,.09-.21.72.72,0,0,1,.19-.2,2,2,0,0,1,.29-.14,1.27,1.27,0,0,1,.34-.05,1.34,1.34,0,0,1,.4.06.75.75,0,0,1,.3.18.86.86,0,0,1,.21.29,1.24,1.24,0,0,1,.07.4V328a.12.12,0,0,1-.13.12h-.17a.12.12,0,0,1-.13-.12v-.19a.37.37,0,0,1-.13.15.82.82,0,0,1-.2.12l-.24.07-.23,0a1.16,1.16,0,0,1-.34-.05.72.72,0,0,1-.26-.14.65.65,0,0,1-.16-.21A.58.58,0,0,1,884.06,327.46Zm.86.26a1,1,0,0,0,.31-.05.7.7,0,0,0,.24-.15.65.65,0,0,0,.16-.21.87.87,0,0,0,0-.28v-.12l-.55.09a1.3,1.3,0,0,0-.47.15.28.28,0,0,0-.17.26.43.43,0,0,0,0,.11.58.58,0,0,0,.08.1.32.32,0,0,0,.13.07A.56.56,0,0,0,884.92,327.72Z"/><path class="cls-4" d="M887.22,327V328a.12.12,0,0,1-.13.12h-.17a.14.14,0,0,1-.09,0,.18.18,0,0,1,0-.09v-3.08a.18.18,0,0,1,0-.09.14.14,0,0,1,.09,0h.17a.12.12,0,0,1,.13.12v1.55l.91-.7.08-.05a.18.18,0,0,1,.11,0h.23a.1.1,0,0,1,.11.11v0a.08.08,0,0,1,0,0l-1.13.89,1.25,1.14,0,.05v0a.12.12,0,0,1,0,.08.11.11,0,0,1-.08,0h-.22a.25.25,0,0,1-.12,0l-.07-.05Z"/><path class="cls-4" d="M888.94,326.62a1.31,1.31,0,0,1,.1-.4,1.12,1.12,0,0,1,.22-.33,1,1,0,0,1,.33-.22,1.16,1.16,0,0,1,.42-.08,1.34,1.34,0,0,1,.46.08,1.16,1.16,0,0,1,.34.24,1.12,1.12,0,0,1,.21.37,1.59,1.59,0,0,1,.08.5v.12a.13.13,0,0,1,0,.09.12.12,0,0,1-.09,0h-1.61v0a.66.66,0,0,0,.19.49.69.69,0,0,0,.46.17,1,1,0,0,0,.39-.07.74.74,0,0,0,.21-.17l.06-.05h.23a.12.12,0,0,1,.09,0,.1.1,0,0,1,0,.09.67.67,0,0,1-.08.18.85.85,0,0,1-.19.19,1.26,1.26,0,0,1-.31.14,1.46,1.46,0,0,1-.44.06,1.16,1.16,0,0,1-.42-.08,1,1,0,0,1-.32-.23,1,1,0,0,1-.23-.33,1.43,1.43,0,0,1-.1-.43A1.55,1.55,0,0,1,888.94,326.62Zm.42,0h1.31v0a.62.62,0,0,0-.18-.46A.69.69,0,0,0,890,326a.7.7,0,0,0-.25.05.72.72,0,0,0-.21.12.9.9,0,0,0-.14.2.75.75,0,0,0,0,.26Z"/><path class="cls-4" d="M894.73,327.33h-1.62l-.25.63a.15.15,0,0,1-.05.07s-.07,0-.13,0h-.17a.11.11,0,0,1-.08,0,.09.09,0,0,1,0-.07.21.21,0,0,1,0-.06l1.15-3a.36.36,0,0,1,.07-.1.17.17,0,0,1,.14-.06h.28a.16.16,0,0,1,.14.06.23.23,0,0,1,.07.1l1.15,3a.21.21,0,0,1,0,.06.09.09,0,0,1,0,.07.11.11,0,0,1-.08,0h-.17c-.06,0-.11,0-.13,0a.15.15,0,0,1,0-.07Zm-1.46-.42h1.3l-.65-1.67Z"/><path class="cls-4" d="M896.59,328.07a.12.12,0,0,1-.09,0,.35.35,0,0,1,0-.08l-.93-2.18a0,0,0,0,1,0,0,.11.11,0,0,1,0-.08.13.13,0,0,1,.08,0h.18a.12.12,0,0,1,.1,0,.15.15,0,0,1,.05.07l.73,1.7.72-1.7.05-.07a.1.1,0,0,1,.09,0h.19a.1.1,0,0,1,.11.11v0l-.93,2.18,0,.08a.12.12,0,0,1-.09,0Z"/><path class="cls-4" d="M898.14,326.62a1.07,1.07,0,0,1,.1-.4,1.12,1.12,0,0,1,.22-.33,1,1,0,0,1,.33-.22,1.08,1.08,0,0,1,.42-.08,1.25,1.25,0,0,1,.45.08,1,1,0,0,1,.34.24,1.14,1.14,0,0,1,.22.37,1.59,1.59,0,0,1,.07.5v.12a.1.1,0,0,1,0,.09.09.09,0,0,1-.08,0h-1.62v0a.63.63,0,0,0,.66.66,1,1,0,0,0,.39-.07.85.85,0,0,0,.2-.17l.07-.05h.22a.13.13,0,0,1,.1,0,.08.08,0,0,1,0,.09.45.45,0,0,1-.08.18.68.68,0,0,1-.19.19,1,1,0,0,1-.31.14,1.4,1.4,0,0,1-.43.06,1.08,1.08,0,0,1-.42-.08,1,1,0,0,1-.33-.23,1.12,1.12,0,0,1-.22-.33,1.18,1.18,0,0,1-.1-.43A1.55,1.55,0,0,1,898.14,326.62Zm.41,0h1.32v0a.62.62,0,0,0-.18-.46.69.69,0,0,0-.48-.17.66.66,0,0,0-.25.05.72.72,0,0,0-.21.12.66.66,0,0,0-.14.2.76.76,0,0,0-.06.26Z"/><path class="cls-4" d="M903,328a.16.16,0,0,1,0,.09l-.09,0h-.18a.11.11,0,0,1-.08,0,.12.12,0,0,1,0-.09v-1.24a.73.73,0,0,0-.18-.54.62.62,0,0,0-.48-.18.63.63,0,0,0-.47.18.73.73,0,0,0-.18.54V328a.18.18,0,0,1,0,.09l-.09,0H901a.12.12,0,0,1-.13-.12v-2.19a.09.09,0,0,1,0-.08.1.1,0,0,1,.09,0h.17a.12.12,0,0,1,.09,0,.12.12,0,0,1,0,.08v.15a.84.84,0,0,1,.26-.22.9.9,0,0,1,.46-.1,1.35,1.35,0,0,1,.41.07,1,1,0,0,1,.32.21.93.93,0,0,1,.21.33,1.23,1.23,0,0,1,.07.44Z"/><path class="cls-4" d="M903.68,325.76a.09.09,0,0,1,0-.08.1.1,0,0,1,.09,0H904a.12.12,0,0,1,.09,0,.12.12,0,0,1,0,.08V327a.77.77,0,0,0,.16.54.6.6,0,0,0,.47.18.59.59,0,0,0,.46-.18.73.73,0,0,0,.17-.54v-1.24a.09.09,0,0,1,0-.08.1.1,0,0,1,.09,0h.17a.1.1,0,0,1,.09,0,.09.09,0,0,1,0,.08V328a.12.12,0,0,1-.13.12h-.17a.12.12,0,0,1-.13-.12v-.15a.92.92,0,0,1-.25.22.83.83,0,0,1-.45.1,1,1,0,0,1-.4-.07.89.89,0,0,1-.32-.21.91.91,0,0,1-.2-.33,1.16,1.16,0,0,1-.07-.44Z"/><path class="cls-4" d="M906.39,326.62a1.31,1.31,0,0,1,.1-.4,1.12,1.12,0,0,1,.22-.33,1,1,0,0,1,.33-.22,1.12,1.12,0,0,1,.42-.08,1.25,1.25,0,0,1,.45.08,1.09,1.09,0,0,1,.35.24,1.12,1.12,0,0,1,.21.37,1.59,1.59,0,0,1,.08.5v.12a.13.13,0,0,1,0,.09.12.12,0,0,1-.09,0h-1.61v0a.66.66,0,0,0,.19.49.67.67,0,0,0,.46.17,1,1,0,0,0,.39-.07.92.92,0,0,0,.21-.17l.06-.05h.23a.12.12,0,0,1,.09,0,.08.08,0,0,1,0,.09.34.34,0,0,1-.08.18.64.64,0,0,1-.18.19,1.26,1.26,0,0,1-.31.14,1.46,1.46,0,0,1-.44.06A1.16,1.16,0,0,1,907,328a1,1,0,0,1-.32-.23,1,1,0,0,1-.23-.33,1.43,1.43,0,0,1-.1-.43A1.55,1.55,0,0,1,906.39,326.62Zm.42,0h1.31v0a.62.62,0,0,0-.18-.46.69.69,0,0,0-.48-.17.7.7,0,0,0-.25.05.72.72,0,0,0-.21.12.9.9,0,0,0-.14.2.75.75,0,0,0-.05.26Z"/><path class="cls-4" d="M874.3,344.8a.12.12,0,0,1-.12-.13V344h-1.47a.13.13,0,0,1-.09,0,.11.11,0,0,1,0-.09v-.17a.13.13,0,0,1,0-.08l0-.08,1.49-1.94a.3.3,0,0,1,.08-.08.17.17,0,0,1,.1,0h.19a.09.09,0,0,1,.08,0,.1.1,0,0,1,0,.09v2H875a.11.11,0,0,1,.08,0,.12.12,0,0,1,0,.09v.17a.11.11,0,0,1,0,.09.12.12,0,0,1-.08,0h-.41v.64a.1.1,0,0,1,0,.09.09.09,0,0,1-.08,0Zm-.12-1.19v-1.33l-1,1.33Z"/><path class="cls-4" d="M875.94,344a.61.61,0,0,0,.27.35,1,1,0,0,0,.48.13.93.93,0,0,0,.29-.05.68.68,0,0,0,.24-.12.73.73,0,0,0,.16-.22.65.65,0,0,0,0-.29.67.67,0,0,0,0-.3.58.58,0,0,0-.16-.21.7.7,0,0,0-.24-.13.92.92,0,0,0-.29,0,.72.72,0,0,0-.28,0,.75.75,0,0,0-.18.08l-.12.08a.19.19,0,0,1-.12,0h-.24a.11.11,0,0,1-.08,0,.09.09,0,0,1,0-.07l.14-1.56a.13.13,0,0,1,0-.09.12.12,0,0,1,.09,0h1.66a.09.09,0,0,1,.08,0,.1.1,0,0,1,0,.09v.16a.1.1,0,0,1,0,.09.09.09,0,0,1-.08,0H876.2l-.07.81a1.27,1.27,0,0,1,.21-.07,1.69,1.69,0,0,1,.35,0,1.39,1.39,0,0,1,.46.08,1,1,0,0,1,.38.22,1.1,1.1,0,0,1,.26.34,1.16,1.16,0,0,1,.09.47,1.14,1.14,0,0,1-.09.46,1.1,1.1,0,0,1-.26.34,1,1,0,0,1-.38.22,1.39,1.39,0,0,1-.46.08,1.33,1.33,0,0,1-.45-.07,1.06,1.06,0,0,1-.37-.18.89.89,0,0,1-.26-.29.76.76,0,0,1-.11-.36.13.13,0,0,1,0-.08.11.11,0,0,1,.08,0h.21a.13.13,0,0,1,.08,0A.15.15,0,0,1,875.94,344Z"/><path class="cls-4" d="M878.34,343.87a.89.89,0,0,1,.12-.45,1.18,1.18,0,0,1,.33-.34,1,1,0,0,1-.27-.3.85.85,0,0,1,0-.74.76.76,0,0,1,.23-.3.94.94,0,0,1,.34-.19,1.23,1.23,0,0,1,.44-.08,1.22,1.22,0,0,1,.43.08,1.08,1.08,0,0,1,.35.19,1,1,0,0,1,.23.3.85.85,0,0,1,.08.35.87.87,0,0,1-.1.39,1,1,0,0,1-.27.3,1.18,1.18,0,0,1,.33.34.89.89,0,0,1,.12.45,1,1,0,0,1-.08.38.93.93,0,0,1-.25.31,1.12,1.12,0,0,1-.37.21,1.4,1.4,0,0,1-.47.08,1.46,1.46,0,0,1-.48-.08,1.12,1.12,0,0,1-.37-.21.79.79,0,0,1-.24-.31A.85.85,0,0,1,878.34,343.87Zm.44,0a.43.43,0,0,0,.06.22.47.47,0,0,0,.15.17.71.71,0,0,0,.23.12.94.94,0,0,0,.3.05.93.93,0,0,0,.29-.05.71.71,0,0,0,.23-.12.47.47,0,0,0,.15-.17.5.5,0,0,0-.15-.62.71.71,0,0,0-.23-.12.92.92,0,0,0-.29,0,1,1,0,0,0-.3,0,.71.71,0,0,0-.23.12.54.54,0,0,0-.21.4Zm.09-1.48a.49.49,0,0,0,0,.2.5.5,0,0,0,.14.15.64.64,0,0,0,.2.11.71.71,0,0,0,.26,0,.69.69,0,0,0,.25,0,.7.7,0,0,0,.21-.11.47.47,0,0,0,.13-.15.37.37,0,0,0,0-.2.32.32,0,0,0,0-.19A.51.51,0,0,0,880,342a1,1,0,0,0-.21-.11.83.83,0,0,0-.51,0,1,1,0,0,0-.2.11.54.54,0,0,0-.14.16A.41.41,0,0,0,878.87,342.39Z"/><path class="cls-4" d="M882.42,343.68h-.13a1.35,1.35,0,0,1-.44-.07,1.23,1.23,0,0,1-.37-.21.92.92,0,0,1-.26-.35,1,1,0,0,1-.11-.47,1.05,1.05,0,0,1,.1-.44,1.12,1.12,0,0,1,.25-.35,1.31,1.31,0,0,1,.83-.32,1.26,1.26,0,0,1,.49.09.93.93,0,0,1,.37.23,1.09,1.09,0,0,1,.24.35,1.23,1.23,0,0,1,.08.44,1,1,0,0,1,0,.24l-.09.23a2.39,2.39,0,0,1-.13.21l-.12.19-.85,1.26s0,0,0,.06a.13.13,0,0,1-.1,0h-.26a.1.1,0,0,1-.1-.1s0,0,0,0a0,0,0,0,1,0,0Zm.6-1.1a.76.76,0,0,0,0-.27.71.71,0,0,0-.15-.22.68.68,0,0,0-.23-.14.78.78,0,0,0-.6,0,.68.68,0,0,0-.23.14.71.71,0,0,0-.15.22.75.75,0,0,0,0,.54.71.71,0,0,0,.15.22.68.68,0,0,0,.23.14.92.92,0,0,0,.6,0,.68.68,0,0,0,.23-.14.71.71,0,0,0,.15-.22A.76.76,0,0,0,883,342.58Z"/><path class="cls-4" d="M884.92,342.61h.16a1.53,1.53,0,0,1,.49.08,1.12,1.12,0,0,1,.38.24,1.27,1.27,0,0,1,.26.36,1.13,1.13,0,0,1,.09.45,1.06,1.06,0,0,1-.35.8,1.12,1.12,0,0,1-.38.24,1.3,1.3,0,0,1-.49.09,1.3,1.3,0,0,1-.87-.33,1.16,1.16,0,0,1-.25-.36,1,1,0,0,1-.09-.44,1.09,1.09,0,0,1,0-.26,2,2,0,0,1,.08-.22l.11-.19c0-.07.08-.12.12-.18l.86-1.26,0-.06a.12.12,0,0,1,.09,0h.27a.09.09,0,0,1,.07,0,.14.14,0,0,1,0,.07s0,0,0,0v0Zm-.6,1.11a.65.65,0,0,0,0,.27,1.07,1.07,0,0,0,.15.22.78.78,0,0,0,.24.16.87.87,0,0,0,.32.06.79.79,0,0,0,.32-.06.72.72,0,0,0,.25-.16,1.07,1.07,0,0,0,.15-.22.86.86,0,0,0,.05-.27.76.76,0,0,0-.05-.27.86.86,0,0,0-.15-.22.72.72,0,0,0-.25-.16.79.79,0,0,0-.32-.06.87.87,0,0,0-.32.06.78.78,0,0,0-.24.16.86.86,0,0,0-.15.22A.59.59,0,0,0,884.32,343.72Z"/><path class="cls-4" d="M875.11,360.23l.95-1.84a.61.61,0,0,1,.07-.1.21.21,0,0,1,.13-.05h.18a.13.13,0,0,1,.09,0,.12.12,0,0,1,0,.09v3a.12.12,0,0,1,0,.09.13.13,0,0,1-.09,0h-.19a.13.13,0,0,1-.09,0,.12.12,0,0,1,0-.09v-2.22l-.73,1.41a.44.44,0,0,1-.08.11.18.18,0,0,1-.11,0H875a.18.18,0,0,1-.11,0,.44.44,0,0,1-.08-.11l-.73-1.41v2.22a.12.12,0,0,1,0,.09.13.13,0,0,1-.09,0h-.19a.15.15,0,0,1-.09,0,.18.18,0,0,1,0-.09v-3a.18.18,0,0,1,0-.09.15.15,0,0,1,.09,0H874a.21.21,0,0,1,.13.05.61.61,0,0,1,.07.1Z"/><path class="cls-4" d="M879.53,361.53a.16.16,0,0,1-.11,0,.39.39,0,0,1-.08-.1l-1.52-2.29v2.31a.12.12,0,0,1,0,.09.13.13,0,0,1-.09,0h-.19a.14.14,0,0,1-.13-.13v-3a.14.14,0,0,1,.13-.13h.16a.14.14,0,0,1,.11.05l.08.09,1.53,2.3v-2.31a.16.16,0,0,1,0-.09.18.18,0,0,1,.09,0h.19a.13.13,0,0,1,.09,0,.12.12,0,0,1,0,.09v3a.12.12,0,0,1,0,.09.13.13,0,0,1-.09,0Z"/><path class="cls-4" d="M882.08,360.23l.95-1.84a.35.35,0,0,1,.08-.1.17.17,0,0,1,.13-.05h.17a.13.13,0,0,1,.09,0,.12.12,0,0,1,0,.09v3a.12.12,0,0,1,0,.09.13.13,0,0,1-.09,0h-.19a.18.18,0,0,1-.09,0,.16.16,0,0,1,0-.09v-2.22l-.74,1.41-.07.11a.21.21,0,0,1-.12,0H882a.21.21,0,0,1-.11,0,1,1,0,0,1-.08-.11l-.73-1.41v2.22a.12.12,0,0,1,0,.09.13.13,0,0,1-.09,0h-.19a.18.18,0,0,1-.09,0,.16.16,0,0,1,0-.09v-3a.16.16,0,0,1,0-.09.18.18,0,0,1,.09,0h.18a.19.19,0,0,1,.13.05l.08.1Z"/><path class="cls-4" d="M885.81,359.49v.79a.94.94,0,0,0,.24.63.83.83,0,0,0,.64.24,1,1,0,0,0,.38-.06.72.72,0,0,0,.26-.14.62.62,0,0,0,.15-.21.9.9,0,0,0,.08-.23.13.13,0,0,1,.05-.07.11.11,0,0,1,.07,0h.22a.1.1,0,0,1,.1.1.88.88,0,0,1-.08.34.93.93,0,0,1-.23.34,1.17,1.17,0,0,1-.4.27,1.37,1.37,0,0,1-.6.11,1.53,1.53,0,0,1-.54-.09,1.33,1.33,0,0,1-.41-.27,1.09,1.09,0,0,1-.27-.4,1.59,1.59,0,0,1-.1-.51c0-.28,0-.55,0-.83a1.71,1.71,0,0,1,.1-.51,1.09,1.09,0,0,1,.27-.4,1.33,1.33,0,0,1,.41-.27,1.53,1.53,0,0,1,.54-.09,1.37,1.37,0,0,1,.6.11,1.32,1.32,0,0,1,.4.26,1.06,1.06,0,0,1,.23.35.88.88,0,0,1,.08.34.11.11,0,0,1,0,.07.09.09,0,0,1-.07,0h-.22a.11.11,0,0,1-.07,0,.13.13,0,0,1-.05-.07,1.13,1.13,0,0,0-.08-.24.7.7,0,0,0-.15-.2.72.72,0,0,0-.26-.14,1,1,0,0,0-.38-.06.83.83,0,0,0-.64.24A.94.94,0,0,0,885.81,359.49Z"/><path class="cls-4" d="M889.56,359a1.25,1.25,0,0,1,.45.08.89.89,0,0,1,.34.21.83.83,0,0,1,.22.33,1.18,1.18,0,0,1,.1.43.28.28,0,0,1,0,.1v.24a.31.31,0,0,1,0,.1,1.13,1.13,0,0,1-.1.42.83.83,0,0,1-.22.33.89.89,0,0,1-.34.21,1.06,1.06,0,0,1-.45.08,1.12,1.12,0,0,1-.45-.08.93.93,0,0,1-.33-.21,1,1,0,0,1-.23-.33,1.72,1.72,0,0,1-.1-.42v-.1a.72.72,0,0,1,0-.24v-.1a1.81,1.81,0,0,1,.1-.43,1,1,0,0,1,.23-.33.93.93,0,0,1,.33-.21A1.33,1.33,0,0,1,889.56,359Zm.69,1.46c0-.05,0-.11,0-.19s0-.14,0-.2a1.1,1.1,0,0,0-.06-.26.74.74,0,0,0-.13-.21.6.6,0,0,0-.21-.14.65.65,0,0,0-.29-.06.61.61,0,0,0-.28.06.6.6,0,0,0-.21.14.74.74,0,0,0-.13.21,1.1,1.1,0,0,0-.06.26,1.21,1.21,0,0,0,0,.2,1,1,0,0,0,0,.19,1.18,1.18,0,0,0,.06.27.74.74,0,0,0,.13.21.66.66,0,0,0,.49.19.84.84,0,0,0,.29-.05.77.77,0,0,0,.21-.14.74.74,0,0,0,.13-.21A1.18,1.18,0,0,0,890.25,360.5Z"/><path class="cls-4" d="M892.51,359.09a.12.12,0,0,1,.09,0,.11.11,0,0,1,0,.08v.15a.12.12,0,0,1-.12.13h-.27a.48.48,0,0,0-.54.54v1.37a.14.14,0,0,1-.13.13h-.17a.13.13,0,0,1-.09,0,.12.12,0,0,1,0-.09v-2.19a.09.09,0,0,1,0-.08.1.1,0,0,1,.09,0h.17a.12.12,0,0,1,.09,0,.12.12,0,0,1,0,.08v.15a.63.63,0,0,1,.22-.21.83.83,0,0,1,.34-.06Z"/><path class="cls-4" d="M894.2,361.57a.91.91,0,0,1-.47-.1,1,1,0,0,1-.26-.22v1a.12.12,0,0,1,0,.09.13.13,0,0,1-.09,0h-.17a.13.13,0,0,1-.09,0,.12.12,0,0,1,0-.09v-3.08a.09.09,0,0,1,0-.08.1.1,0,0,1,.09,0h.17a.1.1,0,0,1,.09,0,.09.09,0,0,1,0,.08v.15a.76.76,0,0,1,.27-.22.85.85,0,0,1,.46-.1,1.06,1.06,0,0,1,.4.08,1,1,0,0,1,.34.22,1.38,1.38,0,0,1,.22.35,1.35,1.35,0,0,1,.1.47v.3a1.4,1.4,0,0,1-.1.47,1.17,1.17,0,0,1-.22.34,1,1,0,0,1-.34.22A.9.9,0,0,1,894.2,361.57Zm-.73-1.46s0,.1,0,.18,0,.14,0,.19a.7.7,0,0,0,.2.51.71.71,0,0,0,1,0,.87.87,0,0,0,.19-.53,1.13,1.13,0,0,0,0-.26.88.88,0,0,0-.19-.54.71.71,0,0,0-1,0A.71.71,0,0,0,893.47,360.11Z"/><path class="cls-4" d="M874.29,378.12a.12.12,0,0,1-.12.13H874a.12.12,0,0,1-.12-.13v-2.58l-.76.58a.17.17,0,0,1-.1,0l-.08,0-.11-.15a.14.14,0,0,1,0-.09.14.14,0,0,1,.05-.08l1-.77.08,0h.27a.12.12,0,0,1,.12.13Z"/><path class="cls-4" d="M876.34,376.53a1.2,1.2,0,0,0,.21-.26.69.69,0,0,0,.07-.34.64.64,0,0,0-.14-.42.59.59,0,0,0-.46-.17.78.78,0,0,0-.28.05.53.53,0,0,0-.19.13.59.59,0,0,0-.13.19,1.42,1.42,0,0,0-.07.22.14.14,0,0,1-.05.08l-.07,0H875a.11.11,0,0,1-.07,0,.09.09,0,0,1,0-.07.93.93,0,0,1,.08-.35.87.87,0,0,1,.22-.32,1,1,0,0,1,.34-.24,1,1,0,0,1,.47-.1,1.25,1.25,0,0,1,.45.08,1.12,1.12,0,0,1,.33.22,1,1,0,0,1,.2.32,1.23,1.23,0,0,1,.07.39,1.12,1.12,0,0,1,0,.27.88.88,0,0,1-.07.23l-.14.21-.21.21-1,1H877a.11.11,0,0,1,.09,0,.1.1,0,0,1,0,.09v.16a.1.1,0,0,1,0,.09.11.11,0,0,1-.09,0h-2a.12.12,0,0,1-.09,0,.13.13,0,0,1,0-.09V378a.12.12,0,0,1,0-.09.22.22,0,0,1,.08-.09Z"/><path class="cls-4" d="M878,377.46a1,1,0,0,0,.07.15.37.37,0,0,0,.12.13.9.9,0,0,0,.22.1,1.79,1.79,0,0,0,.36,0,1.26,1.26,0,0,0,.28,0,.61.61,0,0,0,.23-.11.69.69,0,0,0,.16-.18.59.59,0,0,0,0-.27.55.55,0,0,0,0-.26.46.46,0,0,0-.15-.16.6.6,0,0,0-.23-.1l-.29,0h-.39a.12.12,0,0,1-.08,0,.12.12,0,0,1,0-.09v-.17a.24.24,0,0,1,0-.08l.05-.06.85-.91h-1.35a.1.1,0,0,1-.09,0,.09.09,0,0,1,0-.08v-.17a.14.14,0,0,1,.13-.13h1.84a.14.14,0,0,1,.13.13v.17a.31.31,0,0,1,0,.08l-.06.07-.83.9a1.42,1.42,0,0,1,.42.07,1.25,1.25,0,0,1,.34.19.94.94,0,0,1,.29.7,1,1,0,0,1-.09.43,1.15,1.15,0,0,1-.25.32,1.37,1.37,0,0,1-.38.2,1.63,1.63,0,0,1-.45.07,1.71,1.71,0,0,1-.54-.08.92.92,0,0,1-.37-.19.75.75,0,0,1-.22-.26.68.68,0,0,1-.08-.31.11.11,0,0,1,0-.07.09.09,0,0,1,.07,0h.22a.11.11,0,0,1,.08,0A.16.16,0,0,1,878,377.46Z"/><path class="cls-4" d="M881.63,377.13h-.13a1.36,1.36,0,0,1-.44-.08,1.23,1.23,0,0,1-.37-.21.92.92,0,0,1-.26-.35,1,1,0,0,1-.11-.47,1.05,1.05,0,0,1,.1-.44,1.12,1.12,0,0,1,.25-.35,1.31,1.31,0,0,1,.83-.32,1.26,1.26,0,0,1,.49.09.93.93,0,0,1,.37.23,1.09,1.09,0,0,1,.24.35,1.23,1.23,0,0,1,.08.44,1,1,0,0,1,0,.24l-.09.23a2.39,2.39,0,0,1-.13.21l-.12.19-.85,1.26s0,0-.05.06a.13.13,0,0,1-.1,0H881a.1.1,0,0,1-.1-.1s0,0,0,0a0,0,0,0,1,0,0Zm.6-1.1a.76.76,0,0,0-.05-.27.71.71,0,0,0-.15-.22.68.68,0,0,0-.23-.14.78.78,0,0,0-.6,0,.68.68,0,0,0-.23.14.71.71,0,0,0-.15.22.75.75,0,0,0,0,.54.71.71,0,0,0,.15.22.68.68,0,0,0,.23.14.93.93,0,0,0,.6,0,.68.68,0,0,0,.23-.14.71.71,0,0,0,.15-.22A.76.76,0,0,0,882.23,376Z"/><path class="cls-4" d="M883.51,377.4a.61.61,0,0,0,.27.35.92.92,0,0,0,.77.08.56.56,0,0,0,.23-.12.6.6,0,0,0,.16-.22.65.65,0,0,0,.06-.29.67.67,0,0,0-.06-.3.49.49,0,0,0-.16-.21.58.58,0,0,0-.23-.13.92.92,0,0,0-.29,0,.78.78,0,0,0-.29,0,.54.54,0,0,0-.17.08l-.12.08a.2.2,0,0,1-.13,0h-.24a.11.11,0,0,1-.07,0,.09.09,0,0,1,0-.07l.14-1.56a.14.14,0,0,1,.13-.13h1.65a.14.14,0,0,1,.13.13v.17a.09.09,0,0,1,0,.08.1.1,0,0,1-.09,0h-1.36l-.08.81.22-.07a1.61,1.61,0,0,1,.35,0,1.44,1.44,0,0,1,.46.08,1.11,1.11,0,0,1,.38.22.94.94,0,0,1,.25.34,1,1,0,0,1,.1.47,1,1,0,0,1-.1.46.94.94,0,0,1-.25.34,1.11,1.11,0,0,1-.38.22,1.44,1.44,0,0,1-.46.08,1.33,1.33,0,0,1-.45-.07,1,1,0,0,1-.64-.47.75.75,0,0,1-.1-.36.09.09,0,0,1,0-.07.09.09,0,0,1,.07,0h.22a.11.11,0,0,1,.07,0A.11.11,0,0,1,883.51,377.4Z"/><path class="cls-5" d="M848.7,286.63H847v-.46l.4-.14-.13-.39h-1.19L846,286l.42.14v.46h-1.62v-.46l.39-.14,1.18-3.16h.86l1.15,3.17.37.14Zm-2-2.83-.43,1.27h.83Z"/><path class="cls-5" d="M848.81,286.17l.4-.16V283.5l-.4-.16v-.46l1.23,0h.51c.82,0,1.3.43,1.3,1.12,0,.9-.55,1.34-1.52,1.34H850V286l.4.16v.46h-1.63Zm1.52-1.48c.44,0,.69-.21.69-.6a.52.52,0,0,0-.55-.59H850v1.19Z"/><path class="cls-5" d="M852.15,286.17l.4-.16V283.5l-.4-.16v-.46l1.23,0h.51c.82,0,1.3.43,1.3,1.12,0,.9-.55,1.34-1.53,1.34h-.28V286l.4.16v.46h-1.63Zm1.51-1.48c.45,0,.7-.21.7-.6a.53.53,0,0,0-.55-.59h-.43v1.19Z"/><path class="cls-5" d="M857.63,285.4h.5v1.23h-2.67v-.46l.4-.16V283.5l-.4-.16v-.46l1.63,0v.48l-.4.16V286h.82Z"/><path class="cls-5" d="M858.41,286.17l.4-.16V283.5l-.4-.16v-.46l1.63,0v.48l-.4.16V286l.4.16v.46h-1.63Z"/><path class="cls-5" d="M862.92,283.55a1.94,1.94,0,0,0-.6-.09c-.56,0-.88.42-.88,1.31s.35,1.23.91,1.23a1.91,1.91,0,0,0,1-.37l.29.48a2.11,2.11,0,0,1-1.4.58c-1.09,0-1.71-.65-1.71-1.89a1.77,1.77,0,0,1,1.8-2,3.68,3.68,0,0,1,1.25.25l0,1h-.52Z"/><path class="cls-5" d="M867.67,286.63H866v-.46l.4-.14-.13-.39h-1.19l-.13.39.42.14v.46h-1.62v-.46l.39-.14,1.18-3.16h.85l1.15,3.17.38.14Zm-2-2.83-.42,1.27h.82Z"/><path class="cls-5" d="M868.57,283.5h-.51l-.14.51h-.49v-1.15h3.11V284H870l-.14-.51h-.5V286l.5.16v.46h-1.84v-.46l.51-.16Z"/><path class="cls-5" d="M870.81,286.17l.4-.16V283.5l-.4-.16v-.46l1.63,0v.48l-.4.16V286l.4.16v.46h-1.63Z"/><path class="cls-5" d="M876.4,284.69a1.8,1.8,0,0,1-1.79,2c-1.07,0-1.66-.67-1.66-1.93a1.74,1.74,0,0,1,1.76-2C875.78,282.79,876.4,283.5,876.4,284.69Zm-2.54.06c0,.88.24,1.28.77,1.28s.86-.35.86-1.31-.27-1.26-.8-1.26S873.86,283.79,873.86,284.75Z"/><path class="cls-5" d="M876.88,286.17l.41-.16V283.5l-.41-.16v-.46l1.29,0,1.44,2.47V283.5l-.39-.16v-.46l1.53,0v.48l-.4.16v3.13h-.9L878,284.21V286l.42.16v.46h-1.56Z"/><path class="cls-5" d="M882.41,286.17l.4-.16V283.5l-.4-.16v-.46l1.23,0h1.5v1h-.5l-.13-.37h-.87v.94h1.11V285h-1.11v1l.5.16v.46h-1.73Z"/><path class="cls-5" d="M889,284.69a1.8,1.8,0,0,1-1.79,2c-1.07,0-1.66-.67-1.66-1.93a1.74,1.74,0,0,1,1.77-2C888.41,282.79,889,283.5,889,284.69Zm-2.54.06c0,.88.24,1.28.78,1.28s.85-.35.85-1.31-.26-1.26-.8-1.26S886.48,283.79,886.48,284.75Z"/><path class="cls-5" d="M889.51,286.17l.4-.16V283.5l-.4-.16v-.46l1.23,0h.41c.87,0,1.39.36,1.39,1.09a1.05,1.05,0,0,1-.61,1,1.6,1.6,0,0,1,.23.35l.36.73.36.13v.46h-1l-.45-1c-.18-.41-.23-.49-.51-.49h-.19V286l.39.16v.46h-1.62Zm1.54-1.58c.42,0,.66-.21.66-.57a.5.5,0,0,0-.53-.52h-.44v1.09Z"/><path class="cls-5" d="M893.13,286.17l.4-.16V283.5l-.4-.16v-.46l1.38,0,.8,1.78.84-1.76,1.28,0v.48l-.38.16V286l.4.16v.46h-1.59v-.46l.41-.16v-2l-.14.36-.61,1.25-.57,0-.62-1.27-.09-.28V286l.41.16v.46h-1.52Z"/><circle class="cls-1" cx="122.88" cy="486.35" r="26.94"/><path class="cls-5" d="M122.84,486.88c0,5.63-1.87,8.8-6.28,8.8s-6.15-3-6.15-8.45,1.76-8.67,6.38-8.67S122.84,481.53,122.84,486.88Zm-8.63.23c0,4.11.7,5.63,2.44,5.63S119,491.22,119,487s-.56-5.51-2.37-5.51S114.21,482.89,114.21,487.11Z"/><path class="cls-5" d="M126.15,492.67h3.28V482.59l-3.59,2.3-1.36-2.49,5.58-3.56h3v13.83h3.17v2.7H126.15Z"/><circle class="cls-1" cx="605.58" cy="486.35" r="26.94"/><path class="cls-5" d="M605.54,483.75c1.13,11.48-13.44,11.87-12.43.35C591.87,472.88,606.82,472.3,605.54,483.75Zm-8.63.23c-.44,7.69,5.35,7.68,4.81-.11C602.27,476.28,596.39,476.35,596.91,484Z"/><circle class="cls-1" cx="359.54" cy="161.65" r="32.7"/><path class="cls-5" d="M358.51,159.71c0,6.83-2.28,10.68-7.63,10.68s-7.45-3.65-7.45-10.25,2.13-10.53,7.74-10.53S358.51,153.23,358.51,159.71ZM348,160c0,5,.85,6.83,3,6.83s2.87-1.85,2.87-7-.68-6.69-2.87-6.69S348,154.88,348,160Z"/><path class="cls-5" d="M361.22,166.54c6.09-4.92,9.59-7.82,9.59-10.61,0-1.74-1.31-2.85-3.33-2.85a7,7,0,0,0-2.65.52l-.28,2.42h-3l-.14-5.27a21.74,21.74,0,0,1,6.26-1.14c4.55,0,7.77,1.34,7.77,5.61,0,4-3,7-8.06,11.32h8.54V170H361.22Z"/><circle class="cls-1" cx="878.7" cy="153.65" r="32.7"/><path class="cls-5" d="M877.38,151.71c0,6.83-2.27,10.68-7.62,10.68s-7.46-3.65-7.46-10.25,2.13-10.53,7.74-10.53S877.38,145.23,877.38,151.71Zm-10.47.29c0,5,.85,6.83,3,6.83s2.87-1.85,2.87-7-.68-6.69-2.87-6.69S866.91,146.88,866.91,152Z"/><path class="cls-5" d="M893,162h-4.38v-4h-8.85l-.43-3.36c3-4.36,5.92-8.74,8.91-13.09L893,142v12.53h2.84V158H893Zm-9.39-7.54h5.06V147Z"/><line class="cls-9" x1="79.58" y1="253.49" x2="157.08" y2="253.49"/><line class="cls-9" x1="79.58" y1="258.49" x2="157.08" y2="258.49"/><line class="cls-9" x1="79.58" y1="263.49" x2="157.08" y2="263.49"/><line class="cls-9" x1="79.58" y1="268.49" x2="157.08" y2="268.49"/><line class="cls-9" x1="89.58" y1="343.49" x2="167.08" y2="343.49"/><line class="cls-9" x1="89.58" y1="348.49" x2="167.08" y2="348.49"/><line class="cls-9" x1="89.58" y1="353.49" x2="167.08" y2="353.49"/><line class="cls-9" x1="89.58" y1="358.49" x2="167.08" y2="358.49"/><line class="cls-9" x1="80.08" y1="281.99" x2="106.08" y2="281.99"/><line class="cls-9" x1="80.08" y1="290.99" x2="133.08" y2="290.99"/><line class="cls-9" x1="80.08" y1="297.99" x2="151.08" y2="297.99"/><line class="cls-9" x1="81.08" y1="308.99" x2="158.08" y2="308.99"/><line class="cls-9" x1="81.08" y1="302.99" x2="155.08" y2="302.99"/><line class="cls-9" x1="81.08" y1="314.99" x2="107.08" y2="314.99"/><line class="cls-9" x1="81.08" y1="322.99" x2="128.08" y2="322.99"/><line class="cls-9" x1="82.08" y1="336.99" x2="166.08" y2="336.99"/><path class="cls-1" d="M672.1,354.82a8.46,8.46,0,0,1-8.4,8.52H582.94a8.46,8.46,0,0,1-8.39-8.52V241.55a8.46,8.46,0,0,1,8.39-8.53H663.7a8.47,8.47,0,0,1,8.4,8.53Z"/><path class="cls-1" d="M573.65,349.34h-6.71a8.46,8.46,0,0,1-8.39-8.52V227.55a8.46,8.46,0,0,1,8.39-8.53H647.7a8.47,8.47,0,0,1,8.4,8.53v5"/><line class="cls-9" x1="583.58" y1="247.49" x2="661.08" y2="247.49"/><line class="cls-9" x1="583.58" y1="252.49" x2="661.08" y2="252.49"/><line class="cls-9" x1="583.58" y1="257.49" x2="661.08" y2="257.49"/><line class="cls-9" x1="580.58" y1="264.49" x2="658.08" y2="264.49"/><line class="cls-9" x1="590.58" y1="336.49" x2="668.08" y2="336.49"/><line class="cls-9" x1="590.58" y1="341.49" x2="668.08" y2="341.49"/><line class="cls-9" x1="590.58" y1="350.49" x2="662.17" y2="350.49"/><line class="cls-9" x1="590.58" y1="355.49" x2="662.17" y2="355.49"/><line class="cls-9" x1="585.08" y1="277.99" x2="611.08" y2="277.99"/><line class="cls-9" x1="584.08" y1="284.99" x2="637.08" y2="284.99"/><line class="cls-9" x1="581.08" y1="293.99" x2="652.08" y2="293.99"/><line class="cls-9" x1="582.08" y1="304.99" x2="659.08" y2="304.99"/><line class="cls-9" x1="582.08" y1="298.99" x2="656.08" y2="298.99"/><line class="cls-9" x1="582.08" y1="314.99" x2="608.08" y2="314.99"/><line class="cls-9" x1="582.08" y1="320.99" x2="629.08" y2="320.99"/><line class="cls-9" x1="583.08" y1="325.99" x2="667.08" y2="325.99"/><path class="cls-4" d="M663.33,242.65v19.63H582.08V242.65h81.25m1.5-1.5H580.58v22.63h84.25V241.15Z"/><path class="cls-4" d="M666.58,348.29V358H584.75v-9.69h81.83m1.5-1.5H583.25v12.69h84.83V346.79Z"/><path class="cls-4" d="M656.58,274.86v12.65h-74.5V274.86h74.5m1.5-1.5h-77.5V289h77.5V273.36Z"/><path class="cls-4" d="M668.07,311.48v18.45H579.62V311.48h88.45m1.5-1.5H578.12v21.45h91.45V310Z"/><circle class="cls-5" cx="154.64" cy="23.6" r="4"/><circle class="cls-5" cx="165.29" cy="23.6" r="4"/><circle class="cls-5" cx="175.95" cy="23.6" r="4"/><circle class="cls-5" cx="400.14" cy="524.19" r="4"/><circle class="cls-5" cx="410.79" cy="524.19" r="4"/><circle class="cls-5" cx="421.44" cy="524.19" r="4"/><circle class="cls-5" cx="669.96" cy="24.1" r="4"/><circle class="cls-5" cx="680.61" cy="24.1" r="4"/><circle class="cls-5" cx="691.26" cy="24.1" r="4"/><circle class="cls-5" cx="608.32" cy="522.24" r="6.88"/><circle class="cls-5" cx="370.61" cy="440.57" r="6.88"/><circle class="cls-5" cx="880.45" cy="111.17" r="6.88"/><circle class="cls-5" cx="613.13" cy="166.83" r="6.88"/><circle class="cls-5" cx="117.3" cy="162.27" r="6.88"/><circle class="cls-5" cx="358.51" cy="118.06" r="6.88"/><path class="cls-5" d="M620.17,487c0,2.83-2.18,5.42-7,5.42a11.52,11.52,0,0,1-6.41-1.8l1.52-3a8.14,8.14,0,0,0,4.8,1.51c1.94,0,3.14-.79,3.14-2.16s-.93-2.07-3.14-2.07h-1.78v-2.56l3.46-3.92h-7.16v-3.12h11.77v2.52l-3.8,4.32C618.64,482.69,620.17,484.57,620.17,487Z"/><path class="cls-4" d="M69.4,416a.42.42,0,0,1,.32.13.44.44,0,0,1,.13.32v6.7a6.67,6.67,0,0,1-.25,1.9,4.17,4.17,0,0,1-.81,1.5,3.5,3.5,0,0,1-1.4,1,5.24,5.24,0,0,1-2,.36,5.33,5.33,0,0,1-2.07-.36,3.46,3.46,0,0,1-1.39-1,3.87,3.87,0,0,1-.8-1.5,6.67,6.67,0,0,1-.25-1.9v-6.7a.44.44,0,0,1,.45-.45H62a.44.44,0,0,1,.45.45v6.79a3.39,3.39,0,0,0,.77,2.43,3.29,3.29,0,0,0,4.3,0,3.35,3.35,0,0,0,.78-2.43v-6.79a.44.44,0,0,1,.45-.45Z"/><path class="cls-4" d="M80.35,427.74a.58.58,0,0,1-.4-.16,1.82,1.82,0,0,1-.27-.35L74.23,419v8.24a.46.46,0,0,1-.13.32.45.45,0,0,1-.32.14h-.69a.45.45,0,0,1-.32-.14.42.42,0,0,1-.13-.32V416.46a.44.44,0,0,1,.45-.45h.59a.56.56,0,0,1,.39.15,2.26,2.26,0,0,1,.28.35l5.44,8.19v-8.24a.45.45,0,0,1,.14-.32.42.42,0,0,1,.32-.13h.68a.42.42,0,0,1,.32.13.45.45,0,0,1,.14.32v10.82a.48.48,0,0,1-.46.46Z"/><path class="cls-4" d="M87.87,415.84a4.59,4.59,0,0,1,1.8.32,4.91,4.91,0,0,1,1.33.78,3.42,3.42,0,0,1,.83,1,2.25,2.25,0,0,1,.3.95.29.29,0,0,1-.1.26.4.4,0,0,1-.27.11h-.69a.5.5,0,0,1-.29-.07.72.72,0,0,1-.23-.3,2.76,2.76,0,0,0-.27-.43,2.5,2.5,0,0,0-.52-.5,3.53,3.53,0,0,0-.8-.42,3,3,0,0,0-1.09-.17,3.24,3.24,0,0,0-.89.11,2.66,2.66,0,0,0-.77.32,1.74,1.74,0,0,0-.53.55,1.54,1.54,0,0,0,0,1.5,1.68,1.68,0,0,0,.62.54,5.67,5.67,0,0,0,1.08.45l1.59.45a10.48,10.48,0,0,1,1.62.55,4.26,4.26,0,0,1,1.08.68,2.26,2.26,0,0,1,.61.87,3,3,0,0,1,.19,1.12,2.92,2.92,0,0,1-.32,1.38,3.16,3.16,0,0,1-.92,1.08,4.23,4.23,0,0,1-1.41.7,6.31,6.31,0,0,1-1.85.26,5.48,5.48,0,0,1-1.8-.29,5.23,5.23,0,0,1-1.41-.74,3.8,3.8,0,0,1-.93-1,2.38,2.38,0,0,1-.36-1.09.36.36,0,0,1,.11-.26.38.38,0,0,1,.26-.11h.69a.51.51,0,0,1,.52.37,3,3,0,0,0,.31.51,2.57,2.57,0,0,0,.56.52,3.44,3.44,0,0,0,.86.41,3.79,3.79,0,0,0,1.19.17,4.44,4.44,0,0,0,1.11-.14,3.55,3.55,0,0,0,.93-.38,2.08,2.08,0,0,0,.64-.61,1.4,1.4,0,0,0,.23-.78,1.11,1.11,0,0,0-.27-.75,2.29,2.29,0,0,0-.77-.56,6.8,6.8,0,0,0-1.23-.46L87,422.27a6.63,6.63,0,0,1-1.42-.52,3.49,3.49,0,0,1-1-.72,2.36,2.36,0,0,1-.53-.88,3.62,3.62,0,0,1-.16-1.06,3.2,3.2,0,0,1,.25-1.21,3,3,0,0,1,.75-1,3.84,3.84,0,0,1,1.24-.73A5.15,5.15,0,0,1,87.87,415.84Z"/><path class="cls-4" d="M101.73,416a.42.42,0,0,1,.32.13.45.45,0,0,1,.14.32v.6a.45.45,0,0,1-.14.32.42.42,0,0,1-.32.13H98.6v9.77a.43.43,0,0,1-.14.32.41.41,0,0,1-.31.14h-.69a.45.45,0,0,1-.32-.14.42.42,0,0,1-.13-.32v-9.77H93.87a.44.44,0,0,1-.45-.45v-.6a.44.44,0,0,1,.45-.45Z"/><path class="cls-4" d="M108.52,416a5.58,5.58,0,0,1,1.55.2,3.63,3.63,0,0,1,1.28.62,2.88,2.88,0,0,1,.88,1.07,3.44,3.44,0,0,1,.33,1.57,3.28,3.28,0,0,1-.68,2.17,3.76,3.76,0,0,1-1.73,1.14l2.53,4.4a.49.49,0,0,1,0,.19.38.38,0,0,1-.37.37h-.72a.67.67,0,0,1-.5-.17,1.47,1.47,0,0,1-.22-.29L108.49,423H105.6v4.27a.42.42,0,0,1-.13.32.45.45,0,0,1-.32.14h-.69a.43.43,0,0,1-.31-.14.43.43,0,0,1-.14-.32V416.46a.45.45,0,0,1,.14-.32.42.42,0,0,1,.31-.13Zm-2.92,5.49h2.84a3.25,3.25,0,0,0,1.87-.47,1.8,1.8,0,0,0,.66-1.56,1.68,1.68,0,0,0-.66-1.51,3.34,3.34,0,0,0-1.87-.45H105.6Z"/><path class="cls-4" d="M123.39,416a.44.44,0,0,1,.32.13.48.48,0,0,1,.13.32v6.7a6.66,6.66,0,0,1-.26,1.9,4,4,0,0,1-.8,1.5,3.57,3.57,0,0,1-1.4,1,6,6,0,0,1-4.11,0,3.5,3.5,0,0,1-1.4-1,4,4,0,0,1-.8-1.5,7,7,0,0,1-.25-1.9v-6.7a.45.45,0,0,1,.14-.32.42.42,0,0,1,.32-.13H116a.44.44,0,0,1,.45.45v6.79a3.35,3.35,0,0,0,.78,2.43,3.28,3.28,0,0,0,4.29,0,3.35,3.35,0,0,0,.78-2.43v-6.79a.45.45,0,0,1,.14-.32.42.42,0,0,1,.32-.13Z"/><path class="cls-4" d="M127.78,420.46c0,.51,0,1,0,1.41s0,.91,0,1.41a3.34,3.34,0,0,0,.84,2.25,3,3,0,0,0,2.29.87,4.11,4.11,0,0,0,1.36-.2,2.94,2.94,0,0,0,.91-.52,2.42,2.42,0,0,0,.56-.73,5.47,5.47,0,0,0,.29-.83.39.39,0,0,1,.17-.28.48.48,0,0,1,.27-.09h.77a.34.34,0,0,1,.26.11.36.36,0,0,1,.11.26,3.61,3.61,0,0,1-.29,1.2,3.86,3.86,0,0,1-.83,1.24,4.53,4.53,0,0,1-1.44,1,5.28,5.28,0,0,1-2.14.39,5.16,5.16,0,0,1-1.94-.35,4.33,4.33,0,0,1-1.47-.95,4.26,4.26,0,0,1-1-1.43,5.31,5.31,0,0,1-.36-1.82c0-1,0-2,0-3a5.35,5.35,0,0,1,.36-1.81,4.21,4.21,0,0,1,1-1.44,4.49,4.49,0,0,1,1.47-.95,5.16,5.16,0,0,1,1.94-.34,5.46,5.46,0,0,1,2.14.38,4.39,4.39,0,0,1,1.44,1,3.72,3.72,0,0,1,.83,1.23,3.66,3.66,0,0,1,.29,1.21.38.38,0,0,1-.11.26.37.37,0,0,1-.26.1h-.77a.48.48,0,0,1-.27-.09.39.39,0,0,1-.17-.27,5.11,5.11,0,0,0-.29-.83,2.2,2.2,0,0,0-.56-.73,2.59,2.59,0,0,0-.91-.52,3.86,3.86,0,0,0-1.36-.2,3,3,0,0,0-2.29.86A3.36,3.36,0,0,0,127.78,420.46Z"/><path class="cls-4" d="M145.06,416a.44.44,0,0,1,.45.45v.6a.44.44,0,0,1-.45.45h-3.14v9.77a.42.42,0,0,1-.13.32.45.45,0,0,1-.32.14h-.69a.41.41,0,0,1-.31-.14.43.43,0,0,1-.14-.32v-9.77H137.2a.42.42,0,0,1-.32-.13.45.45,0,0,1-.14-.32v-.6a.45.45,0,0,1,.14-.32.42.42,0,0,1,.32-.13Z"/><path class="cls-4" d="M155.8,416a.44.44,0,0,1,.45.45v6.7a6.33,6.33,0,0,1-.26,1.9,4,4,0,0,1-.8,1.5,3.5,3.5,0,0,1-1.4,1,6,6,0,0,1-4.11,0,3.57,3.57,0,0,1-1.4-1,4,4,0,0,1-.79-1.5,6.67,6.67,0,0,1-.25-1.9v-6.7a.44.44,0,0,1,.45-.45h.69a.42.42,0,0,1,.31.13.45.45,0,0,1,.14.32v6.79a3.39,3.39,0,0,0,.77,2.43,2.81,2.81,0,0,0,2.14.8,2.85,2.85,0,0,0,2.16-.8,3.35,3.35,0,0,0,.78-2.43v-6.79a.44.44,0,0,1,.45-.45Z"/><path class="cls-4" d="M163.54,416a5.53,5.53,0,0,1,1.55.2,3.68,3.68,0,0,1,1.29.62,3,3,0,0,1,.88,1.07,3.57,3.57,0,0,1,.32,1.57,3.22,3.22,0,0,1-.68,2.17,3.76,3.76,0,0,1-1.73,1.14l2.53,4.4a.49.49,0,0,1,.05.19.38.38,0,0,1-.37.37h-.72a.65.65,0,0,1-.49-.17,1.59,1.59,0,0,1-.23-.29L163.51,423h-2.88v4.27a.43.43,0,0,1-.14.32.43.43,0,0,1-.31.14h-.69a.45.45,0,0,1-.32-.14.42.42,0,0,1-.13-.32V416.46a.44.44,0,0,1,.45-.45Zm-2.91,5.49h2.83a3.23,3.23,0,0,0,1.87-.47,1.8,1.8,0,0,0,.66-1.56,1.68,1.68,0,0,0-.66-1.51,3.31,3.31,0,0,0-1.87-.45h-2.83Z"/><path class="cls-4" d="M177.17,426.23a.44.44,0,0,1,.45.45v.6a.42.42,0,0,1-.13.32.45.45,0,0,1-.32.14H170.4a.45.45,0,0,1-.32-.14.42.42,0,0,1-.13-.32V416.46a.44.44,0,0,1,.45-.45H177a.4.4,0,0,1,.31.13.45.45,0,0,1,.14.32v.6a.45.45,0,0,1-.14.32.4.4,0,0,1-.31.13h-5.5v3.54h5.13a.44.44,0,0,1,.45.45v.61a.42.42,0,0,1-.13.31.45.45,0,0,1-.32.14h-5.13v3.67Z"/><path class="cls-4" d="M189,420.55c0,.5,0,.94,0,1.32s0,.82,0,1.33a5,5,0,0,1-.37,1.9,4.12,4.12,0,0,1-1,1.43,4.36,4.36,0,0,1-1.48.9,5.67,5.67,0,0,1-1.89.31h-3.94a.45.45,0,0,1-.32-.14.42.42,0,0,1-.13-.32V416.46a.44.44,0,0,1,.45-.45h3.84a5.69,5.69,0,0,1,1.92.31,4.36,4.36,0,0,1,1.52.89,4.16,4.16,0,0,1,1,1.43A5,5,0,0,1,189,420.55Zm-1.59.08a4.09,4.09,0,0,0-.2-1.16,2.54,2.54,0,0,0-.56-1,2.76,2.76,0,0,0-1-.7,4,4,0,0,0-1.53-.26h-2.63v8.72h2.72a3.9,3.9,0,0,0,1.51-.26,2.49,2.49,0,0,0,1-.7,2.64,2.64,0,0,0,.53-1,4.6,4.6,0,0,0,.18-1.17c0-.24,0-.46,0-.66v-1.14C187.38,421.11,187.38,420.89,187.38,420.63Z"/><path class="cls-4" d="M110.76,436.12a.44.44,0,0,1,.45.45v.6a.42.42,0,0,1-.13.32.45.45,0,0,1-.32.14h-5.52v3.87h5.18a.42.42,0,0,1,.32.13.45.45,0,0,1,.14.32v.6a.48.48,0,0,1-.46.46h-5.18v4.39a.44.44,0,0,1-.45.45h-.69a.4.4,0,0,1-.31-.13.45.45,0,0,1-.14-.32V436.57a.45.45,0,0,1,.14-.32.4.4,0,0,1,.31-.13Z"/><path class="cls-4" d="M112.77,440.49a5.24,5.24,0,0,1,.33-1.77,4.1,4.1,0,0,1,.89-1.44,4.2,4.2,0,0,1,1.44-1,5.54,5.54,0,0,1,3.93,0,4.2,4.2,0,0,1,1.44,1,4.1,4.1,0,0,1,.89,1.44,5.24,5.24,0,0,1,.33,1.77c0,1,0,2,0,3a5.67,5.67,0,0,1-.34,1.76,4.23,4.23,0,0,1-.9,1.45,4.14,4.14,0,0,1-1.43,1,5.64,5.64,0,0,1-3.91,0,4.14,4.14,0,0,1-1.43-1,4.23,4.23,0,0,1-.9-1.45,5.67,5.67,0,0,1-.34-1.76C112.74,442.48,112.74,441.49,112.77,440.49Zm7.66.09a4.29,4.29,0,0,0-.26-1.38,2.63,2.63,0,0,0-.63-1,2.56,2.56,0,0,0-1-.58,3.85,3.85,0,0,0-2.39,0,2.56,2.56,0,0,0-1,.58,2.78,2.78,0,0,0-.64,1,4,4,0,0,0-.25,1.38c0,.5,0,1,0,1.4s0,.91,0,1.41a4,4,0,0,0,.25,1.38,2.78,2.78,0,0,0,.64,1,2.56,2.56,0,0,0,1,.58,3.85,3.85,0,0,0,2.39,0,2.56,2.56,0,0,0,1-.58,2.63,2.63,0,0,0,.63-1,4.29,4.29,0,0,0,.26-1.38q0-.75,0-1.41C120.46,441.55,120.45,441.08,120.43,440.58Z"/><path class="cls-4" d="M129,436.12a5.63,5.63,0,0,1,1.55.2,3.72,3.72,0,0,1,1.28.62,3.07,3.07,0,0,1,.88,1.07,3.48,3.48,0,0,1,.33,1.58,3.27,3.27,0,0,1-.68,2.16,3.64,3.64,0,0,1-1.74,1.14l2.53,4.41a.36.36,0,0,1-.06.44.36.36,0,0,1-.26.11h-.72a.66.66,0,0,1-.49-.17,1.58,1.58,0,0,1-.23-.28l-2.43-4.28h-2.88v4.28a.44.44,0,0,1-.45.45h-.69a.44.44,0,0,1-.45-.45V436.57a.44.44,0,0,1,.45-.45Zm-2.92,5.5h2.83a3.13,3.13,0,0,0,1.87-.48,1.79,1.79,0,0,0,.66-1.55,1.7,1.7,0,0,0-.66-1.52,3.3,3.3,0,0,0-1.87-.44h-2.83Z"/><path class="cls-4" d="M140.59,443.21l3.39-6.56a1.31,1.31,0,0,1,.27-.36.61.61,0,0,1,.46-.17h.64a.44.44,0,0,1,.45.45V447.4a.44.44,0,0,1-.45.45h-.69a.4.4,0,0,1-.31-.13.45.45,0,0,1-.14-.32v-7.95l-2.61,5.05a1.41,1.41,0,0,1-.29.39.53.53,0,0,1-.4.14h-.64a.54.54,0,0,1-.4-.14,1.4,1.4,0,0,1-.28-.39L137,439.45v7.95a.44.44,0,0,1-.45.45h-.69a.44.44,0,0,1-.45-.45V436.57a.44.44,0,0,1,.45-.45h.64a.61.61,0,0,1,.46.17,1.35,1.35,0,0,1,.28.36Z"/><path class="cls-4" d="M324.25,208.5a5.87,5.87,0,0,1,1.59.2,3.86,3.86,0,0,1,1.32.64,3,3,0,0,1,.9,1.1,3.52,3.52,0,0,1,.34,1.62,3.3,3.3,0,0,1-.7,2.22,3.76,3.76,0,0,1-1.78,1.17l2.6,4.53a.36.36,0,0,1,.05.19.35.35,0,0,1-.11.27.37.37,0,0,1-.27.11h-.74a.66.66,0,0,1-.5-.17,2.24,2.24,0,0,1-.24-.29l-2.49-4.4h-3v4.4a.48.48,0,0,1-.46.46h-.71a.45.45,0,0,1-.33-.14.44.44,0,0,1-.13-.32V209a.46.46,0,0,1,.13-.33.48.48,0,0,1,.33-.13Zm-3,5.64h2.91a3.21,3.21,0,0,0,1.92-.49,1.79,1.79,0,0,0,.68-1.59,1.74,1.74,0,0,0-.68-1.56,3.45,3.45,0,0,0-1.92-.45h-2.91Z"/><path class="cls-4" d="M338.18,217.83h-6l-.9,2.29a.77.77,0,0,1-.19.28.63.63,0,0,1-.48.15H330a.4.4,0,0,1-.27-.11.39.39,0,0,1-.11-.27.75.75,0,0,1,.07-.24l4.22-10.87a1.61,1.61,0,0,1,.26-.38.68.68,0,0,1,.52-.18h1a.7.7,0,0,1,.52.18,1.55,1.55,0,0,1,.25.38l4.21,10.87a.75.75,0,0,1,.07.24.36.36,0,0,1-.12.27.36.36,0,0,1-.26.11h-.64a.63.63,0,0,1-.48-.15.66.66,0,0,1-.19-.28Zm-5.37-1.55h4.77l-2.38-6.15Z"/><path class="cls-4" d="M347.34,208.5a5.89,5.89,0,0,1,1.6.21,3.76,3.76,0,0,1,1.31.66,3.2,3.2,0,0,1,.91,1.14,4.13,4.13,0,0,1,0,3.28,3.27,3.27,0,0,1-.91,1.16,3.65,3.65,0,0,1-1.31.69,5.52,5.52,0,0,1-1.6.23h-3.16v4.22a.45.45,0,0,1-.14.32.42.42,0,0,1-.33.14H343a.48.48,0,0,1-.46-.46V209a.43.43,0,0,1,.14-.33.44.44,0,0,1,.32-.13Zm-3.16,5.82h3.08a3,3,0,0,0,1.92-.54,2,2,0,0,0,.68-1.63,1.88,1.88,0,0,0-.68-1.61,3.21,3.21,0,0,0-1.92-.49h-3.08Z"/><path class="cls-4" d="M364.81,219a.49.49,0,0,1,.33.14.44.44,0,0,1,.13.33v.62a.44.44,0,0,1-.13.32.45.45,0,0,1-.33.14h-7a.42.42,0,0,1-.33-.14.44.44,0,0,1-.13-.32V209a.46.46,0,0,1,.13-.33.44.44,0,0,1,.33-.13h6.82a.46.46,0,0,1,.33.13.47.47,0,0,1,.14.33v.62a.45.45,0,0,1-.14.33.47.47,0,0,1-.33.14H359v3.63h5.27a.42.42,0,0,1,.33.14.45.45,0,0,1,.14.32v.62a.48.48,0,0,1-.47.47H359V219Z"/><path class="cls-4" d="M375.5,220.55a.54.54,0,0,1-.4-.16,2,2,0,0,1-.29-.36l-5.59-8.42v8.48a.45.45,0,0,1-.14.32.42.42,0,0,1-.33.14h-.7a.42.42,0,0,1-.33-.14.45.45,0,0,1-.14-.32V209a.47.47,0,0,1,.14-.33.44.44,0,0,1,.33-.13h.6a.54.54,0,0,1,.4.16,2.34,2.34,0,0,1,.29.35l5.59,8.42V209a.47.47,0,0,1,.14-.33.44.44,0,0,1,.33-.13h.71a.44.44,0,0,1,.32.13.47.47,0,0,1,.14.33v11.13a.45.45,0,0,1-.14.32.41.41,0,0,1-.32.14Z"/><path class="cls-4" d="M379.08,213a6.25,6.25,0,0,1,.34-1.8,4.26,4.26,0,0,1,.91-1.48,4.47,4.47,0,0,1,1.53-1,5.83,5.83,0,0,1,2.15-.36,5.66,5.66,0,0,1,2.06.35,5.13,5.13,0,0,1,1.48.85,3.76,3.76,0,0,1,.9,1.09,2.44,2.44,0,0,1,.31,1,.29.29,0,0,1-.1.26.38.38,0,0,1-.28.12h-.7c-.28,0-.44-.07-.5-.19a6,6,0,0,0-.47-.78,2.85,2.85,0,0,0-.63-.62,2.92,2.92,0,0,0-.87-.41,3.92,3.92,0,0,0-1.2-.16,4.17,4.17,0,0,0-1.3.2,2.6,2.6,0,0,0-1,.6,2.75,2.75,0,0,0-.69,1,3.43,3.43,0,0,0-.28,1.38c0,.52,0,1,0,1.43s0,.91,0,1.43a3.82,3.82,0,0,0,.28,1.45,2.87,2.87,0,0,0,.69,1,2.6,2.6,0,0,0,1,.6,3.89,3.89,0,0,0,1.3.2,4.47,4.47,0,0,0,1.29-.17,2.66,2.66,0,0,0,1.05-.56,2.58,2.58,0,0,0,.7-1,3.94,3.94,0,0,0,.25-1.51v-.48h-2.48a.48.48,0,0,1-.47-.47v-.62a.47.47,0,0,1,.14-.33.44.44,0,0,1,.33-.13h3.65a.44.44,0,0,1,.33.13.47.47,0,0,1,.14.33V216a5.3,5.3,0,0,1-.33,1.9,4.16,4.16,0,0,1-2.51,2.48,5.69,5.69,0,0,1-2.09.35,5.63,5.63,0,0,1-2.15-.37,4.2,4.2,0,0,1-1.52-1,4.41,4.41,0,0,1-.91-1.5,6.26,6.26,0,0,1-.35-1.86Q379,214.47,379.08,213Z"/><path class="cls-4" d="M391.78,220.55a.42.42,0,0,1-.33-.14.45.45,0,0,1-.14-.32V209a.47.47,0,0,1,.14-.33.44.44,0,0,1,.33-.13h.7a.44.44,0,0,1,.33.13.47.47,0,0,1,.14.33v11.13a.45.45,0,0,1-.14.32.42.42,0,0,1-.33.14Z"/><path class="cls-4" d="M403.83,220.55a.54.54,0,0,1-.4-.16,2,2,0,0,1-.29-.36l-5.59-8.42v8.48a.45.45,0,0,1-.14.32.42.42,0,0,1-.33.14h-.7a.42.42,0,0,1-.33-.14.45.45,0,0,1-.14-.32V209a.47.47,0,0,1,.14-.33.44.44,0,0,1,.33-.13h.6a.54.54,0,0,1,.4.16,2.34,2.34,0,0,1,.29.35l5.59,8.42V209a.47.47,0,0,1,.14-.33.44.44,0,0,1,.33-.13h.71a.44.44,0,0,1,.32.13.43.43,0,0,1,.14.33v11.13a.48.48,0,0,1-.46.46Z"/><path class="cls-4" d="M415.29,219a.45.45,0,0,1,.32.14.45.45,0,0,1,.14.33v.62a.45.45,0,0,1-.14.32.41.41,0,0,1-.32.14h-7a.42.42,0,0,1-.33-.14.45.45,0,0,1-.14-.32V209a.47.47,0,0,1,.14-.33.44.44,0,0,1,.33-.13h6.82a.44.44,0,0,1,.32.13.43.43,0,0,1,.14.33v.62a.42.42,0,0,1-.14.33.45.45,0,0,1-.32.14H409.5v3.63h5.27a.43.43,0,0,1,.33.14.44.44,0,0,1,.13.32v.62a.44.44,0,0,1-.13.33.47.47,0,0,1-.33.14H409.5V219Z"/><path class="cls-4" d="M569.49,427.7a.39.39,0,0,1-.28-.12.37.37,0,0,1-.11-.28v-9.53a.37.37,0,0,1,.11-.28.39.39,0,0,1,.28-.12h.61a.41.41,0,0,1,.4.4v9.53a.41.41,0,0,1-.4.4Z"/><path class="cls-4" d="M581.05,421.37c0,.44,0,.83,0,1.17s0,.72,0,1.16a4.49,4.49,0,0,1-.33,1.68,3.55,3.55,0,0,1-2.15,2.05,4.92,4.92,0,0,1-1.67.27h-3.47a.41.41,0,0,1-.4-.4v-9.53a.41.41,0,0,1,.4-.4h3.38a4.87,4.87,0,0,1,1.69.28,3.75,3.75,0,0,1,1.34.79,3.55,3.55,0,0,1,.87,1.26A4.4,4.4,0,0,1,581.05,421.37Zm-1.41.07a3.52,3.52,0,0,0-.17-1,2.32,2.32,0,0,0-.49-.88,2.47,2.47,0,0,0-.88-.61,3.59,3.59,0,0,0-1.35-.23h-2.31v7.67h2.39a3.27,3.27,0,0,0,1.33-.23,2.13,2.13,0,0,0,.86-.61,2.21,2.21,0,0,0,.47-.88,4.33,4.33,0,0,0,.15-1c0-.22,0-.41,0-.58s0-.34,0-.51,0-.33,0-.5S579.64,421.67,579.64,421.44Z"/><path class="cls-4" d="M589.54,426.37a.36.36,0,0,1,.28.12.38.38,0,0,1,.12.28v.53a.38.38,0,0,1-.12.28.36.36,0,0,1-.28.12h-6a.39.39,0,0,1-.28-.12.38.38,0,0,1-.12-.28v-9.53a.38.38,0,0,1,.12-.28.39.39,0,0,1,.28-.12h5.85a.39.39,0,0,1,.28.12.41.41,0,0,1,.11.28v.53a.41.41,0,0,1-.11.28.39.39,0,0,1-.28.12h-4.84v3.11h4.51a.41.41,0,0,1,.4.4v.53a.41.41,0,0,1-.4.4h-4.51v3.23Z"/><path class="cls-4" d="M598.71,427.7a.48.48,0,0,1-.35-.14,1.38,1.38,0,0,1-.24-.3l-4.8-7.22v7.26a.41.41,0,0,1-.4.4h-.6a.41.41,0,0,1-.4-.4v-9.53a.41.41,0,0,1,.4-.4h.51a.48.48,0,0,1,.35.14,2.34,2.34,0,0,1,.24.31l4.8,7.21v-7.26a.41.41,0,0,1,.4-.4h.6a.41.41,0,0,1,.4.4v9.53a.41.41,0,0,1-.4.4Z"/><path class="cls-4" d="M608.55,417.37a.39.39,0,0,1,.28.12.37.37,0,0,1,.11.28v.53a.37.37,0,0,1-.11.28.39.39,0,0,1-.28.12h-2.76v8.6a.41.41,0,0,1-.4.4h-.61a.39.39,0,0,1-.28-.12.41.41,0,0,1-.11-.28v-8.6h-2.76a.41.41,0,0,1-.4-.4v-.53a.41.41,0,0,1,.4-.4Z"/><path class="cls-4" d="M611,427.7a.41.41,0,0,1-.4-.4v-9.53a.41.41,0,0,1,.4-.4h.61a.39.39,0,0,1,.28.12.37.37,0,0,1,.11.28v9.53a.37.37,0,0,1-.11.28.39.39,0,0,1-.28.12Z"/><path class="cls-4" d="M620.75,417.37a.41.41,0,0,1,.4.4v.53a.41.41,0,0,1-.4.4h-4.86v3.41h4.56a.41.41,0,0,1,.4.4V423a.41.41,0,0,1-.4.4h-4.56v3.86a.41.41,0,0,1-.11.28.39.39,0,0,1-.28.12h-.61a.41.41,0,0,1-.4-.4v-9.53a.41.41,0,0,1,.4-.4Z"/><path class="cls-4" d="M623.4,427.7a.39.39,0,0,1-.28-.12.38.38,0,0,1-.12-.28v-9.53a.38.38,0,0,1,.12-.28.39.39,0,0,1,.28-.12H624a.41.41,0,0,1,.4.4v9.53a.41.41,0,0,1-.4.4Z"/><path class="cls-4" d="M633.3,426.37a.41.41,0,0,1,.4.4v.53a.41.41,0,0,1-.4.4h-6a.41.41,0,0,1-.4-.4v-9.53a.41.41,0,0,1,.4-.4h5.84a.4.4,0,0,1,.29.12.41.41,0,0,1,.11.28v.53a.41.41,0,0,1-.11.28.4.4,0,0,1-.29.12h-4.83v3.11h4.51a.41.41,0,0,1,.4.4v.53a.41.41,0,0,1-.4.4h-4.51v3.23Z"/><path class="cls-4" d="M643.69,421.37c0,.44,0,.83,0,1.17s0,.72,0,1.16a4.49,4.49,0,0,1-.33,1.68,3.55,3.55,0,0,1-2.15,2.05,4.92,4.92,0,0,1-1.67.27h-3.46a.36.36,0,0,1-.28-.12.38.38,0,0,1-.12-.28v-9.53a.38.38,0,0,1,.12-.28.36.36,0,0,1,.28-.12h3.38a4.82,4.82,0,0,1,1.68.28,3.66,3.66,0,0,1,1.34.79,3.57,3.57,0,0,1,.88,1.26A4.4,4.4,0,0,1,643.69,421.37Zm-1.4.07a3.89,3.89,0,0,0-.17-1,2.48,2.48,0,0,0-.5-.88,2.39,2.39,0,0,0-.88-.61,3.54,3.54,0,0,0-1.34-.23h-2.32v7.67h2.39a3.32,3.32,0,0,0,1.34-.23,2.28,2.28,0,0,0,.86-.61,2.32,2.32,0,0,0,.46-.88,3.88,3.88,0,0,0,.16-1c0-.22,0-.41,0-.58v-1C642.29,421.87,642.29,421.67,642.29,421.44Z"/><path class="cls-4" d="M569.49,435.08a.41.41,0,0,1,.4.4V436a.38.38,0,0,1-.12.28.36.36,0,0,1-.28.12h-4.85v3.4h4.56a.41.41,0,0,1,.4.4v.53a.41.41,0,0,1-.4.4h-4.56V445a.41.41,0,0,1-.4.4h-.6a.36.36,0,0,1-.28-.12.38.38,0,0,1-.12-.28v-9.53a.41.41,0,0,1,.4-.4Z"/><path class="cls-4" d="M571.26,438.93a4.74,4.74,0,0,1,.29-1.56,3.68,3.68,0,0,1,.79-1.27,3.78,3.78,0,0,1,1.27-.85,4.45,4.45,0,0,1,1.73-.32,4.4,4.4,0,0,1,1.72.32,3.68,3.68,0,0,1,1.27.85,3.54,3.54,0,0,1,.79,1.27,4.74,4.74,0,0,1,.29,1.56c0,.87,0,1.75,0,2.62a5,5,0,0,1-.3,1.56,4,4,0,0,1-.79,1.28,3.64,3.64,0,0,1-1.27.85,4.31,4.31,0,0,1-1.71.31,4.36,4.36,0,0,1-1.72-.31,3.51,3.51,0,0,1-1.26-.85,3.67,3.67,0,0,1-.79-1.28,4.71,4.71,0,0,1-.31-1.56C571.23,440.68,571.23,439.8,571.26,438.93ZM578,439a3.94,3.94,0,0,0-.23-1.21,2.22,2.22,0,0,0-.56-.85,2.15,2.15,0,0,0-.83-.51,3.36,3.36,0,0,0-2.11,0,2.15,2.15,0,0,0-.83.51,2.22,2.22,0,0,0-.56.85,3.43,3.43,0,0,0-.22,1.21c0,.44,0,.86,0,1.24s0,.8,0,1.24a3.39,3.39,0,0,0,.22,1.21,2.33,2.33,0,0,0,.56.86,2.41,2.41,0,0,0,.83.51,3.56,3.56,0,0,0,2.11,0,2.41,2.41,0,0,0,.83-.51,2.33,2.33,0,0,0,.56-.86,3.89,3.89,0,0,0,.23-1.21c0-.44,0-.86,0-1.24S578,439.44,578,439Z"/><path class="cls-4" d="M585.53,435.08a5.53,5.53,0,0,1,1.37.17,3.26,3.26,0,0,1,1.12.55,2.64,2.64,0,0,1,.78.94,3.13,3.13,0,0,1,.29,1.39,2.83,2.83,0,0,1-.6,1.9,3.22,3.22,0,0,1-1.53,1l2.23,3.88a.34.34,0,0,1,0,.16.32.32,0,0,1-.09.23.34.34,0,0,1-.23.1h-.63a.57.57,0,0,1-.44-.15,1.66,1.66,0,0,1-.2-.25l-2.14-3.77H583V445a.41.41,0,0,1-.11.28.39.39,0,0,1-.28.12H582a.41.41,0,0,1-.4-.4v-9.53a.36.36,0,0,1,.12-.28.38.38,0,0,1,.28-.12ZM583,439.92h2.5a2.76,2.76,0,0,0,1.64-.42,1.58,1.58,0,0,0,.59-1.37,1.48,1.48,0,0,0-.59-1.33,2.92,2.92,0,0,0-1.64-.39H583Z"/><path class="cls-4" d="M595.76,441.32l3-5.77a.93.93,0,0,1,.24-.32.55.55,0,0,1,.4-.15H600a.39.39,0,0,1,.39.4V445a.41.41,0,0,1-.11.28.39.39,0,0,1-.28.12h-.61a.41.41,0,0,1-.4-.4v-7l-2.3,4.44a1.26,1.26,0,0,1-.25.35.52.52,0,0,1-.35.13h-.57a.52.52,0,0,1-.35-.13,1.26,1.26,0,0,1-.25-.35l-2.3-4.44v7a.41.41,0,0,1-.4.4h-.6a.4.4,0,0,1-.29-.12.41.41,0,0,1-.11-.28v-9.53a.39.39,0,0,1,.11-.28.4.4,0,0,1,.29-.12h.56a.55.55,0,0,1,.4.15.93.93,0,0,1,.24.32Z"/><path class="cls-4" d="M612.74,435.08a.39.39,0,0,1,.28.12.36.36,0,0,1,.11.28V436a.37.37,0,0,1-.11.28.39.39,0,0,1-.28.12h-4.86v3.4h4.56a.41.41,0,0,1,.4.4v.53a.41.41,0,0,1-.4.4h-4.56V445a.38.38,0,0,1-.12.28.36.36,0,0,1-.28.12h-.6a.41.41,0,0,1-.4-.4v-9.53a.36.36,0,0,1,.12-.28.38.38,0,0,1,.28-.12Z"/><path class="cls-4" d="M615.39,445.41a.41.41,0,0,1-.4-.4v-9.53a.36.36,0,0,1,.12-.28.38.38,0,0,1,.28-.12H616a.39.39,0,0,1,.28.12.36.36,0,0,1,.12.28V445a.38.38,0,0,1-.12.28.39.39,0,0,1-.28.12Z"/><path class="cls-4" d="M625.29,444.08a.38.38,0,0,1,.28.12.36.36,0,0,1,.12.28V445a.41.41,0,0,1-.4.4h-6a.41.41,0,0,1-.4-.4v-9.53a.36.36,0,0,1,.12-.28.38.38,0,0,1,.28-.12h5.84a.41.41,0,0,1,.4.4V436a.38.38,0,0,1-.12.28.36.36,0,0,1-.28.12h-4.84v3.11h4.52a.41.41,0,0,1,.4.4v.53a.41.41,0,0,1-.4.4h-4.52v3.23Z"/><path class="cls-4" d="M634.07,444.08a.38.38,0,0,1,.28.12.36.36,0,0,1,.12.28V445a.41.41,0,0,1-.4.4h-6a.36.36,0,0,1-.28-.12.38.38,0,0,1-.12-.28v-9.53a.41.41,0,0,1,.4-.4h.6a.38.38,0,0,1,.28.12.36.36,0,0,1,.12.28v8.6Z"/><path class="cls-4" d="M644,439.08c0,.44,0,.83,0,1.16s0,.72,0,1.17a4.44,4.44,0,0,1-.33,1.67,3.51,3.51,0,0,1-.85,1.26,3.66,3.66,0,0,1-1.3.79,4.91,4.91,0,0,1-1.67.28h-3.46a.36.36,0,0,1-.28-.12A.38.38,0,0,1,636,445v-9.53a.41.41,0,0,1,.4-.4h3.37a5.08,5.08,0,0,1,1.69.27,3.81,3.81,0,0,1,1.34.79,3.57,3.57,0,0,1,.88,1.26A4.49,4.49,0,0,1,644,439.08Zm-1.4.07a4,4,0,0,0-.17-1,2.36,2.36,0,0,0-.5-.87,2.41,2.41,0,0,0-.88-.62,3.55,3.55,0,0,0-1.34-.22h-2.32v7.67h2.39a3.41,3.41,0,0,0,1.33-.23,2.35,2.35,0,0,0,.87-.61,2.39,2.39,0,0,0,.46-.88,3.89,3.89,0,0,0,.16-1c0-.21,0-.41,0-.58v-1C642.63,439.57,642.63,439.38,642.63,439.15Z"/><path class="cls-4" d="M649.34,434.93a4.14,4.14,0,0,1,1.59.28,4.51,4.51,0,0,1,1.16.69,3.08,3.08,0,0,1,.73.87,1.91,1.91,0,0,1,.27.83.25.25,0,0,1-.09.23.36.36,0,0,1-.24.09h-.6a.48.48,0,0,1-.26-.05.71.71,0,0,1-.2-.27,3.54,3.54,0,0,0-.24-.38,2.43,2.43,0,0,0-.46-.44,3.27,3.27,0,0,0-.7-.37,2.85,2.85,0,0,0-1-.15,3.35,3.35,0,0,0-.79.09,2.38,2.38,0,0,0-.67.29,1.54,1.54,0,0,0-.47.48,1.24,1.24,0,0,0-.18.67,1.21,1.21,0,0,0,.17.65,1.47,1.47,0,0,0,.55.48,4.88,4.88,0,0,0,.95.39c.38.12.85.25,1.4.4a8.94,8.94,0,0,1,1.42.49,3.44,3.44,0,0,1,.95.59,2,2,0,0,1,.54.77,2.55,2.55,0,0,1,.17,1,2.61,2.61,0,0,1-.28,1.22,2.84,2.84,0,0,1-.81.95,3.75,3.75,0,0,1-1.25.62,5.49,5.49,0,0,1-1.63.22,4.76,4.76,0,0,1-1.58-.25,4.22,4.22,0,0,1-1.23-.65,3.23,3.23,0,0,1-.82-.88,2,2,0,0,1-.32-1,.29.29,0,0,1,.1-.23.32.32,0,0,1,.22-.1h.61a.44.44,0,0,1,.46.33,2.23,2.23,0,0,0,.27.45,2.43,2.43,0,0,0,.49.46,3.16,3.16,0,0,0,.76.36,3.23,3.23,0,0,0,1,.14,4,4,0,0,0,1-.11,3,3,0,0,0,.81-.34,1.79,1.79,0,0,0,.56-.53,1.23,1.23,0,0,0,.21-.7,1,1,0,0,0-.23-.65,2.18,2.18,0,0,0-.68-.5A6.14,6.14,0,0,0,650,441c-.43-.13-.91-.26-1.45-.39a6,6,0,0,1-1.25-.47,3,3,0,0,1-.85-.63,2.07,2.07,0,0,1-.46-.78,3,3,0,0,1-.14-.93,2.62,2.62,0,0,1,.22-1.06,2.66,2.66,0,0,1,.66-.91,3.32,3.32,0,0,1,1.09-.65A4.49,4.49,0,0,1,649.34,434.93Z"/><path class="cls-4" d="M819.55,210a.44.44,0,0,1,.46.46v.62a.44.44,0,0,1-.13.33.49.49,0,0,1-.33.14h-7a.48.48,0,0,1-.47-.47V200a.47.47,0,0,1,.14-.33.44.44,0,0,1,.33-.13h6.83a.46.46,0,0,1,.33.13.47.47,0,0,1,.14.33v.62a.45.45,0,0,1-.14.33.47.47,0,0,1-.33.14h-5.66v3.64H819a.42.42,0,0,1,.33.14.45.45,0,0,1,.14.32v.62a.48.48,0,0,1-.47.47h-5.28V210Z"/><path class="cls-4" d="M826.31,206.72l-3.24,4.45-.23.25a.63.63,0,0,1-.48.15h-.74a.37.37,0,0,1-.27-.11.36.36,0,0,1-.11-.27.25.25,0,0,1,0-.08.37.37,0,0,1,0-.11l4.07-5.59-3.9-5.35a.45.45,0,0,1-.05-.19.38.38,0,0,1,.38-.37h.81a.62.62,0,0,1,.5.17,2.78,2.78,0,0,1,.22.26l3.07,4.2,3-4.19.23-.26a.62.62,0,0,1,.5-.18h.74a.38.38,0,0,1,.38.37.45.45,0,0,1,0,.19l-3.85,5.39L831.4,211l0,.11s0,.06,0,.08a.38.38,0,0,1-.38.38h-.81a.67.67,0,0,1-.49-.15l-.22-.25Z"/><path class="cls-4" d="M840.79,199.5a.44.44,0,0,1,.33.13.43.43,0,0,1,.14.33v.62a.42.42,0,0,1-.14.33.45.45,0,0,1-.33.14h-3.22v10a.48.48,0,0,1-.47.47h-.7a.48.48,0,0,1-.47-.47v-10h-3.22a.48.48,0,0,1-.47-.47V200a.47.47,0,0,1,.14-.33.44.44,0,0,1,.33-.13Z"/><path class="cls-4" d="M847.78,199.5a6,6,0,0,1,1.6.2,3.86,3.86,0,0,1,1.32.64,3.23,3.23,0,0,1,.9,1.1,3.67,3.67,0,0,1,.34,1.63,3.35,3.35,0,0,1-.7,2.22,3.79,3.79,0,0,1-1.79,1.17l2.61,4.54a.49.49,0,0,1,.05.19.38.38,0,0,1-.38.38H851a.7.7,0,0,1-.51-.17,1.5,1.5,0,0,1-.23-.3l-2.5-4.4h-3v4.4a.48.48,0,0,1-.47.47h-.7a.48.48,0,0,1-.47-.47V200a.47.47,0,0,1,.14-.33.44.44,0,0,1,.33-.13Zm-3,5.65h2.91a3.26,3.26,0,0,0,1.93-.49,1.84,1.84,0,0,0,.68-1.59,1.77,1.77,0,0,0-.68-1.57,3.51,3.51,0,0,0-1.93-.45h-2.91Z"/><path class="cls-4" d="M861.73,208.84h-6l-.9,2.3a.87.87,0,0,1-.19.28.63.63,0,0,1-.48.15h-.64a.38.38,0,0,1-.38-.38.56.56,0,0,1,.07-.24l4.23-10.89a1.34,1.34,0,0,1,.25-.37.67.67,0,0,1,.52-.19h1a.63.63,0,0,1,.51.19,1.39,1.39,0,0,1,.26.37L864.25,211a.56.56,0,0,1,.07.24.38.38,0,0,1-.38.38h-.64a.63.63,0,0,1-.48-.15.87.87,0,0,1-.19-.28Zm-5.38-1.55h4.78l-2.38-6.16Z"/><path class="cls-4" d="M867.08,204.08c0,.52,0,1,0,1.45s0,.93,0,1.45a3.43,3.43,0,0,0,.87,2.32,3.05,3.05,0,0,0,2.35.89,4,4,0,0,0,1.4-.21,2.92,2.92,0,0,0,.94-.53,2.27,2.27,0,0,0,.57-.75,4.62,4.62,0,0,0,.3-.86.45.45,0,0,1,.17-.28.56.56,0,0,1,.28-.1h.79a.34.34,0,0,1,.27.12.33.33,0,0,1,.11.26,3.68,3.68,0,0,1-.29,1.25,4,4,0,0,1-.85,1.26,4.51,4.51,0,0,1-1.49,1,5.34,5.34,0,0,1-2.2.4,5.48,5.48,0,0,1-2-.35,4.58,4.58,0,0,1-1.51-1,4.38,4.38,0,0,1-1-1.47,5.37,5.37,0,0,1-.38-1.87c0-1,0-2,0-3.07a5.47,5.47,0,0,1,.38-1.87,4.42,4.42,0,0,1,1-1.48,4.56,4.56,0,0,1,1.51-1,5.28,5.28,0,0,1,2-.36,5.51,5.51,0,0,1,2.2.4,4.51,4.51,0,0,1,1.49,1,4,4,0,0,1,.85,1.27,3.63,3.63,0,0,1,.29,1.24.36.36,0,0,1-.11.27.37.37,0,0,1-.27.11H874a.54.54,0,0,1-.28-.09.47.47,0,0,1-.17-.29,4.53,4.53,0,0,0-.3-.85,2.27,2.27,0,0,0-.57-.75,2.94,2.94,0,0,0-.94-.54,4.07,4.07,0,0,0-1.4-.2,3,3,0,0,0-2.35.88A3.46,3.46,0,0,0,867.08,204.08Z"/><path class="cls-4" d="M884.86,199.5a.44.44,0,0,1,.33.13.47.47,0,0,1,.14.33v.62a.48.48,0,0,1-.47.47h-3.22v10a.48.48,0,0,1-.47.47h-.71a.45.45,0,0,1-.32-.14.42.42,0,0,1-.14-.33v-10h-3.23a.49.49,0,0,1-.33-.14.44.44,0,0,1-.13-.33V200a.46.46,0,0,1,.13-.33.48.48,0,0,1,.33-.13Z"/><path class="cls-4" d="M894.64,210a.44.44,0,0,1,.33.13.49.49,0,0,1,.14.33v.62a.48.48,0,0,1-.47.47h-7a.49.49,0,0,1-.33-.14.44.44,0,0,1-.13-.33V200a.46.46,0,0,1,.13-.33.48.48,0,0,1,.33-.13h6.83a.44.44,0,0,1,.33.13.47.47,0,0,1,.14.33v.62a.48.48,0,0,1-.47.47h-5.65v3.64h5.27a.42.42,0,0,1,.33.14.45.45,0,0,1,.14.32v.62a.48.48,0,0,1-.47.47h-5.27V210Z"/><path class="cls-4" d="M906.78,204.17c0,.52,0,1,0,1.36s0,.85,0,1.36a5.26,5.26,0,0,1-.38,2,4.15,4.15,0,0,1-2.52,2.4,5.68,5.68,0,0,1-1.94.32h-4.06a.49.49,0,0,1-.33-.14.44.44,0,0,1-.13-.33V200a.46.46,0,0,1,.13-.33.48.48,0,0,1,.33-.13h4a6,6,0,0,1,2,.31,4.69,4.69,0,0,1,1.56.93,4.17,4.17,0,0,1,1,1.47A5.11,5.11,0,0,1,906.78,204.17Zm-1.64.09a4.3,4.3,0,0,0-.19-1.2,3,3,0,0,0-.58-1,2.84,2.84,0,0,0-1-.72,4.22,4.22,0,0,0-1.57-.26h-2.7v9h2.79a4,4,0,0,0,1.56-.27,2.64,2.64,0,0,0,1-.72,2.79,2.79,0,0,0,.54-1,4.84,4.84,0,0,0,.18-1.2c0-.25,0-.48,0-.68s0-.4,0-.59,0-.38,0-.59S905.14,204.52,905.14,204.26Z"/><path class="cls-4" d="M920.8,199.5a.44.44,0,0,1,.33.13.47.47,0,0,1,.14.33v.62a.48.48,0,0,1-.47.47h-5.67v4h5.33a.47.47,0,0,1,.33.14.44.44,0,0,1,.13.33v.62a.48.48,0,0,1-.13.33.46.46,0,0,1-.33.13h-5.33v4.52a.48.48,0,0,1-.47.47H914a.48.48,0,0,1-.47-.47V200a.47.47,0,0,1,.14-.33.44.44,0,0,1,.33-.13Z"/><path class="cls-4" d="M922.87,204a5.45,5.45,0,0,1,.34-1.82,4.3,4.3,0,0,1,.92-1.49,4.39,4.39,0,0,1,1.49-1,5.22,5.22,0,0,1,2-.37,5.31,5.31,0,0,1,2,.37,4.26,4.26,0,0,1,2.41,2.49,5.44,5.44,0,0,1,.33,1.82c0,1,0,2,0,3.07a5.77,5.77,0,0,1-.35,1.82,4.21,4.21,0,0,1-2.4,2.49,5.79,5.79,0,0,1-4,0,4.26,4.26,0,0,1-1.47-1,4.39,4.39,0,0,1-.92-1.49,5.77,5.77,0,0,1-.36-1.82C922.84,206,922.84,205,922.87,204Zm7.88.08a4.48,4.48,0,0,0-.26-1.41,2.71,2.71,0,0,0-.65-1,2.78,2.78,0,0,0-1-.6,3.79,3.79,0,0,0-1.24-.19,3.69,3.69,0,0,0-1.23.19,2.69,2.69,0,0,0-1,.6,2.73,2.73,0,0,0-.66,1,4,4,0,0,0-.26,1.41c0,.52,0,1,0,1.45s0,.93,0,1.45a4,4,0,0,0,.26,1.41,2.77,2.77,0,0,0,.66,1,2.67,2.67,0,0,0,1,.59,3.69,3.69,0,0,0,1.23.2,3.79,3.79,0,0,0,1.24-.2,2.6,2.6,0,0,0,1.62-1.6,4.48,4.48,0,0,0,.26-1.41c0-.52,0-1,0-1.45S930.78,204.6,930.75,204.08Z"/><path class="cls-4" d="M939.55,199.5a6,6,0,0,1,1.6.2,3.86,3.86,0,0,1,1.32.64,3.12,3.12,0,0,1,.9,1.1,3.54,3.54,0,0,1,.34,1.63,3.3,3.3,0,0,1-.7,2.22,3.79,3.79,0,0,1-1.79,1.17l2.61,4.54a.49.49,0,0,1,0,.19.38.38,0,0,1-.38.38h-.74a.7.7,0,0,1-.51-.17,1.5,1.5,0,0,1-.23-.3l-2.5-4.4h-3v4.4a.48.48,0,0,1-.47.47h-.7a.48.48,0,0,1-.47-.47V200a.47.47,0,0,1,.14-.33.44.44,0,0,1,.33-.13Zm-3,5.65h2.92a3.25,3.25,0,0,0,1.92-.49,1.84,1.84,0,0,0,.68-1.59,1.77,1.77,0,0,0-.68-1.57,3.5,3.5,0,0,0-1.92-.45h-2.92Z"/><path class="cls-4" d="M951.5,206.79l3.49-6.74a1.29,1.29,0,0,1,.28-.38.64.64,0,0,1,.48-.17h.65a.44.44,0,0,1,.33.13.47.47,0,0,1,.14.33V211.1a.48.48,0,0,1-.47.47h-.71a.45.45,0,0,1-.32-.14.42.42,0,0,1-.14-.33v-8.17l-2.69,5.19a1.31,1.31,0,0,1-.3.4.56.56,0,0,1-.41.15h-.65a.58.58,0,0,1-.42-.15,1.48,1.48,0,0,1-.29-.4l-2.69-5.19v8.17a.48.48,0,0,1-.47.47h-.71a.45.45,0,0,1-.32-.14.45.45,0,0,1-.14-.33V200a.47.47,0,0,1,.14-.33.44.44,0,0,1,.32-.13h.66a.66.66,0,0,1,.48.17,1.29,1.29,0,0,1,.28.38Z"/><polyline class="cls-1" points="117.3 155.39 117.3 29.15 141.08 5.37 358.51 5.37 358.51 110.92"/><polyline class="cls-1" points="369.44 432.42 369.44 522.65 391.24 544.86 590.99 544.86 608.32 528.48 608.32 516.63"/><polyline class="cls-1" points="613.13 166.83 613.13 55.44 660.32 7.89 855.72 7.89 880.19 32.56 880.19 104.29"/></svg>