<?xml version="1.0" encoding="utf-8"?>
<!-- Generator: Adobe Illustrator 23.0.2, SVG Export Plug-In . SVG Version: 6.00 Build 0)  -->
<svg version="1.1" id="Layer_1" xmlns="http://www.w3.org/2000/svg" xmlns:xlink="http://www.w3.org/1999/xlink" x="0px" y="0px"
	 width="529px" height="465px" viewBox="0 0 529 465" style="enable-background:new 0 0 529 465;" xml:space="preserve">
<style type="text/css">
	.st0{opacity:0.33;}
	.st1{fill:#1F28CF;}
	.st2{fill:#A27251;}
	.st3{fill:#2D2183;}
	.st4{fill:#D9AB74;}
	.st5{fill:#832363;}
	.st6{fill:#5168C2;}
	.st7{fill:#009F9D;}
	.st8{fill:#007589;}
	.st9{fill:#DF97FD;}
	.st10{fill:#C69C6D;}
	.st11{fill:#3F20BA;}
	.st12{fill:#FF9A8A;}
	.st13{fill:#2B44FF;}
	.st14{fill:#0F0A3C;}
	.st15{fill:#FEA670;}
	.st16{fill:#DCA815;}
	.st17{fill:#C49214;}
	.st18{fill:#A67C52;}
</style>
<g>
	<g class="st0">
		<image style="overflow:visible;" width="529" height="465" xlink:href="ED2733EE.png" >
		</image>
	</g>
	<g>
		<g>
			<g>
				<path class="st1" d="M494.422,383.573l-472.848-0.731c-0.867-0.001-1.569-0.826-1.568-1.842l0,0
					c0.001-1.016,0.705-1.838,1.572-1.837l472.848,0.731c0.867,0.001,1.569,0.826,1.568,1.842l0,0
					C495.993,382.752,495.289,383.574,494.422,383.573z"/>
			</g>
			<g>
				<path class="st1" d="M267.524,399.025H135.863c-0.867,0-1.57-0.823-1.57-1.839l0,0c0-1.016,0.703-1.839,1.57-1.839h131.661
					c0.867,0,1.57,0.823,1.57,1.839l0,0C269.094,398.201,268.391,399.025,267.524,399.025z"/>
			</g>
			<g>
				<path class="st1" d="M458.84,399.025H317.132c-0.867,0-1.57-0.823-1.57-1.839l0,0c0-1.016,0.703-1.839,1.57-1.839H458.84
					c0.867,0,1.57,0.823,1.57,1.839l0,0C460.41,398.201,459.707,399.025,458.84,399.025z"/>
			</g>
			<g>
				<path class="st1" d="M440.002,416.436H231.731c-0.867,0-1.57-0.823-1.57-1.839l0,0c0-1.016,0.703-1.839,1.57-1.839h208.271
					c0.867,0,1.57,0.823,1.57,1.839l0,0C441.571,415.613,440.869,416.436,440.002,416.436z"/>
			</g>
			<g>
				<path class="st1" d="M190.704,416.436H83.534c-0.867,0-1.57-0.823-1.57-1.839l0,0c0-1.016,0.703-1.839,1.57-1.839h107.171
					c0.867,0,1.57,0.823,1.57,1.839l0,0C192.274,415.613,191.571,416.436,190.704,416.436z"/>
			</g>
		</g>
		<g>
			<g>
				<path class="st2" d="M207.864,196.02c0,0-28.52,26.843-69.959,17.773c-41.438-9.07-55.518-46.846-55.518-46.846
					s26.564-21.456,69.893-16.726C195.61,154.95,207.864,196.02,207.864,196.02z"/>
				<polygon class="st3" points="161.445,151.774 158.779,151.107 172.839,187.196 131.468,177.611 121.07,151.2 118.888,151.547 
					129.018,177.043 83.048,166.392 82.393,166.875 82.917,168.485 109.791,174.712 94.858,187.271 96.19,188.855 112.312,175.296 
					150.894,184.236 127.819,210.873 130.214,211.708 153.171,184.763 206.713,197.169 207.864,196.02 207.684,195.27 
					175.272,187.76 				"/>
			</g>
			<g>
				<path class="st4" d="M205.094,199.27c0,0-38.018,9.412-69.687-18.81c-31.669-28.222-25.419-68.049-25.419-68.049
					s33.672-5.676,69.117,19.69S205.094,199.27,205.094,199.27z"/>
				<polygon class="st3" points="186.331,137.949 184.334,136.06 178.894,174.408 147.537,145.77 151.423,117.652 149.351,116.885 
					145.68,144.074 110.836,112.251 110.028,112.351 109.695,114.012 130.065,132.615 110.892,136.24 111.276,138.273 
					131.975,134.36 161.219,161.068 128.048,172.97 129.726,174.872 162.945,162.644 203.528,199.707 205.094,199.27 
					205.305,198.529 180.738,176.092 				"/>
			</g>
			<g>
				<path class="st5" d="M208.546,196.361c0,0-38.128-8.957-53.446-48.514c-15.318-39.557,8.403-72.153,8.403-72.153
					s32.556,10.301,52.537,49.038C236.022,163.468,208.546,196.361,208.546,196.361z"/>
				<polygon class="st3" points="219.805,133.23 218.889,130.638 196.564,162.287 181.713,122.502 197.992,99.25 196.497,97.622 
					180.833,120.146 164.331,75.937 163.567,75.658 162.513,76.984 172.161,102.829 153.444,97.312 152.859,99.297 173.065,105.252 
					186.915,142.356 151.966,137.825 152.592,140.283 187.733,144.546 206.952,196.036 208.546,196.361 209.072,195.797 
					197.437,164.627 				"/>
			</g>
		</g>
		<g>
			<rect x="176.062" y="160.09" class="st6" width="213.103" height="131.14"/>
			<path class="st3" d="M386.672,143.697H178.548c-10.41,0-18.878,8.449-18.878,18.834V311.72c0,2.265,1.833,4.098,4.098,4.098
				H401.46c2.265,0,4.098-1.833,4.098-4.098V162.531C405.558,152.146,397.085,143.697,386.672,143.697z M389.165,287.132
				c0,2.263-1.835,4.098-4.098,4.098H180.16c-2.263,0-4.098-1.835-4.098-4.098V164.188c0-2.263,1.835-4.098,4.098-4.098h43.612
				v31.495h-17.415l27.969,31.135l27.969-31.135h-17.415V160.09h26.914v66.061h-17.415l27.969,31.135l27.969-31.135h-17.415V160.09
				h27.441v31.495h-17.415L330.9,222.72l27.969-31.135h-17.415V160.09h43.613c2.263,0,4.098,1.835,4.098,4.098V287.132z"/>
			<path class="st7" d="M409.656,307.622H155.572c-2.265,0-4.098,1.833-4.098,4.098l0,0c0,9.049,7.36,16.408,16.408,16.408h229.463
				c9.049,0,16.408-7.36,16.408-16.408l0,0C413.754,309.455,411.921,307.622,409.656,307.622z"/>
			<path class="st8" d="M266.221,315.819h32.785c4.526,0,8.196-3.67,8.196-8.196h-49.178
				C258.025,312.149,261.694,315.819,266.221,315.819z"/>
		</g>
		<g>
			<path class="st2" d="M238.635,350.747c0,30.099-29.606,28.372-66.366,28.372c-36.76,0-66.366,1.48-66.366-28.372
				c0-30.099,29.606-80.182,66.366-80.182C209.029,270.812,238.635,320.895,238.635,350.747z"/>
			<path class="st2" d="M139.949,239.726c0-14.556,14.556-13.816,32.319-13.816c17.763,0,32.319-0.74,32.319,13.816
				c0,14.556-14.556,38.981-32.319,38.981C154.505,278.707,139.949,254.282,139.949,239.726z"/>
			<path class="st3" d="M200.641,273.526c0,2.467-1.974,4.441-4.441,4.441h-47.862c-2.467,0-4.441-1.974-4.441-4.441v-1.234
				c0-2.467,1.974-4.441,4.441-4.441h48.109c2.467,0,4.441,1.974,4.441,4.441v1.234H200.641z"/>
			
				<ellipse transform="matrix(0.1222 -0.9925 0.9925 0.1222 -176.8197 461.1111)" class="st3" cx="172.269" cy="330.517" rx="29.606" ry="29.606"/>
			<path class="st9" d="M169.802,354.448v-6.168c-4.934-0.247-7.648-1.234-9.868-2.467l1.48-6.661
				c2.467,1.234,5.674,2.467,9.375,2.467c3.207,0,5.428-1.234,5.428-3.454c0-2.22-1.727-3.454-6.168-4.934
				c-6.168-1.974-10.115-4.934-10.115-10.362c0-4.934,2.22-8.882,9.622-10.115v-5.181h4.934v4.934
				c4.934,0.247,6.661,0.987,8.388,1.974l-1.48,6.415c-1.48-0.74-3.947-1.974-8.142-1.974c-3.701,0-4.934,1.48-4.934,3.207
				c0,1.974,1.974,2.961,6.908,4.934c6.661,2.467,9.375,5.428,9.375,10.609c0,5.181-2.714,9.375-10.115,10.609v6.168H169.802
				L169.802,354.448z"/>
		</g>
		<g>
			<polygon class="st1" points="220.586,47.168 218.097,54.207 215.075,47.38 208.036,44.891 214.863,41.869 217.352,34.829 
				220.375,41.657 227.414,44.146 			"/>
			<polygon class="st1" points="232.58,56.989 231.131,61.086 229.372,57.112 225.275,55.663 229.249,53.904 230.698,49.807 
				232.457,53.781 236.554,55.23 			"/>
			<polygon class="st1" points="232.019,33.57 231.078,36.233 229.935,33.65 227.271,32.709 229.854,31.565 230.796,28.902 
				231.939,31.485 234.602,32.427 			"/>
			<polygon class="st1" points="209.435,35.597 208.715,37.634 207.84,35.658 205.803,34.938 207.779,34.063 208.499,32.026 
				209.374,34.002 211.411,34.722 			"/>
			<polygon class="st1" points="221.428,68.077 220.708,70.115 219.833,68.139 217.796,67.418 219.772,66.544 220.492,64.507 
				221.367,66.483 223.404,67.203 			"/>
			<polygon class="st1" points="195.61,50.588 194.889,52.625 194.015,50.649 191.978,49.929 193.954,49.054 194.674,47.017 
				195.548,48.993 197.586,49.713 			"/>
			<polygon class="st1" points="203.735,66.129 201.948,71.183 199.779,66.281 194.726,64.495 199.627,62.325 201.414,57.272 
				203.583,62.173 208.636,63.96 			"/>
		</g>
		<g>
			<path class="st10" d="M427.686,252.904l-24.673-2.303c0,0-5.922-2.961-10.527,0c-4.606,2.961-4.935,5.264-3.619,5.593
				s5.264-3.619,7.237-3.29c0.775,0.129,0.891,0.665,0.745,1.267c-0.205,0.849,0.528,1.622,1.375,1.41l4.13-1.033l10.527,3.752
				l11.843,1.511L427.686,252.904z"/>
			<path class="st11" d="M427.724,227.846c0,0-12.045,18.315-6.782,30.158c5.264,11.843,7.895,9.54,7.895,9.54
				s13.817,0.329,16.778,0.329c2.961,0-0.658-20.396-2.632-22.699C441.009,242.87,427.724,227.846,427.724,227.846z"/>
			<path class="st10" d="M425.219,225.106c0,0-9.869,0.299-8.507-13.361c0.2-2,1.361-3.809,3.157-4.714
				c1.348-0.679,3.147-0.983,5.35-0.019c5.264,2.303,8.224,4.935,7.895,8.882C432.785,219.842,425.219,225.106,425.219,225.106z"/>
			<path class="st3" d="M419.955,209.315c0,0-4.935-0.329-0.658-8.224c2.889-5.334,16.12,0.329,16.778,8.882
				c0.658,8.553,1.974,15.133,7.237,17.764s7.566,19.08,10.527,19.409c2.961,0.329-11.514,5.921-15.462,5.921
				c-3.948,0,0.493-6.086-5.099-14.968s-8.882-16.778-6.908-19.738c0.644-0.967,1.289-1.968,1.864-2.879
				c0.982-1.553,0.122-3.614-1.676-3.993C424.503,211.057,421.972,210.364,419.955,209.315z"/>
			<path class="st3" d="M424.89,372.156h5.264c0,0,8.224-43.753,7.237-60.531c-0.987-16.778,2.695-43.63,2.695-43.63l-12.235-0.123
				c0,0-5.099,21.548-3.125,35.035C426.699,316.396,424.89,372.156,424.89,372.156z"/>
			<path class="st3" d="M440.187,372.321h5.264c0,0,3.948-18.751,1.974-33.226c-1.974-14.475-2.303-25.989,0.658-37.174
				c2.961-11.185,5.922-25.002-2.632-34.213h-17.764c0,0,0.493,29.443,5.757,48.852
				C438.706,335.969,440.187,372.321,440.187,372.321z"/>
			<path class="st12" d="M425.054,371.992l-9.837,7.104c-0.629,0.454-0.308,1.449,0.468,1.449h13.533c0.43,0,0.783-0.34,0.8-0.769
				l0.299-7.784H425.054z"/>
			<path class="st12" d="M440.794,371.827l-8.702,6.285c-0.557,0.402-0.272,1.282,0.414,1.282h11.972
				c0.38,0,0.693-0.301,0.707-0.681l0.265-6.886H440.794z"/>
			<path class="st10" d="M433.278,238.1c0,0-4.277-2.303-5.593,5.593c-1.316,7.895-2.961,14.475-2.961,14.475l-42.108,1.645
				c0,0-3.454,1.809,11.185,3.619c12.342,1.525,28.366,0.546,33.707,0.147c1.16-0.087,2.193-0.752,2.753-1.771
				C432.841,257.109,439.491,243.502,433.278,238.1z"/>
			<path class="st13" d="M404.658,258.99L404.658,258.99c0-0.454-0.368-0.822-0.822-0.822h-23.193l-11.793-20.398
				c-0.218-0.377-0.679-0.536-1.083-0.375l0,0c-0.496,0.198-0.7,0.791-0.431,1.253l12.32,21.165h24.179
				C404.29,259.813,404.658,259.444,404.658,258.99z"/>
		</g>
		<g>
			<circle class="st3" cx="366.373" cy="330.353" r="46.043"/>
			
				<ellipse transform="matrix(0.7071 -0.7071 0.7071 0.7071 -126.2866 355.8227)" class="st9" cx="366.373" cy="330.353" rx="26.563" ry="26.563"/>
			<path class="st9" d="M338.039,379.937c-0.453,0-0.907-0.174-1.252-0.519c-0.692-0.692-0.692-1.812,0-2.504l6.965-6.965
				c0.692-0.692,1.812-0.692,2.504,0s0.692,1.812,0,2.504l-6.965,6.965C338.945,379.764,338.492,379.937,338.039,379.937z"/>
			<path class="st9" d="M394.707,379.937c-0.453,0-0.907-0.174-1.252-0.519l-7.018-7.018c-0.692-0.692-0.692-1.812,0-2.504
				c0.692-0.692,1.812-0.692,2.504,0l7.018,7.018c0.692,0.692,0.692,1.812,0,2.504C395.613,379.764,395.16,379.937,394.707,379.937z
				"/>
			<path class="st8" d="M398.415,298.856c-0.453,0-0.907-0.174-1.252-0.519c-0.692-0.692-0.692-1.812,0-2.504l5.313-5.313
				c0.692-0.692,1.812-0.692,2.504,0c0.692,0.692,0.692,1.812,0,2.504l-5.313,5.313C399.32,298.684,398.866,298.856,398.415,298.856
				z"/>
			<path class="st8" d="M334.332,298.856c-0.453,0-0.907-0.174-1.252-0.519l-5.313-5.313c-0.692-0.692-0.692-1.812,0-2.504
				c0.692-0.692,1.812-0.692,2.504,0l5.313,5.313c0.692,0.692,0.692,1.812,0,2.504C335.239,298.684,334.786,298.856,334.332,298.856
				z"/>
			<path class="st1" d="M366.373,379.937c-27.34,0-49.584-22.244-49.584-49.584c0-27.34,22.244-49.584,49.584-49.584
				s49.584,22.244,49.584,49.584C415.957,357.693,393.715,379.937,366.373,379.937z M366.373,287.852
				c-23.436,0-42.501,19.067-42.501,42.501s19.065,42.501,42.501,42.501s42.501-19.067,42.501-42.501
				S389.808,287.852,366.373,287.852z"/>
			<g>
				<path class="st14" d="M366.373,289.408c-0.978,0-1.771,0.792-1.771,1.771v1.771c0,0.979,0.793,1.771,1.771,1.771
					c0.978,0,1.771-0.792,1.771-1.771v-1.771C368.144,290.2,367.352,289.408,366.373,289.408z"/>
				<path class="st14" d="M366.373,365.556c-0.978,0-1.771,0.792-1.771,1.771v1.771c0,0.979,0.793,1.771,1.771,1.771
					c0.978,0,1.771-0.792,1.771-1.771v-1.771C368.144,366.348,367.352,365.556,366.373,365.556z"/>
				<path class="st14" d="M405.332,328.368h-1.771c-0.978,0-1.771,0.792-1.771,1.771s0.793,1.771,1.771,1.771h1.771
					c0.977,0,1.771-0.792,1.771-1.771S406.311,328.368,405.332,328.368z"/>
				<path class="st14" d="M329.184,328.368h-1.771c-0.978,0-1.771,0.792-1.771,1.771s0.793,1.771,1.771,1.771h1.771
					c0.978,0,1.771-0.792,1.771-1.771S330.164,328.368,329.184,328.368z"/>
				<path class="st14" d="M392.668,301.337l-1.252,1.252c-0.692,0.692-0.692,1.812,0,2.504c0.345,0.345,0.799,0.519,1.252,0.519
					s0.907-0.174,1.252-0.519l1.252-1.252c0.692-0.692,0.692-1.812,0-2.504S393.361,300.645,392.668,301.337z"/>
				<path class="st14" d="M338.825,355.182l-1.252,1.252c-0.692,0.692-0.692,1.812,0,2.504c0.345,0.345,0.799,0.519,1.252,0.519
					c0.453,0,0.907-0.174,1.252-0.519l1.252-1.252c0.692-0.692,0.692-1.812,0-2.504C340.637,354.49,339.517,354.491,338.825,355.182
					z"/>
				<path class="st14" d="M393.92,355.182c-0.692-0.692-1.812-0.692-2.504,0c-0.692,0.692-0.692,1.812,0,2.504l1.252,1.252
					c0.345,0.345,0.799,0.519,1.252,0.519s0.907-0.174,1.252-0.519c0.692-0.692,0.692-1.812,0-2.504L393.92,355.182z"/>
				<path class="st14" d="M340.077,301.337c-0.692-0.692-1.812-0.692-2.504,0c-0.692,0.692-0.692,1.812,0,2.504l1.252,1.252
					c0.345,0.345,0.799,0.519,1.252,0.519s0.907-0.174,1.252-0.519c0.692-0.692,0.692-1.812,0-2.504L340.077,301.337z"/>
			</g>
			<path class="st3" d="M345.123,330.353c0,0.979,0.792,1.771,1.771,1.771h12.647c0.792,3.047,3.541,5.313,6.832,5.313
				c3.907,0,7.083-3.177,7.083-7.083c0-3.292-2.266-6.04-5.313-6.832v-17.96c0-0.979-0.793-1.771-1.771-1.771
				c-0.978,0-1.771,0.792-1.771,1.771v17.96c-2.477,0.644-4.417,2.584-5.061,5.061h-12.647
				C345.916,328.582,345.123,329.373,345.123,330.353z M362.832,330.353c0-1.953,1.588-3.542,3.542-3.542s3.542,1.588,3.542,3.542
				s-1.588,3.542-3.542,3.542S362.832,332.306,362.832,330.353z"/>
			<path class="st9" d="M412.265,282.413c4.925,4.925,4.925,12.91,0,17.834l-17.836-17.834
				C399.355,277.489,407.338,277.489,412.265,282.413z"/>
			<path class="st9" d="M320.482,282.413c-4.925,4.925-4.925,12.91,0,17.834l17.834-17.834
				C333.392,277.489,325.407,277.489,320.482,282.413z"/>
		</g>
		<g id="XMLID_1_">
			<path id="XMLID_148_" class="st11" d="M260.975,368.85c-22.147,0-40.102-4.569-40.102-9.254v10.791
				c0.012,4.683,17.961,9.261,40.102,9.261c22.141,0,40.09-4.578,40.102-9.261v-10.791
				C301.077,364.282,283.122,368.85,260.975,368.85"/>
			<path id="XMLID_147_" class="st11" d="M256.348,351.884c-22.147,0-40.102-4.569-40.102-9.254v10.791
				c0.012,4.683,17.961,9.261,40.102,9.261s40.09-4.578,40.102-9.261V342.63C296.45,347.315,278.495,351.884,256.348,351.884"/>
			<path id="XMLID_146_" class="st11" d="M265.602,334.918c-22.147,0-40.102-4.569-40.102-9.254v10.791
				c0.012,4.683,17.961,9.261,40.102,9.261c22.141,0,40.09-4.578,40.102-9.261v-10.791
				C305.704,330.349,287.749,334.918,265.602,334.918"/>
			<path id="XMLID_145_" class="st15" d="M296.45,307.355c0,4.684-17.955,9.054-40.102,9.054s-40.102-4.37-40.102-9.054
				c0-4.686,17.955-7.913,40.102-7.913S296.45,302.669,296.45,307.355"/>
			<path id="XMLID_144_" class="st11" d="M256.348,316.409c-22.147,0-40.102-4.569-40.102-9.254v10.791
				c0.012,4.683,17.961,9.261,40.102,9.261s40.09-4.578,40.102-9.261v-10.791C296.45,311.84,278.495,316.409,256.348,316.409"/>
			<path id="XMLID_143_" class="st3" d="M222.415,311.896v10.789c0.938,0.346,1.965,0.679,3.085,0.996v-10.791
				C224.38,312.573,223.353,312.24,222.415,311.896"/>
			<path id="XMLID_142_" class="st16" d="M287.196,312.891v10.791c1.12-0.318,2.147-0.651,3.085-0.996v-10.789
				C289.343,312.241,288.315,312.573,287.196,312.891"/>
			<path id="XMLID_141_" class="st3" d="M230.127,314.01v10.792c0.987,0.205,2.016,0.399,3.085,0.583v-10.792
				C232.143,314.41,231.114,314.215,230.127,314.01"/>
			<path id="XMLID_140_" class="st16" d="M279.484,314.593v10.794c1.069-0.185,2.098-0.379,3.085-0.585V314.01
				C281.581,314.215,280.553,314.41,279.484,314.593"/>
			<path id="XMLID_139_" class="st3" d="M237.839,315.281v10.794c1.006,0.13,2.031,0.25,3.085,0.358v-10.794
				C239.87,315.531,238.844,315.409,237.839,315.281"/>
			<path id="XMLID_138_" class="st16" d="M271.772,315.641v10.794c1.053-0.11,2.079-0.23,3.085-0.358v-10.795
				C273.851,315.412,272.825,315.533,271.772,315.641"/>
			<path id="XMLID_137_" class="st3" d="M245.551,316.037v10.795c1.013,0.071,2.041,0.134,3.085,0.185v-10.797
				C247.591,316.17,246.564,316.108,245.551,316.037"/>
			<path id="XMLID_136_" class="st3" d="M264.06,316.221v10.797c1.044-0.051,2.071-0.114,3.085-0.185v-10.795
				C266.131,316.108,265.104,316.17,264.06,316.221"/>
			<path id="XMLID_135_" class="st3" d="M256.348,316.409c-0.517,0-1.03-0.005-1.542-0.009v10.797
				c0.512,0.005,1.026,0.009,1.542,0.009c0.517,0,1.03-0.005,1.542-0.009V316.4C257.378,316.404,256.864,316.409,256.348,316.409"/>
			<path id="XMLID_134_" class="st3" d="M231.669,330.405v10.789c0.938,0.345,1.965,0.679,3.085,0.996v-10.791
				C233.634,331.082,232.607,330.748,231.669,330.405"/>
			<path id="XMLID_133_" class="st17" d="M296.45,331.399v10.791c1.12-0.318,2.147-0.651,3.085-0.996v-10.789
				C298.597,330.75,297.57,331.082,296.45,331.399"/>
			<path id="XMLID_132_" class="st3" d="M239.381,332.519v10.792c0.987,0.205,2.016,0.4,3.085,0.583v-10.792
				C241.397,332.919,240.368,332.724,239.381,332.519"/>
			<path id="XMLID_131_" class="st17" d="M288.738,333.102v10.794c1.069-0.185,2.098-0.379,3.085-0.585v-10.792
				C290.836,332.724,289.807,332.919,288.738,333.102"/>
			<path id="XMLID_130_" class="st3" d="M247.093,333.792v10.794c1.006,0.13,2.031,0.25,3.085,0.358V334.15
				C249.125,334.04,248.099,333.92,247.093,333.792"/>
			<path id="XMLID_129_" class="st17" d="M281.026,334.148v10.795c1.053-0.11,2.079-0.23,3.085-0.358v-10.794
				C283.105,333.921,282.08,334.042,281.026,334.148"/>
			<path id="XMLID_128_" class="st3" d="M254.805,334.546v10.795c1.013,0.071,2.041,0.134,3.085,0.185v-10.797
				C256.846,334.679,255.819,334.617,254.805,334.546"/>
			<path id="XMLID_127_" class="st17" d="M273.314,334.729v10.797c1.044-0.051,2.071-0.114,3.085-0.185v-10.795
				C275.386,334.617,274.358,334.679,273.314,334.729"/>
			<path id="XMLID_126_" class="st17" d="M265.602,334.918c-0.517,0-1.03-0.005-1.542-0.009v10.797
				c0.512,0.005,1.026,0.009,1.542,0.009c0.517,0,1.03-0.005,1.542-0.009v-10.797C266.632,334.913,266.119,334.918,265.602,334.918"
				/>
			<path id="XMLID_125_" class="st3" d="M222.415,347.371v10.789c0.938,0.346,1.965,0.677,3.085,0.996v-10.791
				C224.38,348.048,223.353,347.715,222.415,347.371"/>
			<path id="XMLID_124_" class="st16" d="M287.196,348.366v10.791c1.12-0.318,2.147-0.651,3.085-0.996v-10.789
				C289.343,347.716,288.315,348.048,287.196,348.366"/>
			<path id="XMLID_123_" class="st3" d="M230.127,349.486v10.792c0.987,0.205,2.016,0.4,3.085,0.583v-10.792
				C232.143,349.885,231.114,349.691,230.127,349.486"/>
			<path id="XMLID_122_" class="st16" d="M279.484,350.069v10.794c1.069-0.185,2.098-0.379,3.085-0.585v-10.792
				C281.581,349.691,280.553,349.885,279.484,350.069"/>
			<path id="XMLID_121_" class="st3" d="M237.839,350.758v10.794c1.006,0.13,2.031,0.25,3.085,0.358v-10.794
				C239.87,351.006,238.844,350.886,237.839,350.758"/>
			<path id="XMLID_120_" class="st16" d="M271.772,351.114v10.795c1.053-0.109,2.079-0.23,3.085-0.358v-10.794
				C273.851,350.888,272.825,351.008,271.772,351.114"/>
			<path id="XMLID_119_" class="st3" d="M245.551,351.512v10.795c1.013,0.071,2.041,0.134,3.085,0.185v-10.797
				C247.591,351.645,246.564,351.583,245.551,351.512"/>
			<path id="XMLID_118_" class="st3" d="M264.06,351.696v10.797c1.044-0.051,2.071-0.114,3.085-0.185v-10.795
				C266.131,351.583,265.104,351.645,264.06,351.696"/>
			<path id="XMLID_117_" class="st3" d="M256.348,351.884c-0.517,0-1.03-0.005-1.542-0.009v10.797
				c0.512,0.005,1.026,0.009,1.542,0.009c0.517,0,1.03-0.005,1.542-0.009v-10.797C257.378,351.879,256.864,351.884,256.348,351.884"
				/>
			<path id="XMLID_116_" class="st3" d="M227.042,364.337v10.789c0.938,0.345,1.965,0.677,3.085,0.996v-10.791
				C229.007,365.014,227.98,364.681,227.042,364.337"/>
			<path id="XMLID_115_" class="st17" d="M291.823,365.332v10.791c1.12-0.318,2.147-0.651,3.085-0.996v-10.789
				C293.97,364.683,292.943,365.014,291.823,365.332"/>
			<path id="XMLID_114_" class="st3" d="M234.754,366.452v10.792c0.987,0.205,2.016,0.399,3.085,0.583v-10.792
				C236.77,366.851,235.741,366.657,234.754,366.452"/>
			<path id="XMLID_113_" class="st3" d="M284.111,367.035v10.794c1.069-0.185,2.098-0.379,3.085-0.585v-10.792
				C286.209,366.657,285.18,366.851,284.111,367.035"/>
			<path id="XMLID_112_" class="st3" d="M242.466,367.724v10.794c1.006,0.13,2.031,0.25,3.085,0.358v-10.794
				C244.497,367.973,243.472,367.852,242.466,367.724"/>
			<path id="XMLID_111_" class="st3" d="M276.399,368.081v10.795c1.053-0.11,2.079-0.23,3.085-0.358v-10.794
				C278.478,367.854,277.452,367.974,276.399,368.081"/>
			<path id="XMLID_110_" class="st3" d="M250.178,368.479v10.795c1.013,0.071,2.041,0.134,3.085,0.185v-10.797
				C252.219,368.611,251.191,368.55,250.178,368.479"/>
			<path id="XMLID_109_" class="st3" d="M268.687,368.662v10.797c1.044-0.051,2.071-0.114,3.085-0.185v-10.795
				C270.758,368.55,269.731,368.611,268.687,368.662"/>
			<path id="XMLID_41_" class="st3" d="M260.975,368.85c-0.517,0-1.03-0.005-1.542-0.009v10.797
				c0.512,0.005,1.026,0.009,1.542,0.009s1.03-0.005,1.542-0.009v-10.797C262.005,368.846,261.492,368.85,260.975,368.85"/>
			<path id="XMLID_107_" class="st15" d="M295.235,355.543c-4.38,3.853-20.127,7.138-38.887,7.138
				c-14.668,0-27.49-2.01-34.482-4.727c-0.643,0.583-0.993,1.2-0.993,1.843c0,4.686,17.955,9.054,40.102,9.054
				c22.149,0,40.102-4.368,40.102-9.054C301.077,358.182,298.941,356.738,295.235,355.543"/>
			<path id="XMLID_37_" class="st15" d="M265.602,345.714c-20.38,0-37.197-3.879-39.754-8.148c-5.983,1.356-9.603,3.162-9.603,5.264
				c0,4.684,17.955,9.054,40.102,9.054s40.102-4.37,40.102-9.054c0-0.207-0.046-0.409-0.116-0.609
				C288.979,344.291,277.944,345.714,265.602,345.714"/>
			<path id="XMLID_105_" class="st15" d="M294.897,320.34c-4.798,3.733-20.235,6.865-38.549,6.865
				c-11.827,0-22.456-1.308-29.796-3.239c-0.68,0.602-1.052,1.234-1.052,1.897c0,4.686,17.955,9.054,40.102,9.054
				c22.147,0,40.102-4.368,40.102-9.054C305.704,323.624,301.597,321.719,294.897,320.34"/>
		</g>
		<g>
			<path class="st11" d="M301.432,300.173c-21.807-0.162-39.964,17.42-40.125,39.227c-0.162,21.807,17.73,39.966,39.537,40.128
				c21.807,0.162,39.656-17.732,39.818-39.539C340.823,318.181,323.239,300.334,301.432,300.173z"/>
			<path class="st15" d="M301.363,309.472c-16.646-0.123-30.634,13.351-30.757,29.997c-0.123,16.646,13.66,30.636,30.307,30.759
				c16.646,0.123,30.384-13.597,30.507-30.243C331.543,323.339,318.009,309.595,301.363,309.472z"/>
			<path class="st3" d="M312.579,348.549c0.046-6.165-3.02-8.831-10.145-11.619c-4.897-1.92-6.167-3.281-6.146-6.081
				c0.02-2.715,1.529-4.692,4.738-4.668c4.807,0.036,5.12,4.234,5.186,5.879l5.703,0.042c-0.003-4.379-1.883-9.516-8.524-10.467
				l0.037-5.018l-4.758-0.035l-0.038,5.089c-5.762,0.942-8.122,5.216-8.154,9.499c-0.038,5.119,2.124,7.889,9.819,10.882
				c4.664,1.84,6.431,3.523,6.405,7.05c-0.023,3.151-1.839,5.359-5.581,5.331c-4.021-0.03-5.89-2.947-6.058-6.567l-5.8-0.043
				c0.095,5.837,3.02,10.176,9.092,11.118l-0.031,4.138l4.758,0.035l0.03-4.102C309.15,358.309,312.534,354.551,312.579,348.549z"/>
		</g>
		<g>
			<path class="st10" d="M258.759,101.449l-1.978,9.172c-0.611,2.835,0.388,5.777,2.599,7.653l7.213,6.12l4.592-3.765l-4.863-7.564
				l2.972-7.024L258.759,101.449z"/>
			<path class="st10" d="M300.631,105.501l9.455-4.052l2.372,9.49c0.702,2.807-0.195,5.772-2.334,7.72l-7.332,6.676v-12.414
				L300.631,105.501z"/>
			<path class="st11" d="M279.29,86.05l5.133,7.294l4.052-7.294l9.105,0.859c3.25,0.307,6.121,2.242,7.625,5.139l4.881,9.401
				l-9.455,4.052l2.161,5.403v14.431l-19.18,8.936l-12.156-6.889l-5.133-14.318l2.972-7.024l-10.536-4.592l6.256-9.971
				c1.514-2.412,4.019-4.029,6.841-4.414L279.29,86.05z"/>
			<polygon class="st3" points="263.892,127.382 263.892,110.904 305.494,110.904 305.494,127.382 283.612,134.271 			"/>
			<path class="st1" d="M304.143,145.752c0,0-41.602-4.592-56.19-12.156c-14.588-7.564,1.081-14.858,14.588-10.536
				c13.507,4.322,41.602,14.858,41.602,14.858V145.752z"/>
			<path class="st1" d="M265.783,145.752l-0.978-6.597c0,0,47.712-21.768,60.679-15.014
				C338.451,130.894,303.873,143.321,265.783,145.752z"/>
			<path class="st12" d="M264.837,139.134l0.946,6.618c0,0-17.154,2.161-18.505,1.486c-1.351-0.675-5.808-3.647-2.972-6.483
				C247.143,137.918,260.92,137.783,264.837,139.134z"/>
			<path class="st12" d="M304.703,139.809l-0.945,6.348c0,0,17.154,2.161,18.505,1.486c1.351-0.675,5.808-3.647,2.972-6.483
				C322.397,138.323,308.62,138.458,304.703,139.809z"/>
			<polygon class="st18" points="279.29,86.05 284.423,94.83 288.475,86.05 288.475,79.837 279.29,79.837 			"/>
			<path class="st10" d="M281.879,83.427c0,0-6.383-4.034-7.107-8.993c-0.724-4.96-0.723-9.032,0.944-9.408
				c1.667-0.376,12.782-2.926,13.427-2.59c0.645,0.336,2.928,6.663,3.035,8.992c0.214,4.637-4.694,11.611-6.132,12.417
				C284.607,84.651,281.879,83.427,281.879,83.427z"/>
			<path class="st3" d="M274.88,74.995c0,0-2.478-3.398-2.883-7.315c-0.405-3.917,1.367-7.664,2.837-8.374
				c8.374-4.052,11.616,1.081,18.775-1.621c0,0-0.647,3.098-1.351,4.998c-1.351,3.647-0.483,6.501-0.483,6.501
				s-2.218-3.529-4.109-4.07c-1.891-0.54-8.915,1.756-10.536,0C277.129,65.114,273.846,65.561,274.88,74.995z"/>
		</g>
		<g>
			<path class="st13" d="M461.933,95.406c1.292,0.956,1.565,2.778,0.609,4.07c-0.956,1.292-2.778,1.565-4.07,0.609
				c-1.292-0.956-1.565-2.778-0.609-4.07S460.641,94.45,461.933,95.406z"/>
			<path class="st13" d="M400.908,91.751c1.089,0.806,1.319,2.342,0.513,3.431c-0.806,1.089-2.342,1.319-3.43,0.513
				c-1.089-0.806-1.319-2.342-0.513-3.43C398.283,91.175,399.819,90.946,400.908,91.751z"/>
			<path class="st13" d="M468.767,72.646l-4.487-4.45l1.122-6.219c0.063-0.347-0.077-0.7-0.361-0.909s-0.661-0.24-0.975-0.079
				l-5.619,2.892l-5.568-2.989c-0.675-0.362-1.475,0.208-1.352,0.965l1.014,6.238l-4.564,4.372c-0.553,0.53-0.258,1.468,0.5,1.584
				l6.246,0.963c2.994,6.199,2.778,5.846,3.031,6.033c0.154,0.114,0.344,0.18,0.543,0.182c0.352,0.003,0.676-0.194,0.835-0.509
				l2.846-5.643l6.262-0.855C468.999,74.118,469.312,73.186,468.767,72.646z"/>
			<path class="st13" d="M479.516,117.741l-0.805-5.241l3.861-3.634c0.468-0.441,0.227-1.229-0.408-1.333l-5.233-0.854l-2.263-4.795
				c-0.275-0.581-1.099-0.596-1.394-0.024l-2.429,4.713l-5.26,0.67c-0.638,0.082-0.907,0.862-0.454,1.318l3.732,3.767l-0.987,5.21
				c-0.024,0.126-0.016,0.253,0.02,0.372c0.141,0.461,0.663,0.684,1.093,0.467l4.735-2.385l4.65,2.549
				C478.937,118.85,479.613,118.377,479.516,117.741z"/>
			<path class="st1" d="M402.86,131.026c0,0,12.75-22.405,14.187-39.223c0.117-2.166-0.852-4.027-3.589-4.44l-0.002,0
				c-2.942-0.442-3.445,2.662-3.445,2.662l0,0C410.275,96.489,409.955,112.082,402.86,131.026z"/>
			<path class="st1" d="M453.272,145.364L453.272,145.364c0.362,0.033,0.709,0.066,1.042,0.101c1.357,0.019,3.577-0.384,3.751-3.185
				c0.204-3.284-3.421-3.598-4.008-3.627c-19.778-0.271-39.268,11.119-39.268,11.119
				C431.232,144.534,445.437,144.657,453.272,145.364L453.272,145.364z"/>
			<path class="st1" d="M394.609,103.692c-0.207-0.648-1.378-3.851-4.019-2.801c-1.63,0.649-2.009,2.016-1.329,3.658
				c0,0,0.001,0.002,0.001,0.002l0,0c2.363,5.723,5.873,16.62,5.714,30.563C394.975,135.113,398.916,118.428,394.609,103.692z"/>
			<path class="st13" d="M428.625,82.351c0.314-0.22,0.222-0.252-0.287-3.571c2.471-2.326,2.536-2.272,2.425-2.637
				c-0.112-0.367-0.17-0.289-3.485-0.83c-1.448-3.067-1.377-3.114-1.758-3.121c-0.384-0.006-0.328,0.073-1.866,3.057l-3.132,0.399
				c-0.38,0.048-0.54,0.513-0.27,0.785l2.222,2.243c-0.632,3.332-0.717,3.328-0.412,3.558c0.307,0.231,0.307,0.134,3.307-1.377
				l2.769,1.518C428.291,82.462,428.481,82.452,428.625,82.351z"/>
			<path class="st1" d="M451.547,86.071l-0.001-0.002c-1.756-3.637-2.257-4.133-6.465-4.782l-0.001,0
				c-3.62-0.558-5.005,1.408-5.323,1.97c-5.381,10.421-16.54,31.436-28.622,50.675c14.813-17.124,31.582-33.888,40-42.112
				C452.093,90.881,453.283,89.667,451.547,86.071z"/>
			<path class="st1" d="M459.544,119.304c1.327-0.398,1.692-1.254,1.79-1.636l0.402-2.12c0.19-1.002-0.27-1.66-0.498-1.916
				l-0.12-0.121l0,0c0,0,0,0-1.25-1.262c-1.181-1.192-2.758-0.586-2.929-0.515c-19.365,8.545-41.653,29.386-41.653,29.386
				c18.577-13.025,35.073-19.141,44.255-21.814C459.542,119.305,459.543,119.305,459.544,119.304z"/>
		</g>
		<g>
			<polygon class="st1" points="48.83,340.934 58.848,379.355 89.357,379.355 98.579,340.934 			"/>
			<path class="st12" d="M97.649,294.2c0.002-4.014-1.994-7.765-5.325-10.006c3.638-4.547,2.9-11.182-1.647-14.82
				c-1.872-1.498-4.199-2.313-6.596-2.31c-0.151,0-0.302,0.017-0.452,0.023c1.688-5.578-1.466-11.469-7.044-13.157
				c-5.578-1.688-11.469,1.466-13.157,7.044c-0.603,1.993-0.603,4.12,0,6.113c-0.151,0-0.302-0.023-0.452-0.023
				c-5.823-0.005-10.548,4.711-10.554,10.534c-0.002,2.398,0.813,4.724,2.31,6.596c-5.526,3.719-6.991,11.213-3.272,16.739
				c0.869,1.292,1.98,2.403,3.272,3.272c-3.638,4.547-2.9,11.182,1.647,14.82c1.872,1.498,4.199,2.313,6.596,2.31h21.106
				c5.823,0.005,10.548-4.711,10.554-10.534c0.002-2.398-0.813-4.724-2.31-6.596C95.655,301.965,97.651,298.214,97.649,294.2z"/>
			<path class="st3" d="M85.147,287.104c-0.589-0.589-1.543-0.589-2.132,0l-7.979,7.979v-21.989c0-0.833-0.675-1.508-1.508-1.508
				c-0.833,0-1.508,0.675-1.508,1.508v10.683l-6.849-6.849c-0.599-0.578-1.553-0.562-2.132,0.037c-0.564,0.584-0.564,1.51,0,2.095
				l8.981,8.98v20.611l-6.472-6.472c-0.599-0.578-1.553-0.562-2.132,0.037c-0.564,0.584-0.564,1.51,0,2.095l8.604,8.604v28.019
				c0,0.833,0.675,1.508,1.508,1.508c0.833,0,1.508-0.675,1.508-1.508v-41.691c0.113-0.056,0.217-0.126,0.312-0.208l9.799-9.799
				C85.735,288.647,85.735,287.693,85.147,287.104L85.147,287.104z"/>
			<path class="st3" d="M99.157,342.442H47.9c-0.833,0-1.508-0.675-1.508-1.508c0-0.833,0.675-1.508,1.508-1.508h51.257
				c0.833,0,1.508,0.675,1.508,1.508C100.664,341.767,99.989,342.442,99.157,342.442z"/>
		</g>
	</g>
</g>
</svg>
