<?xml version="1.0" encoding="utf-8"?>
<!-- Generator: Adobe Illustrator 23.0.2, SVG Export Plug-In . SVG Version: 6.00 Build 0)  -->
<svg version="1.1" id="Layer_1" xmlns="http://www.w3.org/2000/svg" xmlns:xlink="http://www.w3.org/1999/xlink" x="0px" y="0px"
	 width="451px" height="449px" viewBox="0 0 451 449" style="enable-background:new 0 0 451 449;" xml:space="preserve">
<style type="text/css">
	.st0{opacity:0.33;}
	.st1{fill:url(#SVGID_1_);}
	.st2{fill:url(#SVGID_2_);}
	.st3{fill:url(#SVGID_3_);}
	.st4{fill:#344E95;}
	.st5{fill:#74B5E7;}
	.st6{fill:#5168C2;}
	.st7{fill:#496985;}
	.st8{fill:none;stroke:#74B5E7;stroke-width:0.25;stroke-linecap:round;stroke-linejoin:round;stroke-miterlimit:10;}
	.st9{fill:none;stroke:#4DD2D7;stroke-width:0.75;stroke-linecap:round;stroke-linejoin:round;stroke-miterlimit:10;}
	.st10{fill:url(#SVGID_4_);}
	.st11{clip-path:url(#SVGID_6_);fill:#19C3F3;}
	.st12{clip-path:url(#SVGID_6_);fill:#18C4F4;}
	.st13{clip-path:url(#SVGID_6_);fill:#17C5F4;}
	.st14{clip-path:url(#SVGID_6_);fill:#17C6F4;}
	.st15{clip-path:url(#SVGID_6_);fill:#16C7F5;}
	.st16{clip-path:url(#SVGID_6_);fill:#16C8F5;}
	.st17{clip-path:url(#SVGID_6_);fill:#15C9F5;}
	.st18{clip-path:url(#SVGID_6_);fill:#14CAF6;}
	.st19{clip-path:url(#SVGID_6_);fill:#14CBF6;}
	.st20{clip-path:url(#SVGID_6_);fill:#13CCF6;}
	.st21{clip-path:url(#SVGID_6_);fill:#12CDF6;}
	.st22{clip-path:url(#SVGID_6_);fill:#12CEF7;}
	.st23{clip-path:url(#SVGID_6_);fill:#11CFF7;}
	.st24{clip-path:url(#SVGID_6_);fill:#10D0F7;}
	.st25{clip-path:url(#SVGID_6_);fill:#10D1F8;}
	.st26{clip-path:url(#SVGID_6_);fill:#0FD2F8;}
	.st27{clip-path:url(#SVGID_6_);fill:#0ED3F8;}
	.st28{clip-path:url(#SVGID_6_);fill:#0ED4F9;}
	.st29{clip-path:url(#SVGID_6_);fill:#0DD5F9;}
	.st30{clip-path:url(#SVGID_6_);fill:#0CD6F9;}
	.st31{clip-path:url(#SVGID_6_);fill:#0CD7FA;}
	.st32{clip-path:url(#SVGID_6_);fill:#0BD8FA;}
	.st33{clip-path:url(#SVGID_6_);fill:#0AD9FA;}
	.st34{clip-path:url(#SVGID_6_);fill:#0ADAFA;}
	.st35{clip-path:url(#SVGID_6_);fill:#09DBFB;}
	.st36{clip-path:url(#SVGID_6_);fill:#08DCFB;}
	.st37{clip-path:url(#SVGID_6_);fill:#08DDFB;}
	.st38{clip-path:url(#SVGID_6_);fill:#07DEFC;}
	.st39{clip-path:url(#SVGID_6_);fill:#07DFFC;}
	.st40{clip-path:url(#SVGID_6_);fill:#06E0FC;}
	.st41{clip-path:url(#SVGID_6_);fill:#05E1FD;}
	.st42{clip-path:url(#SVGID_6_);fill:#05E2FD;}
	.st43{clip-path:url(#SVGID_6_);fill:#04E3FD;}
	.st44{clip-path:url(#SVGID_6_);fill:#03E4FD;}
	.st45{clip-path:url(#SVGID_6_);fill:#03E5FE;}
	.st46{clip-path:url(#SVGID_6_);fill:#02E6FE;}
	.st47{clip-path:url(#SVGID_6_);fill:#01E7FE;}
	.st48{clip-path:url(#SVGID_6_);fill:#01E8FF;}
	.st49{clip-path:url(#SVGID_6_);fill:#00E9FF;}
	.st50{fill:url(#SVGID_7_);}
	.st51{fill:url(#SVGID_8_);}
	.st52{fill:url(#SVGID_9_);}
	.st53{fill:#55D6F6;}
	.st54{fill:#FFFFFF;}
	.st55{fill:#5A35E5;}
	.st56{fill:#D9AB74;}
	.st57{fill:#2D2183;}
	.st58{fill:#1C166D;}
	.st59{fill:#6EF8FF;}
	.st60{fill:none;stroke:#2D2183;stroke-linecap:round;stroke-miterlimit:10;}
</style>
<g>
	<g class="st0">
		<image style="overflow:visible;" width="451" height="449" xlink:href="2B381091.png" >
		</image>
	</g>
	<g>
		<linearGradient id="SVGID_1_" gradientUnits="userSpaceOnUse" x1="130.0275" y1="315.8651" x2="93.4609" y2="259.4253">
			<stop  offset="0" style="stop-color:#BC67DE"/>
			<stop  offset="0.9996" style="stop-color:#5A35E5"/>
		</linearGradient>
		<path class="st1" d="M130.753,266.952l27.307,47.061c-23.676,13.738-54.218,7.578-70.719-14.261
			c-6.942-9.188-10.791-20.346-10.99-31.86L130.753,266.952z"/>
		<linearGradient id="SVGID_2_" gradientUnits="userSpaceOnUse" x1="165.947" y1="233.4142" x2="145.279" y2="327.2153">
			<stop  offset="0" style="stop-color:#6EF8FF"/>
			<stop  offset="1" style="stop-color:#5861D6"/>
		</linearGradient>
		<path class="st2" d="M130.753,266.952l14.05-52.565c11.714,3.131,22.052,10.09,29.361,19.765
			c17.994,23.815,13.203,58.219-10.612,76.212c-1.756,1.326-3.59,2.545-5.494,3.65L130.753,266.952z"/>
		<linearGradient id="SVGID_3_" gradientUnits="userSpaceOnUse" x1="99.1638" y1="269.4832" x2="130.9608" y2="205.0942">
			<stop  offset="0" style="stop-color:#6338E2"/>
			<stop  offset="1" style="stop-color:#2D2183"/>
		</linearGradient>
		<path class="st3" d="M130.753,266.952l-54.402,0.94c-0.3-17.373,7.739-33.878,21.602-44.352
			c13.364-10.097,30.669-13.478,46.85-9.153L130.753,266.952z"/>
	</g>
	<path class="st4" d="M280.208,194.573H61.561c-3.143,0-5.692-2.548-5.692-5.692V44.988c0-3.143,2.548-5.692,5.692-5.692h218.647
		c3.143,0,5.692,2.548,5.692,5.692v143.893C285.9,192.025,283.352,194.573,280.208,194.573z"/>
	<g>
		<rect x="62.672" y="59.838" class="st5" width="56.979" height="13.463"/>
		<rect x="142.395" y="59.838" class="st6" width="56.979" height="13.463"/>
		<rect x="222.118" y="59.838" class="st7" width="56.979" height="13.463"/>
	</g>
	<g>
		<g>
			<polyline class="st8" points="73.617,87.309 73.617,183.044 268.152,183.044 			"/>
			<line class="st8" x1="73.617" y1="166.538" x2="268.152" y2="166.538"/>
			<line class="st8" x1="73.617" y1="149.733" x2="268.152" y2="149.733"/>
			<line class="st8" x1="73.617" y1="132.928" x2="268.152" y2="132.928"/>
			<line class="st8" x1="73.617" y1="116.124" x2="268.152" y2="116.124"/>
			<line class="st8" x1="73.617" y1="99.319" x2="268.152" y2="99.319"/>
		</g>
		<g>
			<polyline class="st9" points="73.617,153.005 100.571,106.742 125.043,166.538 148.077,88.131 170.885,149.733 192.498,99.319 
				210.964,142.2 246.975,77.148 268.152,166.538 			"/>
		</g>
	</g>
	<g>
		<g>
			<linearGradient id="SVGID_4_" gradientUnits="userSpaceOnUse" x1="154.1389" y1="351.931" x2="329.0012" y2="104.4043">
				<stop  offset="0" style="stop-color:#5861D6"/>
				<stop  offset="0.9997" style="stop-color:#00E9FF"/>
			</linearGradient>
			<polygon class="st10" points="96.009,310.866 88.364,298.065 234.986,210.506 286.139,236.997 366.208,173.935 375.434,185.65 
				287.815,254.656 235.503,227.565 			"/>
		</g>
		<g>
			<g>
				<g>
					<defs>
						<polygon id="SVGID_5_" points="339.997,149.88 392.675,216.765 399.769,156.997 						"/>
					</defs>
					<clipPath id="SVGID_6_">
						<use xlink:href="#SVGID_5_"  style="overflow:visible;"/>
					</clipPath>
					<polygon class="st11" points="339.997,215.94 341.164,216.765 339.997,216.765 					"/>
					<polygon class="st12" points="339.997,213.213 345.025,216.765 341.164,216.765 339.997,215.94 					"/>
					<polygon class="st13" points="339.997,210.486 348.886,216.765 345.025,216.765 339.997,213.213 					"/>
					<polygon class="st14" points="339.997,207.758 352.747,216.765 348.886,216.765 339.997,210.486 					"/>
					<polygon class="st15" points="339.997,205.031 356.608,216.765 352.747,216.765 339.997,207.758 					"/>
					<polygon class="st16" points="339.997,202.303 360.468,216.765 356.608,216.765 339.997,205.031 					"/>
					<polygon class="st17" points="339.997,199.576 364.329,216.765 360.468,216.765 339.997,202.303 					"/>
					<polygon class="st18" points="339.997,196.848 368.19,216.765 364.329,216.765 339.997,199.576 					"/>
					<polygon class="st19" points="339.997,194.121 372.051,216.765 368.19,216.765 339.997,196.848 					"/>
					<polygon class="st20" points="339.997,191.393 375.912,216.765 372.051,216.765 339.997,194.121 					"/>
					<polygon class="st21" points="339.997,188.666 379.772,216.765 375.912,216.765 339.997,191.393 					"/>
					<polygon class="st22" points="339.997,185.939 383.633,216.765 379.772,216.765 339.997,188.666 					"/>
					<polygon class="st23" points="339.997,183.211 387.494,216.765 383.633,216.765 339.997,185.939 					"/>
					<polygon class="st24" points="339.997,180.484 391.355,216.765 387.494,216.765 339.997,183.211 					"/>
					<polygon class="st25" points="339.997,177.756 395.216,216.765 391.355,216.765 339.997,180.484 					"/>
					<polygon class="st26" points="339.997,175.029 397.851,215.899 397.239,216.765 395.216,216.765 339.997,177.756 					"/>
					<polygon class="st27" points="339.997,172.301 399.136,214.08 397.851,215.899 339.997,175.029 					"/>
					<polygon class="st28" points="339.997,169.574 399.769,211.8 399.769,213.184 399.136,214.08 339.997,172.301 					"/>
					<polygon class="st29" points="339.997,166.847 399.769,209.072 399.769,211.8 339.997,169.574 					"/>
					<polygon class="st30" points="339.997,164.119 399.769,206.345 399.769,209.072 339.997,166.847 					"/>
					<polygon class="st31" points="339.997,161.392 399.769,203.618 399.769,206.345 339.997,164.119 					"/>
					<polygon class="st32" points="339.997,158.664 399.769,200.89 399.769,203.618 339.997,161.392 					"/>
					<polygon class="st33" points="339.997,155.937 399.769,198.163 399.769,200.89 339.997,158.664 					"/>
					<polygon class="st34" points="339.997,153.209 399.769,195.435 399.769,198.163 339.997,155.937 					"/>
					<polygon class="st35" points="339.997,150.482 399.769,192.708 399.769,195.435 339.997,153.209 					"/>
					<polygon class="st36" points="343.005,149.88 399.769,189.98 399.769,192.708 339.997,150.482 339.997,149.88 					"/>
					<polygon class="st37" points="346.866,149.88 399.769,187.253 399.769,189.98 343.005,149.88 					"/>
					<polygon class="st38" points="350.727,149.88 399.769,184.526 399.769,187.253 346.866,149.88 					"/>
					<polygon class="st39" points="354.587,149.88 399.769,181.798 399.769,184.526 350.727,149.88 					"/>
					<polygon class="st40" points="358.448,149.88 399.769,179.071 399.769,181.798 354.587,149.88 					"/>
					<polygon class="st41" points="362.309,149.88 399.769,176.343 399.769,179.071 358.448,149.88 					"/>
					<polygon class="st42" points="366.17,149.88 399.769,173.616 399.769,176.343 362.309,149.88 					"/>
					<polygon class="st43" points="370.031,149.88 399.769,170.888 399.769,173.616 366.17,149.88 					"/>
					<polygon class="st44" points="373.892,149.88 399.769,168.161 399.769,170.888 370.031,149.88 					"/>
					<polygon class="st45" points="377.752,149.88 399.769,165.434 399.769,168.161 373.892,149.88 					"/>
					<polygon class="st46" points="381.613,149.88 399.769,162.706 399.769,165.434 377.752,149.88 					"/>
					<polygon class="st47" points="385.474,149.88 399.769,159.979 399.769,162.706 381.613,149.88 					"/>
					<polygon class="st48" points="389.335,149.88 399.769,157.251 399.769,159.979 385.474,149.88 					"/>
					<polygon class="st49" points="393.196,149.88 399.769,154.524 399.769,157.251 389.335,149.88 					"/>
					<polygon class="st49" points="399.769,154.524 393.196,149.88 399.769,149.88 					"/>
				</g>
			</g>
		</g>
	</g>
	<g>
		<g>
			<linearGradient id="SVGID_7_" gradientUnits="userSpaceOnUse" x1="158.1982" y1="315.5841" x2="158.1982" y2="388.4992">
				<stop  offset="0" style="stop-color:#6338E2"/>
				<stop  offset="1" style="stop-color:#2D2183"/>
			</linearGradient>
			<rect x="125.084" y="316.884" class="st50" width="66.229" height="76.134"/>
			<linearGradient id="SVGID_8_" gradientUnits="userSpaceOnUse" x1="250.5759" y1="286.8572" x2="250.5759" y2="392.7699">
				<stop  offset="0" style="stop-color:#6EF8FF"/>
				<stop  offset="1" style="stop-color:#5861D6"/>
			</linearGradient>
			<rect x="217.461" y="285.266" class="st51" width="66.229" height="107.752"/>
			<linearGradient id="SVGID_9_" gradientUnits="userSpaceOnUse" x1="342.9537" y1="249.4432" x2="342.9537" y2="392.7574">
				<stop  offset="0" style="stop-color:#BC67DE"/>
				<stop  offset="0.9996" style="stop-color:#5A35E5"/>
			</linearGradient>
			<rect x="309.839" y="244.538" class="st52" width="66.229" height="148.48"/>
		</g>
		<g>
			<path class="st53" d="M260.452,264.754c0.921-0.117,1.917-0.269,2.562-0.936c0.671-0.694,0.771-1.743,0.834-2.705
				c0.17-2.59,0.599-5.331,0.378-7.887c-3.718-1.285-10.483-1.167-12.445,3.071c-0.892,1.926,0.238,6.734,0.574,8.761
				C252.731,267.328,256.483,265.256,260.452,264.754z"/>
			<path class="st53" d="M132.77,273.976c-0.369,0.252-0.786,0.571-0.781,1.018c0.002,0.198,0.091,0.383,0.181,0.56
				c1.24,2.453,2.872,4.707,4.816,6.651c0.85,0.849,1.902,1.692,3.1,1.599c1.192-0.092,2.095-1.071,2.87-1.981
				c2.018-2.371,4.036-4.741,6.055-7.112c0.857-1.007,1.764-2.148,1.721-3.47c-0.101-3.106-5.721-6.353-8.519-5.662
				C138.871,266.405,135.739,271.99,132.77,273.976z"/>
			<path class="st54" d="M236.202,64.598l3.473,0.773l2.967,4.834l1.512,14.134l-4.471,39.179l-4.731,2.703l-2.515-6.338
				C232.436,119.883,231.553,64.386,236.202,64.598z"/>
			<path class="st55" d="M239.064,64.821c-2.722-5.124-6.687-9.581-11.46-12.88c-1.269-0.877-2.749-1.946-2.731-3.488
				c0.011-0.917,0.573-1.72,0.961-2.551c0.659-1.414,0.832-3.05,0.481-4.57c-0.085-0.37-0.2-0.761-0.076-1.12
				c0.131-0.38,0.497-0.623,0.852-0.81c2.495-1.314,5.544-1.214,8.23-0.355c2.686,0.858,5.09,2.407,7.457,3.938
				c2.324,1.502,4.677,3.038,6.649,4.996c0.735,0.73,2.543,2.3,2.667,3.392c0.167,1.473-0.818,1.319-2.058,1.843
				C244.975,55.353,241.766,60.281,239.064,64.821z"/>
			<path class="st56" d="M226.066,36.698c-0.285,1.684,0.414,3.499,1.755,4.558c0.624,0.492,1.414,0.832,2.202,0.73
				c0.977-0.127,1.865-0.909,2.83-0.711c1.013,0.208,1.497,1.372,1.647,2.396c0.149,1.024,0.17,2.157,0.858,2.93
				c0.381,0.428,0.917,0.679,1.438,0.917c4.727,2.162,9.509,4.204,14.34,6.122c0.569,0.226,1.189,0.454,1.779,0.289
				c1.127-0.314,1.41-1.762,1.438-2.932c0.068-2.8-0.119-5.606-0.558-8.372c-0.187-1.178-0.382-2.513,0.351-3.454
				c0.265-0.34,0.634-0.598,0.84-0.976c0.47-0.865-0.113-1.946-0.862-2.585c-0.749-0.639-1.687-1.081-2.258-1.883
				c-0.963-1.354-0.562-3.198-0.692-4.855c-0.293-3.749-3.791-6.847-7.545-7.07c-3.754-0.223-7.417,2.171-9.106,5.531
				c-1.313,2.614-1.916,4.149-4.676,5.371C228.015,33.515,226.437,34.503,226.066,36.698z"/>
			<path class="st57" d="M225.321,48.92c1.222-1.322,1.543-3.25,1.489-5.05c-0.054-1.8-0.425-3.588-0.351-5.387
				c0.074-1.799,0.691-3.707,2.165-4.741c1.474-1.035,3.904-0.726,4.636,0.919c0.315,0.709,0.704,1.801,1.422,1.507
				c1.166-2.281-0.997-5.326,0.339-7.512c0.351-0.574,0.901-0.993,1.444-1.39c1.613-1.18,3.276-2.292,4.983-3.332
				c0.826-0.503,1.689-0.999,2.647-1.136c1.611-0.23,3.223,0.621,4.322,1.821c1.098,1.2,1.776,2.716,2.436,4.203
				c1.333-1.16,2.244-2.86,2.241-4.628c-0.003-1.768-1.011-3.552-2.623-4.276c-0.557-0.25-1.17-0.376-1.698-0.684
				c-1.775-1.034-1.908-3.579-3.255-5.129c-1.722-1.982-5.059-1.733-7.145-0.139c-0.984,0.752-1.771,1.733-2.735,2.509
				c-2.49,2.006-5.856,2.445-8.805,3.681c-3.939,1.651-7.226,4.885-8.759,8.871c-1.533,3.986-1.23,8.677,0.968,12.338
				c0.862,1.435,2.041,2.865,1.941,4.537c-0.085,1.417-1.151,3.041,0.335,4.002C222.503,50.668,224.484,49.825,225.321,48.92z"/>
			<path class="st57" d="M214.944,175.593c-0.181,3.51-1.452,6.843-2.538,10.175c-2.724,8.429-4.37,17.172-7.318,25.523
				c-1.374,3.877-2.996,7.596-4.855,11.205c-11.156,21.685-30.314,38.902-48.852,55.233c-0.626,0.564-1.376,1.149-2.21,1.038
				c-0.592-0.077-1.081-0.482-1.525-0.885c-3.995-3.59-8.005-7.196-12-10.785c-0.631-0.555-1.286-1.188-1.422-2.01
				c-0.199-1.18,0.74-2.225,1.616-3.046c4.201-3.978,8.572-7.775,12.646-11.886c5.566-5.573,10.577-11.679,15.569-17.757
				c5.431-6.594,10.919-13.323,14.095-21.257c2.777-6.939,3.625-14.488,4.432-21.917c0.546-4.845,0.774-9.746,1.001-14.631
				c0.245-5.711,0.475-11.423,1.142-17.04c1.082-9.185,15.407-3.076,20.521,0.325C211.115,161.781,215.322,168.559,214.944,175.593z
				"/>
			<path class="st58" d="M214.944,175.593c-0.181,3.51-1.452,6.843-2.538,10.175c-2.724,8.429-4.37,17.172-7.318,25.523
				c-1.374,3.877-2.996,7.596-4.855,11.205c-0.412-0.216-0.74-0.532-0.952-0.963c-0.45-0.908-0.26-1.981-0.075-2.978
				c1.559-8.811,0.694-18.179-3.358-26.155c-3.229-6.349-8.392-11.868-12.266-17.808c0.245-5.711,0.475-11.423,1.142-17.04
				c1.082-9.185,15.407-3.076,20.521,0.325C211.115,161.781,215.322,168.559,214.944,175.593z"/>
			<path class="st57" d="M268.67,259.154c-5.687,0.431-11.386,0.616-17.08,0.54c-1.317-0.01-2.823-0.143-3.567-1.212
				c-0.538-0.762-0.506-1.771-0.45-2.686c0.772-14.25,1.558-28.484,2.328-42.719c0.298-5.401,0.316-11.543-3.609-15.25
				c-1.442-1.353-3.244-2.213-5.033-3.058c-10.035-4.734-20.116-9.471-30.604-13.106c-3.343-1.149-6.797-2.245-10.11-3.575
				c-4.293-1.728-8.339-3.882-11.593-7.153c-4.562-4.584-8.307-14.344-8.171-22.775c0.054-3.842,0.913-7.406,2.883-10.072
				c2.724-3.695,10.325-4.314,14.482-5.155c7.269-1.457,14.736-1.933,22.139-1.372c1.294,0.101,2.72,0.288,3.61,1.261
				c0.833,0.908,0.942,2.264,1.123,3.489c0.121,0.806,0.29,1.585,0.523,2.339c0.131,0.485,0.293,0.958,0.456,1.43
				c2.188,6.146,7.205,11.178,11.977,15.809c9.406,9.082,18.795,18.178,28.185,27.259c1.426,1.367,2.863,2.781,3.816,4.51
				c1.209,2.178,1.548,4.717,1.8,7.188C273.971,216.237,271.312,237.802,268.67,259.154z"/>
			<path class="st58" d="M225.996,140.079c-3.944,3.432-9.451,5.087-14.621,4.194c-2.556-0.429-4.976-1.429-7.48-2.13
				c-6.059-1.682-12.845-1.505-18.283,1.626c-2.037,1.175-3.592,2.647-4.831,4.389c0.054-3.842,0.913-7.406,2.883-10.072
				c2.724-3.695,10.325-4.314,14.482-5.155c7.269-1.457,14.736-1.933,22.139-1.372c1.294,0.101,2.72,0.288,3.61,1.261
				c0.833,0.908,0.942,2.264,1.123,3.489c0.121,0.806,0.29,1.585,0.523,2.339C225.671,139.135,225.833,139.607,225.996,140.079z"/>
			<path class="st57" d="M215.203,49.559c-3.57-1.01-6.728-3.497-10.432-3.718c-4.84-0.289-8.924,3.298-12.611,6.447
				c-20.026,17.103-45.699,27.96-61.644,48.921c3.823,4.058,7.933,7.846,12.29,11.324c0.333,0.266,0.697,0.542,1.123,0.569
				c0.688,0.044,1.225-0.557,1.653-1.098c10.485-13.227,25.28-22.981,41.568-27.405c-3.256,9.433-6.536,18.978-7.465,28.914
				c-0.456,4.874-0.34,9.806-1.152,14.634c-1.307,7.766-5.002,15.314-4.086,23.136c4.54-6.457,10.57-12.337,18.187-14.408
				c11.867-3.227,24.926,3.367,36.599-0.502c4.196-1.391,8.347-4.972,7.903-9.37c-0.138-1.365-0.708-2.641-1.171-3.932
				c-5.675-15.836,4.745-33.754,0.25-49.964c-0.938-3.383-2.499-6.554-4.052-9.702c-1.67-3.386-3.388-9.806-6.117-12.362
				C223.561,48.715,218.604,50.522,215.203,49.559z"/>
			<path class="st57" d="M240.725,74.876c-0.038,1.906,0.413,3.783,0.681,5.671c2.256,15.883-8.397,31.916-4.569,47.495
				c0.131,0.535,0.291,1.088,0.662,1.496c0.384,0.423,0.944,0.635,1.488,0.811c4.476,1.451,9.272,1.469,13.978,1.473
				c6.901,0.006,13.801,0.012,20.702,0.018c0.624,0.001,1.332-0.035,1.738-0.509c0.289-0.337,0.343-0.811,0.381-1.254
				c0.327-3.787,0.412-7.594,0.256-11.391c-0.023-0.556-0.079-1.174-0.493-1.546c-0.309-0.277-0.746-0.349-1.157-0.402
				c-4.559-0.59-9.219-0.391-13.711,0.585c-2.87,0.624-5.827,1.566-8.683,0.881c-3.343-0.802-5.752-3.632-7.917-6.302
				c-0.789-0.973-1.605-2.004-1.82-3.238c-0.259-1.486,0.4-2.96,1.003-4.343c2.697-6.183,4.612-13.003,3.434-19.646
				c-0.314-1.772-0.845-3.507-1.023-5.298c-0.22-2.21,0.547-6.426-1.044-8.242C242.202,68.364,240.766,72.783,240.725,74.876z"/>
			<path class="st56" d="M124.137,110.426c-0.786,1.085-1.6,2.165-2.152,3.385c-1.091,2.411-1.078,5.156-1.045,7.802
				c0.012,0.928,0.174,2.079,1.052,2.381c0.265,0.091,0.578,0.091,0.784,0.281c0.471,0.432-0.087,1.239,0.117,1.845
				c0.309,0.92,1.96,0.612,2.363,1.495c0.183,0.401,0.021,0.916,0.271,1.278c0.302,0.438,0.978,0.351,1.455,0.116
				c0.477-0.236,0.956-0.581,1.483-0.508c0.305,0.042,0.586,0.224,0.893,0.214c0.609-0.021,0.916-0.726,1.101-1.306
				c1.452-4.545,4.206-8.666,7.851-11.745c0.393-0.332,1.003-0.648,1.367-0.285c0.158,0.157,0.2,0.394,0.224,0.616
				c0.108,1.004-0.001,2.03-0.318,2.988c-0.272,0.824-0.7,1.621-0.715,2.488c-0.015,0.867,0.603,1.838,1.469,1.792
				c0.712-0.038,1.208-0.711,1.537-1.344c1.173-2.256,1.609-4.811,2.029-7.319c0.122-0.727,0.243-1.479,0.062-2.194
				c-0.185-0.733-0.668-1.349-1.142-1.939c-0.85-1.059-1.71-2.11-2.579-3.154c-0.738-0.887-1.517-1.795-2.563-2.281
				c-0.802-0.372-1.7-0.467-2.579-0.557c-1.686-0.172-5.459-1.314-6.849-0.276c-0.681,0.508-1.255,2.082-1.733,2.799
				C125.748,108.157,124.954,109.3,124.137,110.426z"/>
			<path class="st54" d="M228.997,52.352c4.002,3.539,8.085,7.236,10.378,12.061c0.145,0.304,0.284,0.621,0.3,0.958
				c0.034,0.718-0.486,1.33-0.982,1.851c-1.271,1.333-2.599,2.61-3.98,3.828c-1.234-2.968-2.498-5.924-3.793-8.866
				c-0.673-1.529-1.357-3.059-2.216-4.491c-0.414-0.69-0.871-1.363-1.144-2.12c-0.199-0.554-0.295-1.14-0.484-1.697
				c-0.409-1.208-1.258-2.072-1.924-3.117C226.235,49.952,228.237,51.681,228.997,52.352z"/>
			<path class="st54" d="M240.753,61.958c-0.122,1.557,0.435,3.082,1.045,4.52c0.609,1.438,1.289,2.884,1.434,4.439
				c-0.89-0.114-1.769-0.316-2.618-0.604c-0.06-0.02-0.121-0.042-0.169-0.083c-0.064-0.054-0.096-0.137-0.123-0.216
				c-0.306-0.908-0.179-1.916-0.475-2.827c-0.257-0.791-1.032-1.721-0.746-2.59C239.405,63.673,240.144,62.705,240.753,61.958z"/>
			<path class="st59" d="M235.913,69.98c-0.179,0.221-0.367,0.51-0.247,0.769c0.06,0.13,0.185,0.215,0.305,0.294
				c0.658,0.433,1.316,0.865,1.975,1.298c0.251,0.165,0.522,0.336,0.823,0.331c0.338-0.006,0.626-0.232,0.886-0.448
				c0.658-0.545,1.315-1.089,1.973-1.634c0.137-0.113,0.285-0.249,0.289-0.426c0.002-0.091-0.035-0.178-0.072-0.261
				c-0.363-0.807-1.501-3.88-2.537-3.903c-0.622-0.013-1.312,1.512-1.667,1.921C237.052,68.597,236.476,69.284,235.913,69.98z"/>
			<path class="st53" d="M239.091,77.523c-0.309,2.027-1.335,3.86-2.146,5.744c-1.733,4.028-2.507,8.399-3.055,12.749
				c-0.558,4.424-0.896,8.884-0.762,13.341c0.047,1.55,0.158,3.131,0.755,4.562c0.597,1.431,1.764,2.705,3.274,3.054
				c-0.3-1.682-0.291-3.419,0.027-5.098c0.544-2.869,1.959-5.491,2.853-8.271c0.631-1.965,1-4.002,1.366-6.033
				c0.746-4.13,1.492-8.263,2.013-12.428c0.187-1.494,0.345-3.014,0.093-4.498c-0.211-1.248-0.706-2.43-0.992-3.663
				c-0.533-2.294-0.469-4.998-2.242-6.548c-0.096-0.084-0.204-0.166-0.331-0.178c-0.143-0.013-0.277,0.066-0.397,0.145
				c-0.353,0.233-1.209,0.702-1.284,1.144c-0.078,0.463,0.435,1.354,0.553,1.823C239.161,74.721,239.302,76.138,239.091,77.523z"/>
			<polygon class="st57" points="301.82,93.867 347.085,108.917 330.253,168.298 283.901,154.224 			"/>
			<polygon class="st58" points="301.82,93.867 295.403,95.295 279.305,150.13 283.901,154.224 			"/>
			<path class="st57" d="M118.168,275.689c0.261,3.745,1.323,7.431,3.094,10.741c0.229,0.427,0.52,0.888,0.991,1
				c0.333,0.079,0.677-0.039,1.015-0.09c1.665-0.25,3.175,1.195,3.725,2.786s0.426,3.323,0.557,5.002
				c0.373,4.779,2.866,9.194,6.107,12.726c3.241,3.532,7.214,6.296,11.152,9.03c0.869-1.122,0.838-2.729,0.357-4.065
				c-0.481-1.336-1.346-2.492-2.072-3.712c-3.333-5.607-3.613-12.91-0.717-18.755c0.96-1.937,2.284-3.98,1.779-6.082
				c-0.232-0.968-0.834-1.8-1.439-2.59c-2.082-2.716-6.521-9.517-10.193-9.962C131.505,271.593,118.226,276.506,118.168,275.689z"/>
			<path class="st57" d="M244.607,280.044c3.283,1.82,6.953,2.937,10.694,3.254c0.483,0.041,1.028,0.048,1.378-0.287
				c0.247-0.237,0.336-0.589,0.477-0.901c0.697-1.532,2.731-2.013,4.365-1.607c1.634,0.405,3.019,1.453,4.498,2.257
				c4.211,2.29,9.272,2.604,13.999,1.809c4.727-0.795,9.209-2.622,13.646-4.435c-0.468-1.341-1.832-2.189-3.215-2.513
				c-1.382-0.324-2.823-0.228-4.242-0.284c-6.518-0.258-12.795-4.001-16.121-9.612c-1.102-1.86-2.095-4.083-4.132-4.804
				c-0.938-0.332-1.964-0.281-2.956-0.203c-3.412,0.267-11.533,0.286-13.906,3.123C248.434,266.629,245.323,280.441,244.607,280.044
				z"/>
			<path class="st56" d="M277.611,114.878c0.95-1.642,2.874-2.486,4.749-2.775c1.874-0.289,3.79-0.131,5.677-0.319
				c0.781-0.078,1.595-0.21,2.331,0.062c0.736,0.272,1.324,1.136,0.985,1.844c-0.477,0.996-1.996,0.657-2.981,1.156
				c-0.992,0.502-1.283,1.819-1.084,2.912c0.199,1.094,0.758,2.09,1.023,3.169c0.265,1.079,0.151,2.387-0.732,3.061
				c-0.179,0.137-0.396,0.257-0.473,0.468c-0.064,0.174-0.016,0.367-0.002,0.552c0.072,0.932-0.768,1.742-1.68,1.946
				c-0.912,0.204-1.86-0.052-2.744-0.357c-0.292-0.101-0.611-0.208-0.903-0.109c-0.221,0.075-0.386,0.256-0.556,0.415
				c-1.27,1.188-3.375,1.357-4.819,0.388c-0.074-2.545-0.591-4.974-0.87-7.486C275.32,117.9,276.647,116.545,277.611,114.878z"/>
			<polyline class="st60" points="292.904,116.663 287.229,115.032 283.33,128.381 289.103,130.288 			"/>
		</g>
	</g>
</g>
</svg>
