<?xml version="1.0" encoding="UTF-8"?>
<svg width="674px" height="674px" viewBox="0 0 674 674" version="1.1" xmlns="http://www.w3.org/2000/svg" xmlns:xlink="http://www.w3.org/1999/xlink">
    <!-- Generator: Sketch 55.2 (78181) - https://sketchapp.com -->
    <title>left side</title>
    <desc>Created with Sketch.</desc>
    <defs>
        <rect id="path-1" x="0" y="0" width="1440" height="740"></rect>
        <rect id="path-3" x="0" y="0" width="1440" height="740"></rect>
    </defs>
    <g id="Page-1" stroke="none" stroke-width="1" fill="none" fill-rule="evenodd">
        <g id="dark-bg">
            <g id="left-side">
                <g id="Rectangle-Clipped">
                    <g>
                        <mask id="mask-2" fill="white">
                            <use xlink:href="#path-1"></use>
                        </mask>
                        <g id="path-2"></g>
                        <g id="Rectangle" opacity="0.200000003" mask="url(#mask-2)">
                            <g transform="translate(-533.000000, -533.000000)" id="path-4-link">
                                <g>
                                    <g id="Group" fill="#000000" fill-rule="nonzero">
                                        <path d="M684.926388,33.796203 L1172.87407,521.743885 C1217.93567,566.805489 1217.93567,639.864784 1172.87407,684.926388 L684.926388,1172.87407 C639.864784,1217.93567 566.805489,1217.93567 521.743885,1172.87407 L33.796203,684.926388 C-11.265401,639.864784 -11.265401,566.805489 33.796203,521.743885 L521.743885,33.796203 C566.805489,-11.265401 639.864784,-11.265401 684.926388,33.796203 Z" id="path-4"></path>
                                    </g>
                                    <g id="Group" fill="#413861" fill-rule="nonzero">
                                        <path d="M684.926388,33.796203 L1172.87407,521.743885 C1217.93567,566.805489 1217.93567,639.864784 1172.87407,684.926388 L684.926388,1172.87407 C639.864784,1217.93567 566.805489,1217.93567 521.743885,1172.87407 L33.796203,684.926388 C-11.265401,639.864784 -11.265401,566.805489 33.796203,521.743885 L521.743885,33.796203 C566.805489,-11.265401 639.864784,-11.265401 684.926388,33.796203 Z" id="path-4"></path>
                                    </g>
                                </g>
                            </g>
                        </g>
                    </g>
                </g>
                <g id="Rectangle-Clipped">
                    <g>
                        <mask id="mask-4" fill="white">
                            <use xlink:href="#path-3"></use>
                        </mask>
                        <g id="path-6"></g>
                        <g id="Rectangle" opacity="0.200000003" mask="url(#mask-4)">
                            <g transform="translate(-800.000000, -730.000000)" id="path-8-link">
                                <g transform="translate(825.972685, 826.015770) rotate(30.000000) translate(-825.972685, -826.015770) translate(221.972685, 222.015770)">
                                    <g id="Group" fill="#000000" fill-rule="nonzero">
                                        <path d="M685.548166,34.417981 L1173.49585,522.365663 C1218.55745,567.427267 1218.55745,640.486562 1173.49585,685.548166 L685.548166,1173.49585 C640.486562,1218.55745 567.427267,1218.55745 522.365663,1173.49585 L34.417981,685.548166 C-10.643623,640.486562 -10.643623,567.427267 34.417981,522.365663 L522.365663,34.417981 C567.427267,-10.643623 640.486562,-10.643623 685.548166,34.417981 Z" id="path-8"></path>
                                    </g>
                                    <g id="Group" fill="#413861" fill-rule="nonzero">
                                        <path d="M685.548166,34.417981 L1173.49585,522.365663 C1218.55745,567.427267 1218.55745,640.486562 1173.49585,685.548166 L685.548166,1173.49585 C640.486562,1218.55745 567.427267,1218.55745 522.365663,1173.49585 L34.417981,685.548166 C-10.643623,640.486562 -10.643623,567.427267 34.417981,522.365663 L522.365663,34.417981 C567.427267,-10.643623 640.486562,-10.643623 685.548166,34.417981 Z" id="path-8"></path>
                                    </g>
                                </g>
                            </g>
                        </g>
                    </g>
                </g>
            </g>
        </g>
    </g>
</svg>