<?xml version="1.0" encoding="UTF-8"?>
<svg width="533px" height="649px" viewBox="0 0 533 649" version="1.1" xmlns="http://www.w3.org/2000/svg" xmlns:xlink="http://www.w3.org/1999/xlink">
    <!-- Generator: Sketch 55.2 (78181) - https://sketchapp.com -->
    <title>right side</title>
    <desc>Created with Sketch.</desc>
    <defs>
        <rect id="path-1" x="0" y="0" width="1440" height="740"></rect>
        <rect id="path-3" x="0" y="0" width="1440" height="740"></rect>
    </defs>
    <g id="Page-1" stroke="none" stroke-width="1" fill="none" fill-rule="evenodd">
        <g id="dark-bg" transform="translate(-907.000000, -91.000000)">
            <g id="right-side">
                <g id="Rectangle-Clipped">
                    <g>
                        <mask id="mask-2" fill="white">
                            <use xlink:href="#path-1"></use>
                        </mask>
                        <g id="path-4"></g>
                        <g id="Rectangle" opacity="0.200000003" mask="url(#mask-2)">
                            <g transform="translate(907.000000, 67.000000)" id="path-6-link">
                                <g>
                                    <g id="Group" fill="#000000" fill-rule="nonzero">
                                        <path d="M684.92639,33.796203 L1172.87407,521.743885 C1217.93567,566.805489 1217.93567,639.864784 1172.87407,684.926388 L684.92639,1172.87407 C639.86478,1217.93567 566.80549,1217.93567 521.74388,1172.87407 L33.796203,684.926388 C-11.265401,639.864784 -11.265401,566.805489 33.796203,521.743885 L521.74388,33.796203 C566.80549,-11.265401 639.86478,-11.265401 684.92639,33.796203 Z" id="path-6"></path>
                                    </g>
                                    <g id="Group" fill="#413861" fill-rule="nonzero">
                                        <path d="M684.92639,33.796203 L1172.87407,521.743885 C1217.93567,566.805489 1217.93567,639.864784 1172.87407,684.926388 L684.92639,1172.87407 C639.86478,1217.93567 566.80549,1217.93567 521.74388,1172.87407 L33.796203,684.926388 C-11.265401,639.864784 -11.265401,566.805489 33.796203,521.743885 L521.74388,33.796203 C566.80549,-11.265401 639.86478,-11.265401 684.92639,33.796203 Z" id="path-6"></path>
                                    </g>
                                </g>
                            </g>
                        </g>
                    </g>
                </g>
                <g id="Rectangle-Clipped">
                    <g>
                        <mask id="mask-4" fill="white">
                            <use xlink:href="#path-3"></use>
                        </mask>
                        <g id="path-8"></g>
                        <g id="Rectangle" opacity="0.200000003" mask="url(#mask-4)">
                            <g transform="translate(711.000000, -251.000000)" id="path-10-link">
                                <g transform="translate(825.226697, 825.819366) rotate(-60.000000) translate(-825.226697, -825.819366) translate(221.226697, 221.819366)">
                                    <g id="Group" fill="#000000" fill-rule="nonzero">
                                        <path d="M685.54817,34.1744248 L1173.49585,522.122107 C1218.55745,567.183711 1218.55745,640.243006 1173.49585,685.30461 L685.54817,1173.25229 C640.48656,1218.3139 567.42727,1218.3139 522.36566,1173.25229 L34.417981,685.30461 C-10.643623,640.243006 -10.643623,567.183711 34.417981,522.122107 L522.36566,34.1744248 C567.42727,-10.8871793 640.48656,-10.8871793 685.54817,34.1744248 Z" id="path-10"></path>
                                    </g>
                                    <g id="Group" fill="#413861" fill-rule="nonzero">
                                        <path d="M685.54817,34.1744248 L1173.49585,522.122107 C1218.55745,567.183711 1218.55745,640.243006 1173.49585,685.30461 L685.54817,1173.25229 C640.48656,1218.3139 567.42727,1218.3139 522.36566,1173.25229 L34.417981,685.30461 C-10.643623,640.243006 -10.643623,567.183711 34.417981,522.122107 L522.36566,34.1744248 C567.42727,-10.8871793 640.48656,-10.8871793 685.54817,34.1744248 Z" id="path-10"></path>
                                    </g>
                                </g>
                            </g>
                        </g>
                    </g>
                </g>
            </g>
        </g>
    </g>
</svg>