<?xml version="1.0" encoding="UTF-8"?>
<svg width="165px" height="282px" viewBox="0 0 165 282" version="1.1" xmlns="http://www.w3.org/2000/svg" xmlns:xlink="http://www.w3.org/1999/xlink">
    <!-- Generator: Sketch 55.2 (78181) - https://sketchapp.com -->
    <title>dark-hero-bg-1-mobile--right Clipped</title>
    <desc>Created with Sketch.</desc>
    <defs>
        <rect id="path-1" x="0" y="0" width="375" height="440"></rect>
        <rect id="path-3" x="0" y="0" width="260" height="440"></rect>
        <rect id="path-5" x="0" y="0" width="260" height="440"></rect>
    </defs>
    <g id="Page-1" stroke="none" stroke-width="1" fill="none" fill-rule="evenodd">
        <g id="1" transform="translate(-210.000000, -158.000000)">
            <g id="dark-hero-bg-1-mobile--right-Clipped">
                <mask id="mask-2" fill="white">
                    <use xlink:href="#path-1"></use>
                </mask>
                <g id="path-2"></g>
                <g id="dark-hero-bg-1-mobile--right" mask="url(#mask-2)">
                    <g transform="translate(115.000000, 0.000000)" id="Group">
                        <g>
                            <g id="Rectangle-Clipped">
                                <mask id="mask-4" fill="white">
                                    <use xlink:href="#path-3"></use>
                                </mask>
                                <g id="path-10"></g>
                                <g id="Rectangle" opacity="0.200000003" mask="url(#mask-4)">
                                    <g transform="translate(95.000000, 103.000000)" id="path-12-link">
                                        <g>
                                            <path d="M342.272965,16.888715 L586.111285,260.727035 C608.629572,283.245322 608.629572,319.754678 586.111285,342.272965 L342.272965,586.111285 C319.754678,608.629572 283.245322,608.629572 260.727035,586.111285 L16.888715,342.272965 C-5.6295717,319.754678 -5.6295717,283.245322 16.888715,260.727035 L260.727035,16.888715 C283.245322,-5.6295717 319.754678,-5.6295717 342.272965,16.888715 Z" id="path-12" fill="#000000" fill-rule="nonzero"></path>
                                        </g>
                                        <g>
                                            <path d="M342.272965,16.888715 L586.111285,260.727035 C608.629572,283.245322 608.629572,319.754678 586.111285,342.272965 L342.272965,586.111285 C319.754678,608.629572 283.245322,608.629572 260.727035,586.111285 L16.888715,342.272965 C-5.6295717,319.754678 -5.6295717,283.245322 16.888715,260.727035 L260.727035,16.888715 C283.245322,-5.6295717 319.754678,-5.6295717 342.272965,16.888715 Z" id="path-12" fill="#413861"></path>
                                        </g>
                                    </g>
                                </g>
                            </g>
                            <g id="Rectangle-Clipped">
                                <mask id="mask-6" fill="white">
                                    <use xlink:href="#path-5"></use>
                                </mask>
                                <g id="path-10"></g>
                                <g id="Rectangle" opacity="0.200000003" mask="url(#mask-6)">
                                    <g transform="translate(409.500000, 356.500000) rotate(-60.000000) translate(-409.500000, -356.500000) translate(108.000000, 55.000000)" id="path-14-link">
                                        <g>
                                            <path d="M342.272965,16.8887151 L586.111285,260.727035 C608.629572,283.245322 608.629572,319.754678 586.111285,342.272965 L342.272965,586.111285 C319.754678,608.629572 283.245322,608.629572 260.727035,586.111285 L16.888715,342.272965 C-5.629572,319.754678 -5.629572,283.245322 16.888715,260.727035 L260.727035,16.8887151 C283.245322,-5.6295717 319.754678,-5.6295717 342.272965,16.8887151 Z" id="path-14" fill="#000000" fill-rule="nonzero"></path>
                                        </g>
                                        <g>
                                            <path d="M342.272965,16.8887151 L586.111285,260.727035 C608.629572,283.245322 608.629572,319.754678 586.111285,342.272965 L342.272965,586.111285 C319.754678,608.629572 283.245322,608.629572 260.727035,586.111285 L16.888715,342.272965 C-5.629572,319.754678 -5.629572,283.245322 16.888715,260.727035 L260.727035,16.8887151 C283.245322,-5.6295717 319.754678,-5.6295717 342.272965,16.8887151 Z" id="path-14" fill="#413861"></path>
                                        </g>
                                    </g>
                                </g>
                            </g>
                        </g>
                    </g>
                </g>
            </g>
        </g>
    </g>
</svg>
